<svg width="92" height="33" viewBox="0 0 92 33" fill="none" xmlns="http://www.w3.org/2000/svg">
<path d="M32.2659 26.4096L33.6305 30.0635L34.9976 26.4096H35.711V30.8887H35.1592V29.1438L35.2114 27.2622L33.8393 30.8887H33.4168L32.0472 27.2721L32.1019 29.1463V30.8912H31.55V26.4121H32.2609L32.2659 26.4096Z" fill="#969FB2"/>
<path d="M38.4774 30.9509C38.0574 30.9509 37.7144 30.8017 37.4509 30.5059C37.1874 30.2101 37.0557 29.8124 37.0557 29.3178V29.2134C37.0557 28.8828 37.1153 28.5895 37.2321 28.3285C37.349 28.07 37.513 27.8662 37.7268 27.7195C37.9381 27.5729 38.1667 27.5008 38.4128 27.5008C38.8155 27.5008 39.1312 27.6425 39.3549 27.9283C39.5786 28.2142 39.6904 28.6218 39.6904 29.1513V29.3874H37.5876C37.595 29.7155 37.6845 29.9815 37.856 30.1828C38.0275 30.3841 38.2438 30.486 38.5098 30.486C38.6962 30.486 38.8553 30.4438 38.987 30.3618C39.1163 30.2797 39.2306 30.1704 39.3275 30.0362L39.6507 30.3071C39.3897 30.7346 38.9994 30.9509 38.4799 30.9509H38.4774ZM38.4128 27.9656C38.1991 27.9656 38.0176 28.0501 37.8734 28.2167C37.7293 28.3832 37.6373 28.6169 37.6025 28.9201H39.1585V28.8778C39.1436 28.5895 39.0715 28.3658 38.9398 28.2067C38.8105 28.0476 38.634 27.9681 38.4128 27.9681V27.9656Z" fill="#969FB2"/>
<path d="M40.7617 29.1959C40.7617 28.6863 40.8736 28.2737 41.0998 27.963C41.326 27.6523 41.6217 27.4982 41.9871 27.4982C42.3525 27.4982 42.6384 27.6324 42.8497 27.8984V26.1634H43.3816V30.8861H42.8944L42.8695 30.5282C42.6583 30.8066 42.3625 30.9458 41.9822 30.9458C41.6019 30.9458 41.3284 30.7892 41.1022 30.471C40.8761 30.1553 40.7617 29.7427 40.7617 29.2356V29.1934V29.1959ZM41.2936 29.2605C41.2936 29.6383 41.3657 29.9341 41.5124 30.1454C41.6565 30.3592 41.8579 30.466 42.1139 30.466C42.4495 30.466 42.6955 30.3045 42.8521 29.9788V28.4502C42.6931 28.137 42.4495 27.9804 42.1214 27.9804C41.8604 27.9804 41.659 28.0873 41.5124 28.3035C41.3682 28.5198 41.2936 28.8379 41.2936 29.2605Z" fill="#969FB2"/>
<path d="M44.7959 26.678C44.7959 26.5861 44.8232 26.509 44.8754 26.4444C44.9276 26.3798 45.0047 26.3499 45.1091 26.3499C45.2135 26.3499 45.2905 26.3823 45.3452 26.4444C45.3999 26.5065 45.4248 26.5861 45.4248 26.678C45.4248 26.77 45.3974 26.8471 45.3452 26.9092C45.2905 26.9714 45.2135 27.0012 45.1091 27.0012C45.0047 27.0012 44.9276 26.9714 44.8754 26.9092C44.8232 26.8471 44.7959 26.77 44.7959 26.678ZM45.3701 30.8887H44.8382V27.5604H45.3701V30.8887Z" fill="#969FB2"/>
<path d="M48.052 30.4858C48.2409 30.4858 48.4074 30.4237 48.5491 30.3019C48.6908 30.1801 48.7678 30.026 48.7852 29.8396H49.2873C49.2774 30.031 49.2177 30.2124 49.1034 30.3839C48.9915 30.5554 48.8399 30.6946 48.651 30.7965C48.4621 30.8985 48.2633 30.9507 48.052 30.9507C47.6294 30.9507 47.2939 30.799 47.0428 30.4983C46.7943 30.195 46.6675 29.7824 46.6675 29.2579V29.1635C46.6675 28.8404 46.7222 28.552 46.834 28.2985C46.9459 28.045 47.105 27.8511 47.3113 27.7119C47.5176 27.5727 47.7636 27.5031 48.047 27.5031C48.395 27.5031 48.6858 27.6149 48.9145 27.8387C49.1457 28.0624 49.2675 28.3532 49.2824 28.7086H48.7803C48.7654 28.4924 48.6883 28.3159 48.5516 28.1792C48.4149 28.04 48.2459 27.9704 48.0445 27.9704C47.7761 27.9704 47.5648 28.0748 47.4181 28.2836C47.269 28.4924 47.1944 28.7931 47.1944 29.1859V29.2927C47.1944 29.6755 47.269 29.9713 47.4157 30.1776C47.5623 30.3839 47.7736 30.4883 48.047 30.4883L48.052 30.4858Z" fill="#969FB2"/>
<path d="M52.387 30.8887C52.3572 30.8241 52.3323 30.7073 52.3124 30.5382C52.0664 30.8142 51.7706 30.9509 51.4276 30.9509C51.1218 30.9509 50.8708 30.8589 50.6744 30.6725C50.478 30.486 50.3811 30.2524 50.3811 29.9666C50.3811 29.6211 50.5054 29.3501 50.749 29.1587C50.9951 28.9673 51.3406 28.8704 51.7855 28.8704H52.3025V28.6094C52.3025 28.4105 52.2478 28.2515 52.136 28.1346C52.0241 28.0178 51.8625 27.9582 51.6463 27.9582C51.4574 27.9582 51.2983 28.0104 51.169 28.1123C51.0398 28.2142 50.9777 28.3385 50.9777 28.4851H50.4432C50.4432 28.3186 50.4979 28.1595 50.6073 28.0029C50.7167 27.8463 50.8658 27.7245 51.0547 27.635C51.2436 27.5455 51.4499 27.5008 51.6761 27.5008C52.034 27.5008 52.3149 27.5953 52.5163 27.7891C52.7176 27.983 52.8245 28.244 52.8319 28.5821V30.1132C52.8319 30.4189 52.8692 30.6625 52.9413 30.8415V30.8912H52.3845L52.387 30.8887ZM51.5046 30.4537C51.6711 30.4537 51.8277 30.4065 51.9794 30.3145C52.1285 30.2226 52.2379 30.1033 52.3025 29.9541V29.2706H51.8874C51.2362 29.2706 50.913 29.4744 50.913 29.882C50.913 30.061 50.9677 30.2002 51.0796 30.2996C51.1914 30.3991 51.3331 30.4513 51.5071 30.4513L51.5046 30.4537Z" fill="#969FB2"/>
<path d="M54.8304 30.8887H54.2985V26.166H54.8304V30.8887Z" fill="#969FB2"/>
<path d="M61.467 29.4668C61.4148 29.9416 61.2532 30.3069 60.9773 30.563C60.7039 30.8215 60.3385 30.9482 59.8836 30.9482C59.389 30.9482 58.9938 30.7593 58.698 30.379C58.3997 29.9987 58.2531 29.4917 58.2531 28.8578V28.4278C58.2531 28.0127 58.3227 27.6448 58.4618 27.3292C58.601 27.0135 58.7974 26.7699 59.0509 26.6009C59.3045 26.4318 59.6003 26.3473 59.9358 26.3473C60.3808 26.3473 60.7362 26.4791 61.0022 26.745C61.2681 27.011 61.4272 27.3789 61.4695 27.8487H60.9152C60.8679 27.4907 60.7635 27.2322 60.6045 27.0707C60.4454 26.9116 60.2217 26.8295 59.9333 26.8295C59.5804 26.8295 59.3045 26.9687 59.1056 27.2471C58.9068 27.5255 58.8049 27.9232 58.8049 28.4377V28.8727C58.8049 29.3599 58.8993 29.7452 59.0882 30.0335C59.2771 30.3219 59.5431 30.4635 59.8836 30.4635C60.1894 30.4635 60.4255 30.389 60.5871 30.2398C60.7511 30.0907 60.858 29.8322 60.9127 29.4643H61.467V29.4668Z" fill="#969FB2"/>
<path d="M63.2989 30.8887H62.767V26.166H63.2989V30.8887Z" fill="#969FB2"/>
<path d="M64.7405 26.678C64.7405 26.5861 64.7678 26.509 64.82 26.4444C64.8722 26.3798 64.9518 26.3499 65.0537 26.3499C65.1556 26.3499 65.2351 26.3823 65.2898 26.4444C65.342 26.509 65.3693 26.5861 65.3693 26.678C65.3693 26.77 65.342 26.8471 65.2898 26.9092C65.2351 26.9714 65.1581 27.0012 65.0537 27.0012C64.9493 27.0012 64.8722 26.9714 64.82 26.9092C64.7678 26.8471 64.7405 26.77 64.7405 26.678ZM65.3122 30.8887H64.7802V27.5604H65.3122V30.8887Z" fill="#969FB2"/>
<path d="M67.2536 27.5603L67.271 27.9779C67.5071 27.6573 67.8178 27.4982 68.2006 27.4982C68.8568 27.4982 69.1874 27.8959 69.1924 28.6888V30.8886H68.6605V28.6863C68.6605 28.4477 68.6083 28.2687 68.5064 28.1544C68.4069 28.0401 68.2503 27.9829 68.0366 27.9829C67.8651 27.9829 67.7134 28.0326 67.5842 28.1296C67.4549 28.229 67.353 28.3582 67.2809 28.5173V30.8886H66.749V27.5603H67.2511H67.2536Z" fill="#969FB2"/>
<path d="M70.5844 26.678C70.5844 26.5861 70.6117 26.509 70.6639 26.4444C70.7161 26.3798 70.7956 26.3499 70.8975 26.3499C70.9995 26.3499 71.079 26.3823 71.1337 26.4444C71.1859 26.509 71.2132 26.5861 71.2132 26.678C71.2132 26.77 71.1859 26.8471 71.1337 26.9092C71.079 26.9714 71.0019 27.0012 70.8975 27.0012C70.7931 27.0012 70.7161 26.9714 70.6639 26.9092C70.6117 26.8471 70.5844 26.77 70.5844 26.678ZM71.1585 30.8887H70.6266V27.5604H71.1585V30.8887Z" fill="#969FB2"/>
<path d="M73.8404 30.4858C74.0293 30.4858 74.1959 30.4237 74.3376 30.3019C74.4792 30.1801 74.5563 30.026 74.5737 29.8396H75.0758C75.0658 30.031 75.0062 30.2124 74.8919 30.3839C74.78 30.5554 74.6284 30.6946 74.4395 30.7965C74.2506 30.8985 74.0517 30.9507 73.8404 30.9507C73.4179 30.9507 73.0823 30.799 72.8313 30.4983C72.5827 30.195 72.4559 29.7824 72.4559 29.2579V29.1635C72.4559 28.8404 72.5106 28.552 72.6225 28.2985C72.7343 28.045 72.8934 27.8511 73.0997 27.7119C73.306 27.5727 73.5521 27.5031 73.8355 27.5031C74.1835 27.5031 74.4743 27.6149 74.7029 27.8387C74.9341 28.0624 75.0559 28.3532 75.0708 28.7086H74.5687C74.5538 28.4924 74.4768 28.3159 74.34 28.1792C74.2033 28.04 74.0343 27.9704 73.833 27.9704C73.5645 27.9704 73.3532 28.0748 73.2066 28.2836C73.0575 28.4924 72.9829 28.7931 72.9829 29.1859V29.2927C72.9829 29.6755 73.0575 29.9713 73.2041 30.1776C73.3508 30.3839 73.562 30.4883 73.8355 30.4883L73.8404 30.4858Z" fill="#969FB2"/>
<path d="M37.0757 19.2731H34.0407V22.0321C34.4086 22.1788 34.6621 22.3304 34.7988 22.487L34.6597 23.6329H31.4308L31.2916 22.487C31.4109 22.3304 31.6645 22.1788 32.0497 22.0321V15.7261C31.6719 15.5869 31.4184 15.4328 31.2916 15.2563L31.4308 14.1104H34.6597L34.7988 15.2563C34.6522 15.4303 34.3987 15.5869 34.0407 15.7261V17.8936H37.0757V15.7261C36.6979 15.5869 36.4443 15.4328 36.3176 15.2563L36.4568 14.1104H39.6856L39.8248 15.2563C39.6781 15.4303 39.4246 15.5869 39.0667 15.7261V22.0321C39.4346 22.1788 39.6881 22.3304 39.8248 22.487L39.6856 23.6329H36.4568L36.3176 22.487C36.4369 22.3304 36.6904 22.1788 37.0757 22.0321V19.2731Z" fill="#969FB2"/>
<path d="M43.9336 23.7422C42.8299 23.7422 41.9997 23.4489 41.443 22.8598C40.8862 22.2707 40.6078 21.4157 40.6078 20.2921C40.6078 19.6111 40.7047 19.0245 40.8986 18.5323C41.0925 18.0402 41.3535 17.6599 41.6841 17.3939C42.3278 16.8794 43.0785 16.6209 43.9336 16.6209C44.7886 16.6209 45.4448 16.8396 45.8997 17.2771C46.3546 17.7146 46.5832 18.4975 46.5832 19.631C46.5832 20.2921 46.2576 20.6252 45.6039 20.6252H42.6087C42.646 21.2044 42.7951 21.6145 43.0561 21.8531C43.3171 22.0917 43.7347 22.2111 44.3039 22.2111C44.6171 22.2111 44.9154 22.1738 45.2012 22.1017C45.4871 22.0271 45.6934 21.955 45.8226 21.8805L46.0165 21.7711L46.4316 22.8747C46.3769 22.9393 46.2949 23.0189 46.1905 23.1158C46.0836 23.2128 45.8177 23.342 45.3901 23.5011C44.9626 23.6627 44.4779 23.7422 43.9336 23.7422ZM44.8035 19.3973C44.8209 19.2681 44.8309 19.1115 44.8309 18.9275C44.8309 18.7436 44.7563 18.5472 44.6097 18.3409C44.463 18.1346 44.207 18.0302 43.8441 18.0302C43.4812 18.0302 43.2028 18.1396 43.0089 18.3608C42.815 18.582 42.6858 18.9549 42.6236 19.4793L44.8035 19.3973Z" fill="#969FB2"/>
<path d="M47.5627 17.7543C47.5627 17.6151 47.5677 17.4685 47.5776 17.3119C48.4327 16.852 49.3524 16.6209 50.3367 16.6209C51.321 16.6209 52.0269 16.8073 52.4544 17.1801C52.882 17.553 53.0957 18.1719 53.0957 19.0369V21.9774C53.4164 22.042 53.6699 22.1191 53.8538 22.2111V23.4116C53.3841 23.6328 52.7129 23.7422 51.838 23.7422C51.746 23.5036 51.6665 23.2128 51.6043 22.8722C51.2091 23.4514 50.4908 23.7422 49.4518 23.7422C48.8354 23.7422 48.3084 23.5632 47.8709 23.2028C47.4335 22.8449 47.2147 22.3577 47.2147 21.7413C47.2147 21.1248 47.4185 20.6401 47.8287 20.2847C48.2388 19.9292 48.8478 19.7528 49.6581 19.7528H51.1619V19.0916C51.1619 18.3732 50.7791 18.0153 50.016 18.0153C49.7302 18.0153 49.4965 18.0427 49.3126 18.0973C49.2952 18.4826 49.238 18.7834 49.1461 18.9946H47.7939C47.6373 18.6715 47.5602 18.2589 47.5602 17.7518L47.5627 17.7543ZM50.0459 22.3353C50.5156 22.3353 50.8885 22.1986 51.1644 21.9202V20.7893H50.1975C49.5363 20.7893 49.2032 21.0428 49.2032 21.5474C49.2032 21.7786 49.2753 21.965 49.417 22.1141C49.5587 22.2608 49.7699 22.3353 50.0459 22.3353Z" fill="#969FB2"/>
<path d="M58.492 18.4306C57.7936 18.4306 57.3089 18.5649 57.0429 18.8308V21.9901C57.7886 22.1293 58.2981 22.3206 58.574 22.5692L58.4348 23.6306H54.4877L54.351 22.5692C54.4802 22.3952 54.7337 22.2386 55.1091 22.0994V18.2641C54.7859 18.1547 54.5349 17.9981 54.351 17.7943L54.4877 16.733C54.9947 16.6236 55.4496 16.5664 55.8548 16.5664C56.2599 16.5664 56.5955 16.5764 56.8614 16.5938V17.4637C57.0727 17.2152 57.3437 17.0113 57.6767 16.8498C58.0073 16.6882 58.3081 16.6087 58.5815 16.6087C58.8549 16.6087 59.0388 16.631 59.1408 16.6783L59.0985 18.4729C58.9146 18.4455 58.7132 18.4306 58.492 18.4306Z" fill="#969FB2"/>
<path d="M62.2153 14.9954V16.7328H64.1889V17.8912H62.2153V21.381C62.2153 21.6743 62.2576 21.8905 62.3396 22.0223C62.4216 22.1565 62.6205 22.2236 62.9337 22.2236C63.2468 22.2236 63.5824 22.154 63.9403 22.0173L64.3554 23.0936C63.647 23.4515 62.9237 23.633 62.183 23.633C61.4423 23.633 60.9402 23.4739 60.6792 23.1557C60.4182 22.8376 60.2865 22.3752 60.2865 21.7687V17.8912H59.6651L59.5134 17.0485C59.6601 16.8745 59.9633 16.698 60.4232 16.5241C60.5325 15.7709 60.796 15.2589 61.2086 14.9929H62.2153V14.9954Z" fill="#969FB2"/>
<path d="M70.0526 15.7411C69.7767 15.6218 69.3616 15.5622 68.8098 15.5622C68.258 15.5622 67.8105 15.8008 67.4725 16.2805C67.132 16.7577 66.9629 17.5954 66.9629 18.791C66.9629 19.9866 67.127 20.8367 67.4526 21.3363C67.7782 21.8384 68.2654 22.0894 68.9092 22.0894C69.8935 22.0894 70.7759 21.9428 71.5589 21.647L72.056 22.8749C71.0816 23.454 69.9358 23.7449 68.6209 23.7449C67.306 23.7449 66.3564 23.372 65.7723 22.6263C65.1882 21.8806 64.8949 20.6627 64.8949 18.97C64.8949 17.2772 65.2553 16.027 65.9786 15.2167C66.6995 14.4063 67.7161 14.0012 69.021 14.0012C70.07 14.0012 71.0667 14.292 72.0162 14.8712V15.1893C72.0162 15.3459 71.9839 15.6119 71.9193 15.9897C71.8547 16.3675 71.7627 16.6757 71.6434 16.9143H70.3335C70.2042 16.6658 70.1122 16.2755 70.0575 15.7411H70.0526Z" fill="#969FB2"/>
<path d="M72.9782 17.7543C72.9782 17.6151 72.9832 17.4685 72.9931 17.3119C73.8482 16.852 74.7679 16.6209 75.7522 16.6209C76.7365 16.6209 77.4424 16.8073 77.87 17.1801C78.2975 17.553 78.5113 18.1719 78.5113 19.0369V21.9774C78.8319 22.042 79.0854 22.1191 79.2694 22.2111V23.4116C78.7996 23.6328 78.1285 23.7422 77.2535 23.7422C77.1616 23.5036 77.082 23.2128 77.0199 22.8722C76.6247 23.4514 75.9063 23.7422 74.8673 23.7422C74.2509 23.7422 73.7239 23.5632 73.2865 23.2028C72.849 22.8449 72.6302 22.3577 72.6302 21.7413C72.6302 21.1248 72.8341 20.6401 73.2442 20.2847C73.6543 19.9292 74.2633 19.7528 75.0736 19.7528H76.5774V19.0916C76.5774 18.3732 76.1946 18.0153 75.4316 18.0153C75.1457 18.0153 74.9121 18.0427 74.7281 18.0973C74.7107 18.4826 74.6535 18.7834 74.5616 18.9946H73.2094C73.0528 18.6715 72.9757 18.2589 72.9757 17.7518L72.9782 17.7543ZM75.4639 22.3353C75.9336 22.3353 76.3065 22.1986 76.5824 21.9202V20.7893H75.6155C74.9543 20.7893 74.6212 21.0428 74.6212 21.5474C74.6212 21.7786 74.6933 21.965 74.835 22.1141C74.9767 22.2608 75.188 22.3353 75.4639 22.3353Z" fill="#969FB2"/>
<path d="M83.9075 18.4306C83.2091 18.4306 82.7244 18.5649 82.4584 18.8308V21.9901C83.2041 22.1293 83.7137 22.3206 83.9896 22.5692L83.8504 23.6306H79.9032L79.7665 22.5692C79.8957 22.3952 80.1493 22.2386 80.5246 22.0994V18.2641C80.2015 18.1547 79.9504 17.9981 79.7665 17.7943L79.9032 16.733C80.4103 16.6236 80.8651 16.5664 81.2703 16.5664C81.6754 16.5664 82.011 16.5764 82.277 16.5938V17.4637C82.4882 17.2152 82.7592 17.0113 83.0923 16.8498C83.4228 16.6882 83.7236 16.6087 83.997 16.6087C84.2704 16.6087 84.4544 16.631 84.5563 16.6783L84.514 18.4729C84.3301 18.4455 84.1288 18.4306 83.9075 18.4306Z" fill="#969FB2"/>
<path d="M88.4338 23.7422C87.3302 23.7422 86.5 23.4489 85.9432 22.8598C85.3864 22.2707 85.108 21.4157 85.108 20.2921C85.108 19.6111 85.205 19.0245 85.3989 18.5323C85.5927 18.0402 85.8537 17.6599 86.1843 17.3939C86.8281 16.8794 87.5787 16.6209 88.4338 16.6209C89.2889 16.6209 89.9451 16.8396 90.3999 17.2771C90.8548 17.7146 91.0835 18.4975 91.0835 19.631C91.0835 20.2921 90.7579 20.6252 90.1042 20.6252H87.109C87.1463 21.2044 87.2954 21.6145 87.5564 21.8531C87.8174 22.0917 88.235 22.2111 88.8042 22.2111C89.1174 22.2111 89.4156 22.1738 89.7015 22.1017C89.9873 22.0271 90.1936 21.955 90.3229 21.8805L90.5168 21.7711L90.9319 22.8747C90.8772 22.9393 90.7952 23.0189 90.6908 23.1158C90.5839 23.2128 90.3179 23.342 89.8904 23.5011C89.4629 23.6602 88.9782 23.7422 88.4338 23.7422ZM89.3013 19.3973C89.3187 19.2681 89.3286 19.1115 89.3286 18.9275C89.3286 18.7436 89.2541 18.5472 89.1074 18.3409C88.9608 18.1346 88.7047 18.0302 88.3418 18.0302C87.9789 18.0302 87.7006 18.1396 87.5067 18.3608C87.3128 18.582 87.1835 18.9549 87.1214 19.4793L89.3013 19.3973Z" fill="#969FB2"/>
<path d="M9.54978 24.5056L16.6438 17.429C16.6438 17.429 17.7126 9.12949 9.54978 12.4304L8.63507 13.0618C8.63507 13.0618 4.54124 9.32337 2.12521 13.5962C-0.290826 17.869 7.33757 23.7425 7.33757 23.7425L9.54978 24.5056Z" fill="#969FB2"/>
<path d="M26.2779 14.2472H22.368C22.368 14.2472 22.4227 17.6252 24.3242 17.4288C26.2257 17.2325 26.2804 14.2472 26.2804 14.2472H26.2779Z" fill="#969FB2"/>
<path d="M1.75727 12.0649C-0.251121 14.0733 -0.251121 17.3419 1.75727 19.3503L8.04094 25.634V28.9374C8.04094 30.8637 9.60689 32.4297 11.5333 32.4297C13.4596 32.4297 15.0256 30.8637 15.0256 28.9374V27.799C15.0256 26.9066 15.7514 26.1808 16.6437 26.1808C17.536 26.1808 18.2619 26.9066 18.2619 27.799V28.9374C18.2619 30.8637 19.8278 32.4297 21.7542 32.4297C23.6805 32.4297 25.2465 30.8637 25.2465 28.9374V18.4083C26.3526 18.0503 27.1952 17.0809 27.3468 15.8754L27.5755 14.0485C28.1472 13.7676 28.6841 13.4146 29.1738 12.9896C30.5235 11.8188 31.4059 10.2007 31.6594 8.43093L32.0894 5.41338C32.1118 5.26175 32.1217 5.10516 32.1217 4.95105C32.1217 3.14648 30.6552 1.67996 28.8506 1.67996H28.3734V1.36677C28.3734 0.849759 27.9533 0.429688 27.4363 0.429688C26.9193 0.429688 26.4992 0.849759 26.4992 1.36677V3.86731C26.4992 4.38433 26.9193 4.8044 27.4363 4.8044C27.9533 4.8044 28.3734 4.38433 28.3734 3.86731V3.55412H28.8506C29.6212 3.55412 30.2476 4.1805 30.2476 4.95105C30.2476 5.01568 30.2426 5.08279 30.2326 5.14741L29.8026 8.16497C29.4149 10.8818 27.0535 12.9274 24.3094 12.9274C21.5653 12.9274 19.2039 10.8793 18.8161 8.16497L18.3861 5.14741C18.3762 5.08279 18.3712 5.01568 18.3712 4.95105C18.3712 4.1805 18.9976 3.55412 19.7681 3.55412H20.2454V3.86731C20.2454 4.38433 20.6655 4.8044 21.1825 4.8044C21.6995 4.8044 22.1195 4.38433 22.1195 3.86731V1.36677C22.1195 0.849759 21.6995 0.429688 21.1825 0.429688C20.6655 0.429688 20.2454 0.849759 20.2454 1.36677V1.67996H19.7681C17.9636 1.67996 16.4971 3.14648 16.4971 4.95105C16.4971 5.10516 16.507 5.26175 16.5294 5.41338L16.9594 8.43093C17.2129 10.2007 18.0953 11.8188 19.445 12.9896C19.9322 13.4121 20.4716 13.7676 21.0433 14.0485L21.2719 15.8754C21.4236 17.0809 22.2662 18.0528 23.3723 18.4083V28.9374C23.3723 29.8297 22.6465 30.5555 21.7542 30.5555C20.8618 30.5555 20.136 29.8297 20.136 28.9374V27.799C20.136 25.8726 18.5701 24.3067 16.6437 24.3067C14.7173 24.3067 13.1514 25.8726 13.1514 27.799V28.9374C13.1514 29.8297 12.4256 30.5555 11.5333 30.5555C10.6409 30.5555 9.91511 29.8297 9.91511 28.9374V25.629L16.1938 19.3503C17.1657 18.3784 17.7026 17.0834 17.7026 15.7064C17.7026 14.3293 17.1657 13.0368 16.1938 12.0624C14.2078 10.0764 10.9889 10.054 8.97554 11.9978C6.96218 10.054 3.74329 10.0764 1.75727 12.0624V12.0649ZM23.1362 15.6417L23.0169 14.6922C23.4419 14.7668 23.8769 14.8066 24.3119 14.8066C24.7469 14.8066 25.1818 14.7668 25.6069 14.6922L25.4876 15.6417C25.413 16.2333 24.9084 16.6807 24.3094 16.6807C23.7104 16.6807 23.2058 16.2333 23.1312 15.6417H23.1362ZM8.03846 18.3685C8.03846 17.8515 8.45853 17.4314 8.97554 17.4314C9.49255 17.4314 9.91262 17.8515 9.91262 18.3685C9.91262 18.8855 9.49255 19.3056 8.97554 19.3056C8.45853 19.3056 8.03846 18.8855 8.03846 18.3685ZM3.08459 13.3898C4.36221 12.1122 6.4402 12.1122 7.71781 13.3898L8.31436 13.9863C8.49084 14.1628 8.72946 14.2597 8.97802 14.2597C9.22659 14.2597 9.46521 14.1603 9.64169 13.9863L10.2382 13.3898C10.877 12.751 11.7172 12.4328 12.5548 12.4328C13.3925 12.4328 14.2326 12.751 14.8715 13.3898C15.4904 14.0087 15.8309 14.8314 15.8309 15.7064C15.8309 16.5813 15.4904 17.4041 14.8715 18.023L9.91759 22.9768V21.0182C11.0088 20.6304 11.7893 19.5889 11.7893 18.3685C11.7893 16.8174 10.5266 15.5547 8.97554 15.5547C7.42451 15.5547 6.16181 16.8174 6.16181 18.3685C6.16181 19.5914 6.94726 20.6354 8.03846 21.0206V22.9818L3.07962 18.023C1.80201 16.7454 1.80201 14.6674 3.07962 13.3898H3.08459Z" fill="#969FB2"/>
</svg>
