<svg width="58" height="33" viewBox="0 0 58 33" fill="none" xmlns="http://www.w3.org/2000/svg">
<g clip-path="url(#clip0_9478_5825)">
<path d="M31.7737 13.5597C32.0537 12.3797 31.3236 11.1997 30.1436 10.9197C28.9636 10.6397 27.7837 11.3697 27.5037 12.5497C27.2237 13.7297 27.9536 14.9097 29.1336 15.1897C30.3136 15.4697 31.4937 14.7397 31.7737 13.5597Z" fill="#969FB2"/>
<path d="M29.4833 7.25977C28.6233 7.25977 27.9233 7.95977 27.9233 8.81977V9.71977H31.0433V8.81977C31.0433 7.95977 30.3433 7.25977 29.4833 7.25977Z" fill="#969FB2"/>
<path d="M36.9335 9.57973C36.6335 8.65973 38.4335 6.66973 37.8835 5.89973C37.3235 5.12973 34.8635 6.22973 34.0935 5.66973C33.3335 5.10973 33.6135 2.42973 32.7035 2.13973C31.8135 1.84973 30.4735 4.17973 29.4935 4.17973C28.5135 4.17973 27.1735 1.84973 26.2835 2.13973C25.3635 2.43973 25.6535 5.11973 24.8935 5.66973C24.1235 6.22973 21.6635 5.12973 21.1035 5.89973C20.5435 6.65973 22.3535 8.65973 22.0535 9.57973C21.7635 10.4697 19.1235 11.0197 19.1235 11.9997C19.1235 12.9797 21.7635 13.5297 22.0535 14.4197C22.3535 15.3397 20.5535 17.3297 21.1035 18.0997C21.6635 18.8697 24.1235 17.7697 24.8935 18.3297C25.6535 18.8897 25.3735 21.5697 26.2835 21.8597C27.1735 22.1497 28.5135 19.8197 29.4935 19.8197C30.4735 19.8197 31.8135 22.1497 32.7035 21.8597C33.6235 21.5597 33.3335 18.8797 34.0935 18.3297C34.8635 17.7697 37.3235 18.8697 37.8835 18.0997C38.4435 17.3397 36.6335 15.3397 36.9335 14.4197C37.2235 13.5297 39.8635 12.9797 39.8635 11.9997C39.8635 11.0197 37.2235 10.4697 36.9335 9.57973ZM33.5335 16.4597H25.4335L24.8835 9.71973H27.0935V8.81973C27.0935 7.49973 28.1635 6.42973 29.4835 6.42973C30.8035 6.42973 31.8735 7.49973 31.8735 8.81973V9.71973H34.0835L33.5335 16.4597Z" fill="#969FB2"/>
<path d="M30.5237 12.1297L29.3237 13.7497L28.6337 13.0097C28.5337 12.8997 28.3637 12.8997 28.2537 12.9997C28.1437 13.0997 28.1437 13.2697 28.2437 13.3797L29.1337 14.3397C29.2537 14.4697 29.4737 14.4597 29.5737 14.3197L30.9437 12.4697C31.0337 12.3497 31.0037 12.1897 30.8837 12.0997C30.7637 12.0097 30.6037 12.0397 30.5137 12.1597L30.5237 12.1297Z" fill="white" fill-opacity="0.63"/>
<path d="M3.17359 25.9298H5.65359V24.9598H3.17359V23.7998H5.98359V22.7998H1.93359V28.1598H6.08359V27.1698H3.17359V25.9298Z" fill="#969FB2"/>
<path d="M8.85359 25.5298H6.68359V26.4898H8.85359V25.5298Z" fill="#969FB2"/>
<path d="M11.3137 24.24C11.4637 24.09 11.6437 23.97 11.8537 23.89C12.0637 23.81 12.2937 23.77 12.5437 23.77C12.8137 23.77 13.0537 23.82 13.2837 23.93C13.5037 24.03 13.7137 24.19 13.8937 24.4L14.6937 23.66C14.4337 23.35 14.1237 23.11 13.7437 22.95C13.3637 22.79 12.9437 22.71 12.4837 22.71C12.0637 22.71 11.6837 22.78 11.3237 22.91C10.9737 23.04 10.6637 23.24 10.4037 23.49C10.1437 23.74 9.93373 24.03 9.79373 24.37C9.65373 24.71 9.57373 25.08 9.57373 25.48C9.57373 25.88 9.64373 26.25 9.79373 26.59C9.94373 26.93 10.1437 27.22 10.4037 27.47C10.6637 27.72 10.9737 27.91 11.3237 28.05C11.6737 28.19 12.0637 28.25 12.4737 28.25C12.9437 28.25 13.3637 28.17 13.7437 28C14.1237 27.84 14.4337 27.6 14.6937 27.29L13.8937 26.55C13.7137 26.76 13.5037 26.92 13.2837 27.03C13.0537 27.13 12.8137 27.19 12.5437 27.19C12.2937 27.19 12.0637 27.15 11.8537 27.07C11.6437 26.99 11.4637 26.87 11.3137 26.72C11.1637 26.57 11.0437 26.39 10.9537 26.18C10.8737 25.97 10.8237 25.74 10.8237 25.48C10.8237 25.22 10.8637 24.99 10.9537 24.78C11.0337 24.57 11.1537 24.39 11.3137 24.24Z" fill="#969FB2"/>
<path d="M20.1037 23.5C19.8437 23.25 19.5337 23.06 19.1737 22.92C18.8237 22.78 18.4337 22.71 18.0037 22.71C17.5737 22.71 17.1937 22.78 16.8437 22.92C16.4837 23.06 16.1737 23.25 15.9137 23.5C15.6437 23.75 15.4437 24.04 15.2937 24.38C15.1437 24.72 15.0737 25.08 15.0737 25.48C15.0737 25.88 15.1437 26.25 15.2937 26.58C15.4437 26.91 15.6437 27.21 15.9037 27.46C16.1637 27.71 16.4737 27.9 16.8337 28.04C17.1937 28.18 17.5837 28.25 18.0137 28.25C18.4437 28.25 18.8237 28.18 19.1737 28.04C19.5237 27.9 19.8337 27.71 20.1037 27.46C20.3637 27.21 20.5737 26.92 20.7237 26.58C20.8737 26.24 20.9437 25.87 20.9437 25.47C20.9437 25.07 20.8737 24.7 20.7237 24.36C20.5737 24.03 20.3737 23.73 20.1037 23.48V23.5ZM19.5537 26.18C19.4737 26.39 19.3537 26.57 19.1937 26.72C19.0437 26.87 18.8637 26.99 18.6637 27.07C18.4637 27.15 18.2437 27.19 18.0037 27.19C17.7637 27.19 17.5437 27.15 17.3337 27.07C17.1337 26.99 16.9537 26.87 16.8037 26.72C16.6537 26.57 16.5337 26.38 16.4537 26.17C16.3737 25.96 16.3237 25.73 16.3237 25.48C16.3237 25.23 16.3637 24.99 16.4537 24.78C16.5337 24.57 16.6537 24.39 16.8137 24.24C16.9637 24.09 17.1437 23.97 17.3437 23.89C17.5437 23.81 17.7637 23.77 18.0037 23.77C18.2437 23.77 18.4637 23.81 18.6737 23.89C18.8737 23.97 19.0537 24.09 19.2037 24.24C19.3537 24.39 19.4737 24.57 19.5537 24.78C19.6337 24.99 19.6837 25.22 19.6837 25.48C19.6837 25.74 19.6437 25.97 19.5537 26.18Z" fill="#969FB2"/>
<path d="M26.8835 22.7998L24.9035 26.1298L22.8935 22.7998H21.8735V28.1598H23.0335V25.0098L24.6035 27.5998H25.1635L26.7435 24.9398L26.7535 28.1598H27.9135L27.9035 22.7998H26.8835Z" fill="#969FB2"/>
<path d="M34.1936 22.7998L32.2236 26.1298L30.2136 22.7998H29.1836V28.1598H30.3536V25.0098L31.9236 27.5998H32.4836L34.0636 24.9398V28.1598H35.2336L35.2136 22.7998H34.1936Z" fill="#969FB2"/>
<path d="M37.7334 25.9298H40.2234V24.9598H37.7334V23.7998H40.5534V22.7998H36.5034V28.1598H40.6534V27.1698H37.7334V25.9298Z" fill="#969FB2"/>
<path d="M45.2036 26.4401C45.5536 26.2901 45.8236 26.0701 46.0036 25.7801C46.1936 25.4901 46.2836 25.1501 46.2836 24.7501C46.2836 24.3501 46.1936 24.0001 46.0036 23.7101C45.8136 23.4201 45.5436 23.2001 45.2036 23.0401C44.8536 22.8801 44.4436 22.8101 43.9636 22.8101H41.6436V28.1701H42.8836V26.6801H43.9636C43.9636 26.6801 44.0036 26.6801 44.0236 26.6801L45.0536 28.1801H46.3936L45.1936 26.4601C45.1936 26.4601 45.1936 26.4601 45.2036 26.4601V26.4401ZM44.7536 24.0601C44.9436 24.2201 45.0336 24.4501 45.0336 24.7501C45.0336 25.0501 44.9436 25.2701 44.7536 25.4401C44.5636 25.6101 44.2836 25.6901 43.8936 25.6901H42.8836V23.8201H43.8936C44.2736 23.8201 44.5636 23.9001 44.7536 24.0701V24.0601Z" fill="#969FB2"/>
<path d="M48.6736 24.24C48.8236 24.09 49.0036 23.97 49.2136 23.89C49.4236 23.81 49.6536 23.77 49.9036 23.77C50.1736 23.77 50.4136 23.82 50.6436 23.93C50.8736 24.04 51.0736 24.19 51.2536 24.4L52.0536 23.66C51.7936 23.35 51.4836 23.11 51.1036 22.95C50.7236 22.79 50.3136 22.71 49.8436 22.71C49.4236 22.71 49.0436 22.78 48.6836 22.91C48.3336 23.04 48.0236 23.24 47.7636 23.49C47.5036 23.74 47.2936 24.03 47.1536 24.37C47.0136 24.71 46.9336 25.08 46.9336 25.48C46.9336 25.88 47.0036 26.25 47.1536 26.59C47.3036 26.93 47.5036 27.22 47.7636 27.47C48.0236 27.72 48.3336 27.91 48.6836 28.05C49.0336 28.19 49.4236 28.25 49.8336 28.25C50.3036 28.25 50.7236 28.17 51.1036 28C51.4836 27.84 51.7936 27.6 52.0536 27.29L51.2536 26.55C51.0736 26.76 50.8636 26.92 50.6436 27.03C50.4236 27.14 50.1736 27.19 49.9036 27.19C49.6536 27.19 49.4236 27.15 49.2136 27.07C49.0036 26.99 48.8236 26.87 48.6736 26.72C48.5236 26.57 48.4036 26.39 48.3136 26.18C48.2336 25.97 48.1836 25.74 48.1836 25.48C48.1836 25.22 48.2236 24.99 48.3136 24.78C48.3936 24.57 48.5136 24.39 48.6736 24.24Z" fill="#969FB2"/>
<path d="M54.1138 27.1698V25.9298H56.6038V24.9598H54.1138V23.7998H56.9338V22.7998H52.8838V28.1598H57.0338V27.1698H54.1138Z" fill="#969FB2"/>
</g>
<defs>
<clipPath id="clip0_9478_5825">
<rect width="57" height="32" fill="white" transform="translate(0.753418 0.129883)"/>
</clipPath>
</defs>
</svg>
