<svg width="35" height="32" viewBox="0 0 35 32" fill="none" xmlns="http://www.w3.org/2000/svg">
<g clip-path="url(#clip0_9478_5929)">
<path d="M3.46054 30.8662C3.12715 30.8662 2.82044 30.8124 2.53773 30.7046C2.25502 30.5969 2.00964 30.4434 1.80428 30.2468C1.59891 30.0475 1.43622 29.8159 1.31887 29.5439C1.20152 29.2746 1.14551 28.9783 1.14551 28.6552C1.14551 28.332 1.20418 28.0357 1.31887 27.7664C1.43622 27.4971 1.59625 27.2628 1.80428 27.0662C2.00964 26.8669 2.25502 26.7161 2.53773 26.6084C2.82044 26.5006 3.12715 26.4468 3.46054 26.4468C3.84993 26.4468 4.19665 26.5168 4.50337 26.6542C4.81008 26.7915 5.06612 26.9908 5.27149 27.2493L4.51404 27.9415C4.37801 27.7799 4.22866 27.656 4.06597 27.5698C3.90327 27.4836 3.72191 27.4432 3.52188 27.4432C3.34852 27.4432 3.19116 27.4702 3.04714 27.5294C2.90312 27.586 2.78043 27.6695 2.67641 27.7745C2.57507 27.8822 2.49505 28.0115 2.43638 28.1596C2.3777 28.3104 2.34836 28.4747 2.34836 28.6579C2.34836 28.841 2.3777 29.0053 2.43638 29.1561C2.49505 29.3069 2.57507 29.4335 2.67641 29.5412C2.77776 29.6489 2.90312 29.7297 3.04714 29.7863C3.19116 29.8428 3.35119 29.8725 3.52188 29.8725C3.72191 29.8725 3.90327 29.8294 4.06597 29.7459C4.22866 29.6597 4.37801 29.5385 4.51404 29.3742L5.27149 30.0664C5.06612 30.3222 4.81008 30.5188 4.50337 30.6589C4.19665 30.7989 3.84726 30.8689 3.46054 30.8689V30.8662Z" fill="#969FB2"/>
<path d="M7.24241 30.7798V26.5273H9.16805C9.55211 26.5273 9.88549 26.5893 10.1629 26.7159C10.4429 26.8424 10.6563 27.0229 10.8083 27.2599C10.9603 27.4969 11.0377 27.777 11.0377 28.1001C11.0377 28.4233 10.9603 28.6953 10.8083 28.9296C10.6563 29.1639 10.4402 29.3417 10.1629 29.4629C9.88549 29.5868 9.55211 29.6487 9.16805 29.6487H7.90385L8.43193 29.1451V30.7798H7.23975H7.24241ZM8.4346 29.2744L7.90652 28.7223H9.0987C9.34674 28.7223 9.53344 28.6684 9.65613 28.558C9.77881 28.4476 9.84015 28.2967 9.84015 28.1028C9.84015 27.9089 9.77881 27.75 9.65613 27.6423C9.53344 27.5319 9.34941 27.478 9.0987 27.478H7.90652L8.4346 26.9259V29.277V29.2744ZM9.84815 30.7798L8.80266 29.2313H10.0722L11.1257 30.7798H9.85082H9.84815Z" fill="#969FB2"/>
<path d="M14.1446 30.7801V28.9811L14.422 29.7028L12.5391 26.5249H13.7953L15.1555 28.8275H14.4274L15.7929 26.5249H16.9478L15.0701 29.7028L15.3342 28.9811V30.7801H14.142H14.1446Z" fill="#969FB2"/>
<path d="M18.6736 30.7798V26.5273H20.5992C20.9833 26.5273 21.3166 26.5893 21.594 26.7159C21.8714 26.8424 22.0874 27.0229 22.2395 27.2599C22.3915 27.4969 22.4688 27.777 22.4688 28.1001C22.4688 28.4233 22.3915 28.698 22.2395 28.9323C22.0874 29.1666 21.8714 29.3471 21.594 29.4763C21.314 29.6029 20.9833 29.6676 20.5992 29.6676H19.335L19.8631 29.1451V30.7798H18.6709H18.6736ZM19.8658 29.2744L19.3377 28.7223H20.5299C20.7779 28.7223 20.9646 28.6684 21.0873 28.558C21.21 28.4476 21.2713 28.2967 21.2713 28.1028C21.2713 27.9089 21.21 27.75 21.0873 27.6423C20.9646 27.5319 20.7806 27.478 20.5299 27.478H19.3377L19.8658 26.9259V29.277V29.2744Z" fill="#969FB2"/>
<path d="M25.2852 30.7798V27.4807H23.9917V26.5273H27.763V27.4807H26.4748V30.7798H25.2826H25.2852Z" fill="#969FB2"/>
<path d="M31.7157 30.8663C31.3797 30.8663 31.0676 30.8124 30.7822 30.702C30.4969 30.5915 30.2488 30.438 30.0381 30.2361C29.8274 30.0368 29.6647 29.8025 29.5474 29.5331C29.43 29.2638 29.374 28.973 29.374 28.6525C29.374 28.332 29.4327 28.0384 29.5474 27.7718C29.6647 27.5052 29.8274 27.2709 30.0381 27.0716C30.2488 26.8723 30.4969 26.7161 30.7822 26.6057C31.0676 26.4953 31.377 26.4414 31.7157 26.4414C32.0544 26.4414 32.3692 26.4953 32.6519 26.6057C32.9346 26.7161 33.18 26.8696 33.388 27.0716C33.596 27.2709 33.7587 27.5052 33.8787 27.7718C33.9961 28.0384 34.0574 28.332 34.0574 28.6525C34.0574 28.973 33.9987 29.2665 33.8787 29.5358C33.7614 29.8051 33.596 30.0395 33.388 30.2387C33.18 30.438 32.9346 30.5915 32.6519 30.6993C32.3692 30.8097 32.0571 30.8636 31.7157 30.8636V30.8663ZM31.7157 29.8698C31.8757 29.8698 32.0251 29.8429 32.1638 29.7836C32.3025 29.727 32.4225 29.6436 32.5239 29.5385C32.6252 29.4335 32.7052 29.3015 32.7639 29.1534C32.8226 29.0026 32.8519 28.8383 32.8519 28.6552C32.8519 28.472 32.8226 28.3024 32.7639 28.1542C32.7052 28.0061 32.6252 27.8795 32.5239 27.7718C32.4225 27.6641 32.3025 27.5833 32.1638 27.5267C32.0251 27.4702 31.8757 27.4406 31.7157 27.4406C31.5557 27.4406 31.4063 27.4675 31.2677 27.5267C31.129 27.5833 31.0089 27.6668 30.9076 27.7718C30.8062 27.8795 30.7262 28.0061 30.6676 28.1542C30.6089 28.3024 30.5795 28.4693 30.5795 28.6552C30.5795 28.841 30.6089 29.0026 30.6676 29.1534C30.7262 29.3042 30.8062 29.4308 30.9076 29.5385C31.0089 29.6463 31.129 29.727 31.2677 29.7836C31.4063 29.8402 31.5557 29.8698 31.7157 29.8698Z" fill="#969FB2"/>
<path d="M17.5987 24.5372C24.043 24.5372 29.2672 19.262 29.2672 12.7547C29.2672 6.24739 24.043 0.972168 17.5987 0.972168C11.1543 0.972168 5.93018 6.24739 5.93018 12.7547C5.93018 19.262 11.1543 24.5372 17.5987 24.5372Z" fill="#969FB2"/>
<path d="M18.6895 3.13184C23.4716 3.67855 27.1895 7.77752 27.1895 12.7545C27.1895 18.1031 22.8955 22.439 17.5986 22.439C12.3018 22.439 8.00781 18.1031 8.00781 12.7545C8.00781 8.67434 10.5069 5.18132 14.0461 3.75665" stroke="white" stroke-width="2" stroke-miterlimit="10" stroke-linecap="square"/>
<path d="M14.0196 5.80628L16.6867 3.11313L13.0435 2.12744L14.0196 5.80628Z" fill="white"/>
<path d="M23.106 14.7934C23.106 14.7692 23.1006 14.7449 23.098 14.718C23.0873 14.6211 23.074 14.5241 23.0526 14.4298C23.0526 14.4298 23.0526 14.4298 23.0526 14.4272C23.034 14.3302 23.0073 14.2359 22.9806 14.1417C22.9753 14.1201 22.9673 14.0986 22.9593 14.077C22.93 13.9855 22.8979 13.8939 22.8606 13.8077C22.8233 13.7189 22.7806 13.63 22.7353 13.5438C22.7246 13.525 22.7166 13.5088 22.7059 13.4899C22.6126 13.3203 22.5032 13.1587 22.3805 13.0106C22.3699 12.9971 22.3565 12.9809 22.3459 12.9675C22.2845 12.8948 22.2205 12.822 22.1512 12.7547C21.9485 12.55 21.7191 12.375 21.4684 12.2295C21.8124 11.7071 22.0098 11.0823 22.0098 10.4117C22.0098 8.5911 20.5429 7.10987 18.7426 7.10987H18.788V6.24268H17.3584V7.10987H16.5983V6.24268H15.1661V7.10987H13.1631V9.02201H14.2486V16.482H13.1631V18.3969H15.1661V19.2641H16.5983V18.3969H17.3584V19.2641H18.788V18.3969H19.8521C20.0788 18.3969 20.2975 18.3726 20.5109 18.3295C21.5751 18.1087 22.4499 17.3654 22.8633 16.3797C22.946 16.1831 23.01 15.9757 23.0553 15.7603C23.098 15.5448 23.122 15.324 23.122 15.0951C23.122 14.9927 23.1166 14.8931 23.106 14.7934ZM16.1449 9.02201H18.7426C19.4974 9.02201 20.1135 9.64412 20.1135 10.409C20.1135 11.1738 19.4974 11.7933 18.7426 11.7933H16.1449V9.01931V9.02201ZM20.9456 15.9326C20.911 15.9811 20.871 16.0269 20.831 16.0673C20.8283 16.07 20.8256 16.0727 20.823 16.0754C20.6976 16.2019 20.5509 16.3016 20.3856 16.3716C20.3455 16.3905 20.3029 16.4039 20.2602 16.4174C20.1322 16.4578 19.9935 16.4793 19.8521 16.4793H16.1422V13.7081H19.8521C19.9935 13.7081 20.1322 13.7296 20.2602 13.77C20.4309 13.8239 20.5909 13.9101 20.7269 14.0232C21.0337 14.2763 21.2284 14.6615 21.2284 15.0924C21.2284 15.4075 21.1243 15.6956 20.9483 15.9272L20.9456 15.9326Z" fill="white"/>
</g>
<defs>
<clipPath id="clip0_9478_5929">
<rect width="34" height="32" fill="white" transform="translate(0.753418)"/>
</clipPath>
</defs>
</svg>
