<svg width="126" height="22" viewBox="0 0 126 22" fill="none" xmlns="http://www.w3.org/2000/svg">
<path d="M25.2756 4.33921H23.5897V2.64792C23.5897 2.26209 23.2978 1.93176 22.9022 1.87362C22.834 1.86305 21.1918 1.63314 19.2139 1.98197C17.0097 2.37044 15.2502 3.32972 14.058 4.77789C12.8659 3.32972 11.1063 2.37044 8.90208 1.98197C6.92428 1.63314 5.28202 1.8657 5.21381 1.87362C4.81825 1.93176 4.52636 2.25945 4.52636 2.64792V4.33921H2.84045C2.39578 4.33921 2.03296 4.68804 2.03296 5.12143V19.8542C2.03296 20.1079 2.15845 20.3457 2.37123 20.491C2.58402 20.639 2.85682 20.676 3.10507 20.5915C3.16508 20.5703 9.21307 18.5725 13.7252 20.565C13.938 20.6602 14.1835 20.6602 14.3963 20.565C18.8948 18.5778 24.9537 20.573 25.0164 20.5915C25.1037 20.6205 25.1937 20.6337 25.281 20.6337C25.4474 20.6337 25.6111 20.5835 25.7475 20.4884C25.9603 20.3404 26.0858 20.1052 26.0858 19.8515V5.12143C26.0858 4.69068 25.7257 4.33921 25.2783 4.33921H25.2756ZM3.64521 18.8077V5.90365H4.52363V16.3157C4.52363 16.5429 4.62729 16.7596 4.80461 16.9076C4.98193 17.0556 5.21927 17.1217 5.45115 17.09C5.4948 17.0847 9.00302 16.6169 11.5646 18.3188C8.40831 17.7955 5.25201 18.4007 3.64794 18.8077H3.64521ZM13.2505 17.6132C12.1211 16.6249 10.6535 15.9589 8.90208 15.6497C8.05913 15.5017 7.27619 15.4568 6.65147 15.4568C6.46597 15.4568 6.29411 15.4594 6.13861 15.4674V3.36672C7.69085 3.29801 11.4637 3.45921 13.2505 6.39519V17.6158V17.6132ZM14.8655 6.39254C16.6469 3.46978 20.4252 3.30329 21.9774 3.36672V15.4674C21.2981 15.441 20.3079 15.4568 19.2139 15.6497C17.4626 15.9589 15.9922 16.6249 14.8655 17.6132V6.39254ZM16.5487 18.3188C19.1103 16.6143 22.6185 17.082 22.6621 17.0873C22.894 17.1217 23.1314 17.0556 23.3087 16.9076C23.486 16.7596 23.5897 16.5429 23.5897 16.3157V5.90365H24.4681V18.8103C22.864 18.4034 19.705 17.7982 16.5487 18.3214V18.3188Z" fill="#969FB2"/>
<path d="M123.705 20.6365H25.4418C24.8744 20.6365 24.4133 20.2084 24.4133 19.6825C24.4133 19.1566 24.8744 18.7285 25.4418 18.7285H123.705C124.272 18.7285 124.733 19.1566 124.733 19.6825C124.733 20.2084 124.272 20.6365 123.705 20.6365Z" fill="#969FB2"/>
<path d="M36.4929 5.12939V7.43906H30.4122V10.0289H35.7946V12.3385H30.4122V14.9627H36.733V17.2723H27.9434V5.12939H36.4957H36.4929Z" fill="#969FB2"/>
<path d="M38.6045 5.12939H42.3528C43.9541 5.12939 45.2717 5.42801 46.3057 6.02789C47.3396 6.62777 48.0925 7.40207 48.5617 8.35342C49.0337 9.30477 49.2683 10.3248 49.2683 11.4136C49.2683 12.579 48.9846 13.6096 48.4171 14.5002C47.8497 15.3908 47.0859 16.0752 46.1256 16.5535C45.1654 17.0319 44.1123 17.2723 42.9666 17.2723H38.6045V5.12939ZM42.541 14.9653C43.8232 14.9653 44.8407 14.6455 45.5909 14.0087C46.3411 13.3718 46.7149 12.4522 46.7149 11.2524C46.7149 10.2852 46.5075 9.51354 46.0929 8.94273C45.6782 8.37192 45.1954 7.97552 44.6443 7.75354C44.0932 7.5342 43.5749 7.42321 43.0866 7.42321H41.0761V14.9653H42.541Z" fill="#969FB2"/>
<path d="M53.3576 13.8924C53.5949 14.2439 53.9141 14.5319 54.3124 14.7513C54.7106 14.9706 55.1362 15.0816 55.5891 15.0816C56.0774 15.0816 56.5248 14.9706 56.934 14.7513C57.3432 14.5319 57.6623 14.2465 57.897 13.8924C58.1288 13.5409 58.2461 13.171 58.2461 12.7878V5.12939H60.6822V12.8353C60.6822 13.7048 60.4558 14.4896 60.0002 15.1873C59.5447 15.8849 58.9309 16.432 58.1507 16.8204C57.3732 17.2116 56.5193 17.4071 55.5863 17.4071C54.6534 17.4071 53.8022 17.2116 53.0302 16.8204C52.2582 16.4293 51.6471 15.8849 51.1997 15.1873C50.7496 14.4896 50.5259 13.7048 50.5259 12.8353V5.12939H52.9947V12.7878C52.9947 13.1736 53.1148 13.5409 53.3521 13.8924H53.3576Z" fill="#969FB2"/>
<path d="M70.5959 17.0291C69.9029 17.2828 69.1473 17.4096 68.3316 17.4096C67.0249 17.4096 65.8901 17.1348 64.9243 16.5851C63.9586 16.0355 63.2193 15.2955 62.7092 14.3653C62.1991 13.4351 61.9426 12.4151 61.9426 11.3051C61.9426 10.0842 62.1991 8.99547 62.7092 8.03884C63.2193 7.0822 63.9368 6.33698 64.8561 5.80316C65.7755 5.26935 66.8367 5.00244 68.0425 5.00244C68.8036 5.00244 69.5074 5.10286 70.1539 5.29842C70.8005 5.49662 71.3679 5.74502 71.8562 6.041L70.885 8.3031C69.9875 7.64244 69.0682 7.31211 68.1243 7.31211C67.4887 7.31211 66.8912 7.48388 66.3347 7.82478C65.7782 8.16568 65.3363 8.63079 65.0062 9.2201C64.6761 9.80941 64.5124 10.4595 64.5124 11.1757C64.5124 11.9579 64.6652 12.6423 64.9734 13.229C65.279 13.8183 65.7182 14.2781 66.2856 14.6058C66.853 14.9361 67.5187 15.1 68.2798 15.1C68.8936 15.1 69.4446 15.0048 69.933 14.8119C70.4213 14.619 70.8086 14.3918 71.0924 14.1275L72.1154 16.2733C71.7962 16.527 71.2915 16.7807 70.5986 17.0317L70.5959 17.0291Z" fill="#969FB2"/>
<path d="M80.1029 14.899H75.9454L74.9224 17.2748H72.4863L78.1415 4.65088H78.2779L83.933 17.2748H81.0714L80.1002 14.899H80.1029ZM79.2845 12.8854L78.076 9.93088L76.8157 12.8854H79.2872H79.2845Z" fill="#969FB2"/>
<path d="M91.6532 5.12939V7.43906H88.6033V17.275H86.1345V7.44171H83.2046V5.13204H91.6532V5.12939Z" fill="#969FB2"/>
<path d="M95.5543 5.12939V17.275H93.0854V5.12939H95.5543Z" fill="#969FB2"/>
<path d="M97.9304 8.13389C98.5032 7.17725 99.2807 6.41617 100.263 5.848C101.245 5.28248 102.309 4.99707 103.457 4.99707C104.606 4.99707 105.67 5.27983 106.652 5.848C107.634 6.41353 108.417 7.17725 109.003 8.13389C109.587 9.09052 109.882 10.1185 109.882 11.2205C109.882 12.3225 109.59 13.3769 109.003 14.323C108.42 15.269 107.634 16.0195 106.652 16.5745C105.67 17.1294 104.606 17.4069 103.457 17.4069C102.309 17.4069 101.231 17.1294 100.255 16.5745C99.278 16.0195 98.5032 15.269 97.9304 14.323C97.3575 13.3769 97.071 12.3436 97.071 11.2205C97.071 10.0974 97.3575 9.09052 97.9304 8.13389ZM100.143 13.1681C100.489 13.7627 100.961 14.2331 101.556 14.5793C102.151 14.9255 102.813 15.0999 103.539 15.0999C104.265 15.0999 104.884 14.9255 105.465 14.5793C106.046 14.2331 106.499 13.7654 106.829 13.1761C107.159 12.5867 107.323 11.9367 107.323 11.2205C107.323 10.5043 107.154 9.83311 106.813 9.24116C106.472 8.6492 106.008 8.17617 105.424 7.82998C104.84 7.4838 104.188 7.30938 103.474 7.30938C102.759 7.30938 102.107 7.4838 101.523 7.82998C100.939 8.17617 100.476 8.64656 100.135 9.24116C99.7936 9.83575 99.6245 10.4964 99.6245 11.2205C99.6245 11.9446 99.7963 12.5735 100.143 13.1681Z" fill="#969FB2"/>
<path d="M122.963 5.1292V17.769H122.894L114.121 10.0947L114.173 17.2721H111.669V4.65088H111.77L120.527 12.4387L120.475 5.1292H122.963Z" fill="#969FB2"/>
</svg>
