<svg width="65" height="32" viewBox="0 0 65 32" fill="none" xmlns="http://www.w3.org/2000/svg">
<path d="M42.3635 17.6401H23.0435V18.6701H42.3635V17.6401Z" fill="#969FB2"/>
<path d="M31.0834 15.3101H30.0434V9.30006L23.5634 5.59006V15.3101H22.5234V3.81006L31.0834 8.70006V15.3101Z" fill="#969FB2"/>
<path d="M41.6933 15.3101H40.6533V5.59006L34.1733 9.30006V15.3101H33.1333V8.70006L41.6933 3.81006V15.3101Z" fill="#969FB2"/>
<path d="M1.82324 27.2298V20.8198H4.61324C5.19324 20.8198 5.69324 20.9098 6.10324 21.0998C6.52324 21.2898 6.84324 21.5498 7.07324 21.8998C7.30324 22.2498 7.41324 22.6598 7.41324 23.1498C7.41324 23.6398 7.30324 24.0398 7.07324 24.3798C6.84324 24.7198 6.52324 24.9898 6.10324 25.1698C5.68324 25.3498 5.18324 25.4398 4.61324 25.4398H2.65324L3.31324 24.7898V27.2198H1.82324V27.2298ZM3.31324 24.9598L2.65324 24.2598H4.53324C4.99324 24.2598 5.34324 24.1598 5.56324 23.9598C5.79324 23.7598 5.90324 23.4898 5.90324 23.1398C5.90324 22.7898 5.79324 22.5098 5.56324 22.3198C5.33324 22.1198 4.99324 22.0298 4.53324 22.0298H2.65324L3.31324 21.3198V24.9498V24.9598ZM5.92324 27.2298L4.31324 24.8998H5.90324L7.53324 27.2298H5.92324Z" fill="#969FB2"/>
<path d="M10.0833 26.0398H13.5933V27.2298H8.59326V20.8198H13.4733V22.0098H10.0833V26.0398ZM9.97326 23.4098H13.0833V24.5598H9.97326V23.4098Z" fill="#969FB2"/>
<path d="M13.9331 27.2298L16.8131 20.8198H18.2931L21.1831 27.2298H19.6131L17.2531 21.5698H17.8431L15.4731 27.2298H13.9431H13.9331ZM15.3731 25.8598L15.7731 24.7298H19.0931L19.5031 25.8598H15.3831H15.3731Z" fill="#969FB2"/>
<path d="M21.8433 27.2298V20.8198H23.3333V26.0198H26.5733V27.2298H21.8433Z" fill="#969FB2"/>
<path d="M31.0831 26.4396H34.8431V27.2396H30.1631V20.8296H34.7131V21.6296H31.0831V26.4396ZM30.9931 23.5896H34.3131V24.3696H30.9931V23.5896Z" fill="#969FB2"/>
<path d="M38.2132 27.3098C37.7232 27.3098 37.2532 27.2398 36.8032 27.0898C36.3532 26.9398 36.0032 26.7498 35.7432 26.5098L36.0832 25.7998C36.3332 26.0098 36.6432 26.1898 37.0232 26.3298C37.4032 26.4698 37.8032 26.5398 38.2132 26.5398C38.5832 26.5398 38.8932 26.4998 39.1232 26.4098C39.3532 26.3298 39.5332 26.2098 39.6432 26.0598C39.7532 25.9098 39.8132 25.7398 39.8132 25.5498C39.8132 25.3298 39.7432 25.1498 39.5932 25.0198C39.4532 24.8898 39.2632 24.7798 39.0332 24.6898C38.8032 24.6098 38.5532 24.5398 38.2732 24.4798C37.9932 24.4198 37.7232 24.3498 37.4432 24.2698C37.1632 24.1898 36.9132 24.0798 36.6832 23.9498C36.4532 23.8198 36.2632 23.6498 36.1232 23.4298C35.9832 23.2098 35.9132 22.9298 35.9132 22.5898C35.9132 22.2498 36.0032 21.9598 36.1732 21.6798C36.3532 21.3998 36.6232 21.1798 36.9832 21.0098C37.3432 20.8398 37.8132 20.7598 38.3832 20.7598C38.7632 20.7598 39.1332 20.8098 39.5032 20.9098C39.8732 21.0098 40.1932 21.1498 40.4632 21.3298L40.1632 22.0598C39.8832 21.8798 39.5932 21.7398 39.2832 21.6598C38.9732 21.5798 38.6732 21.5398 38.3932 21.5398C38.0332 21.5398 37.7332 21.5898 37.5032 21.6798C37.2732 21.7698 37.1032 21.8898 36.9932 22.0498C36.8832 22.2098 36.8332 22.3698 36.8332 22.5598C36.8332 22.7898 36.9032 22.9698 37.0532 23.0998C37.1932 23.2298 37.3832 23.3398 37.6132 23.4198C37.8432 23.4998 38.0932 23.5698 38.3732 23.6298C38.6532 23.6898 38.9232 23.7698 39.2032 23.8398C39.4832 23.9198 39.7432 24.0198 39.9732 24.1498C40.2032 24.2798 40.3932 24.4498 40.5332 24.6598C40.6732 24.8698 40.7432 25.1498 40.7432 25.4798C40.7432 25.8098 40.6532 26.0998 40.4732 26.3798C40.2932 26.6598 40.0232 26.8798 39.6432 27.0498C39.2632 27.2198 38.8032 27.2998 38.2332 27.2998L38.2132 27.3098Z" fill="#969FB2"/>
<path d="M43.2432 27.2298V21.6198H41.0332V20.8198H46.3732V21.6198H44.1632V27.2298H43.2532H43.2432Z" fill="#969FB2"/>
<path d="M46.0832 27.2298L49.0032 20.8198H49.9132L52.8432 27.2298H51.8732L49.2632 21.3298H49.6332L47.0232 27.2298H46.0732H46.0832ZM47.3232 25.6298L47.5732 24.8998H51.2032L51.4732 25.6298H47.3232Z" fill="#969FB2"/>
<path d="M54.7632 27.2298V21.6198H52.5532V20.8198H57.8932V21.6198H55.6832V27.2298H54.7732H54.7632Z" fill="#969FB2"/>
<path d="M59.8131 26.4396H63.5731V27.2396H58.8931V20.8296H63.4431V21.6296H59.8131V26.4396ZM59.7331 23.5896H63.0531V24.3696H59.7331V23.5896Z" fill="#969FB2"/>
</svg>
