<svg width="149" height="42" viewBox="0 0 149 42" fill="none" xmlns="http://www.w3.org/2000/svg">
<g clip-path="url(#clip0_2_1236)">
<path d="M33.4946 0.473823C31.844 0.153797 30.3491 1.57098 29.3208 4.43483L28.7291 6.08029L27.5066 6.94097C23.9324 9.43947 19.5409 11.1002 13.6467 12.1668C12.393 12.3951 11.2252 12.5857 11.046 12.6239C12.954 15.7166 13.7947 19.4952 12.4868 23.6086C11.7471 25.9094 9.19329 29.5886 7.1452 31.5923C8.38332 31.7217 9.62144 31.8511 10.8596 31.9806C9.39592 35.1191 6.67797 37.7394 4.10069 40.4285C9.83133 37.7394 15.0797 34.532 19.1987 30.1139C17.6648 29.9386 16.1308 29.7633 14.589 29.5809C16.6522 27.9584 18.3888 26.1682 19.5644 24.0962C23.1464 24.0657 26.7123 24.6216 30.0839 25.9853L31.8205 26.6936L32.3112 27.5466C33.1212 28.9026 34.2114 29.9692 35.2625 30.3957C36.4381 30.8834 37.2402 30.754 38.2679 29.8627C38.9685 29.2838 39.1086 29.0403 39.7087 27.6307C42.5349 21.1401 40.6118 4.19836 34.5541 0.907443C34.1879 0.701555 33.7134 0.511506 33.4952 0.473277L33.4946 0.473823ZM7.08268 12.9903C6.55293 13.0439 5.59559 13.0892 4.95699 13.1121C3.47773 13.1427 3.11935 13.2569 2.44168 13.8663C-0.221564 16.2583 1.00093 24.1197 4.24025 25.4987C4.87884 25.7805 5.15125 25.7728 7.23005 25.3463C8.4838 25.1027 9.70629 24.7904 9.93962 24.6609C11.2788 23.9373 11.9643 20.9129 11.4423 17.9955C11.1152 16.1294 11.0996 16.1218 9.66721 16.0989C9.01298 16.0759 8.42128 16.053 8.36713 16.03C8.32024 16.0071 8.0322 15.6265 7.72072 15.1617L7.16808 14.354L8.27391 14.2928C9.72973 14.2317 9.92455 14.1022 9.40318 13.6451C8.75676 13.0815 8.11035 12.8986 7.08268 12.9898V12.9903ZM5.40859 15.7706C6.87223 17.8197 7.15301 21.9412 5.92271 23.5026C5.37007 24.1956 4.8794 24.2492 4.19392 23.6626C2.02134 21.8189 1.81145 15.2677 3.91369 14.8717C4.34184 14.7882 4.98825 15.1765 5.40859 15.7706ZM35.1994 5.42549C36.4995 7.46689 37.5121 10.5754 38.1507 14.5364C38.3768 16.0601 38.6335 19.2216 38.5398 19.4498C38.5163 19.4957 38.5163 19.8764 38.5163 20.3029C38.6173 23.2585 37.6053 26.8541 36.4682 27.6619C35.8687 28.0884 34.4826 28.0654 35.277 27.4407C35.9625 26.8924 36.6083 24.6298 36.7484 22.2684C36.9745 18.6651 36.3979 13.2716 35.4556 10.1101L35.2842 9.54651L34.2019 10.2019C29.1874 13.2869 21.5957 15.7018 16.0281 15.9683L14.7124 16.0442L14.3462 15.2065C14.1514 14.7417 14.0191 14.2923 14.0581 14.1934C14.0972 14.1022 14.7202 13.9116 15.4676 13.7746C19.9216 12.9368 24.9986 10.9178 28.7202 8.50288C30.5578 7.29158 33.1273 5.20431 33.1508 4.90722C33.1508 4.78544 32.8705 4.45777 32.5356 4.18362C31.8579 3.65825 31.8814 3.43707 32.6059 3.39884C33.7893 3.36826 34.6462 4.55662 35.1988 5.42495L35.1994 5.42549Z" fill="#969FB2"/>
</g>
<path d="M56.5065 13.2497V10.4097H59.1265C59.6331 10.4097 60.0665 10.3097 60.4265 10.1097C60.7998 9.90969 61.0865 9.62969 61.2865 9.26969C61.4865 8.89635 61.5865 8.46969 61.5865 7.98969C61.5865 7.48302 61.4865 7.04969 61.2865 6.68969C61.0865 6.31635 60.7998 6.03635 60.4265 5.84969C60.0665 5.64969 59.6331 5.54969 59.1265 5.54969H56.5065V2.70969H58.9665C60.2065 2.70969 61.2665 2.91635 62.1465 3.32969C63.0398 3.74302 63.7198 4.32969 64.1865 5.08969C64.6665 5.84969 64.9065 6.76302 64.9065 7.82969V8.14969C64.9065 9.18969 64.6665 10.0964 64.1865 10.8697C63.7198 11.6297 63.0398 12.2164 62.1465 12.6297C61.2665 13.043 60.2065 13.2497 58.9665 13.2497H56.5065ZM53.6265 17.4297V2.70969H56.9065V17.4297H53.6265ZM66.9663 17.4297V2.70969H70.2463V17.4297H66.9663ZM75.8263 17.4297L71.5463 11.1497H75.1463L79.6263 17.4297H75.8263ZM69.3663 12.7497V10.1697H72.9663C73.4463 10.1697 73.8597 10.0764 74.2063 9.88969C74.5663 9.68969 74.8397 9.41635 75.0263 9.06969C75.2263 8.70969 75.3263 8.29635 75.3263 7.82969C75.3263 7.36302 75.2263 6.95635 75.0263 6.60969C74.8397 6.24969 74.5663 5.97635 74.2063 5.78969C73.8597 5.58969 73.4463 5.48969 72.9663 5.48969H69.3663V2.70969H72.7063C73.9197 2.70969 74.973 2.89635 75.8663 3.26969C76.7597 3.62969 77.4463 4.16969 77.9263 4.88969C78.4063 5.60969 78.6463 6.51635 78.6463 7.60969V7.92969C78.6463 9.00969 78.3997 9.90969 77.9063 10.6297C77.4263 11.3364 76.7397 11.8697 75.8463 12.2297C74.9663 12.5764 73.9197 12.7497 72.7063 12.7497H69.3663ZM52.2465 37.4297L57.0665 22.8297H62.3665L67.3665 37.4297H63.9665L59.9265 25.0897L60.9665 25.5097H58.3865L59.4665 25.0897L55.5265 37.4297H52.2465ZM55.9065 33.8097L56.9065 31.0897H62.6265L63.6465 33.8097H55.9065ZM73.2352 41.7897C72.7019 41.7897 72.1552 41.7697 71.5952 41.7297C71.0352 41.6897 70.5219 41.6364 70.0552 41.5697V38.8697C70.5219 38.9364 71.0352 38.9897 71.5952 39.0297C72.1686 39.083 72.6886 39.1097 73.1552 39.1097C74.0219 39.1097 74.7219 39.0097 75.2552 38.8097C75.8019 38.6097 76.2019 38.303 76.4552 37.8897C76.7086 37.4897 76.8352 36.9697 76.8352 36.3297V34.1497L77.4152 32.8697C77.3886 33.843 77.1952 34.6764 76.8352 35.3697C76.4886 36.063 76.0019 36.5964 75.3752 36.9697C74.7486 37.3297 74.0019 37.5097 73.1352 37.5097C72.3886 37.5097 71.7086 37.3764 71.0952 37.1097C70.4952 36.8297 69.9819 36.443 69.5552 35.9497C69.1286 35.4564 68.8019 34.883 68.5752 34.2297C68.3486 33.563 68.2352 32.843 68.2352 32.0697V31.6097C68.2352 30.8364 68.3552 30.1164 68.5952 29.4497C68.8352 28.783 69.1819 28.203 69.6352 27.7097C70.0886 27.2164 70.6286 26.8364 71.2552 26.5697C71.8819 26.2897 72.5752 26.1497 73.3352 26.1497C74.2152 26.1497 74.9752 26.343 75.6152 26.7297C76.2686 27.1164 76.7819 27.683 77.1552 28.4297C77.5286 29.1764 77.7286 30.0764 77.7552 31.1297L77.3152 31.2497V26.4697H79.8552V36.1297C79.8552 37.4764 79.6152 38.563 79.1352 39.3897C78.6552 40.2164 77.9219 40.823 76.9352 41.2097C75.9619 41.5964 74.7286 41.7897 73.2352 41.7897ZM74.1352 34.8097C74.6286 34.8097 75.0752 34.703 75.4752 34.4897C75.8752 34.263 76.1886 33.943 76.4152 33.5297C76.6552 33.1164 76.7752 32.6164 76.7752 32.0297V31.4497C76.7752 30.8764 76.6486 30.3964 76.3952 30.0097C76.1552 29.6097 75.8352 29.3097 75.4352 29.1097C75.0352 28.8964 74.6086 28.7897 74.1552 28.7897C73.6219 28.7897 73.1486 28.9164 72.7352 29.1697C72.3219 29.423 72.0019 29.7764 71.7752 30.2297C71.5486 30.683 71.4352 31.2164 71.4352 31.8297C71.4352 32.4564 71.5486 32.9964 71.7752 33.4497C72.0152 33.8897 72.3352 34.2297 72.7352 34.4697C73.1486 34.6964 73.6152 34.8097 74.1352 34.8097ZM87.6462 37.8097C86.7128 37.8097 85.8862 37.6497 85.1662 37.3297C84.4595 37.0097 83.8662 36.583 83.3862 36.0497C82.9195 35.503 82.5595 34.8964 82.3062 34.2297C82.0662 33.5497 81.9462 32.8564 81.9462 32.1497V31.7497C81.9462 31.0164 82.0662 30.3164 82.3062 29.6497C82.5595 28.9697 82.9195 28.363 83.3862 27.8297C83.8528 27.2964 84.4328 26.8764 85.1262 26.5697C85.8328 26.2497 86.6328 26.0897 87.5262 26.0897C88.6995 26.0897 89.6862 26.3564 90.4862 26.8897C91.2995 27.4097 91.9195 28.0964 92.3462 28.9497C92.7728 29.7897 92.9862 30.7097 92.9862 31.7097V32.7897H83.2862V30.9697H91.0462L90.0062 31.8097C90.0062 31.1564 89.9128 30.5964 89.7262 30.1297C89.5395 29.663 89.2595 29.3097 88.8862 29.0697C88.5262 28.8164 88.0728 28.6897 87.5262 28.6897C86.9662 28.6897 86.4928 28.8164 86.1062 29.0697C85.7195 29.323 85.4262 29.6964 85.2262 30.1897C85.0262 30.6697 84.9262 31.263 84.9262 31.9697C84.9262 32.623 85.0195 33.1964 85.2062 33.6897C85.3928 34.1697 85.6862 34.543 86.0862 34.8097C86.4862 35.0764 87.0062 35.2097 87.6462 35.2097C88.2328 35.2097 88.7128 35.0964 89.0862 34.8697C89.4595 34.643 89.7128 34.363 89.8462 34.0297H92.7862C92.6262 34.763 92.3128 35.4164 91.8462 35.9897C91.3795 36.563 90.7928 37.0097 90.0862 37.3297C89.3795 37.6497 88.5662 37.8097 87.6462 37.8097ZM95.1066 37.4297V26.4697H97.6466V31.1697H97.4666C97.4666 30.0497 97.6066 29.1164 97.8866 28.3697C98.18 27.623 98.62 27.063 99.2066 26.6897C99.7933 26.3164 100.507 26.1297 101.347 26.1297H101.487C102.767 26.1297 103.74 26.5497 104.407 27.3897C105.087 28.2164 105.427 29.4764 105.427 31.1697V37.4297H102.227V30.9897C102.227 30.403 102.053 29.923 101.707 29.5497C101.36 29.1764 100.893 28.9897 100.307 28.9897C99.7066 28.9897 99.22 29.183 98.8466 29.5697C98.4866 29.943 98.3066 30.4364 98.3066 31.0497V37.4297H95.1066ZM113.074 37.8097C112.127 37.8097 111.3 37.6564 110.594 37.3497C109.9 37.0297 109.32 36.603 108.854 36.0697C108.387 35.5364 108.04 34.9364 107.814 34.2697C107.587 33.5897 107.474 32.8897 107.474 32.1697V31.7897C107.474 31.043 107.594 30.3297 107.834 29.6497C108.074 28.9564 108.427 28.343 108.894 27.8097C109.36 27.2764 109.94 26.8564 110.634 26.5497C111.34 26.243 112.147 26.0897 113.054 26.0897C114.04 26.0897 114.914 26.283 115.674 26.6697C116.434 27.043 117.04 27.5697 117.494 28.2497C117.947 28.9297 118.2 29.7097 118.254 30.5897H115.114C115.06 30.0964 114.86 29.683 114.514 29.3497C114.18 29.003 113.694 28.8297 113.054 28.8297C112.52 28.8297 112.074 28.963 111.714 29.2297C111.367 29.4964 111.107 29.863 110.934 30.3297C110.76 30.7964 110.674 31.3497 110.674 31.9897C110.674 32.5764 110.754 33.1097 110.914 33.5897C111.074 34.0564 111.327 34.423 111.674 34.6897C112.034 34.943 112.5 35.0697 113.074 35.0697C113.5 35.0697 113.86 34.9964 114.154 34.8497C114.46 34.6897 114.7 34.4764 114.874 34.2097C115.06 33.9297 115.174 33.6097 115.214 33.2497H118.334C118.294 34.1564 118.04 34.9564 117.574 35.6497C117.107 36.3297 116.487 36.863 115.714 37.2497C114.94 37.623 114.06 37.8097 113.074 37.8097ZM120.9 37.4297V26.4697H124.1V37.4297H120.9ZM119.44 28.8297V26.4697H124.1V28.8297H119.44ZM122.14 25.3897C121.54 25.3897 121.093 25.2364 120.8 24.9297C120.52 24.6097 120.38 24.2097 120.38 23.7297C120.38 23.2364 120.52 22.8364 120.8 22.5297C121.093 22.2097 121.54 22.0497 122.14 22.0497C122.74 22.0497 123.18 22.2097 123.46 22.5297C123.753 22.8364 123.9 23.2364 123.9 23.7297C123.9 24.2097 123.753 24.6097 123.46 24.9297C123.18 25.2364 122.74 25.3897 122.14 25.3897ZM132.08 37.8097C131.146 37.8097 130.32 37.6497 129.6 37.3297C128.893 37.0097 128.3 36.583 127.82 36.0497C127.353 35.503 126.993 34.8964 126.74 34.2297C126.5 33.5497 126.38 32.8564 126.38 32.1497V31.7497C126.38 31.0164 126.5 30.3164 126.74 29.6497C126.993 28.9697 127.353 28.363 127.82 27.8297C128.286 27.2964 128.866 26.8764 129.56 26.5697C130.266 26.2497 131.066 26.0897 131.96 26.0897C133.133 26.0897 134.12 26.3564 134.92 26.8897C135.733 27.4097 136.353 28.0964 136.78 28.9497C137.206 29.7897 137.42 30.7097 137.42 31.7097V32.7897H127.72V30.9697H135.48L134.44 31.8097C134.44 31.1564 134.346 30.5964 134.16 30.1297C133.973 29.663 133.693 29.3097 133.32 29.0697C132.96 28.8164 132.506 28.6897 131.96 28.6897C131.4 28.6897 130.926 28.8164 130.54 29.0697C130.153 29.323 129.86 29.6964 129.66 30.1897C129.46 30.6697 129.36 31.263 129.36 31.9697C129.36 32.623 129.453 33.1964 129.64 33.6897C129.826 34.1697 130.12 34.543 130.52 34.8097C130.92 35.0764 131.44 35.2097 132.08 35.2097C132.666 35.2097 133.146 35.0964 133.52 34.8697C133.893 34.643 134.146 34.363 134.28 34.0297H137.22C137.06 34.763 136.746 35.4164 136.28 35.9897C135.813 36.563 135.226 37.0097 134.52 37.3297C133.813 37.6497 133 37.8097 132.08 37.8097ZM143.7 37.7697C142.14 37.7697 140.92 37.4497 140.04 36.8097C139.16 36.1697 138.694 35.2697 138.64 34.1097H141.48C141.534 34.4564 141.74 34.7697 142.1 35.0497C142.474 35.3164 143.027 35.4497 143.76 35.4497C144.32 35.4497 144.78 35.3564 145.14 35.1697C145.514 34.9697 145.7 34.6897 145.7 34.3297C145.7 34.0097 145.56 33.7564 145.28 33.5697C145 33.3697 144.5 33.2297 143.78 33.1497L142.92 33.0697C141.6 32.9364 140.607 32.5697 139.94 31.9697C139.287 31.3697 138.96 30.603 138.96 29.6697C138.96 28.8964 139.154 28.2497 139.54 27.7297C139.927 27.2097 140.46 26.8164 141.14 26.5497C141.834 26.283 142.62 26.1497 143.5 26.1497C144.914 26.1497 146.054 26.463 146.92 27.0897C147.787 27.703 148.24 28.5964 148.28 29.7697H145.44C145.387 29.4097 145.2 29.1097 144.88 28.8697C144.56 28.6164 144.087 28.4897 143.46 28.4897C142.967 28.4897 142.574 28.583 142.28 28.7697C141.987 28.9564 141.84 29.2097 141.84 29.5297C141.84 29.8364 141.967 30.0697 142.22 30.2297C142.474 30.3897 142.887 30.503 143.46 30.5697L144.32 30.6497C145.667 30.7964 146.714 31.1697 147.46 31.7697C148.207 32.3697 148.58 33.1764 148.58 34.1897C148.58 34.923 148.38 35.563 147.98 36.1097C147.58 36.643 147.014 37.0564 146.28 37.3497C145.547 37.6297 144.687 37.7697 143.7 37.7697Z" fill="#969FB2"/>
<defs>
<clipPath id="clip0_2_1236">
<rect width="40" height="40" fill="white" transform="translate(0.986481 0.429688)"/>
</clipPath>
</defs>
</svg>
