<svg width="65" height="33" viewBox="0 0 65 33" fill="none" xmlns="http://www.w3.org/2000/svg">
<path d="M28.7232 5.92965C28.9532 5.01965 29.2732 4.18965 29.6332 3.44965C28.6232 2.51965 27.6832 1.91965 27.2732 1.67965C27.1632 1.60965 27.0132 1.65965 26.9732 1.78965C26.8032 2.24965 26.4432 3.33965 26.2632 4.73965C27.0632 5.02965 27.9132 5.41965 28.7332 5.92965H28.7232Z" fill="#969FB2"/>
<path d="M39.2333 4.72947C39.0533 3.32947 38.6833 2.22947 38.5233 1.77947C38.4833 1.65947 38.3333 1.60947 38.2233 1.66947C37.8133 1.90947 36.8733 2.50947 35.8633 3.43947C36.2233 4.17947 36.5433 5.01947 36.7733 5.91947C37.5933 5.40947 38.4333 5.01947 39.2433 4.72947H39.2333Z" fill="#969FB2"/>
<path d="M28.3934 8.48952C28.3934 8.06952 28.4234 7.65952 28.4734 7.26952C26.0434 5.56952 23.1534 5.18952 22.3034 5.10952C22.1734 5.09952 22.0634 5.20952 22.0734 5.33952C22.1634 6.33952 22.6734 10.1595 25.2534 12.7495C26.9734 14.4695 29.2334 15.2695 30.8534 15.6395C29.8334 14.1595 28.3934 11.5395 28.3934 8.48952Z" fill="#969FB2"/>
<path d="M43.1833 5.09975C42.3333 5.17975 39.4433 5.55975 37.0133 7.25975C37.0633 7.65975 37.0933 8.06975 37.0933 8.47975C37.0933 11.5198 35.6533 14.1498 34.6333 15.6298C36.2533 15.2598 38.5133 14.4598 40.2333 12.7398C42.8133 10.1598 43.3233 6.33975 43.4133 5.32975C43.4233 5.19975 43.3133 5.08975 43.1833 5.09975Z" fill="#969FB2"/>
<path d="M35.8436 8.48969C35.8436 12.0897 33.5436 15.0897 32.9036 15.8497C32.8236 15.9497 32.6636 15.9497 32.5836 15.8497C31.9536 15.0897 29.6436 12.0797 29.6436 8.48969C29.6436 4.89969 31.9436 1.88969 32.5836 1.12969C32.6636 1.02969 32.8236 1.02969 32.9036 1.12969C33.5336 1.88969 35.8436 4.89969 35.8436 8.48969Z" fill="#969FB2"/>
<path d="M17.3135 16.82H15.6935V16.5H18.6835V16.82H17.7235L14.0235 28.53H13.7035L11.8035 23.16L9.8435 28.53H9.5235L5.3835 16.82H4.3335V16.5H14.9835V16.82H14.0035L12.6135 20.69L14.4935 25.81L17.3035 16.81L17.3135 16.82ZM10.3635 25.96L11.5735 22.58L9.4735 16.82H7.1835L10.3635 25.96ZM12.4135 20.06L13.5835 16.82H11.2235L12.4135 20.06Z" fill="#969FB2"/>
<path d="M18.3236 25.6801C18.3236 26.7301 18.4136 27.1701 18.7336 27.5601C19.0136 27.9501 19.5536 28.1801 20.1536 28.1801C21.4136 28.1801 22.3736 27.3601 22.6236 26.0501H22.9836C22.7136 27.5801 21.6336 28.5401 20.1736 28.5401C18.3036 28.5401 16.7036 26.8901 16.7036 24.9501C16.7036 24.1101 17.0036 23.2801 17.5436 22.5901C18.2036 21.7401 19.0336 21.3101 20.0136 21.3101C21.7036 21.3101 22.9836 22.5701 23.0536 24.3101H18.3236V25.6801ZM21.4336 23.2201C21.4336 22.1201 20.9936 21.6601 19.9436 21.6601C18.8436 21.6601 18.3236 22.2101 18.3236 23.3801V23.9801H21.4336V23.2201Z" fill="#969FB2"/>
<path d="M26.4436 28.04H27.7936V28.36H23.7036V28.04H25.0736V16.82H23.7036V16.5H26.4436V28.04Z" fill="#969FB2"/>
<path d="M30.8137 28.04H32.1637V28.36H28.0737V28.04H29.4437V16.82H28.0737V16.5H30.8137V28.04Z" fill="#969FB2"/>
<path d="M35.5234 22.4898C36.2534 21.6398 36.8934 21.2998 37.8334 21.2998C38.5634 21.2998 39.2234 21.5498 39.6234 22.0098C39.9634 22.3998 40.1034 22.8498 40.1034 23.6498V28.0398H41.2734V28.3598H37.5434V28.0398H38.7334V23.1698C38.7334 22.1698 38.3634 21.7098 37.5634 21.7098C36.8534 21.7098 36.1434 22.1498 35.8234 22.7898C35.6134 23.2198 35.5234 23.9098 35.5234 25.1898V28.0298H36.6934V28.3498H32.9634V28.0298H34.1534V21.7898H32.9634V21.4698H35.5234V22.4798V22.4898Z" fill="#969FB2"/>
<path d="M43.9237 25.6801C43.9237 26.7301 44.0137 27.1701 44.3337 27.5601C44.6137 27.9501 45.1537 28.1801 45.7537 28.1801C47.0137 28.1801 47.9737 27.3601 48.2237 26.0501H48.5837C48.3137 27.5801 47.2337 28.5401 45.7737 28.5401C43.9037 28.5401 42.3037 26.8901 42.3037 24.9501C42.3037 24.1101 42.6037 23.2801 43.1437 22.5901C43.8037 21.7401 44.6337 21.3101 45.6137 21.3101C47.3037 21.3101 48.5837 22.5701 48.6537 24.3101H43.9237V25.6801ZM47.0337 23.2201C47.0337 22.1201 46.5937 21.6601 45.5437 21.6601C44.4437 21.6601 43.9237 22.2101 43.9237 23.3801V23.9801H47.0337V23.2201Z" fill="#969FB2"/>
<path d="M54.6434 23.3798H54.3434C54.1334 22.2998 53.4034 21.6598 52.3534 21.6598C51.5134 21.6598 50.8434 22.2098 50.8434 22.9098C50.8434 23.3498 51.2034 23.5998 52.2134 23.7998L53.0134 23.9598C54.4034 24.2398 55.0234 24.9398 55.0234 26.1998C55.0234 27.5698 54.1034 28.5498 52.7834 28.5498C52.0534 28.5498 51.5734 28.3498 50.8234 27.6998L50.4134 28.3798H50.2334V25.7498H50.5334C50.6734 26.4598 50.7834 26.7498 51.0134 27.1198C51.4534 27.8298 52.0934 28.1998 52.8434 28.1998C53.7334 28.1998 54.4634 27.5798 54.4634 26.8098C54.4634 26.2398 54.0934 25.8898 53.3234 25.7398L51.9534 25.4598C50.9034 25.2598 50.3034 24.5198 50.3034 23.4498C50.3034 22.2098 51.1934 21.3198 52.4334 21.3198C53.0534 21.3198 53.5334 21.4998 54.1534 21.9998L54.4034 21.3598H54.6334V23.3998L54.6434 23.3798Z" fill="#969FB2"/>
<path d="M61.1136 23.3798H60.8136C60.6036 22.2998 59.8736 21.6598 58.8236 21.6598C57.9836 21.6598 57.3136 22.2098 57.3136 22.9098C57.3136 23.3498 57.6736 23.5998 58.6836 23.7998L59.4836 23.9598C60.8736 24.2398 61.4936 24.9398 61.4936 26.1998C61.4936 27.5698 60.5736 28.5498 59.2536 28.5498C58.5236 28.5498 58.0436 28.3498 57.2936 27.6998L56.8836 28.3798H56.7036V25.7498H57.0036C57.1436 26.4598 57.2536 26.7498 57.4836 27.1198C57.9336 27.8298 58.5636 28.1998 59.3136 28.1998C60.2036 28.1998 60.9336 27.5798 60.9336 26.8098C60.9336 26.2398 60.5636 25.8898 59.7936 25.7398L58.4236 25.4598C57.3736 25.2598 56.7736 24.5198 56.7736 23.4498C56.7736 22.2098 57.6636 21.3198 58.9036 21.3198C59.5236 21.3198 60.0036 21.4998 60.6236 21.9998L60.8736 21.3598H61.1036V23.3998L61.1136 23.3798Z" fill="#969FB2"/>
<path d="M4.37354 29.9097H62.5335" stroke="#969FB2" stroke-width="0.25" stroke-miterlimit="10"/>
</svg>
