<svg width="92" height="33" viewBox="0 0 92 33" fill="none" xmlns="http://www.w3.org/2000/svg">
<path d="M59.2462 6.64493L58.9979 4.62832L59.4606 5.85575C61.5441 5.31517 63.6386 5.08391 65.6683 5.16109L64.8528 8.44704V6.40066C63.0473 6.21103 61.144 6.29283 59.2462 6.64493ZM58.8813 8.96478L58.5311 6.11881C56.3928 6.76981 54.2801 7.74805 52.2776 9.05411C54.1549 8.00042 56.1793 7.35288 58.1426 6.87966L58.8816 8.96449L58.8813 8.96478ZM78.0796 17.3784C78.2737 18.128 78.375 18.6842 78.4583 19.4624L80.5661 19.9463L81.5299 21.9019C81.5928 20.1379 81.4058 18.402 80.9581 16.7462L82.9073 15.1811L78.0796 17.3784ZM69.9378 10.209L72.2085 6.61429C70.5118 5.87309 68.6746 5.41172 66.7638 5.23134L66.7356 3.54197L65.9879 6.5559C67.6555 6.83948 69.2472 7.35953 70.7085 8.11576L69.9375 10.2087L69.9378 10.209ZM78.1243 11.1274L79.446 9.27872L75.7754 12.4641C76.6142 13.6201 77.2627 14.8362 77.7233 16.157L75.469 17.7808L80.5774 15.4933C80.0134 13.9193 79.1988 12.4725 78.1243 11.1274ZM77.3538 10.2382C76.1639 8.96334 74.7885 7.92555 73.2787 7.12943L73.8539 5.22007L71.6772 8.66616C72.9282 9.43742 74.0668 10.3954 75.0516 11.5439L73.6537 13.449L77.3538 10.2382Z" fill="#969FB2"/>
<path d="M59.2462 6.64493L58.9979 4.62832L59.4606 5.85575C61.5441 5.31517 63.6386 5.08391 65.6683 5.16109L64.8528 8.44704V6.40066C63.0473 6.21103 61.144 6.29283 59.2462 6.64493ZM58.8813 8.96478L58.5311 6.11881C56.3928 6.76981 54.2801 7.74805 52.2776 9.05411C54.1549 8.00042 56.1793 7.35288 58.1426 6.87966L58.8816 8.96449L58.8813 8.96478ZM78.0796 17.3784C78.2737 18.128 78.375 18.6842 78.4583 19.4624L80.5661 19.9463L81.5299 21.9019C81.5928 20.1379 81.4058 18.402 80.9581 16.7462L82.9073 15.1811L78.0796 17.3784ZM69.9378 10.209L72.2085 6.61429C70.5118 5.87309 68.6746 5.41172 66.7638 5.23134L66.7356 3.54197L65.9879 6.5559C67.6555 6.83948 69.2472 7.35953 70.7085 8.11576L69.9375 10.2087L69.9378 10.209ZM78.1243 11.1274L79.446 9.27872L75.7754 12.4641C76.6142 13.6201 77.2627 14.8362 77.7233 16.157L75.469 17.7808L80.5774 15.4933C80.0134 13.9193 79.1988 12.4725 78.1243 11.1274ZM77.3538 10.2382C76.1639 8.96334 74.7885 7.92555 73.2787 7.12943L73.8539 5.22007L71.6772 8.66616C72.9282 9.43742 74.0668 10.3954 75.0516 11.5439L73.6537 13.449L77.3538 10.2382Z" fill="#969FB2"/>
<path d="M80.1268 9.87039C83.5829 14.0753 84.703 19.5467 83.7283 25.0198H85.6783C85.7135 24.8319 85.7466 24.6443 85.7769 24.4558C85.8228 24.1714 86.0178 23.9332 86.2852 23.8277L89.4802 22.5664L89.6518 20.1049L86.5324 19.7993C86.2413 19.7707 86.0114 19.5383 85.9866 19.2461C85.918 18.4349 85.8006 17.6324 85.633 16.8427C85.5776 16.5799 85.6783 16.3087 85.8897 16.1437L88.9261 13.7712L88.2219 11.5904L84.8417 12.4261C84.4532 12.5221 84.0528 12.3388 83.8633 11.9856C83.4995 11.3086 83.0896 10.6506 82.633 10.0149C82.4501 9.76083 82.444 9.42001 82.6171 9.15926L84.5991 6.17916L83.1537 4.71989L80.3792 6.54282C80.0302 6.77206 79.573 6.76049 79.2418 6.5061C78.2769 5.7652 77.2359 5.13125 76.1365 4.6031C75.9358 4.50684 75.8337 4.27963 75.8911 4.06397L76.5874 1.46516L74.8921 0.877469L73.1504 3.02445C72.9756 3.2401 72.692 3.33694 72.4232 3.26959C70.9044 2.88829 69.3254 2.67438 67.7233 2.62668C67.5029 2.62003 67.3229 2.44861 67.309 2.22804L67.1971 0.429688L65.5431 0.487503L64.7452 2.32575C64.6344 2.58101 64.3985 2.76139 64.123 2.79521C62.67 2.97386 61.2216 3.28549 59.8056 3.72951C59.6273 3.7853 59.4372 3.69453 59.3712 3.51993L58.993 2.52319L57.7921 2.85534L57.5138 4.34091C57.4835 4.50164 57.3759 4.63606 57.2267 4.70226C56.364 5.08529 55.5205 5.51977 54.7039 6.00716C63.9003 1.55565 74.3616 2.85592 80.1263 9.8701L80.1268 9.87039Z" fill="#969FB2"/>
<path d="M6.65198 26.1393C6.65198 26.1393 11.5402 20.0525 27.2271 21.4565C41.2968 22.7158 47.7145 23.0947 61.92 19.2642C61.92 19.2642 51.0269 23.7495 39.4097 23.7495C28.9036 23.7495 14.3611 20.8417 6.65227 26.1393H6.65198Z" fill="#969FB2"/>
<path d="M50.1774 24.1554C50.1774 24.1554 55.4929 23.017 60.3067 21.6702C67.6316 19.621 71.7229 18.7494 79.6864 21.1057L79.9285 22.0518L82.252 24.9938C82.252 24.9938 78.2562 21.4783 69.2935 21.4783C62.8588 21.4783 58.353 23.494 50.1771 24.1557L50.1774 24.1554Z" fill="#969FB2"/>
<path d="M30.0168 20.6702C34.2506 17.7213 41.9462 15.7148 49.8154 15.7148C55.0016 15.7148 59.9984 16.6113 63.9944 17.4178C55.0253 20.0209 47.0903 21.1894 40.5884 21.1894C37.3357 21.1894 33.9731 20.9873 30.0168 20.6705V20.6702Z" fill="#969FB2"/>
<path d="M27.8262 20.6484C27.8262 20.6484 41.3752 3.64397 76.0676 19.5811C76.0676 19.5811 46.4302 7.55346 27.8262 20.6484Z" fill="#969FB2"/>
<path d="M60.3069 21.6701C56.4504 22.749 52.2732 23.6939 50.7634 24.0273C59.7666 22.455 61.5078 21.3409 68.1334 20.6303C74.8093 19.9145 79.9289 22.0514 79.9289 22.0514L79.6869 21.1053C71.7233 18.749 67.6318 19.6206 60.3072 21.6698L60.3069 21.6701Z" fill="#969FB2"/>
<path d="M27.2271 21.4565C11.5402 20.0524 6.65198 26.1393 6.65198 26.1393C6.65198 26.1393 11.3937 21.3189 24.8732 22.1263C38.353 22.9337 45.3768 24.4776 61.9197 19.2638C47.7145 23.0944 41.2965 22.7154 27.2268 21.4562L27.2271 21.4565Z" fill="#969FB2"/>
<path d="M47.9686 13.6652C59.5514 13.298 71.2099 17.5825 74.7764 19.077C75.3952 19.308 75.806 19.4733 75.977 19.5436L75.9831 19.5427C41.3536 3.67205 27.8262 20.6484 27.8262 20.6484C27.8262 20.6484 34.0676 14.1057 47.9689 13.6652H47.9686Z" fill="#969FB2"/>
<path d="M5.19671 32.4294C5.07959 32.4294 5.01065 32.3814 4.96796 32.2921L3.862 29.5383L1.51738 31.6191H3.93123C4.00046 31.6191 4.027 31.6535 4.027 31.7084C4.027 31.729 4.02181 31.7703 4.00565 31.8044L3.85681 32.2438C3.8144 32.3675 3.74517 32.4294 3.65488 32.4294H0.108537C0.0606528 32.4294 0.0393066 32.4019 0.0393066 32.347C0.0393066 32.299 0.0713259 32.251 0.124403 32.2028L4.95209 27.8764C5.04786 27.794 5.13296 27.746 5.22325 27.746H5.56882C5.66979 27.746 5.72315 27.794 5.76036 27.8764L7.55748 32.1889C7.56267 32.2163 7.56815 32.2438 7.56815 32.2713C7.56815 32.3537 7.51507 32.4291 7.39796 32.4291H5.19671V32.4294Z" fill="#969FB2"/>
<path d="M9.25943 32.4294C8.35568 32.4294 7.96741 32.031 7.96741 31.3444C7.96741 31.0424 8.04702 30.6784 8.18548 30.2731L8.99895 27.9247C9.04135 27.8079 9.10539 27.746 9.20087 27.746H11.184C11.2533 27.746 11.285 27.7735 11.285 27.8353C11.285 27.8628 11.2798 27.8903 11.2637 27.9247L10.4554 30.2731C10.3544 30.5752 10.2959 30.8293 10.2959 31.0424C10.2959 31.4132 10.4713 31.6191 10.8595 31.6191H11.7739C12.38 31.6191 12.832 31.1109 13.1245 30.2731L13.9328 27.9247C13.9752 27.8079 14.0444 27.746 14.1347 27.746H14.778C14.8417 27.746 14.8738 27.7735 14.8738 27.8353C14.8738 27.8628 14.8686 27.8903 14.8579 27.9247L14.0444 30.2731C13.6296 31.4748 12.7259 32.4294 11.4924 32.4294H9.25943Z" fill="#969FB2"/>
<path d="M15.4593 32.4291C15.4115 32.4291 15.3797 32.4085 15.3797 32.3811C15.3797 32.3672 15.3849 32.3536 15.3904 32.34L16.6931 28.5494H15.1406C15.0875 28.5494 15.0662 28.5358 15.0662 28.5014V28.4739L15.2842 27.8353C15.3108 27.7735 15.3535 27.746 15.4172 27.746H20.6384C20.6863 27.746 20.7128 27.7596 20.7128 27.794C20.7128 27.8079 20.7076 27.8215 20.7076 27.8353L20.4895 28.4739C20.4682 28.5288 20.4258 28.5494 20.362 28.5494H18.7989L17.4962 32.34C17.4748 32.4019 17.4324 32.4294 17.3687 32.4294H15.4599L15.4593 32.4291Z" fill="#969FB2"/>
<path d="M20.9998 32.4294C20.2607 32.4294 19.8621 31.7908 19.8621 30.9461C19.8621 29.3391 21.202 27.746 22.6163 27.746H25.2217C25.9714 27.746 26.37 28.364 26.37 29.2087C26.37 30.8224 24.9929 32.4294 23.6054 32.4294H21H20.9998ZM24.2005 29.6207C24.3176 29.2981 24.3759 29.0645 24.3759 28.8997C24.3759 28.6387 24.2271 28.5494 23.9452 28.5494H23.2221C22.8073 28.5494 22.5523 28.7899 22.2704 29.6207L22.0151 30.3691C21.877 30.7674 21.8132 31.049 21.8132 31.2482C21.8132 31.5159 21.9355 31.6191 22.1643 31.6191H22.8926C23.3285 31.6191 23.6265 31.3031 23.9455 30.3694L24.2008 29.621L24.2005 29.6207Z" fill="#969FB2"/>
<path d="M31.0385 32.4291C30.9693 32.4291 30.9376 32.4016 30.9376 32.3467C30.9376 32.3123 30.9428 32.2848 30.9534 32.2438L31.5595 30.5064L29.4592 32.2438C29.3049 32.3744 29.1722 32.4294 29.0658 32.4294H28.7574C28.6509 32.4294 28.5448 32.3744 28.4649 32.2438L27.3855 30.5064L26.7846 32.2438C26.7422 32.3675 26.673 32.4294 26.5772 32.4294H26.0828C26.0135 32.4294 25.9818 32.4019 25.9818 32.347C25.9818 32.3126 25.987 32.2851 26.0032 32.2441L27.4919 27.9247C27.5343 27.8079 27.6035 27.746 27.6993 27.746H28.1193C28.2309 27.746 28.3319 27.8079 28.3957 27.9247L29.8844 30.8362L33.5531 27.9247C33.7074 27.8079 33.8614 27.746 33.9889 27.746H34.4144C34.4782 27.746 34.5102 27.7735 34.5102 27.8353C34.5102 27.8628 34.5102 27.8903 34.4943 27.9247L33.0004 32.2441C32.958 32.3678 32.8939 32.4296 32.7982 32.4296H31.0383L31.0385 32.4291Z" fill="#969FB2"/>
<path d="M35.298 32.4294C34.5589 32.4294 34.1603 31.7908 34.1603 30.9461C34.1603 29.3391 35.5002 27.746 36.9145 27.746H39.5199C40.2696 27.746 40.6683 28.364 40.6683 29.2087C40.6683 30.8224 39.2911 32.4294 37.9036 32.4294H35.2983H35.298ZM38.4987 29.6207C38.6159 29.2981 38.6741 29.0645 38.6741 28.8997C38.6741 28.6387 38.5253 28.5494 38.2435 28.5494H37.5203C37.1055 28.5494 36.8505 28.7899 36.5686 29.6207L36.3134 30.3691C36.1752 30.7674 36.1111 31.049 36.1111 31.2482C36.1111 31.5159 36.2335 31.6191 36.4622 31.6191H37.1906C37.6264 31.6191 37.9244 31.3031 38.2435 30.3694L38.4987 29.621V29.6207Z" fill="#969FB2"/>
<path d="M41.5402 32.4291C41.4923 32.4291 41.4603 32.4085 41.4603 32.3811C41.4603 32.3672 41.4655 32.3536 41.471 32.34L42.7736 28.5494H41.2212C41.1681 28.5494 41.1467 28.5358 41.1467 28.5014V28.4739L41.3648 27.8353C41.3913 27.7735 41.434 27.746 41.4978 27.746H46.7189C46.7668 27.746 46.7934 27.7596 46.7934 27.794C46.7934 27.8079 46.7882 27.8215 46.7882 27.8353L46.5701 28.4739C46.5487 28.5288 46.5063 28.5494 46.4426 28.5494H44.8794L43.5767 32.34C43.5554 32.4019 43.513 32.4294 43.4492 32.4294H41.5405L41.5402 32.4291Z" fill="#969FB2"/>
<path d="M45.8262 32.4294C45.7625 32.4294 45.7305 32.4019 45.7305 32.347C45.7305 32.3126 45.7357 32.2851 45.7463 32.2441L47.2403 27.9247C47.2827 27.8079 47.3519 27.746 47.4422 27.746H49.2713C49.3403 27.746 49.3723 27.7735 49.3723 27.8353C49.3723 27.8628 49.3671 27.8903 49.3509 27.9247L47.8622 32.2441C47.8198 32.3678 47.7506 32.4296 47.6603 32.4296H45.826L45.8262 32.4294Z" fill="#969FB2"/>
<path d="M52.4404 32.2918C52.3446 32.3811 52.2543 32.4291 52.1692 32.4291H51.8182C51.7224 32.4291 51.6693 32.3811 51.6321 32.2918L49.835 27.9793C49.8243 27.9588 49.8243 27.9244 49.8243 27.9038C49.8243 27.8145 49.8774 27.746 49.9945 27.746H52.1796C52.2967 27.746 52.3712 27.7871 52.4084 27.8833L53.5143 30.6371L56.6141 27.8833C56.7151 27.794 56.8164 27.746 56.9384 27.746H57.284C57.3318 27.746 57.3532 27.7735 57.3532 27.8215C57.3532 27.8694 57.3212 27.9174 57.2681 27.9723L52.4404 32.2918Z" fill="#969FB2"/>
<path d="M57.3909 32.4294C56.6677 32.4294 56.2584 31.8113 56.2584 30.9461C56.2584 29.346 57.6035 27.746 59.0072 27.746H62.7237C62.7875 27.746 62.8195 27.7735 62.8195 27.8353C62.8195 27.8628 62.814 27.8903 62.8036 27.9247L62.6493 28.3641C62.6069 28.4878 62.5377 28.5494 62.4419 28.5494H59.9695C59.5123 28.5494 59.2625 28.776 58.9752 29.6207L58.7199 30.3691C58.5869 30.7536 58.5179 31.0282 58.5179 31.2274C58.5179 31.5089 58.6561 31.6188 58.9114 31.6188H61.4049C61.4686 31.6188 61.5006 31.6532 61.5006 31.7081C61.5006 31.7286 61.4951 31.77 61.4793 31.8041L61.3304 32.2435C61.288 32.3672 61.2188 32.4291 61.123 32.4291H57.3906L57.3909 32.4294ZM59.2677 30.2798C59.2039 30.2798 59.1719 30.2523 59.1719 30.1974C59.1719 30.1699 59.1774 30.1355 59.1932 30.1014L59.3421 29.6551C59.3845 29.5383 59.4537 29.4764 59.5495 29.4764H62.0856C62.1601 29.4764 62.1973 29.4969 62.1973 29.5452C62.1973 29.5591 62.1918 29.5796 62.1866 29.6001L61.9899 30.1563C61.9633 30.2387 61.8996 30.2801 61.809 30.2801H59.2677V30.2798Z" fill="#969FB2"/>
<path d="M65.5478 32.4294C64.8246 32.4294 64.4153 31.8113 64.4153 30.9461C64.4153 29.346 65.7604 27.746 67.164 27.746H70.7848C70.8486 27.746 70.8806 27.7735 70.8806 27.8353C70.8806 27.8628 70.8806 27.8903 70.8647 27.9247L70.7107 28.3641C70.6683 28.4878 70.599 28.5494 70.5033 28.5494H68.1266C67.6694 28.5494 67.4196 28.776 67.1323 29.6207L66.877 30.3691C66.744 30.7536 66.6751 31.0282 66.6751 31.2274C66.6751 31.5089 66.8133 31.6188 67.0686 31.6188H69.4665C69.5355 31.6188 69.5623 31.6532 69.5623 31.7081C69.5623 31.7286 69.5571 31.77 69.541 31.8041L69.3921 32.2435C69.3497 32.3672 69.2805 32.4291 69.1902 32.4291H65.5481L65.5478 32.4294Z" fill="#969FB2"/>
<path d="M74.8206 32.4294C74.7035 32.4294 74.6346 32.3814 74.5919 32.292L73.4859 29.5383L71.141 31.6191H73.5549C73.6241 31.6191 73.6507 31.6535 73.6507 31.7084C73.6507 31.7289 73.6452 31.7703 73.6293 31.8044L73.4805 32.2438C73.4381 32.3675 73.3688 32.4294 73.2785 32.4294H69.7322C69.6843 32.4294 69.663 32.4019 69.663 32.347C69.663 32.299 69.695 32.251 69.7481 32.2027L74.5757 27.8764C74.6715 27.794 74.7566 27.746 74.8469 27.746H75.1925C75.2934 27.746 75.3465 27.794 75.384 27.8764L77.1811 32.1888C77.1866 32.2163 77.1918 32.2438 77.1918 32.2712C77.1918 32.3536 77.1387 32.4291 77.0216 32.4291H74.8204L74.8206 32.4294Z" fill="#969FB2"/>
<path d="M82.1001 32.4294C81.9619 32.4294 81.8609 32.3744 81.8076 32.2438L80.9197 30.067C80.8983 30.0257 80.8825 29.9916 80.8825 29.9366C80.8825 29.9092 80.8931 29.8678 80.9145 29.8129L80.973 29.6551C81.0154 29.5383 81.0795 29.4764 81.175 29.4764H81.8981C82.3605 29.4764 82.6 29.1879 82.6 28.8584C82.6 28.6661 82.4777 28.5494 82.2172 28.5494H81.0316L79.7554 32.2438C79.713 32.3675 79.649 32.4294 79.5535 32.4294H77.7299C77.6661 32.4294 77.6289 32.4019 77.6289 32.347C77.6289 32.3126 77.6341 32.2851 77.6503 32.2441L79.1442 27.9247C79.1866 27.8079 79.2506 27.746 79.3464 27.746H83.9932C84.4877 27.746 84.7908 28.0825 84.7908 28.5768C84.7908 29.4764 84.0731 30.1289 83.2063 30.2662L84.0091 32.2097C84.0146 32.2232 84.0198 32.2507 84.0198 32.2715C84.0198 32.347 83.9612 32.4294 83.8761 32.4294H82.1003H82.1001Z" fill="#969FB2"/>
<path d="M85.8223 32.4294C85.0991 32.4294 84.6898 31.8113 84.6898 30.9461C84.6898 29.346 86.0349 27.746 87.4386 27.746H91.1551C91.2189 27.746 91.2509 27.7735 91.2509 27.8353C91.2509 27.8628 91.2454 27.8903 91.235 27.9247L91.0807 28.3641C91.0383 28.4878 90.969 28.5494 90.8733 28.5494H88.4009C87.9437 28.5494 87.6939 28.776 87.4065 29.6207L87.1513 30.3691C87.0183 30.7536 86.9491 31.0282 86.9491 31.2274C86.9491 31.5089 87.0872 31.6188 87.3425 31.6188H89.836C89.8997 31.6188 89.9317 31.6532 89.9317 31.7081C89.9317 31.7286 89.9263 31.77 89.9104 31.8041L89.7616 32.2435C89.7191 32.3672 89.6499 32.4291 89.5541 32.4291H85.8217L85.8223 32.4294ZM87.6993 30.2798C87.6356 30.2798 87.6036 30.2523 87.6036 30.1974C87.6036 30.1699 87.609 30.1355 87.6249 30.1014L87.7738 29.6551C87.8162 29.5383 87.8854 29.4764 87.9812 29.4764H90.5173C90.5917 29.4764 90.6289 29.4969 90.6289 29.5452C90.6289 29.5591 90.6235 29.5796 90.6183 29.6001L90.4215 30.1563C90.395 30.2387 90.3313 30.2801 90.2407 30.2801H87.6993V30.2798Z" fill="#969FB2"/>
</svg>
