<svg width="44" height="32" viewBox="0 0 44 32" fill="none" xmlns="http://www.w3.org/2000/svg">
<path d="M8.18109 1.87059C9.86088 2.09265 11.5069 2.5805 13.0113 3.37117C16.2495 5.06689 18.7793 8.20599 19.3932 11.806C19.4337 12.0483 19.4674 12.304 19.3763 12.5328C19.2684 12.8087 19.012 12.9937 18.7658 13.1619C17.3559 14.1276 15.9459 15.0932 14.536 16.0554C15.0217 13.8853 14.4753 11.5066 13.0855 9.76713C11.6958 8.02767 9.49996 6.95775 7.27036 6.94093C7.27036 11.7758 7.26361 16.6139 7.26361 21.4488C8.91305 21.9602 10.7042 21.1157 11.9859 19.9583C13.2677 18.8009 14.2358 17.3306 15.531 16.19C17.0624 14.8375 19.0019 13.993 20.4793 12.5832C21.2113 11.8834 21.8319 11.0187 22.0208 10.0228C22.2097 9.02693 21.8758 7.89645 21.0359 7.32785C20.223 6.77943 19.1234 6.85345 18.2093 7.21009C17.2614 5.89793 16.1348 4.71698 14.8733 3.70089C16.4013 2.382 18.4892 1.72928 20.4996 1.94461C22.5099 2.15994 24.4123 3.23995 25.6267 4.85492C27.8664 2.9607 30.7976 1.90087 33.7322 1.91769C36.6667 1.93451 39.5844 3.03135 41.8006 4.95249C42.0266 5.14764 42.266 5.41007 42.2121 5.70278C42.1783 5.8811 39.9993 8.01758 39.0448 8.95292C37.4425 7.62056 35.3546 6.83999 33.27 6.9342C31.1855 7.02841 29.1313 8.02431 27.8765 9.68975C27.0062 10.8471 26.5441 12.2602 25.8021 13.5051C24.5203 15.6651 22.4492 17.2465 20.2904 18.5317C18.9851 19.3089 17.484 20.1871 17.2142 21.6776C18.7591 21.6708 20.3073 21.6607 21.8522 21.654C22.1052 21.654 22.3649 21.654 22.601 21.7415C22.9079 21.8592 23.1407 22.1149 23.3633 22.3538C24.9959 24.1135 26.9152 25.6073 29.0267 26.758C23.5151 26.7681 18.0069 26.7815 12.4953 26.7916L12.0264 25.8462C9.03111 26.8118 5.81319 27.0944 2.69309 26.6604C2.57841 26.6436 2.4536 26.6234 2.3794 26.5359C2.30182 26.4484 2.29844 26.3206 2.29844 26.2062C2.29844 20.0592 2.28832 4.69006 2.29844 3.15584C2.30519 2.21041 2.21074 2.22723 3.07425 1.98498C3.69827 1.81003 4.42686 1.7932 5.07111 1.75619C6.10665 1.699 7.1523 1.73264 8.18109 1.86722V1.87059Z" fill="#969FB2"/>
<path d="M26.163 14.4033C26.5239 21.0045 33.9683 24.0158 38.984 19.7125C39.3517 19.726 42.3099 23.1242 42.1547 23.3126C41.6724 23.9081 39.4698 25.3212 38.7041 25.6543C33.7996 27.7941 28.1261 26.6973 24.5068 22.7339C23.8794 22.0475 21.5722 18.8983 22.0546 18.0673C22.1119 17.9697 23.5657 16.994 23.8727 16.7047C24.5574 16.062 25.3905 15.3185 26.1562 14.4033H26.163Z" fill="#969FB2"/>
<path d="M3.47547 30.7619H2.40283V27.6094H3.49571C3.80941 27.6094 4.07925 27.6733 4.30525 27.7978C4.53124 27.9223 4.70327 28.104 4.8247 28.3395C4.94613 28.575 5.00685 28.8542 5.00685 29.184C5.00685 29.5137 4.94613 29.7963 4.8247 30.0318C4.70327 30.2674 4.52787 30.449 4.2985 30.5769C4.06913 30.7047 3.79591 30.7653 3.4721 30.7653L3.47547 30.7619ZM2.97626 30.2674H3.44849C3.66774 30.2674 3.85326 30.227 3.9983 30.1462C4.14671 30.0655 4.25465 29.9444 4.32886 29.7829C4.40307 29.6214 4.44017 29.4195 4.44017 29.1806C4.44017 28.9417 4.40307 28.7399 4.32886 28.5784C4.25465 28.4202 4.14671 28.2991 4.00167 28.2184C3.85663 28.1376 3.67786 28.0972 3.46198 28.0972H2.97288V30.264L2.97626 30.2674Z" fill="#969FB2"/>
<path d="M5.80966 28.0602C5.72196 28.0602 5.64437 28.0299 5.58029 27.9694C5.5162 27.9088 5.48584 27.8381 5.48584 27.754C5.48584 27.6699 5.5162 27.5993 5.58029 27.5421C5.64437 27.4815 5.72196 27.4546 5.80966 27.4546C5.89736 27.4546 5.97494 27.4849 6.03902 27.5454C6.10311 27.606 6.13347 27.6766 6.13347 27.7608C6.13347 27.8449 6.10311 27.9155 6.03902 27.9727C5.97494 28.0333 5.90073 28.0602 5.80966 28.0602ZM5.52969 30.7619V28.3967H6.08962V30.7619H5.52969Z" fill="#969FB2"/>
<path d="M6.66309 30.7617V28.3964H7.20615V28.7901H7.22976C7.27361 28.6521 7.34782 28.5478 7.45239 28.4738C7.55695 28.3998 7.67838 28.3628 7.81331 28.3628C7.84366 28.3628 7.87739 28.3628 7.91787 28.3662C7.95497 28.3662 7.98871 28.3729 8.01569 28.3762V28.8877C7.99208 28.8809 7.95498 28.8708 7.90438 28.8641C7.85378 28.8574 7.80319 28.854 7.75596 28.854C7.65477 28.854 7.5637 28.8742 7.48274 28.9179C7.40179 28.9617 7.3377 29.0222 7.29385 29.0996C7.24663 29.177 7.22302 29.2645 7.22302 29.3654V30.755H6.66309V30.7617Z" fill="#969FB2"/>
<path d="M9.43928 30.8054C9.20317 30.8054 8.99741 30.755 8.82538 30.6574C8.65335 30.5598 8.5218 30.4185 8.42736 30.2368C8.33291 30.0551 8.28906 29.8398 8.28906 29.5908C8.28906 29.3419 8.33629 29.1333 8.42736 28.9482C8.5218 28.7632 8.64998 28.6185 8.81864 28.5176C8.98729 28.4133 9.18293 28.3628 9.40892 28.3628C9.55397 28.3628 9.69226 28.3863 9.82381 28.4334C9.95536 28.4806 10.07 28.5512 10.1712 28.6488C10.2724 28.7463 10.35 28.8708 10.4074 29.0222C10.4647 29.1736 10.4951 29.352 10.4951 29.5606V29.7322H8.55216V29.3553H9.96211C9.96211 29.2477 9.9385 29.1535 9.89127 29.0693C9.84742 28.9852 9.78334 28.9213 9.70238 28.8708C9.62143 28.8237 9.52698 28.8002 9.41904 28.8002C9.30436 28.8002 9.20317 28.8271 9.11884 28.8809C9.03114 28.9348 8.96368 29.0088 8.91646 29.0963C8.86923 29.1837 8.84562 29.2813 8.84225 29.389V29.7187C8.84225 29.8566 8.86923 29.9744 8.91646 30.072C8.96705 30.1695 9.03789 30.2436 9.12896 30.2974C9.22003 30.3512 9.3246 30.3748 9.44603 30.3748C9.52698 30.3748 9.60119 30.3647 9.66528 30.3411C9.72937 30.3176 9.78671 30.2839 9.83731 30.2402C9.88453 30.1965 9.92163 30.1393 9.94524 30.072L10.4681 30.1292C10.4343 30.2671 10.3736 30.3849 10.2792 30.4892C10.1881 30.5901 10.07 30.6709 9.92501 30.7281C9.78334 30.7853 9.61806 30.8122 9.43254 30.8122L9.43928 30.8054Z" fill="#969FB2"/>
<path d="M11.9995 30.8055C11.7634 30.8055 11.561 30.755 11.3889 30.6507C11.2203 30.5464 11.0887 30.4017 10.9977 30.2201C10.9066 30.0384 10.8594 29.8264 10.8594 29.5875C10.8594 29.3487 10.9066 29.1333 10.9977 28.9516C11.0887 28.7666 11.2203 28.6219 11.3889 28.521C11.5576 28.42 11.76 28.3662 11.9894 28.3662C12.1816 28.3662 12.3536 28.3999 12.5021 28.4705C12.6505 28.5412 12.7685 28.6387 12.8596 28.7666C12.9473 28.8944 12.9979 29.0425 13.0114 29.2141H12.4785C12.4582 29.0997 12.4042 29.0055 12.3267 28.9281C12.2457 28.8507 12.1378 28.8137 12.0028 28.8137C11.8882 28.8137 11.787 28.844 11.7026 28.9045C11.6149 28.9651 11.5475 29.0526 11.5003 29.167C11.453 29.2814 11.4294 29.4159 11.4294 29.5774C11.4294 29.7389 11.453 29.8769 11.5003 29.9913C11.5475 30.1057 11.6149 30.1965 11.6993 30.2571C11.7836 30.321 11.8882 30.3513 12.0028 30.3513C12.0838 30.3513 12.158 30.3345 12.2255 30.3042C12.2896 30.2739 12.3469 30.2268 12.3908 30.1662C12.4346 30.1057 12.465 30.035 12.4818 29.9475H13.0148C13.0013 30.1158 12.9507 30.2638 12.8664 30.3917C12.782 30.5195 12.664 30.6204 12.5189 30.6945C12.3705 30.7651 12.1985 30.8021 11.9995 30.8021V30.8055Z" fill="#969FB2"/>
<path d="M14.6606 28.3933V28.824H13.2979V28.3933H14.6606ZM13.6318 27.8281H14.1917V30.0487C14.1917 30.1227 14.2018 30.1799 14.2254 30.2202C14.2491 30.2606 14.2794 30.2875 14.3165 30.301C14.3536 30.3145 14.3975 30.3212 14.4447 30.3212C14.4784 30.3212 14.5122 30.3212 14.5425 30.3145C14.5729 30.3077 14.5931 30.3044 14.61 30.301L14.7044 30.7384C14.6741 30.7485 14.6336 30.7586 14.5762 30.772C14.5223 30.7855 14.4548 30.7922 14.3739 30.7922C14.2322 30.7956 14.1074 30.7754 13.9961 30.7283C13.8848 30.6812 13.7937 30.6105 13.7296 30.5096C13.6655 30.412 13.6318 30.2875 13.6318 30.1395V27.8247V27.8281Z" fill="#969FB2"/>
<path d="M17.3896 28.3933V28.824H16.0269V28.3933H17.3896ZM16.3642 27.8281H16.9241V30.0487C16.9241 30.1227 16.9342 30.1799 16.9578 30.2202C16.9814 30.2606 17.0118 30.2875 17.0489 30.301C17.086 30.3145 17.1299 30.3212 17.1771 30.3212C17.2108 30.3212 17.2445 30.3212 17.2749 30.3145C17.3053 30.3077 17.3255 30.3044 17.3424 30.301L17.4368 30.7384C17.4064 30.7485 17.366 30.7586 17.3086 30.772C17.2547 30.7855 17.1872 30.7922 17.1062 30.7922C16.9646 30.7956 16.8398 30.7754 16.7285 30.7283C16.6171 30.6812 16.5261 30.6105 16.462 30.5096C16.3979 30.412 16.3642 30.2875 16.3642 30.1395V27.8247V27.8281Z" fill="#969FB2"/>
<path d="M18.8941 30.8055C18.6613 30.8055 18.4623 30.755 18.2903 30.6541C18.1216 30.5532 17.9901 30.4118 17.8956 30.2268C17.8012 30.0451 17.7573 29.8298 17.7573 29.5875C17.7573 29.3453 17.8045 29.13 17.8956 28.9449C17.9867 28.7599 18.1216 28.6186 18.2903 28.5176C18.4589 28.4167 18.6613 28.3662 18.8941 28.3662C19.1268 28.3662 19.3258 28.4167 19.4978 28.5176C19.6699 28.6186 19.798 28.7632 19.8925 28.9449C19.9869 29.13 20.0308 29.3419 20.0308 29.5875C20.0308 29.8331 19.9836 30.0451 19.8925 30.2268C19.798 30.4085 19.6665 30.5532 19.4978 30.6541C19.3292 30.755 19.1268 30.8055 18.8941 30.8055ZM18.8974 30.3614C19.0222 30.3614 19.1268 30.3277 19.2111 30.2571C19.2954 30.1864 19.3595 30.0956 19.4 29.9778C19.4405 29.8601 19.4641 29.7288 19.4641 29.5875C19.4641 29.4462 19.4439 29.3116 19.4 29.1939C19.3562 29.0761 19.2954 28.9819 19.2111 28.9113C19.1268 28.8406 19.0222 28.807 18.8974 28.807C18.7726 28.807 18.6613 28.8406 18.577 28.9113C18.4927 28.9819 18.4286 29.0761 18.3881 29.1939C18.3476 29.3116 18.324 29.4429 18.324 29.5875C18.324 29.7322 18.3442 29.8601 18.3881 29.9778C18.4286 30.0956 18.4927 30.1898 18.577 30.2571C18.6613 30.3277 18.7692 30.3614 18.8974 30.3614Z" fill="#969FB2"/>
<path d="M24.3145 28.6689H23.7377C23.7208 28.5747 23.6905 28.4906 23.6466 28.4166C23.6028 28.3426 23.5454 28.282 23.4813 28.2282C23.4139 28.1777 23.3397 28.1373 23.2553 28.1104C23.171 28.0835 23.0799 28.0701 22.9855 28.0701C22.8135 28.0701 22.6617 28.1138 22.5268 28.1979C22.3918 28.282 22.2906 28.4099 22.2164 28.5747C22.1422 28.7396 22.1051 28.9415 22.1051 29.177C22.1051 29.4125 22.1422 29.6211 22.2198 29.786C22.294 29.9508 22.3986 30.0753 22.5301 30.1594C22.6617 30.2435 22.8135 30.2839 22.9855 30.2839C23.0799 30.2839 23.1676 30.2705 23.252 30.2469C23.3363 30.2234 23.4105 30.183 23.4746 30.1359C23.542 30.0854 23.596 30.0248 23.6432 29.9542C23.6905 29.8835 23.7208 29.7994 23.7377 29.7086H24.3145C24.2942 29.86 24.247 30.0013 24.1762 30.1325C24.1054 30.2637 24.0109 30.3781 23.8962 30.4791C23.7815 30.58 23.6466 30.6574 23.4915 30.7146C23.3363 30.7718 23.1643 30.7987 22.9787 30.7987C22.7022 30.7987 22.4525 30.7348 22.2333 30.6069C22.014 30.4791 21.842 30.294 21.7172 30.0518C21.5924 29.8095 21.5283 29.5202 21.5283 29.1804C21.5283 28.8405 21.5924 28.5512 21.7172 28.3089C21.8454 28.0667 22.0174 27.8816 22.2333 27.7538C22.4525 27.6259 22.6988 27.562 22.9754 27.562C23.1508 27.562 23.3161 27.5856 23.4678 27.636C23.6196 27.6865 23.7546 27.7572 23.8726 27.8514C23.9907 27.9456 24.0885 28.0633 24.1661 28.1979C24.2436 28.3359 24.2942 28.4906 24.3179 28.6656L24.3145 28.6689Z" fill="#969FB2"/>
<path d="M25.8491 30.8055C25.6164 30.8055 25.4174 30.755 25.2453 30.6541C25.0767 30.5532 24.9451 30.4118 24.8507 30.2268C24.7563 30.0451 24.7124 29.8298 24.7124 29.5875C24.7124 29.3453 24.7596 29.13 24.8507 28.9449C24.9418 28.7599 25.0767 28.6186 25.2453 28.5176C25.414 28.4167 25.6164 28.3662 25.8491 28.3662C26.0819 28.3662 26.2809 28.4167 26.4529 28.5176C26.6249 28.6186 26.7531 28.7632 26.8476 28.9449C26.942 29.13 26.9859 29.3419 26.9859 29.5875C26.9859 29.8331 26.9386 30.0451 26.8476 30.2268C26.7531 30.4085 26.6216 30.5532 26.4529 30.6541C26.2843 30.755 26.0819 30.8055 25.8491 30.8055ZM25.8525 30.3614C25.9773 30.3614 26.0819 30.3277 26.1662 30.2571C26.2505 30.1864 26.3146 30.0956 26.3551 29.9778C26.3956 29.8601 26.4192 29.7288 26.4192 29.5875C26.4192 29.4462 26.3989 29.3116 26.3551 29.1939C26.3112 29.0761 26.2505 28.9819 26.1662 28.9113C26.0819 28.8406 25.9773 28.807 25.8525 28.807C25.7277 28.807 25.6164 28.8406 25.5321 28.9113C25.4477 28.9819 25.3836 29.0761 25.3432 29.1939C25.3027 29.3116 25.2791 29.4429 25.2791 29.5875C25.2791 29.7322 25.2993 29.8601 25.3432 29.9778C25.3836 30.0956 25.4477 30.1898 25.5321 30.2571C25.6164 30.3277 25.7243 30.3614 25.8525 30.3614Z" fill="#969FB2"/>
<path d="M28.0179 29.3756V30.7618H27.458V28.3965H27.991V28.8002H28.0179C28.0719 28.669 28.1596 28.5614 28.281 28.484C28.4025 28.4066 28.5509 28.3662 28.7263 28.3662C28.8882 28.3662 29.0332 28.3999 29.1547 28.4705C29.2761 28.5412 29.3705 28.6421 29.438 28.7733C29.5055 28.9045 29.5392 29.066 29.5392 29.2544V30.7618H28.9793V29.3419C28.9793 29.1838 28.9388 29.0593 28.8578 28.9718C28.7769 28.8843 28.6622 28.8372 28.5205 28.8372C28.4227 28.8372 28.335 28.8574 28.2608 28.9012C28.1866 28.9449 28.1259 29.0055 28.082 29.0862C28.0382 29.167 28.0179 29.2645 28.0179 29.3789V29.3756Z" fill="#969FB2"/>
<path d="M31.9849 29.019L31.4755 29.0762C31.4621 29.0257 31.4351 28.9752 31.4013 28.9315C31.3642 28.8878 31.317 28.8508 31.2597 28.8238C31.199 28.7969 31.1281 28.7835 31.0404 28.7835C30.9257 28.7835 30.8279 28.8104 30.747 28.8575C30.6694 28.908 30.6289 28.9719 30.6289 29.0526C30.6289 29.1199 30.6525 29.1771 30.7065 29.2209C30.7605 29.2646 30.8448 29.2982 30.9662 29.3285L31.371 29.416C31.597 29.4631 31.7623 29.5405 31.8736 29.6448C31.9815 29.7491 32.0388 29.887 32.0388 30.0553C32.0388 30.2033 31.995 30.3345 31.9073 30.4489C31.823 30.5633 31.7015 30.6508 31.5498 30.7147C31.398 30.7786 31.2226 30.8089 31.0236 30.8089C30.7335 30.8089 30.5007 30.7483 30.322 30.6272C30.1432 30.5061 30.0386 30.3345 30.0049 30.1192L30.5513 30.0654C30.5749 30.173 30.6289 30.2538 30.7099 30.3076C30.7908 30.3614 30.8954 30.3883 31.0236 30.3883C31.1517 30.3883 31.263 30.3614 31.344 30.3076C31.4249 30.2538 31.4654 30.1865 31.4654 30.1057C31.4654 30.0384 31.4384 29.9812 31.3878 29.9375C31.3372 29.8938 31.2563 29.8601 31.145 29.8366L30.7402 29.7524C30.5142 29.7053 30.3456 29.6246 30.2343 29.5136C30.1263 29.4025 30.0723 29.2579 30.0723 29.0863C30.0723 28.9416 30.1128 28.8137 30.1904 28.7061C30.268 28.5984 30.3827 28.5143 30.5277 28.4571C30.6728 28.3965 30.838 28.3696 31.0303 28.3696C31.3069 28.3696 31.5261 28.4302 31.688 28.5479C31.8466 28.6657 31.9478 28.8272 31.9849 29.0257V29.019Z" fill="#969FB2"/>
<path d="M34.0087 29.7658V28.3965H34.5686V30.7617H34.0256V30.3412H34.002C33.948 30.4724 33.8603 30.5834 33.7389 30.6675C33.6174 30.7517 33.4656 30.7954 33.2902 30.7954C33.1351 30.7954 32.9968 30.7617 32.8787 30.6911C32.7607 30.6204 32.6662 30.5195 32.5988 30.3883C32.5313 30.2571 32.4976 30.0956 32.4976 29.9072V28.3998H33.0575V29.8197C33.0575 29.9711 33.098 30.0888 33.1823 30.1763C33.2632 30.2638 33.3712 30.3075 33.5061 30.3075C33.5871 30.3075 33.668 30.2873 33.7456 30.247C33.8232 30.2066 33.8873 30.146 33.9379 30.0687C33.9885 29.9879 34.0121 29.8903 34.0121 29.7692L34.0087 29.7658Z" fill="#969FB2"/>
<path d="M35.142 30.7618V28.3965H35.6749V28.8002H35.7019C35.7525 28.6657 35.8334 28.558 35.9481 28.4806C36.0628 28.4032 36.1977 28.3662 36.3563 28.3662C36.5148 28.3662 36.6531 28.4066 36.7644 28.484C36.8757 28.5614 36.9533 28.6657 36.9971 28.8002H37.0208C37.0747 28.669 37.1624 28.5647 37.2872 28.484C37.412 28.4032 37.5605 28.3662 37.7325 28.3662C37.9517 28.3662 38.1305 28.4335 38.2654 28.5714C38.4037 28.7094 38.4712 28.9113 38.4712 29.1737V30.7618H37.9113V29.2612C37.9113 29.1131 37.8708 29.0055 37.7932 28.9382C37.7156 28.8709 37.6178 28.8372 37.5065 28.8372C37.3716 28.8372 37.267 28.8776 37.1894 28.9617C37.1152 29.0458 37.0747 29.1535 37.0747 29.2881V30.7651H36.5249V29.241C36.5249 29.1199 36.4878 29.0223 36.4136 28.9483C36.3394 28.8743 36.245 28.8372 36.1269 28.8372C36.0459 28.8372 35.9751 28.8574 35.9076 28.8978C35.8402 28.9382 35.7896 28.9954 35.7491 29.0694C35.7086 29.1434 35.6918 29.2275 35.6918 29.3251V30.7651H35.1318L35.142 30.7618Z" fill="#969FB2"/>
<path d="M40.0936 30.8054C39.8575 30.8054 39.6517 30.755 39.4797 30.6574C39.3077 30.5598 39.1761 30.4185 39.0817 30.2368C38.9872 30.0551 38.9434 29.8398 38.9434 29.5908C38.9434 29.3419 38.9906 29.1333 39.0817 28.9482C39.1761 28.7632 39.3043 28.6185 39.4729 28.5176C39.6416 28.4133 39.8372 28.3628 40.0632 28.3628C40.2083 28.3628 40.3466 28.3863 40.4781 28.4334C40.6097 28.4806 40.7243 28.5512 40.8255 28.6488C40.9267 28.7463 41.0043 28.8708 41.0617 29.0222C41.119 29.1736 41.1494 29.352 41.1494 29.5606V29.7322H39.2065V29.3553H40.6164C40.6164 29.2477 40.5928 29.1535 40.5456 29.0693C40.5017 28.9852 40.4376 28.9213 40.3567 28.8708C40.2757 28.8237 40.1813 28.8002 40.0733 28.8002C39.9587 28.8002 39.8575 28.8271 39.7731 28.8809C39.6854 28.9348 39.618 29.0088 39.5708 29.0963C39.5235 29.1837 39.4999 29.2813 39.4965 29.389V29.7187C39.4965 29.8566 39.5235 29.9744 39.5708 30.072C39.6213 30.1695 39.6922 30.2436 39.7833 30.2974C39.8743 30.3512 39.9789 30.3748 40.1003 30.3748C40.1813 30.3748 40.2555 30.3647 40.3196 30.3411C40.3837 30.3176 40.441 30.2839 40.4916 30.2402C40.5388 30.1965 40.5759 30.1393 40.5995 30.072L41.1224 30.1292C41.0886 30.2671 41.0279 30.3849 40.9335 30.4892C40.8424 30.5901 40.7243 30.6709 40.5793 30.7281C40.4376 30.7853 40.2724 30.8122 40.0868 30.8122L40.0936 30.8054Z" fill="#969FB2"/>
<path d="M41.6216 30.7617V28.3964H42.1646V28.7901H42.1883C42.2321 28.6521 42.3063 28.5478 42.4109 28.4738C42.5154 28.3998 42.6369 28.3628 42.7718 28.3628C42.8022 28.3628 42.8359 28.3628 42.8764 28.3662C42.9135 28.3662 42.9472 28.3729 42.9742 28.3762V28.8877C42.9506 28.8809 42.9135 28.8708 42.8629 28.8641C42.8123 28.8574 42.7617 28.854 42.7145 28.854C42.6133 28.854 42.5222 28.8742 42.4412 28.9179C42.3603 28.9617 42.2962 29.0222 42.2523 29.0996C42.2051 29.177 42.1815 29.2645 42.1815 29.3654V30.755H41.6216V30.7617Z" fill="#969FB2"/>
</svg>
