<svg width="185" height="35" viewBox="0 0 185 35" fill="none" xmlns="http://www.w3.org/2000/svg">
<g clip-path="url(#clip0_2_1253)">
<path d="M22.6776 28.0788C21.7137 28.0788 20.9294 28.8721 20.9294 29.8461C20.9294 30.5321 21.3179 31.129 21.8849 31.4221C22.1228 31.5451 22.3917 31.6145 22.6776 31.6145C22.9634 31.6145 23.2313 31.5451 23.4692 31.4221C24.0352 31.13 24.4249 30.5333 24.4249 29.8461C24.4249 28.8721 23.6406 28.0788 22.6778 28.0788H22.6776ZM22.6776 28.3909C23.4702 28.3909 24.1162 29.0433 24.1162 29.8461C24.1162 30.6488 23.4702 31.3022 22.6776 31.3022C21.885 31.3022 21.2379 30.6488 21.2379 29.8461C21.2379 29.0433 21.884 28.3909 22.6776 28.3909Z" fill="#969FB2"/>
<path d="M22.677 30.7516C23.1713 30.7516 23.572 30.3463 23.572 29.8463C23.572 29.3463 23.1713 28.9409 22.677 28.9409C22.1826 28.9409 21.7819 29.3463 21.7819 29.8463C21.7819 30.3463 22.1826 30.7516 22.677 30.7516Z" fill="#969FB2"/>
<path d="M23.2134 27.5105H22.0491C21.9047 27.5105 21.7634 27.5284 21.6274 27.562H23.6353C23.4992 27.5284 23.358 27.5105 23.2136 27.5105H23.2134ZM30.0307 18.7006H16.0129C14.3583 18.7006 13.0171 20.057 13.0171 21.7296V28.4056C13.0171 28.6084 13.0877 28.7955 13.205 28.9403C13.3588 29.1314 13.5925 29.2524 13.8543 29.2524H20.5478L20.5665 29.119C20.6745 28.374 21.305 27.8225 22.0487 27.8225H23.213C23.9577 27.8225 24.5882 28.3752 24.6952 29.1202L24.7149 29.2526H36.4286V25.1727C36.4286 21.5983 33.5639 18.7006 30.0301 18.7006H30.0307ZM36.1207 28.9403H24.9773C24.9627 28.8751 24.945 28.81 24.9231 28.748C24.8993 28.6766 24.8702 28.6072 24.8368 28.54C24.7901 28.4402 24.733 28.3466 24.6686 28.2583C24.6145 28.1847 24.5554 28.1145 24.4909 28.0503C24.3849 27.942 24.2656 27.8475 24.1357 27.7698C23.982 27.6763 23.8127 27.6049 23.6351 27.5618C23.499 27.5282 23.3578 27.5103 23.2134 27.5103H22.0491C21.9047 27.5103 21.7634 27.5282 21.6274 27.5618C21.4498 27.6049 21.2815 27.6763 21.1278 27.7698C20.9979 27.8475 20.8786 27.942 20.7725 28.0503C20.7081 28.1145 20.649 28.1847 20.5949 28.2583C20.5305 28.3466 20.4734 28.44 20.4267 28.54C20.3934 28.6072 20.3644 28.6766 20.3403 28.748C20.3185 28.81 20.3009 28.8751 20.2862 28.9403H13.9002C13.7413 28.9403 13.5979 28.8751 13.494 28.7701C13.4867 28.7627 13.4805 28.7554 13.4744 28.748C13.4205 28.6892 13.3789 28.6176 13.3548 28.54C13.3361 28.4832 13.3258 28.4233 13.3258 28.3603V21.7294C13.3258 21.0359 13.5824 20.4034 14.0062 19.9234C14.1049 19.8109 14.2129 19.7059 14.3302 19.6113C14.7905 19.2363 15.3762 19.0124 16.0129 19.0124H30.0307C30.9697 19.0124 31.8589 19.2279 32.6535 19.6113C32.8479 19.7049 33.0368 19.8089 33.2186 19.9234C34.9596 21.0066 36.1209 22.9524 36.1209 25.1725V28.9403H36.1207ZM23.2134 27.5105H22.0491C21.9047 27.5105 21.7634 27.5284 21.6274 27.562H23.6353C23.4992 27.5284 23.358 27.5105 23.2136 27.5105H23.2134Z" fill="#969FB2"/>
<path d="M36.2757 25.6079H13.1718V25.8159H36.2757V25.6079Z" fill="#969FB2"/>
<path d="M36.2755 26.0964H13.1716V26.3044H36.2755V26.0964Z" fill="#969FB2"/>
<path d="M36.2755 26.585H13.1716V26.7931H36.2755V26.585Z" fill="#969FB2"/>
<path d="M36.2755 27.0735H13.1716V27.2815H36.2755V27.0735Z" fill="#969FB2"/>
<path d="M36.2755 27.5622H13.1716V27.7702H36.2755V27.5622Z" fill="#969FB2"/>
<path d="M36.2753 28.0507H24.3807V28.2587H36.2753V28.0507Z" fill="#969FB2"/>
<path d="M20.8825 28.0507H13.1714V28.2587H20.8825V28.0507Z" fill="#969FB2"/>
<path d="M36.2755 28.5398H24.7237V28.7478H36.2755V28.5398Z" fill="#969FB2"/>
<path d="M20.5219 28.5398H13.1714V28.7478H20.5219V28.5398Z" fill="#969FB2"/>
<path d="M31.1775 20.804H28.59C28.1952 20.804 27.8744 21.1287 27.8744 21.5278V27.9211C27.8744 27.9652 27.8786 28.0082 27.8867 28.0503C27.8993 28.1239 27.9231 28.1941 27.9573 28.2583C28.0176 28.375 28.1089 28.4726 28.2201 28.54C28.3281 28.6072 28.4548 28.645 28.5898 28.645H31.1773C31.3123 28.645 31.439 28.6072 31.547 28.54C31.6582 28.4728 31.7495 28.375 31.8098 28.2583C31.844 28.1941 31.8679 28.1239 31.8804 28.0503C31.8888 28.0082 31.8929 27.9652 31.8929 27.9211V21.5278C31.8929 21.1285 31.5719 20.804 31.1773 20.804H31.1775ZM31.5836 27.9213C31.5836 27.9666 31.5765 28.0106 31.5618 28.0505C31.5347 28.1356 31.4808 28.2092 31.409 28.2585C31.3436 28.3048 31.2636 28.3321 31.1773 28.3321H28.5898C28.5037 28.3321 28.4235 28.3048 28.3581 28.2585C28.2865 28.2092 28.2314 28.1356 28.2044 28.0505C28.1898 28.0106 28.1825 27.9664 28.1825 27.9213V21.528C28.1825 21.3011 28.3653 21.1172 28.5896 21.1172H31.1771C31.4015 21.1172 31.5833 21.3011 31.5833 21.528V27.9213H31.5836Z" fill="#969FB2"/>
<path d="M30.8617 21.7085H28.9051C28.8545 21.7085 28.8134 21.75 28.8134 21.8013V24.3028C28.8134 24.354 28.8545 24.3955 28.9051 24.3955H30.8617C30.9123 24.3955 30.9534 24.354 30.9534 24.3028V21.8013C30.9534 21.75 30.9123 21.7085 30.8617 21.7085Z" fill="#969FB2"/>
<path d="M34.1439 21.7898H32.8415C32.8214 21.7898 32.8051 21.8063 32.8051 21.8266V23.9397C32.8051 23.96 32.8214 23.9765 32.8415 23.9765H34.1439C34.164 23.9765 34.1803 23.96 34.1803 23.9397V21.8266C34.1803 21.8063 34.164 21.7898 34.1439 21.7898Z" fill="#969FB2"/>
<path d="M24.4625 21.2335H20.8917C20.8478 21.2335 20.8121 21.2695 20.8121 21.314V24.7563C20.8121 24.8007 20.8478 24.8367 20.8917 24.8367H24.4625C24.5065 24.8367 24.5421 24.8007 24.5421 24.7563V21.314C24.5421 21.2695 24.5065 21.2335 24.4625 21.2335Z" fill="#969FB2"/>
<path d="M19.5787 21.2335H16.0079C15.964 21.2335 15.9283 21.2695 15.9283 21.314V24.7563C15.9283 24.8007 15.964 24.8367 16.0079 24.8367H19.5787C19.6227 24.8367 19.6583 24.8007 19.6583 24.7563V21.314C19.6583 21.2695 19.6227 21.2335 19.5787 21.2335Z" fill="#969FB2"/>
<path d="M33.2641 19.6117H13.9298V19.9238H33.2641V19.6117Z" fill="#969FB2"/>
<path d="M39.2048 28.9407H36.2755V29.2528H39.2048V28.9407Z" fill="#969FB2"/>
<path d="M38.1159 29.0968H37.8074V28.1909C37.8074 27.3367 37.1202 26.6416 36.2757 26.6416V26.3295C37.2905 26.3295 38.1161 27.1647 38.1161 28.1911V29.097L38.1159 29.0968Z" fill="#969FB2"/>
<path d="M39.359 28.6438H39.0505V31.458H39.359V28.6438Z" fill="#969FB2"/>
<path d="M3.01947 22.6255L15.7804 9.24385L21.9069 13.2537H23.5092L24.8446 14.2769L30.9997 8.85415L35.357 12.8956H36.6912C36.6912 12.8956 39.114 15.4023 39.0284 15.5045C38.9431 15.6069 41.6698 14.5562 41.6698 14.5562L48.1881 22.2841L42.9501 18.0149L41.462 16.6521L40.1604 18.4716L39.0185 16.6684L36.9605 14.1178L35.9879 14.4431L36.691 15.2873L34.7557 16.6686L35.0043 13.6375L33.2677 11.9494L31.263 10.3763L29.6231 12.1029L31.481 12.525L30.8487 13.5609L31.2444 17.3842L27.3318 15.6458L22.8942 16.9635L23.2514 14.8135L22.0805 14.8652L21.5494 14.159L15.705 10.6447L14.4828 12.1793L16.3041 13.2152L12.8029 14.6348L14.1451 16.742L3.01947 22.6255Z" fill="#969FB2"/>
<path d="M50.7545 31.4217H0.624146V32.4295H50.7545V31.4217Z" fill="#969FB2"/>
<path d="M26.0388 2.42969C11.7034 2.42969 0.0393677 14.2266 0.0393677 28.7281C0.0393677 29.6264 0.0851143 30.5311 0.175414 31.4219C0.182575 31.5008 0.190928 31.5785 0.199282 31.6563C0.222155 31.8549 0.245029 32.0502 0.272079 32.2478L0.296941 32.4295H1.42808L1.39585 32.1899C1.3688 31.9975 1.34494 31.8022 1.32425 31.6078C1.31689 31.5459 1.31073 31.4839 1.30456 31.4219C1.20909 30.5351 1.16115 29.6306 1.16115 28.7281C1.16115 14.8529 12.3213 3.56437 26.0388 3.56437C39.7562 3.56437 50.9176 14.8529 50.9176 28.7281C50.9176 29.6306 50.8698 30.5353 50.7742 31.4219C50.768 31.4849 50.7616 31.5469 50.7545 31.609C50.7358 31.776 50.7139 31.9557 50.6817 32.1901L50.6485 32.4297H51.7818L51.8067 32.248C51.8337 32.0505 51.8566 31.8551 51.8795 31.6555C51.8878 31.5779 51.896 31.5 51.9033 31.4223C51.9936 30.5313 52.0394 29.6268 52.0394 28.7285C52.0394 14.2266 40.3754 2.42969 26.0388 2.42969Z" fill="#969FB2"/>
<path d="M23.9258 10.7791C25.1753 10.7791 26.1881 9.75459 26.1881 8.49081C26.1881 7.22702 25.1753 6.20252 23.9258 6.20252C22.6764 6.20252 21.6636 7.22702 21.6636 8.49081C21.6636 9.75459 22.6764 10.7791 23.9258 10.7791Z" fill="#969FB2"/>
<path d="M51.3462 31.4061C50.633 30.8876 50.0277 30.1629 49.6066 29.3097C50.0768 29.4481 50.5564 29.5427 51.0391 29.5922C50.2801 28.9709 49.689 28.07 49.3702 27.0488C49.7258 27.2298 50.1069 27.3417 50.4929 27.3783C49.9659 26.646 49.5424 25.8109 49.2448 24.9174C49.438 25.0677 49.6621 25.1623 49.8923 25.191C49.4571 24.6102 49.1231 23.9248 48.9171 23.1894C49.0666 23.3826 49.2864 23.4974 49.5084 23.4985C49.1663 22.849 48.8242 22.1998 48.4823 21.5504C48.1402 22.1998 47.7981 22.849 47.4562 23.4985C47.6781 23.4974 47.8981 23.3826 48.0475 23.1894C47.8412 23.9248 47.5073 24.6102 47.0723 25.191C47.3026 25.1625 47.5266 25.0677 47.7197 24.9174C47.4221 25.8109 46.9985 26.646 46.4716 27.3783C46.8579 27.3417 47.239 27.2298 47.5944 27.0488C47.2756 28.07 46.6844 28.9709 45.9254 29.5922C46.4084 29.5427 46.8877 29.4481 47.3579 29.3097C46.806 30.4279 45.9382 31.326 44.9252 31.8273C46.1108 31.7988 47.2966 31.7704 48.4823 31.7418L51.3462 31.8106V31.4061Z" fill="#969FB2"/>
<path d="M45.1792 31.7557C46.1719 31.7797 47.1646 31.8034 48.1571 31.8273C47.3096 31.4079 46.5836 30.6566 46.1218 29.7211C46.5152 29.837 46.9164 29.9161 47.3201 29.9575C46.6851 29.4379 46.1906 28.684 45.9239 27.8296C46.2214 27.9811 46.5401 28.0746 46.8633 28.1054C46.4223 27.4928 46.0679 26.7941 45.819 26.0467C45.9806 26.1724 46.1681 26.2515 46.3606 26.2756C45.9967 25.7898 45.7172 25.2162 45.5448 24.6009C45.6699 24.7625 45.8539 24.8587 46.0394 24.8595C45.7532 24.3163 45.467 23.7731 45.1808 23.2297C44.8946 23.7729 44.6084 24.3161 44.3221 24.8595C44.5079 24.8587 44.6919 24.7625 44.8168 24.6009C44.6444 25.2162 44.3649 25.7896 44.0009 26.2756C44.1935 26.2517 44.381 26.1724 44.5425 26.0467C44.2935 26.7941 43.9393 27.4928 43.4983 28.1054C43.8215 28.0748 44.1401 27.9813 44.4377 27.8296C44.171 28.684 43.6763 29.4377 43.0414 29.9575C43.4454 29.9161 43.8466 29.837 44.2398 29.7211C43.778 30.6566 43.052 31.4081 42.2045 31.8273C43.1972 31.8034 44.1899 31.7797 45.1824 31.7557" fill="#969FB2"/>
<path d="M42.3399 31.771C43.1212 31.7897 43.9026 31.8086 44.6839 31.8273C44.0168 31.4972 43.4454 30.9057 43.082 30.1694C43.3917 30.2605 43.7073 30.3229 44.0254 30.3555C43.5255 29.9465 43.1363 29.3532 42.9262 28.6806C43.1603 28.7999 43.4114 28.8735 43.6657 28.8977C43.3187 28.4154 43.0398 27.8656 42.8439 27.2771C42.971 27.3761 43.1186 27.4385 43.2703 27.4572C42.9837 27.0747 42.7639 26.6233 42.6281 26.139C42.7265 26.2662 42.8713 26.3418 43.0175 26.3424C42.7922 25.9149 42.567 25.4872 42.3417 25.0597C42.1163 25.4872 41.8912 25.9149 41.6658 26.3424C41.812 26.3418 41.9568 26.2662 42.0553 26.139C41.9194 26.6233 41.6996 27.0745 41.413 27.4572C41.5646 27.4383 41.7122 27.3759 41.8395 27.2771C41.6435 27.8654 41.3647 28.4154 41.0176 28.8977C41.272 28.8735 41.5228 28.7999 41.7571 28.6806C41.5471 29.3532 41.1578 29.9465 40.658 30.3555C40.976 30.3229 41.2917 30.2605 41.6014 30.1694C41.238 30.9057 40.6664 31.4972 39.9995 31.8273C40.7807 31.8086 41.5622 31.7897 42.3435 31.771" fill="#969FB2"/>
<path d="M0.465637 31.5867V31.8171C1.50886 31.7919 2.55208 31.767 3.5955 31.7418C4.78114 31.7704 5.96697 31.7988 7.1526 31.8273C6.13961 31.326 5.27182 30.4279 4.71988 29.3097C5.19007 29.4481 5.66962 29.5427 6.15234 29.5922C5.39335 28.9709 4.80222 28.07 4.48339 27.0488C4.83902 27.2298 5.22011 27.3417 5.60617 27.3783C5.07909 26.646 4.65563 25.8109 4.35808 24.9174C4.55121 25.0677 4.77537 25.1623 5.00549 25.191C4.5703 24.6102 4.23635 23.9248 4.03029 23.1894C4.17987 23.3826 4.39965 23.4974 4.62162 23.4985C4.27951 22.849 3.93741 22.1998 3.5955 21.5504C3.2534 22.1998 2.91129 22.849 2.56939 23.4985C2.79136 23.4974 3.01134 23.3826 3.16071 23.1894C2.95445 23.9248 2.6205 24.6102 2.18551 25.191C2.41584 25.1625 2.6398 25.0677 2.83293 24.9174C2.53537 25.8109 2.11172 26.646 1.58484 27.3783C1.9711 27.3417 2.35219 27.2298 2.70762 27.0488C2.38879 28.07 1.79766 28.9709 1.03866 29.5922C1.52159 29.5427 2.00093 29.4481 2.47113 29.3097C1.99855 30.2671 1.29425 31.0628 0.465836 31.5867H0.465637Z" fill="#969FB2"/>
<path d="M6.89838 31.7557C5.90568 31.7797 4.91297 31.8034 3.92047 31.8273C4.76798 31.4079 5.49396 30.6566 5.9558 29.7211C5.56238 29.837 5.1612 29.9161 4.75744 29.9575C5.39252 29.4379 5.88698 28.684 6.1537 27.8296C5.85615 27.9811 5.53752 28.0746 5.21431 28.1054C5.65526 27.4928 6.0095 26.7941 6.25852 26.0467C6.09702 26.1724 5.90946 26.2515 5.71692 26.2756C6.08091 25.7898 6.36036 25.2162 6.5328 24.6009C6.4077 24.7625 6.22372 24.8587 6.03814 24.8595C6.32436 24.3163 6.61057 23.7731 6.89679 23.2297C7.183 23.7729 7.46922 24.3161 7.75523 24.8595C7.56946 24.8587 7.38548 24.7625 7.26057 24.6009C7.43302 25.2162 7.71247 25.7896 8.07645 26.2756C7.88392 26.2517 7.69636 26.1724 7.53485 26.0467C7.78387 26.7941 8.13811 27.4928 8.57907 28.1054C8.25586 28.0748 7.93722 27.9813 7.63967 27.8296C7.9064 28.684 8.40106 29.4377 9.03594 29.9575C8.63198 29.9161 8.2308 29.837 7.83758 29.7211C8.29942 30.6566 9.0254 31.4081 9.8729 31.8273C8.8802 31.8034 7.8875 31.7797 6.895 31.7557" fill="#969FB2"/>
<path d="M9.73763 31.771C8.95636 31.7897 8.17489 31.8086 7.39362 31.8273C8.06072 31.4972 8.63216 30.9057 8.99554 30.1694C8.68586 30.2605 8.37021 30.3229 8.05217 30.3555C8.552 29.9465 8.94124 29.3532 9.15128 28.6806C8.91718 28.7999 8.66617 28.8735 8.41178 28.8977C8.75885 28.4154 9.03771 27.8656 9.23363 27.2771C9.10653 27.3761 8.95895 27.4385 8.80719 27.4572C9.0938 27.0747 9.31358 26.6233 9.44943 26.139C9.35097 26.2662 9.20618 26.3418 9.05999 26.3424C9.28534 25.9149 9.51049 25.4872 9.73584 25.0597C9.9612 25.4872 10.1863 25.9149 10.4117 26.3424C10.2655 26.3418 10.1207 26.2662 10.0223 26.139C10.1581 26.6233 10.3779 27.0745 10.6645 27.4572C10.5129 27.4383 10.3654 27.3759 10.2381 27.2771C10.434 27.8654 10.7128 28.4154 11.0599 28.8977C10.8055 28.8735 10.5547 28.7999 10.3204 28.6806C10.5304 29.3532 10.9197 29.9465 11.4195 30.3555C11.1015 30.3229 10.7858 30.2605 10.4761 30.1694C10.8395 30.9057 11.4112 31.4972 12.0781 31.8273C11.2968 31.8086 10.5153 31.7897 9.73405 31.771" fill="#969FB2"/>
</g>
<path d="M70.5814 14.2717C69.3934 14.2717 68.3734 14.0617 67.5214 13.6417C66.6694 13.2217 65.9734 12.6757 65.4334 12.0037C64.9054 11.3317 64.5154 10.5997 64.2634 9.80769C64.0114 9.01569 63.8854 8.25369 63.8854 7.52169V7.12569C63.8854 6.30969 64.0114 5.50569 64.2634 4.71369C64.5274 3.92169 64.9294 3.20169 65.4694 2.55369C66.0094 1.90569 66.6934 1.38969 67.5214 1.00569C68.3614 0.609687 69.3514 0.411687 70.4914 0.411687C71.6794 0.411687 72.7114 0.627687 73.5874 1.05969C74.4754 1.47969 75.1834 2.07969 75.7114 2.85969C76.2394 3.62769 76.5574 4.52769 76.6654 5.55969H74.0914C73.9954 4.95969 73.7794 4.45569 73.4434 4.04769C73.1194 3.62769 72.7054 3.31569 72.2014 3.11169C71.6974 2.89569 71.1274 2.78769 70.4914 2.78769C69.8434 2.78769 69.2674 2.90169 68.7634 3.12969C68.2594 3.34569 67.8394 3.65769 67.5034 4.06569C67.1674 4.47369 66.9094 4.95369 66.7294 5.50569C66.5614 6.05769 66.4774 6.66969 66.4774 7.34169C66.4774 7.98969 66.5614 8.58969 66.7294 9.14169C66.9094 9.69369 67.1734 10.1797 67.5214 10.5997C67.8694 11.0077 68.2954 11.3257 68.7994 11.5537C69.3154 11.7817 69.9094 11.8957 70.5814 11.8957C71.5654 11.8957 72.3934 11.6557 73.0654 11.1757C73.7494 10.6837 74.1634 9.99969 74.3074 9.12369H76.8814C76.7614 10.0597 76.4434 10.9177 75.9274 11.6977C75.4114 12.4777 74.7034 13.1017 73.8034 13.5697C72.9034 14.0377 71.8294 14.2717 70.5814 14.2717ZM84.7623 13.9297V11.0317H84.3483V7.80969C84.3483 7.24569 84.2103 6.82569 83.9343 6.54969C83.6583 6.27369 83.2323 6.13569 82.6563 6.13569C82.3563 6.13569 81.9963 6.14169 81.5763 6.15369C81.1563 6.16569 80.7303 6.18369 80.2983 6.20769C79.8783 6.21969 79.5003 6.23769 79.1643 6.26169V4.13769C79.4403 4.11369 79.7523 4.08969 80.1003 4.06569C80.4483 4.04169 80.8023 4.02969 81.1623 4.02969C81.5343 4.01769 81.8823 4.01169 82.2063 4.01169C83.2143 4.01169 84.0483 4.14369 84.7083 4.40769C85.3803 4.67169 85.8843 5.08569 86.2203 5.64969C86.5683 6.21369 86.7423 6.95169 86.7423 7.86369V13.9297H84.7623ZM81.6123 14.1817C80.9043 14.1817 80.2803 14.0557 79.7403 13.8037C79.2123 13.5517 78.7983 13.1917 78.4983 12.7237C78.2103 12.2557 78.0663 11.6917 78.0663 11.0317C78.0663 10.3117 78.2403 9.72369 78.5883 9.26769C78.9483 8.81169 79.4463 8.46969 80.0823 8.24169C80.7303 8.01369 81.4863 7.89969 82.3503 7.89969H84.6183V9.39369H82.3143C81.7383 9.39369 81.2943 9.53769 80.9823 9.82569C80.6823 10.1017 80.5323 10.4617 80.5323 10.9057C80.5323 11.3497 80.6823 11.7097 80.9823 11.9857C81.2943 12.2617 81.7383 12.3997 82.3143 12.3997C82.6623 12.3997 82.9803 12.3397 83.2683 12.2197C83.5683 12.0877 83.8143 11.8717 84.0063 11.5717C84.2103 11.2597 84.3243 10.8397 84.3483 10.3117L84.9603 11.0137C84.9003 11.6977 84.7323 12.2737 84.4563 12.7417C84.1923 13.2097 83.8203 13.5697 83.3403 13.8217C82.8723 14.0617 82.2963 14.1817 81.6123 14.1817ZM89.4223 13.9297V4.15569H91.4023V8.34969H91.2223C91.2223 7.36569 91.3483 6.54369 91.6003 5.88369C91.8523 5.21169 92.2243 4.70769 92.7163 4.37169C93.2203 4.02369 93.8443 3.84969 94.5883 3.84969H94.6963C95.4523 3.84969 96.0763 4.02369 96.5683 4.37169C97.0723 4.70769 97.4443 5.21169 97.6843 5.88369C97.9363 6.54369 98.0623 7.36569 98.0623 8.34969H97.4323C97.4323 7.36569 97.5583 6.54369 97.8103 5.88369C98.0743 5.21169 98.4523 4.70769 98.9443 4.37169C99.4483 4.02369 100.072 3.84969 100.816 3.84969H100.924C101.68 3.84969 102.31 4.02369 102.814 4.37169C103.318 4.70769 103.696 5.21169 103.948 5.88369C104.212 6.54369 104.344 7.36569 104.344 8.34969V13.9297H101.842V8.11569C101.842 7.50369 101.686 7.01769 101.374 6.65769C101.062 6.28569 100.618 6.09969 100.042 6.09969C99.4663 6.09969 99.0043 6.29169 98.6563 6.67569C98.3083 7.04769 98.1343 7.55169 98.1343 8.18769V13.9297H95.6323V8.11569C95.6323 7.50369 95.4763 7.01769 95.1643 6.65769C94.8523 6.28569 94.4083 6.09969 93.8323 6.09969C93.2563 6.09969 92.7943 6.29169 92.4463 6.67569C92.0983 7.04769 91.9243 7.55169 91.9243 8.18769V13.9297H89.4223ZM107.018 17.5297V4.15569H108.998V8.36769L108.692 8.34969C108.74 7.35369 108.944 6.51969 109.304 5.84769C109.676 5.17569 110.168 4.67769 110.78 4.35369C111.392 4.01769 112.076 3.84969 112.832 3.84969C113.528 3.84969 114.152 3.97569 114.704 4.22769C115.268 4.47969 115.748 4.83369 116.144 5.28969C116.552 5.74569 116.864 6.27969 117.08 6.89169C117.296 7.49169 117.404 8.13969 117.404 8.83569V9.21369C117.404 9.92169 117.296 10.5817 117.08 11.1937C116.876 11.7937 116.57 12.3277 116.162 12.7957C115.766 13.2517 115.286 13.6117 114.722 13.8757C114.158 14.1277 113.528 14.2537 112.832 14.2537C112.1 14.2537 111.428 14.1037 110.816 13.8037C110.216 13.4917 109.73 13.0177 109.358 12.3817C108.986 11.7337 108.776 10.8997 108.728 9.87969L109.52 11.0857V17.5297H107.018ZM112.202 12.1477C112.742 12.1477 113.21 12.0157 113.606 11.7517C114.014 11.4877 114.332 11.1217 114.56 10.6537C114.788 10.1737 114.902 9.63369 114.902 9.03369C114.902 8.40969 114.788 7.86969 114.56 7.41369C114.332 6.95769 114.014 6.60369 113.606 6.35169C113.21 6.08769 112.742 5.95569 112.202 5.95569C111.71 5.95569 111.254 6.06369 110.834 6.27969C110.426 6.49569 110.09 6.81369 109.826 7.23369C109.574 7.65369 109.448 8.15769 109.448 8.74569V9.46569C109.448 10.0297 109.58 10.5097 109.844 10.9057C110.108 11.3017 110.45 11.6077 110.87 11.8237C111.29 12.0397 111.734 12.1477 112.202 12.1477ZM123.42 17.7817C122.952 17.7817 122.472 17.7637 121.98 17.7277C121.5 17.6917 121.05 17.6437 120.63 17.5837V15.4957C121.062 15.5437 121.524 15.5857 122.016 15.6217C122.508 15.6697 122.97 15.6937 123.402 15.6937C124.206 15.6937 124.854 15.5977 125.346 15.4057C125.85 15.2137 126.216 14.9077 126.444 14.4877C126.684 14.0797 126.804 13.5577 126.804 12.9217V10.9957L127.344 9.77169C127.308 10.6717 127.122 11.4397 126.786 12.0757C126.45 12.6997 125.994 13.1797 125.418 13.5157C124.842 13.8397 124.176 14.0017 123.42 14.0017C122.748 14.0017 122.136 13.8757 121.584 13.6237C121.044 13.3717 120.576 13.0237 120.18 12.5797C119.796 12.1357 119.496 11.6137 119.28 11.0137C119.064 10.4137 118.956 9.77169 118.956 9.08769V8.70969C118.956 8.02569 119.064 7.38969 119.28 6.80169C119.508 6.20169 119.826 5.67969 120.234 5.23569C120.642 4.79169 121.128 4.44969 121.692 4.20969C122.256 3.96969 122.88 3.84969 123.564 3.84969C124.368 3.84969 125.064 4.02369 125.652 4.37169C126.252 4.71969 126.72 5.22369 127.056 5.88369C127.392 6.54369 127.578 7.35369 127.614 8.31369L127.182 8.38569V4.15569H129.162V12.7777C129.162 13.9657 128.958 14.9257 128.55 15.6577C128.142 16.3897 127.512 16.9237 126.66 17.2597C125.82 17.6077 124.74 17.7817 123.42 17.7817ZM124.14 11.8597C124.62 11.8597 125.058 11.7517 125.454 11.5357C125.85 11.3197 126.168 11.0077 126.408 10.5997C126.648 10.1917 126.768 9.69969 126.768 9.12369V8.49369C126.768 7.94169 126.642 7.47369 126.39 7.08969C126.15 6.70569 125.832 6.41769 125.436 6.22569C125.04 6.02169 124.608 5.91969 124.14 5.91969C123.612 5.91969 123.144 6.04569 122.736 6.29769C122.34 6.53769 122.028 6.87969 121.8 7.32369C121.572 7.76769 121.458 8.29569 121.458 8.90769C121.458 9.50769 121.572 10.0297 121.8 10.4737C122.028 10.9177 122.34 11.2597 122.736 11.4997C123.144 11.7397 123.612 11.8597 124.14 11.8597ZM131.891 13.9297V4.15569H133.871V8.29569H133.817C133.817 6.89169 134.117 5.82969 134.717 5.10969C135.317 4.38969 136.199 4.02969 137.363 4.02969H137.723V6.20769H137.039C136.199 6.20769 135.545 6.43569 135.077 6.89169C134.621 7.33569 134.393 7.98369 134.393 8.83569V13.9297H131.891ZM144.025 14.2717C143.161 14.2717 142.399 14.1337 141.739 13.8577C141.079 13.5817 140.521 13.2097 140.065 12.7417C139.609 12.2617 139.261 11.7217 139.021 11.1217C138.793 10.5217 138.679 9.89769 138.679 9.24969V8.87169C138.679 8.19969 138.799 7.56369 139.039 6.96369C139.291 6.35169 139.645 5.81169 140.101 5.34369C140.569 4.86369 141.133 4.49169 141.793 4.22769C142.453 3.95169 143.197 3.81369 144.025 3.81369C144.853 3.81369 145.597 3.95169 146.257 4.22769C146.917 4.49169 147.475 4.86369 147.931 5.34369C148.399 5.81169 148.753 6.35169 148.993 6.96369C149.233 7.56369 149.353 8.19969 149.353 8.87169V9.24969C149.353 9.89769 149.233 10.5217 148.993 11.1217C148.765 11.7217 148.423 12.2617 147.967 12.7417C147.511 13.2097 146.953 13.5817 146.293 13.8577C145.633 14.1337 144.877 14.2717 144.025 14.2717ZM144.025 12.1297C144.637 12.1297 145.153 11.9977 145.573 11.7337C145.993 11.4577 146.311 11.0917 146.527 10.6357C146.743 10.1677 146.851 9.63969 146.851 9.05169C146.851 8.45169 146.737 7.92369 146.509 7.46769C146.293 6.99969 145.969 6.63369 145.537 6.36969C145.117 6.09369 144.613 5.95569 144.025 5.95569C143.437 5.95569 142.927 6.09369 142.495 6.36969C142.075 6.63369 141.751 6.99969 141.523 7.46769C141.295 7.92369 141.181 8.45169 141.181 9.05169C141.181 9.63969 141.289 10.1677 141.505 10.6357C141.733 11.0917 142.057 11.4577 142.477 11.7337C142.897 11.9977 143.413 12.1297 144.025 12.1297ZM154.873 14.2357C153.745 14.2357 152.869 13.8637 152.245 13.1197C151.633 12.3757 151.327 11.2717 151.327 9.80769V4.13769H153.829V10.0237C153.829 10.6237 153.997 11.1037 154.333 11.4637C154.669 11.8117 155.125 11.9857 155.701 11.9857C156.277 11.9857 156.745 11.7997 157.105 11.4277C157.477 11.0557 157.663 10.5517 157.663 9.91569V4.13769H160.165V13.9297H158.185V9.77169H158.383C158.383 10.7557 158.257 11.5777 158.005 12.2377C157.753 12.8977 157.375 13.3957 156.871 13.7317C156.367 14.0677 155.737 14.2357 154.981 14.2357H154.873ZM163.039 13.9297V4.15569H165.019V8.34969H164.839C164.839 7.35369 164.971 6.52569 165.235 5.86569C165.499 5.19369 165.889 4.68969 166.405 4.35369C166.933 4.01769 167.587 3.84969 168.367 3.84969H168.475C169.639 3.84969 170.521 4.22769 171.121 4.98369C171.721 5.72769 172.021 6.84369 172.021 8.33169V13.9297H169.519V8.11569C169.519 7.51569 169.345 7.02969 168.997 6.65769C168.661 6.28569 168.193 6.09969 167.593 6.09969C166.981 6.09969 166.483 6.29169 166.099 6.67569C165.727 7.04769 165.541 7.55169 165.541 8.18769V13.9297H163.039ZM178.761 14.2537C178.077 14.2537 177.447 14.1277 176.871 13.8757C176.295 13.6237 175.797 13.2697 175.377 12.8137C174.957 12.3577 174.633 11.8297 174.405 11.2297C174.177 10.6177 174.063 9.95769 174.063 9.24969V8.87169C174.063 8.17569 174.171 7.52169 174.387 6.90969C174.615 6.29769 174.927 5.76369 175.323 5.30769C175.731 4.85169 176.217 4.49769 176.781 4.24569C177.357 3.98169 177.993 3.84969 178.689 3.84969C179.457 3.84969 180.129 4.01769 180.705 4.35369C181.293 4.67769 181.761 5.16969 182.109 5.82969C182.457 6.48969 182.649 7.31769 182.685 8.31369L181.947 7.44969V0.789687H184.449V13.9297H182.469V9.77169H182.901C182.865 10.7677 182.661 11.6017 182.289 12.2737C181.917 12.9337 181.425 13.4317 180.813 13.7677C180.213 14.0917 179.529 14.2537 178.761 14.2537ZM179.319 12.1477C179.811 12.1477 180.261 12.0397 180.669 11.8237C181.077 11.5957 181.401 11.2717 181.641 10.8517C181.893 10.4197 182.019 9.91569 182.019 9.33969V8.61969C182.019 8.04369 181.893 7.56369 181.641 7.17969C181.389 6.78369 181.059 6.48369 180.651 6.27969C180.243 6.06369 179.799 5.95569 179.319 5.95569C178.779 5.95569 178.299 6.08769 177.879 6.35169C177.471 6.60369 177.147 6.96369 176.907 7.43169C176.679 7.89969 176.565 8.44569 176.565 9.06969C176.565 9.69369 176.685 10.2397 176.925 10.7077C177.165 11.1637 177.489 11.5177 177.897 11.7697C178.317 12.0217 178.791 12.1477 179.319 12.1477ZM64.6594 33.9297V20.6997H67.2154V33.9297H64.6594ZM72.6874 33.9297L68.6554 28.2057H71.5174L75.6754 33.9297H72.6874ZM66.4594 29.5377V27.4677H69.8074C70.2754 27.4677 70.6774 27.3717 71.0134 27.1797C71.3614 26.9877 71.6314 26.7177 71.8234 26.3697C72.0154 26.0217 72.1114 25.6257 72.1114 25.1817C72.1114 24.7257 72.0154 24.3237 71.8234 23.9757C71.6314 23.6277 71.3614 23.3577 71.0134 23.1657C70.6774 22.9737 70.2754 22.8777 69.8074 22.8777H66.4594V20.6997H69.5374C70.5934 20.6997 71.5054 20.8557 72.2734 21.1677C73.0534 21.4797 73.6534 21.9537 74.0734 22.5897C74.4934 23.2257 74.7034 24.0237 74.7034 24.9837V25.2717C74.7034 26.2437 74.4874 27.0417 74.0554 27.6657C73.6354 28.2897 73.0414 28.7577 72.2734 29.0697C71.5054 29.3817 70.5934 29.5377 69.5374 29.5377H66.4594ZM81.6147 34.2717C80.7747 34.2717 80.0367 34.1277 79.4007 33.8397C78.7767 33.5517 78.2547 33.1677 77.8347 32.6877C77.4267 32.1957 77.1147 31.6497 76.8987 31.0497C76.6947 30.4497 76.5927 29.8377 76.5927 29.2137V28.8717C76.5927 28.2237 76.6947 27.5997 76.8987 26.9997C77.1147 26.3877 77.4267 25.8477 77.8347 25.3797C78.2547 24.8997 78.7707 24.5217 79.3827 24.2457C79.9947 23.9577 80.7027 23.8137 81.5067 23.8137C82.5627 23.8137 83.4447 24.0477 84.1527 24.5157C84.8727 24.9717 85.4127 25.5777 85.7727 26.3337C86.1327 27.0777 86.3127 27.8817 86.3127 28.7457V29.6457H77.6547V28.1157H84.7467L83.9727 28.8717C83.9727 28.2477 83.8827 27.7137 83.7027 27.2697C83.5227 26.8257 83.2467 26.4837 82.8747 26.2437C82.5147 26.0037 82.0587 25.8837 81.5067 25.8837C80.9547 25.8837 80.4867 26.0097 80.1027 26.2617C79.7187 26.5137 79.4247 26.8797 79.2207 27.3597C79.0287 27.8277 78.9327 28.3917 78.9327 29.0517C78.9327 29.6637 79.0287 30.2097 79.2207 30.6897C79.4127 31.1577 79.7067 31.5297 80.1027 31.8057C80.4987 32.0697 81.0027 32.2017 81.6147 32.2017C82.2267 32.2017 82.7247 32.0817 83.1087 31.8417C83.4927 31.5897 83.7387 31.2837 83.8467 30.9237H86.1507C86.0067 31.5957 85.7307 32.1837 85.3227 32.6877C84.9147 33.1917 84.3927 33.5817 83.7567 33.8577C83.1327 34.1337 82.4187 34.2717 81.6147 34.2717ZM91.9488 34.2357C90.6048 34.2357 89.5488 33.9537 88.7808 33.3897C88.0248 32.8137 87.6288 32.0217 87.5928 31.0137H89.8428C89.8788 31.3497 90.0648 31.6557 90.4008 31.9317C90.7368 32.2077 91.2648 32.3457 91.9848 32.3457C92.5848 32.3457 93.0588 32.2377 93.4068 32.0217C93.7668 31.8057 93.9468 31.5117 93.9468 31.1397C93.9468 30.8157 93.8088 30.5577 93.5328 30.3657C93.2688 30.1737 92.8128 30.0477 92.1648 29.9877L91.3008 29.8977C90.2088 29.7777 89.3688 29.4657 88.7808 28.9617C88.1928 28.4577 87.8988 27.7857 87.8988 26.9457C87.8988 26.2737 88.0668 25.7097 88.4028 25.2537C88.7388 24.7977 89.2008 24.4557 89.7888 24.2277C90.3888 23.9877 91.0728 23.8677 91.8408 23.8677C93.0408 23.8677 94.0128 24.1317 94.7568 24.6597C95.5008 25.1877 95.8908 25.9617 95.9268 26.9817H93.6768C93.6528 26.6457 93.4848 26.3577 93.1728 26.1177C92.8608 25.8777 92.4108 25.7577 91.8228 25.7577C91.2948 25.7577 90.8868 25.8597 90.5988 26.0637C90.3108 26.2677 90.1668 26.5317 90.1668 26.8557C90.1668 27.1677 90.2808 27.4077 90.5088 27.5757C90.7488 27.7437 91.1328 27.8577 91.6608 27.9177L92.5248 28.0077C93.6768 28.1277 94.5768 28.4457 95.2248 28.9617C95.8848 29.4777 96.2148 30.1737 96.2148 31.0497C96.2148 31.6977 96.0348 32.2617 95.6748 32.7417C95.3268 33.2097 94.8348 33.5757 94.1988 33.8397C93.5628 34.1037 92.8128 34.2357 91.9488 34.2357ZM102.98 34.2717C102.116 34.2717 101.354 34.1337 100.694 33.8577C100.034 33.5817 99.4757 33.2097 99.0197 32.7417C98.5637 32.2617 98.2157 31.7217 97.9757 31.1217C97.7477 30.5217 97.6337 29.8977 97.6337 29.2497V28.8717C97.6337 28.1997 97.7537 27.5637 97.9937 26.9637C98.2457 26.3517 98.5997 25.8117 99.0557 25.3437C99.5237 24.8637 100.088 24.4917 100.748 24.2277C101.408 23.9517 102.152 23.8137 102.98 23.8137C103.808 23.8137 104.552 23.9517 105.212 24.2277C105.872 24.4917 106.43 24.8637 106.886 25.3437C107.354 25.8117 107.708 26.3517 107.948 26.9637C108.188 27.5637 108.308 28.1997 108.308 28.8717V29.2497C108.308 29.8977 108.188 30.5217 107.948 31.1217C107.72 31.7217 107.378 32.2617 106.922 32.7417C106.466 33.2097 105.908 33.5817 105.248 33.8577C104.588 34.1337 103.832 34.2717 102.98 34.2717ZM102.98 32.1297C103.592 32.1297 104.108 31.9977 104.528 31.7337C104.948 31.4577 105.266 31.0917 105.482 30.6357C105.698 30.1677 105.806 29.6397 105.806 29.0517C105.806 28.4517 105.692 27.9237 105.464 27.4677C105.248 26.9997 104.924 26.6337 104.492 26.3697C104.072 26.0937 103.568 25.9557 102.98 25.9557C102.392 25.9557 101.882 26.0937 101.45 26.3697C101.03 26.6337 100.706 26.9997 100.478 27.4677C100.25 27.9237 100.136 28.4517 100.136 29.0517C100.136 29.6397 100.244 30.1677 100.46 30.6357C100.688 31.0917 101.012 31.4577 101.432 31.7337C101.852 31.9977 102.368 32.1297 102.98 32.1297ZM110.498 33.9297V24.1557H112.478V28.2957H112.424C112.424 26.8917 112.724 25.8297 113.324 25.1097C113.924 24.3897 114.806 24.0297 115.97 24.0297H116.33V26.2077H115.646C114.806 26.2077 114.152 26.4357 113.684 26.8917C113.228 27.3357 113 27.9837 113 28.8357V33.9297H110.498ZM122.463 34.0557C121.563 34.0557 120.819 33.9417 120.231 33.7137C119.655 33.4737 119.223 33.0777 118.935 32.5257C118.647 31.9617 118.503 31.2057 118.503 30.2577L118.521 21.4017H120.861L120.843 30.4197C120.843 30.8997 120.969 31.2717 121.221 31.5357C121.485 31.7877 121.857 31.9137 122.337 31.9137H123.867V34.0557H122.463ZM116.955 25.9917V24.1557H123.867V25.9917H116.955ZM129.443 34.2357C128.099 34.2357 127.043 33.9537 126.275 33.3897C125.519 32.8137 125.123 32.0217 125.087 31.0137H127.337C127.373 31.3497 127.559 31.6557 127.895 31.9317C128.231 32.2077 128.759 32.3457 129.479 32.3457C130.079 32.3457 130.553 32.2377 130.901 32.0217C131.261 31.8057 131.441 31.5117 131.441 31.1397C131.441 30.8157 131.303 30.5577 131.027 30.3657C130.763 30.1737 130.307 30.0477 129.659 29.9877L128.795 29.8977C127.703 29.7777 126.863 29.4657 126.275 28.9617C125.687 28.4577 125.393 27.7857 125.393 26.9457C125.393 26.2737 125.561 25.7097 125.897 25.2537C126.233 24.7977 126.695 24.4557 127.283 24.2277C127.883 23.9877 128.567 23.8677 129.335 23.8677C130.535 23.8677 131.507 24.1317 132.251 24.6597C132.995 25.1877 133.385 25.9617 133.421 26.9817H131.171C131.147 26.6457 130.979 26.3577 130.667 26.1177C130.355 25.8777 129.905 25.7577 129.317 25.7577C128.789 25.7577 128.381 25.8597 128.093 26.0637C127.805 26.2677 127.661 26.5317 127.661 26.8557C127.661 27.1677 127.775 27.4077 128.003 27.5757C128.243 27.7437 128.627 27.8577 129.155 27.9177L130.019 28.0077C131.171 28.1277 132.071 28.4457 132.719 28.9617C133.379 29.4777 133.709 30.1737 133.709 31.0497C133.709 31.6977 133.529 32.2617 133.169 32.7417C132.821 33.2097 132.329 33.5757 131.693 33.8397C131.057 34.1037 130.307 34.2357 129.443 34.2357Z" fill="#969FB2"/>
<defs>
<clipPath id="clip0_2_1253">
<rect width="52" height="30" fill="white" transform="translate(0.0393677 2.42969)"/>
</clipPath>
</defs>
</svg>
