<svg width="156" height="33" viewBox="0 0 156 33" fill="none" xmlns="http://www.w3.org/2000/svg">
<path d="M9.67112 16.8037V23.1393L4.1958 26.2971V19.9615L9.67112 16.8037Z" fill="#969FB2"/>
<path d="M20.6416 16.7837L15.1662 19.9415L9.69092 16.7837L15.1662 13.626L20.6416 16.7837Z" fill="#969FB2"/>
<path d="M15.1465 7.29009V13.6257L4.1958 7.29009L9.67112 4.13232L15.1465 7.29009Z" fill="#969FB2"/>
<path d="M9.67112 10.4679L4.1958 13.6257V7.29004L9.67112 10.4478V10.4679Z" fill="#969FB2"/>
<path d="M4.1958 13.626L9.67112 10.4683V16.8039L4.1958 13.6461V13.626Z" fill="#969FB2"/>
<path d="M20.6419 16.8037V23.1393L9.67112 29.475L4.1958 26.3172L20.6419 16.8238V16.8037Z" fill="#969FB2"/>
<path d="M20.6418 10.4679L15.1665 13.6257V7.29004L20.6418 10.4478V10.4679Z" fill="#969FB2"/>
<path d="M23.7017 10.5288H36.5043V13.2642H27.3653V15.6577H36.0413V18.393H27.3653V22.5766H23.7218V10.5288H23.7017Z" fill="#969FB2"/>
<path d="M38.2554 10.5288H41.919V22.5766H38.2554V10.5288Z" fill="#969FB2"/>
<path d="M44.355 10.5288H50.1926L57.4998 19.6803L57.4193 10.5288H60.8816V22.5766H54.9836L47.7972 13.5056L47.8777 22.5766H44.355V10.5288Z" fill="#969FB2"/>
<path d="M69.0542 10.5288H73.9658L80.5685 22.5766H76.5626L75.3749 20.4245H67.6048L66.4574 22.5766H62.2905L69.0743 10.5288H69.0542ZM74.0866 17.9103L71.4899 13.1033L68.9334 17.9103H74.1068H74.0866Z" fill="#969FB2"/>
<path d="M81.5347 10.5288H87.3723L94.6795 19.6803L94.5989 10.5288H98.0613V22.5766H92.1632L84.9769 13.5056L85.0574 22.5766H81.5347V10.5288Z" fill="#969FB2"/>
<path d="M115.574 18.0308C115.574 19.7806 115.494 20.384 115.252 20.9271C114.789 21.9529 113.803 22.4356 111.931 22.5764C111.186 22.6568 109.737 22.6568 107.341 22.6568C103.879 22.6568 102.751 22.4959 101.785 21.8724C100.598 21.1081 100.255 19.841 100.255 16.281C100.255 13.1031 100.618 11.9566 101.886 11.2527C102.973 10.6292 104.12 10.4683 107.502 10.4683C112.011 10.4683 112.977 10.5487 114.004 11.0717C114.97 11.5544 115.433 12.6204 115.433 14.3903V14.7926H111.931C111.85 13.4651 111.588 13.3646 108.408 13.3646C105.409 13.3646 104.865 13.445 104.402 13.8272C103.959 14.2294 103.879 14.7121 103.879 16.6631C103.879 19.5594 104.14 19.7605 107.683 19.7605C110.421 19.7605 110.803 19.7605 111.307 19.5192C111.83 19.2979 112.031 18.9158 112.031 18.0509H115.594L115.574 18.0308Z" fill="#969FB2"/>
<path d="M117.749 10.5288H121.412V22.5766H117.749V10.5288Z" fill="#969FB2"/>
<path d="M129.605 10.5288H134.517L141.119 22.5766H137.113L135.926 20.4245H128.155L127.008 22.5766H122.861L129.645 10.5288H129.605ZM134.637 17.9103L132.041 13.1033L129.484 17.9103H134.657H134.637Z" fill="#969FB2"/>
<path d="M142.105 10.5288H145.769V19.5998H154.063V22.5766H142.105V10.5288Z" fill="#969FB2"/>
</svg>
