<svg width="200" height="33" viewBox="0 0 200 33" fill="none" xmlns="http://www.w3.org/2000/svg">
<g clip-path="url(#clip0_2_1196)">
<path fill-rule="evenodd" clip-rule="evenodd" d="M108.24 21.2824C108.125 21.2993 107.986 21.3022 107.875 21.3082C107.665 21.3141 107.665 21.3359 107.665 21.1141L107.668 19.4382C107.668 19.2837 107.574 18.4448 108.03 18.5706C108.141 18.5984 108.024 18.5478 108.12 18.6241C108.179 18.6687 108.217 18.7083 108.237 18.7816C108.273 18.9163 108.267 21.1091 108.24 21.2834V21.2824Z" fill="#969FB2"/>
<path fill-rule="evenodd" clip-rule="evenodd" d="M106.508 18.7078C106.589 18.685 106.681 18.7444 106.742 18.8256C106.806 18.9128 106.792 19.0336 106.792 19.1763L106.795 21.2007C106.795 21.4117 106.784 21.3721 106.584 21.3691C106.277 21.3661 106.289 21.4166 106.274 21.2849L106.277 19.2634C106.277 18.9772 106.263 18.7801 106.508 18.7078Z" fill="#969FB2"/>
<path fill-rule="evenodd" clip-rule="evenodd" d="M105.014 19.2047C105.014 18.7442 105.471 18.764 105.471 19.177C105.471 19.5642 105.494 21.1955 105.461 21.4451C105.335 21.4986 105.17 21.5293 105.026 21.5124C104.998 21.1727 105.015 19.6623 105.015 19.2047H105.014Z" fill="#969FB2"/>
<path fill-rule="evenodd" clip-rule="evenodd" d="M103.99 21.6559C103.881 21.6421 103.9 21.4905 103.903 21.3727V20.6199C103.903 20.196 103.806 19.1996 104.065 19.0788C104.171 19.0313 104.129 19.0531 104.192 19.0956L104.287 19.1996C104.34 19.3234 104.323 21.4905 104.293 21.5806L103.989 21.6569L103.99 21.6559Z" fill="#969FB2"/>
<path fill-rule="evenodd" clip-rule="evenodd" d="M102.97 19.6674C102.97 19.288 103.285 19.2831 103.285 19.6396C103.285 20.0299 103.302 21.47 103.274 21.7483C103.227 21.779 103.062 21.8433 102.981 21.8047C102.953 21.5918 102.97 20.014 102.97 19.6684V19.6674Z" fill="#969FB2"/>
<path fill-rule="evenodd" clip-rule="evenodd" d="M102.268 20.1588C102.268 19.8448 102.224 19.7428 102.388 19.6616C102.432 20.1618 102.407 21.2453 102.407 21.8039C102.407 21.9584 102.399 21.9446 102.304 21.9525L102.268 20.1588Z" fill="#969FB2"/>
<path fill-rule="evenodd" clip-rule="evenodd" d="M107.127 23.8758C107.274 23.8312 107.587 23.8392 107.768 23.8332C107.978 23.8243 108.212 23.7887 108.362 23.8441C108.39 24.1729 108.379 28.4764 108.353 28.5606C108.2 28.625 107.575 28.6388 107.372 28.6388C107.124 28.6388 107.107 28.6646 107.107 28.4764C107.107 27.7861 107.074 24.2651 107.127 23.8748V23.8758Z" fill="#969FB2"/>
<path fill-rule="evenodd" clip-rule="evenodd" d="M105.437 28.7438C105.357 28.6289 105.401 27.5226 105.401 27.2641L105.398 24.2294C105.395 24.067 105.37 24.0165 105.521 23.9878C105.875 23.9264 106.106 23.9234 106.469 23.9234C106.508 24.067 106.513 28.5051 106.469 28.6993C106.299 28.7131 105.501 28.7726 105.437 28.7438Z" fill="#969FB2"/>
<path fill-rule="evenodd" clip-rule="evenodd" d="M103.87 24.2097C103.981 24.1621 104.631 24.0641 104.748 24.0977C104.788 24.4068 104.771 28.7241 104.738 28.8231C104.671 28.8707 104.744 28.8429 104.634 28.8627L103.865 28.936C103.815 28.6637 103.823 24.3602 103.871 24.2107L103.87 24.2097Z" fill="#969FB2"/>
<path fill-rule="evenodd" clip-rule="evenodd" d="M102.619 24.5781C102.619 24.3335 102.733 24.4236 102.914 24.382C103.073 24.3454 103.201 24.2384 103.201 24.4632C103.204 25.2694 103.234 28.4725 103.195 29.0202C103.067 29.0509 102.978 29.0371 102.844 29.0737C102.724 29.1044 102.618 29.1549 102.618 28.9697V24.5791L102.619 24.5781Z" fill="#969FB2"/>
<path fill-rule="evenodd" clip-rule="evenodd" d="M101.955 24.6062C101.992 24.8251 101.997 28.9918 101.963 29.2107L101.495 29.2949C101.492 29.286 101.481 29.2919 101.475 29.289C101.428 29.185 101.422 25.1281 101.461 24.7468L101.955 24.6062Z" fill="#969FB2"/>
<path fill-rule="evenodd" clip-rule="evenodd" d="M100.672 25.0693C100.759 25.0188 100.92 24.9316 101.001 24.9316C101.028 25.0158 101.028 24.9931 101.028 25.0971C101.028 25.7626 101.056 29.0221 101.015 29.4124C100.594 29.5471 100.666 29.4936 100.666 29.2579C100.666 27.899 100.647 26.4114 100.672 25.0693Z" fill="#969FB2"/>
<path fill-rule="evenodd" clip-rule="evenodd" d="M110.715 21.2824C110.826 21.2993 110.969 21.3022 111.078 21.3082C111.288 21.3141 111.288 21.3359 111.288 21.1141L111.285 19.4382C111.285 19.2837 111.382 18.4448 110.925 18.5706C110.811 18.5984 110.928 18.5478 110.835 18.6241C110.776 18.6687 110.735 18.7083 110.715 18.7816C110.679 18.9163 110.688 21.1091 110.715 21.2834V21.2824Z" fill="#969FB2"/>
<path fill-rule="evenodd" clip-rule="evenodd" d="M112.447 18.7078C112.363 18.685 112.271 18.7444 112.21 18.8256C112.146 18.9128 112.16 19.0336 112.163 19.1763L112.16 21.2007C112.16 21.4117 112.171 21.3721 112.371 21.3691C112.675 21.3661 112.664 21.4166 112.681 21.2849L112.675 19.2634C112.675 18.9772 112.689 18.7801 112.447 18.7078Z" fill="#969FB2"/>
<path fill-rule="evenodd" clip-rule="evenodd" d="M113.938 19.2047C113.938 18.7442 113.484 18.764 113.484 19.177C113.481 19.5642 113.461 21.1955 113.493 21.4451C113.62 21.4986 113.786 21.5293 113.93 21.5124C113.956 21.1727 113.938 19.6623 113.938 19.2047Z" fill="#969FB2"/>
<path fill-rule="evenodd" clip-rule="evenodd" d="M114.964 21.6559C115.07 21.6421 115.051 21.4905 115.051 21.3727C115.048 21.1231 115.048 20.8725 115.048 20.6199C115.048 20.196 115.145 19.1996 114.886 19.0788C114.78 19.0313 114.822 19.0531 114.758 19.0956L114.664 19.1996C114.614 19.3234 114.628 21.4905 114.661 21.5806L114.965 21.6569L114.964 21.6559Z" fill="#969FB2"/>
<path fill-rule="evenodd" clip-rule="evenodd" d="M115.985 19.6674C115.985 19.288 115.67 19.2831 115.67 19.6396C115.667 20.0299 115.651 21.47 115.679 21.7483C115.729 21.779 115.891 21.8433 115.974 21.8047C116.002 21.5918 115.985 20.014 115.985 19.6684V19.6674Z" fill="#969FB2"/>
<path fill-rule="evenodd" clip-rule="evenodd" d="M116.684 20.1588C116.684 19.8448 116.729 19.7428 116.564 19.6616C116.522 20.1618 116.545 21.2453 116.545 21.8039C116.545 21.9584 116.556 21.9446 116.651 21.9525L116.684 20.1588Z" fill="#969FB2"/>
<path fill-rule="evenodd" clip-rule="evenodd" d="M111.828 23.8758C111.678 23.8312 111.365 23.8392 111.184 23.8332C110.975 23.8243 110.743 23.7887 110.593 23.8441C110.562 24.1729 110.573 28.4764 110.599 28.5606C110.752 28.625 111.38 28.6388 111.581 28.6388C111.828 28.6388 111.845 28.6646 111.845 28.4764C111.848 27.7861 111.879 24.2651 111.828 23.8748V23.8758Z" fill="#969FB2"/>
<path fill-rule="evenodd" clip-rule="evenodd" d="M113.517 28.7438C113.598 28.6289 113.554 27.5226 113.554 27.2641V24.2294C113.557 24.067 113.581 24.0165 113.431 23.9878C113.08 23.9264 112.845 23.9234 112.485 23.9234C112.443 24.067 112.438 28.5051 112.485 28.6993C112.653 28.7131 113.45 28.7726 113.517 28.7438Z" fill="#969FB2"/>
<path fill-rule="evenodd" clip-rule="evenodd" d="M115.083 24.2097C114.973 24.1621 114.321 24.0641 114.204 24.0977C114.165 24.4068 114.185 28.7241 114.215 28.8231C114.285 28.8707 114.212 28.8429 114.318 28.8627L115.087 28.936C115.138 28.6637 115.13 24.3602 115.082 24.2107L115.083 24.2097Z" fill="#969FB2"/>
<path fill-rule="evenodd" clip-rule="evenodd" d="M116.337 24.5781C116.337 24.3335 116.222 24.4236 116.041 24.382C115.882 24.3454 115.751 24.2384 115.751 24.4632C115.751 25.2694 115.718 28.4725 115.757 29.0202C115.888 29.0509 115.975 29.0371 116.111 29.0737C116.231 29.1044 116.338 29.1549 116.338 28.9697V24.5791L116.337 24.5781Z" fill="#969FB2"/>
<path fill-rule="evenodd" clip-rule="evenodd" d="M116.997 24.6062C116.961 24.8251 116.955 28.9918 116.989 29.2107L117.461 29.2949C117.464 29.286 117.471 29.2919 117.477 29.289C117.524 29.185 117.53 25.1281 117.494 24.7468L116.997 24.6062Z" fill="#969FB2"/>
<path fill-rule="evenodd" clip-rule="evenodd" d="M118.28 25.0693C118.196 25.0188 118.032 24.9316 117.951 24.9316C117.924 25.0158 117.926 24.9931 117.926 25.0971C117.926 25.7626 117.895 29.0221 117.939 29.4124C118.36 29.5471 118.288 29.4936 118.288 29.2579C118.288 27.899 118.307 26.4114 118.279 25.0693H118.28Z" fill="#969FB2"/>
<path fill-rule="evenodd" clip-rule="evenodd" d="M109.478 23.767C109.048 23.7442 108.979 23.7333 108.979 24.0592L108.99 28.5538L109.478 28.5597L109.965 28.5538L109.976 24.0592C109.976 23.7333 109.906 23.7452 109.478 23.767Z" fill="#969FB2"/>
<path fill-rule="evenodd" clip-rule="evenodd" d="M114.608 32.4308H104.286V32.4001C104.309 32.3972 104.329 32.3912 104.345 32.3892C104.44 32.3615 104.51 32.313 104.607 32.2684L105.405 31.9257C105.775 31.791 106.14 31.6226 106.492 31.4681L107.293 31.1314C107.921 30.8986 108.57 30.5926 109.181 30.337C109.287 30.2895 109.384 30.2925 109.479 30.3143C109.571 30.2915 109.669 30.2885 109.774 30.337C110.385 30.5926 111.037 30.8986 111.661 31.1314L112.462 31.4681C112.816 31.6226 113.178 31.791 113.55 31.9257L114.348 32.2684C114.448 32.313 114.515 32.3615 114.609 32.3892V32.4318L114.608 32.4308Z" fill="#969FB2"/>
<path fill-rule="evenodd" clip-rule="evenodd" d="M109.932 0.983153H199.987V32.4305H120.446V32.2591H120.443C120.46 31.9283 120.373 31.9026 120.613 31.7144C120.867 31.5124 120.884 31.5906 120.884 31.1221C120.773 31.0855 120.639 31.0241 120.513 30.9815C120.376 30.9339 120.262 30.9141 120.119 30.8636C120.008 30.821 119.838 30.7824 119.732 30.7398C119.589 30.6804 119.495 30.6586 119.344 30.616C119.414 30.3912 119.609 30.2654 119.679 30.0346C119.581 29.9247 119.091 29.7454 119.082 29.7147C119.026 29.5127 119.038 26.0481 119.048 25.5143L119.31 25.5202L119.57 24.5912C119.606 24.2851 119.207 24.1445 119.056 23.9732C119.1 23.8295 119.216 23.5126 119.167 23.3551C119.092 23.2115 117.725 22.8411 117.659 22.7519C117.602 22.5915 117.595 21.0365 117.595 20.7334C117.595 20.4809 117.547 20.47 117.654 20.3036C117.723 20.1937 118.019 19.1557 118.002 19.1161C117.955 19.0121 117.12 18.712 117.003 18.6218L117.291 17.8245C117.318 17.7146 117.355 17.676 117.38 17.5581C117.187 17.3788 116.555 17.1283 116.276 17.0411C115.949 16.9371 116.008 16.9173 115.985 16.5469C115.958 16.0616 115.926 15.4851 115.788 15.0335C115.503 14.1292 115.478 14.0312 115.074 13.214C114.85 12.7644 114.536 12.3524 114.218 11.9819L113.914 11.6511C113.867 11.6006 113.861 11.6086 113.814 11.561C113.619 11.3619 113.39 11.1262 113.153 10.9826C113.046 10.9182 113.116 10.9737 113.027 10.8895C112.963 10.8301 112.993 10.8558 112.913 10.8113C112.823 10.7607 112.773 10.7102 112.665 10.6508C112.561 10.5973 112.207 10.423 112.177 10.32C112.143 10.1992 112.183 9.69998 112.154 9.49694C112.081 9.42959 111.783 9.284 111.7 9.25032L111.206 9.0453C111.217 8.85415 111.212 8.64913 111.212 8.45896C111.212 8.2688 111.173 8.1757 111.061 8.04298C110.785 7.71416 110.85 7.65572 110.85 7.13079V6.55238C110.85 6.29387 110.83 6.29684 110.937 6.08093C110.97 6.01061 111.235 5.37376 111.248 5.28066C111.098 5.07861 110.744 5.06771 110.571 4.85378L110.139 4.38728C110.128 4.03667 110.273 3.57017 110.125 3.25819C110.072 3.14627 110.041 3.18192 109.98 3.07297C109.847 2.83131 109.9 2.48664 109.972 2.25289C110.025 2.08452 110.169 1.98349 110.192 1.83196C110.215 1.68636 110.022 1.31 109.93 0.981173L109.932 0.983153Z" fill="#969FB2"/>
<path fill-rule="evenodd" clip-rule="evenodd" d="M0.986488 0.983531H109.02C108.928 1.31236 108.739 1.68773 108.761 1.83432C108.78 1.98585 108.925 2.08688 108.978 2.25525C109.054 2.488 109.106 2.83367 108.97 3.07533C108.909 3.18527 108.881 3.14862 108.826 3.26054C108.678 3.57253 108.823 4.03804 108.812 4.38964L108.382 4.85614C108.206 5.06908 107.852 5.08097 107.704 5.28301C107.715 5.37612 107.981 6.01297 108.016 6.08329C108.122 6.2992 108.103 6.29623 108.1 6.55473V7.13315C108.1 7.65808 108.167 7.71751 107.89 8.04534C107.779 8.17707 107.737 8.27314 107.737 8.46132C107.737 8.64951 107.731 8.8575 107.743 9.04766L107.249 9.25268C107.165 9.28636 106.869 9.43195 106.794 9.4993C106.767 9.70135 106.805 10.2015 106.772 10.3224C106.741 10.4263 106.387 10.6007 106.287 10.6532C106.176 10.7126 106.127 10.7631 106.036 10.8136C105.958 10.8582 105.986 10.8334 105.925 10.8919C105.832 10.976 105.905 10.9196 105.799 10.985C105.559 11.1286 105.331 11.3643 105.138 11.5634C105.091 11.6109 105.085 11.603 105.035 11.6535L104.731 11.9843C104.413 12.3547 104.1 12.7677 103.875 13.2164C103.471 14.0335 103.448 14.1316 103.164 15.0358C103.021 15.4875 102.994 16.0629 102.963 16.5492C102.944 16.9196 103 16.9395 102.673 17.0435C102.397 17.1306 101.761 17.3802 101.568 17.5605C101.594 17.6783 101.629 17.7179 101.661 17.8269L101.948 18.6242C101.828 18.7143 100.997 19.0144 100.947 19.1184C100.93 19.158 101.228 20.197 101.295 20.3059C101.401 20.4714 101.354 20.4832 101.354 20.7358C101.354 21.0389 101.346 22.5948 101.293 22.7543C101.226 22.8444 99.8599 23.2149 99.7822 23.3575C99.735 23.515 99.8521 23.8319 99.8934 23.9755C99.7429 24.1469 99.3445 24.2875 99.3799 24.5935L99.6396 25.5226L99.9042 25.5166C99.913 26.0505 99.9268 29.515 99.8678 29.7171C99.8589 29.7478 99.3691 29.928 99.2707 30.037C99.3435 30.2668 99.5383 30.3935 99.6052 30.6184C99.4576 30.661 99.3622 30.6827 99.2206 30.7422C99.1144 30.7848 98.9442 30.8234 98.833 30.866C98.6885 30.9165 98.5734 30.9363 98.4367 30.9838C98.3107 31.0264 98.177 31.0878 98.0688 31.1245C98.0688 31.593 98.0826 31.5147 98.3393 31.7168C98.5763 31.9049 98.4898 31.9297 98.5065 32.2615V32.4328H0.986488V0.983531Z" fill="#969FB2"/>
<path fill-rule="evenodd" clip-rule="evenodd" d="M109.478 18.562C109.436 18.556 109.394 18.5649 109.35 18.5877C109.127 18.7026 109.141 18.8878 109.141 19.2058V20.8816C109.141 21.356 109.101 21.2857 109.478 21.2886C109.852 21.2857 109.812 21.356 109.812 20.8816V19.2058C109.812 18.8888 109.826 18.7036 109.606 18.5877C109.559 18.5649 109.516 18.557 109.478 18.562Z" fill="#969FB2"/>
<path fill-rule="evenodd" clip-rule="evenodd" d="M109.478 18.561C109.436 18.5551 109.394 18.564 109.35 18.5868C109.127 18.7017 109.141 18.8869 109.141 19.2048V20.8806C109.141 21.355 109.101 21.2847 109.478 21.2877C109.852 21.2847 109.812 21.355 109.812 20.8806V19.2048C109.812 18.8879 109.826 18.7026 109.606 18.5868C109.559 18.564 109.516 18.5561 109.478 18.561ZM109.478 23.7667C109.048 23.744 108.979 23.7331 108.979 24.0589L108.99 28.5535L109.478 28.5595L109.966 28.5535L109.977 24.0589C109.977 23.7331 109.907 23.745 109.478 23.7667ZM109.478 30.3135C109.384 30.2907 109.285 30.2878 109.18 30.3363C108.569 30.5918 107.92 30.8979 107.292 31.1306L106.492 31.4674C106.141 31.6219 105.776 31.7903 105.404 31.925L104.606 32.2677C104.509 32.3122 104.439 32.3608 104.344 32.3885C104.328 32.3915 104.308 32.3974 104.285 32.3994V32.2587H98.5087C98.492 31.9279 98.5786 31.9022 98.3415 31.714C98.0848 31.512 98.071 31.5902 98.071 31.1217C98.1802 31.0851 98.314 31.0237 98.4389 30.9811C98.5756 30.9335 98.6897 30.9137 98.8353 30.8632C98.9464 30.8206 99.1166 30.782 99.2228 30.7394C99.3654 30.68 99.4599 30.6582 99.6074 30.6156C99.5405 30.3908 99.3458 30.265 99.273 30.0342C99.3704 29.9243 99.8612 29.745 99.87 29.7143C99.9291 29.5123 99.9143 26.0477 99.9064 25.5139L99.6418 25.5198L99.3822 24.5908C99.3458 24.2847 99.7441 24.1441 99.8956 23.9728C99.8533 23.8291 99.7363 23.5122 99.7845 23.3547C99.8622 23.2111 101.228 22.8407 101.295 22.7515C101.348 22.5911 101.356 21.0361 101.356 20.733C101.356 20.4805 101.403 20.4696 101.297 20.3032C101.23 20.1932 100.932 19.1553 100.949 19.1157C100.999 19.0117 101.83 18.7116 101.95 18.6214L101.66 17.8241C101.633 17.7142 101.596 17.6756 101.571 17.5577C101.763 17.3784 102.399 17.1279 102.675 17.0407C103.002 16.9367 102.946 16.9169 102.965 16.5465C102.996 16.0612 103.024 15.4847 103.166 15.0331C103.45 14.1288 103.473 14.0308 103.88 13.2136C104.103 12.764 104.415 12.352 104.733 11.9815L105.037 11.6507C105.087 11.6002 105.093 11.6081 105.14 11.5606C105.333 11.3615 105.561 11.1258 105.801 10.9822C105.907 10.9178 105.835 10.9733 105.927 10.8891C105.988 10.8297 105.961 10.8554 106.038 10.8108C106.131 10.7603 106.178 10.7098 106.289 10.6504C106.389 10.5969 106.743 10.4226 106.774 10.3196C106.807 10.1988 106.768 9.69958 106.797 9.49654C106.872 9.42919 107.167 9.2836 107.251 9.24992L107.745 9.0449C107.734 8.85375 107.739 8.64873 107.739 8.45856C107.739 8.2684 107.781 8.1753 107.892 8.04258C108.169 7.71375 108.102 7.65532 108.102 7.13039V6.55197C108.105 6.29347 108.124 6.29644 108.018 6.08053C107.982 6.0102 107.717 5.37335 107.706 5.28025C107.854 5.0782 108.208 5.06731 108.384 4.85338L108.814 4.38688C108.825 4.03627 108.68 3.56977 108.828 3.25778C108.881 3.14586 108.911 3.18152 108.972 3.07257C109.106 2.8309 109.056 2.48623 108.98 2.25249C108.927 2.08412 108.783 1.98309 108.763 1.83155C108.737 1.66912 108.977 1.21946 109.05 0.871822C109.137 0.447915 109.143 0.593509 109.226 0.428106H109.26C109.319 0.506351 109.402 0.518236 109.48 0.545968C109.556 0.518236 109.641 0.506351 109.697 0.428106H109.731C109.817 0.593509 109.82 0.447915 109.909 0.871822C109.979 1.22046 110.221 1.66912 110.196 1.83155C110.173 1.98309 110.029 2.08412 109.976 2.25249C109.903 2.48524 109.85 2.8309 109.984 3.07257C110.045 3.18251 110.077 3.14586 110.129 3.25778C110.277 3.56977 110.132 4.03527 110.143 4.38688L110.575 4.85338C110.748 5.06632 111.102 5.0782 111.252 5.28025C111.239 5.37335 110.974 6.0102 110.941 6.08053C110.834 6.29644 110.854 6.29347 110.854 6.55197V7.13039C110.854 7.65532 110.79 7.71474 111.065 8.04258C111.177 8.17431 111.216 8.27038 111.216 8.45856C111.216 8.64674 111.222 8.85474 111.21 9.0449L111.704 9.24992C111.787 9.2836 112.085 9.42919 112.158 9.49654C112.186 9.69859 112.147 10.1988 112.181 10.3196C112.211 10.4236 112.565 10.5979 112.669 10.6504C112.778 10.7098 112.828 10.7603 112.917 10.8108C112.997 10.8554 112.967 10.8307 113.031 10.8891C113.12 10.9733 113.05 10.9168 113.157 10.9822C113.394 11.1258 113.622 11.3615 113.818 11.5606C113.865 11.6081 113.871 11.6002 113.918 11.6507L114.222 11.9815C114.54 12.352 114.854 12.765 115.078 13.2136C115.482 14.0308 115.507 14.1288 115.792 15.0331C115.931 15.4847 115.962 16.0602 115.989 16.5465C116.012 16.9169 115.953 16.9367 116.28 17.0407C116.558 17.1279 117.191 17.3774 117.384 17.5577C117.359 17.6756 117.323 17.7152 117.295 17.8241L117.007 18.6214C117.125 18.7116 117.959 19.0117 118.006 19.1157C118.023 19.1553 117.727 20.1942 117.658 20.3032C117.551 20.4686 117.599 20.4805 117.599 20.733C117.599 21.0361 117.607 22.5921 117.663 22.7515C117.729 22.8417 119.096 23.2121 119.171 23.3547C119.219 23.5122 119.105 23.8291 119.06 23.9728C119.211 24.1441 119.609 24.2847 119.574 24.5908L119.314 25.5198L119.052 25.5139C119.042 26.0477 119.03 29.5123 119.086 29.7143C119.094 29.745 119.585 29.9253 119.683 30.0342C119.613 30.264 119.418 30.3908 119.348 30.6156C119.499 30.6582 119.593 30.68 119.736 30.7394C119.842 30.782 120.012 30.8206 120.124 30.8632C120.266 30.9137 120.38 30.9335 120.517 30.9811C120.643 31.0237 120.777 31.0851 120.888 31.1217C120.888 31.5902 120.871 31.512 120.617 31.714C120.377 31.9022 120.464 31.9269 120.447 32.2587H114.611V32.3875C114.517 32.3598 114.45 32.3112 114.35 32.2667L113.552 31.924C113.181 31.7893 112.818 31.6209 112.464 31.4664L111.664 31.1296C111.039 30.8969 110.387 30.5908 109.776 30.3353C109.67 30.2878 109.572 30.2907 109.481 30.3125L109.478 30.3135ZM118.28 25.0692C118.197 25.0187 118.032 24.9315 117.952 24.9315C117.924 25.0157 117.926 24.9929 117.926 25.0969C117.926 25.7625 117.896 29.022 117.94 29.4122C118.361 29.5469 118.288 29.4934 118.288 29.2577C118.288 27.8988 118.308 26.4112 118.279 25.0692H118.28ZM116.998 24.6056C116.961 24.8245 116.955 28.9913 116.99 29.2102L117.461 29.2944C117.464 29.2855 117.472 29.2914 117.478 29.2884C117.525 29.1844 117.531 25.1276 117.494 24.7463L116.998 24.6056ZM116.337 24.5779C116.337 24.3333 116.223 24.4234 116.042 24.3818C115.882 24.3452 115.751 24.2382 115.751 24.463C115.751 25.2692 115.718 28.4723 115.757 29.02C115.888 29.0507 115.975 29.0369 116.111 29.0735C116.231 29.1042 116.338 29.1547 116.338 28.9695V24.5789L116.337 24.5779ZM115.083 24.2095C114.973 24.1619 114.321 24.0639 114.204 24.0976C114.165 24.4066 114.185 28.7239 114.215 28.8229C114.285 28.8705 114.212 28.8427 114.318 28.8625L115.087 28.9358C115.138 28.6635 115.13 24.36 115.082 24.2105L115.083 24.2095ZM113.518 28.7437C113.598 28.6288 113.554 27.5225 113.554 27.264V24.2293C113.557 24.0668 113.582 24.0163 113.431 23.9876C113.08 23.9262 112.846 23.9232 112.486 23.9232C112.444 24.0668 112.439 28.505 112.486 28.6991C112.653 28.713 113.451 28.7724 113.518 28.7437ZM111.829 23.8757C111.678 23.8311 111.365 23.839 111.184 23.8331C110.975 23.8242 110.744 23.7885 110.593 23.844C110.563 24.1728 110.574 28.4763 110.599 28.5605C110.753 28.6248 111.38 28.6387 111.581 28.6387C111.829 28.6387 111.845 28.6645 111.845 28.4763C111.848 27.7859 111.879 24.2649 111.829 23.8747V23.8757ZM116.685 20.1586C116.685 19.8446 116.729 19.7426 116.565 19.6614C116.523 20.1616 116.545 21.2451 116.545 21.8037C116.545 21.9582 116.556 21.9443 116.651 21.9523L116.685 20.1586ZM115.985 19.6673C115.985 19.288 115.671 19.283 115.671 19.6396C115.668 20.0298 115.651 21.4699 115.68 21.7482C115.73 21.7789 115.891 21.8433 115.975 21.8047C116.002 21.5917 115.985 20.014 115.985 19.6683V19.6673ZM114.965 21.6551C115.071 21.6413 115.051 21.4897 115.051 21.3719C115.048 21.1223 115.048 20.8717 115.048 20.6191C115.048 20.1952 115.145 19.1989 114.887 19.078C114.781 19.0305 114.823 19.0523 114.759 19.0949L114.665 19.1989C114.614 19.3227 114.628 21.4897 114.662 21.5799L114.965 21.6561L114.965 21.6551ZM113.939 19.2038C113.939 18.7433 113.484 18.7631 113.484 19.1761C113.481 19.5633 113.462 21.1946 113.493 21.4442C113.621 21.4977 113.786 21.5284 113.931 21.5115C113.956 21.1718 113.939 19.6614 113.939 19.2038ZM112.447 18.7076C112.364 18.6848 112.271 18.7442 112.21 18.8255C112.146 18.9126 112.16 19.0335 112.163 19.1761L112.16 21.2005C112.16 21.4115 112.171 21.3719 112.372 21.3689C112.676 21.3659 112.665 21.4164 112.682 21.2847L112.676 19.2632C112.676 18.977 112.689 18.7799 112.447 18.7076ZM110.715 21.2817C110.826 21.2986 110.969 21.3015 111.078 21.3075C111.288 21.3134 111.288 21.3352 111.288 21.1134L111.285 19.4375C111.285 19.283 111.382 18.4441 110.925 18.5699C110.811 18.5977 110.928 18.5471 110.835 18.6234C110.776 18.668 110.735 18.7076 110.715 18.7809C110.679 18.9156 110.688 21.1084 110.715 21.2827V21.2817ZM100.673 25.0692C100.759 25.0187 100.921 24.9315 101.001 24.9315C101.029 25.0157 101.029 24.9929 101.029 25.0969C101.029 25.7625 101.056 29.022 101.015 29.4122C100.594 29.5469 100.667 29.4934 100.667 29.2577C100.667 27.8988 100.647 26.4112 100.673 25.0692ZM101.955 24.6056C101.992 24.8245 101.998 28.9913 101.963 29.2102L101.495 29.2944C101.492 29.2855 101.481 29.2914 101.475 29.2884C101.428 29.1844 101.422 25.1276 101.462 24.7463L101.955 24.6056ZM102.619 24.5779C102.619 24.3333 102.733 24.4234 102.914 24.3818C103.074 24.3452 103.202 24.2382 103.202 24.463C103.204 25.2692 103.235 28.4723 103.196 29.02C103.068 29.0507 102.978 29.0369 102.844 29.0735C102.724 29.1042 102.618 29.1547 102.618 28.9695V24.5789L102.619 24.5779ZM103.87 24.2095C103.982 24.1619 104.632 24.0639 104.749 24.0976C104.788 24.4066 104.771 28.7239 104.738 28.8229C104.671 28.8705 104.744 28.8427 104.635 28.8625L103.865 28.9358C103.815 28.6635 103.823 24.36 103.871 24.2105L103.87 24.2095ZM105.437 28.7437C105.357 28.6288 105.401 27.5225 105.401 27.264L105.398 24.2293C105.395 24.0668 105.37 24.0163 105.521 23.9876C105.875 23.9262 106.106 23.9232 106.469 23.9232C106.508 24.0668 106.513 28.505 106.469 28.6991C106.299 28.713 105.501 28.7724 105.437 28.7437ZM107.127 23.8757C107.275 23.8311 107.587 23.839 107.768 23.8331C107.978 23.8242 108.212 23.7885 108.363 23.844C108.39 24.1728 108.379 28.4763 108.354 28.5605C108.2 28.6248 107.576 28.6387 107.372 28.6387C107.124 28.6387 107.107 28.6645 107.107 28.4763C107.107 27.7859 107.074 24.2649 107.127 23.8747V23.8757ZM102.268 20.1586C102.268 19.8446 102.224 19.7426 102.388 19.6614C102.432 20.1616 102.408 21.2451 102.408 21.8037C102.408 21.9582 102.399 21.9443 102.304 21.9523L102.268 20.1586ZM102.97 19.6673C102.97 19.288 103.285 19.283 103.285 19.6396C103.285 20.0298 103.302 21.4699 103.274 21.7482C103.227 21.7789 103.063 21.8433 102.981 21.8047C102.954 21.5917 102.97 20.014 102.97 19.6683V19.6673ZM103.99 21.6551C103.881 21.6413 103.901 21.4897 103.904 21.3719V20.6191C103.904 20.1952 103.806 19.1989 104.065 19.078C104.171 19.0305 104.129 19.0523 104.193 19.0949L104.287 19.1989C104.341 19.3227 104.324 21.4897 104.293 21.5799L103.989 21.6561L103.99 21.6551ZM105.014 19.2038C105.014 18.7433 105.472 18.7631 105.472 19.1761C105.472 19.5633 105.494 21.1946 105.461 21.4442C105.335 21.4977 105.171 21.5284 105.026 21.5115C104.999 21.1718 105.015 19.6614 105.015 19.2038H105.014ZM106.508 18.7076C106.589 18.6848 106.682 18.7442 106.743 18.8255C106.806 18.9126 106.793 19.0335 106.793 19.1761L106.796 21.2005C106.796 21.4115 106.785 21.3719 106.584 21.3689C106.277 21.3659 106.289 21.4164 106.274 21.2847L106.277 19.2632C106.277 18.977 106.264 18.7799 106.508 18.7076ZM108.24 21.2817C108.125 21.2986 107.986 21.3015 107.875 21.3075C107.665 21.3134 107.665 21.3352 107.665 21.1134L107.668 19.4375C107.668 19.283 107.574 18.4441 108.03 18.5699C108.141 18.5977 108.024 18.5471 108.12 18.6234C108.179 18.668 108.217 18.7076 108.237 18.7809C108.273 18.9156 108.267 21.1084 108.24 21.2827V21.2817Z" fill="white"/>
<path fill-rule="evenodd" clip-rule="evenodd" d="M7.48828 27.4977H10.7814V18.9037H12.3404C15.6336 18.9037 17.2506 17.0645 17.2506 13.6901V11.6102C17.2506 8.23278 15.6336 6.39354 12.3404 6.39354H7.48927V27.4977H7.48828ZM10.7814 15.8908V9.40843H12.3404C13.389 9.40843 13.9575 9.88879 13.9575 11.3962V13.901C13.9575 15.4085 13.389 15.8918 12.3404 15.8918H10.7814V15.8908ZM23.8083 27.7979C27.0424 27.7979 28.808 25.8695 28.808 22.4921V11.3962C28.808 8.02181 27.0434 6.09046 23.8083 6.09046C20.5732 6.09046 18.8067 8.02181 18.8067 11.3962V22.4921C18.8067 25.8695 20.5742 27.7979 23.8083 27.7979ZM23.8083 24.7859C22.7598 24.7859 22.1018 24.2135 22.1018 22.706V11.1863C22.1018 9.67881 22.7598 9.10634 23.8083 9.10634C24.8569 9.10634 25.5149 9.67881 25.5149 11.1863V22.706C25.5149 24.2135 24.8569 24.7859 23.8083 24.7859ZM31.0241 27.4977H39.7369V24.4829H34.3162V6.39354H31.0231V27.4977H31.0241ZM41.3235 27.4977H44.6196V6.39354H41.3235V27.4977ZM49.6488 27.4977H52.9419V9.40843H56.3855V6.39354H46.2061V9.40843H49.6497V27.4977H49.6488ZM57.9711 27.4977H61.2672V6.39354H57.9711V27.4977ZM68.3629 27.7979C71.536 27.7979 73.2141 25.8695 73.2141 22.6119V19.6277H70.1V22.8536C70.1 24.2402 69.439 24.7849 68.4524 24.7849C67.4659 24.7849 66.8049 24.2402 66.8049 22.8536V11.0644C66.8049 9.67782 67.4659 9.10436 68.4524 9.10436C69.439 9.10436 70.1 9.67683 70.1 11.0644V13.5068H73.2141V11.2744C73.2141 8.02082 71.536 6.08848 68.3629 6.08848C65.1898 6.08848 63.5117 8.01983 63.5117 11.2744V22.6109C63.5117 25.8675 65.1878 27.7969 68.3629 27.7969V27.7979ZM74.3216 27.4977H77.3747L77.9738 23.3676H81.7184V23.3062L82.3154 27.4977H85.6115L82.1964 6.39354H77.7357L74.3226 27.4977H74.3216ZM78.3643 20.5043L79.8003 10.071H79.8613L81.3279 20.5043H78.3643ZM87.1971 27.4977H95.9099V24.4829H90.4892V6.39354H87.1961V27.4977H87.1971Z" fill="white"/>
<path d="M124.175 6.11499H129.7C131.371 6.11499 132.565 6.65874 133.279 7.74525C133.993 8.83175 134.35 10.4214 134.35 12.5122C134.35 14.603 134.033 16.1808 133.401 17.2425C132.768 18.3053 131.632 18.8361 129.993 18.8361H128.29V27.1697H124.176V6.11499H124.175ZM128.533 15.0358C129.035 15.0358 129.405 14.9418 129.64 14.7536C129.875 14.5664 130.03 14.296 130.103 13.9444C130.175 13.5928 130.212 13.0906 130.212 12.4369C130.212 11.5545 130.114 10.9176 129.92 10.5254C129.725 10.1332 129.335 9.93708 128.751 9.93708H128.289V15.0349H128.532L128.533 15.0358Z" fill="white"/>
<path d="M135.104 27.1687L137.124 6.11499H144.207L146.203 27.1687H142.235L141.943 23.7616H139.411L139.168 27.1687H135.103H135.104ZM139.729 20.404H141.627L140.703 9.69343H140.508L139.729 20.404Z" fill="white"/>
<path d="M147.469 6.11499H153.895C154.917 6.11499 155.709 6.34774 156.269 6.81325C156.828 7.27875 157.206 7.93244 157.401 8.77431C157.596 9.61618 157.693 10.6898 157.693 11.9972C157.693 13.1897 157.539 14.1217 157.231 14.7912C156.922 15.4617 156.387 15.9272 155.624 16.1887C156.257 16.3194 156.715 16.6384 157 17.1445C157.283 17.6516 157.425 18.337 157.425 19.2036L157.376 27.1697H153.287V18.9342C153.287 18.3459 153.173 17.9705 152.946 17.8071C152.719 17.6437 152.305 17.5624 151.705 17.5624V27.1707H147.469V6.11499ZM152.727 13.9087C153.311 13.9087 153.603 13.2719 153.603 11.9972C153.603 11.4416 153.579 11.0256 153.53 10.7473C153.482 10.4699 153.393 10.2778 153.263 10.1708C153.133 10.0648 152.946 10.0114 152.703 10.0114H151.729V13.9087H152.728H152.727Z" fill="white"/>
<path d="M160.881 27.1687V10.1589H158.398V6.11499H167.551V10.1589H165.068V27.1687H160.882H160.881Z" fill="white"/>
<path d="M168.524 27.1687V6.11499H172.564V27.1687H168.524Z" fill="white"/>
<path d="M174.243 27.1687V6.11499H182.616V10.1837H178.503V14.2772H182.446V18.2478H178.503V23.0762H182.884V27.1697H174.243V27.1687Z" fill="white"/>
<path d="M185.124 25.9439C184.28 24.996 183.858 23.4688 183.858 21.3601V19.301H187.971V21.9237C187.971 22.9696 188.304 23.4925 188.97 23.4925C189.343 23.4925 189.602 23.3826 189.749 23.1617C189.895 22.9409 189.968 22.5695 189.968 22.0465C189.968 21.3601 189.887 20.7926 189.725 20.343C189.563 19.8933 189.356 19.5179 189.105 19.2158C188.853 18.9138 188.402 18.4433 187.754 17.8064L185.953 15.993C184.557 14.6202 183.86 13.1009 183.86 11.434C183.86 9.63634 184.269 8.26855 185.09 7.32862C185.909 6.3887 187.106 5.91923 188.68 5.91923C190.562 5.91923 191.917 6.42138 192.745 7.42668C193.572 8.43197 193.986 10.0048 193.986 12.1451H189.726L189.702 10.6991C189.702 10.4218 189.624 10.2009 189.471 10.0375C189.316 9.87404 189.102 9.79283 188.825 9.79283C188.501 9.79283 188.257 9.88296 188.095 10.0622C187.933 10.2425 187.852 10.4871 187.852 10.7971C187.852 11.4835 188.242 12.1946 189.021 12.9295L191.455 15.2828C192.023 15.8385 192.494 16.3654 192.867 16.8636C193.24 17.3617 193.54 17.9501 193.768 18.6285C193.995 19.307 194.108 20.1112 194.108 21.0432C194.108 23.1182 193.731 24.691 192.976 25.7616C192.222 26.8323 190.975 27.3671 189.239 27.3671C187.341 27.3671 185.969 26.8937 185.126 25.9459L185.124 25.9439Z" fill="white"/>
</g>
<defs>
<clipPath id="clip0_2_1196">
<rect width="199" height="32" fill="white" transform="translate(0.986488 0.429688)"/>
</clipPath>
</defs>
</svg>
