<svg width="84" height="33" viewBox="0 0 84 33" fill="none" xmlns="http://www.w3.org/2000/svg">
<path fill-rule="evenodd" clip-rule="evenodd" d="M3.29126 1.79193H8.76369C10.6041 1.79193 12.1101 3.29355 12.1101 5.12939V12.1684C11.2131 11.1319 10.3164 10.0953 9.42247 9.05576C8.99214 8.55544 8.63045 8.01351 8.47434 7.36421C8.36667 6.81188 8.25665 6.26022 8.15168 5.70722C8.10424 5.45656 8.03661 5.20019 7.90977 4.97705C7.89295 4.94718 7.87141 4.92202 7.84652 4.90222C7.83777 4.87101 7.82296 4.84115 7.80177 4.81363C7.58644 4.5321 7.29002 4.37137 6.95659 4.266C6.95457 4.26533 6.95289 4.26499 6.95087 4.26432C6.32742 4.08279 5.62423 4.02708 4.97723 4.06701C4.89446 4.06399 4.81102 4.07138 4.73061 4.09151C4.69629 4.10023 4.66534 4.11534 4.63876 4.13547C4.60309 4.1405 4.56844 4.15325 4.5358 4.17406C4.37329 4.27741 4.27673 4.45257 4.30129 4.64585C4.32619 4.84081 4.46414 4.98913 4.63169 5.08006C4.99944 5.28006 5.36583 5.48206 5.73257 5.68373C5.7679 5.7032 5.82644 5.74078 5.83788 5.78306C5.84259 5.80084 5.84898 5.81729 5.85672 5.83306L5.83149 5.87366C5.82476 5.88473 5.81971 5.89446 5.81433 5.90621C5.80962 5.91695 5.80457 5.92768 5.79919 5.93842C5.72214 6.09446 5.64543 6.25049 5.56838 6.40653C5.48696 6.52867 5.40789 6.65249 5.32647 6.77497C5.29821 6.80987 5.23125 6.88973 5.19626 6.89812C5.15151 6.90852 5.0314 6.85282 4.98665 6.83101L3.71687 6.11795C3.7051 6.11123 3.69298 6.10587 3.68087 6.10117C3.67044 6.09311 3.65934 6.08573 3.64722 6.07902L3.53855 6.01795C3.46016 5.97399 3.37201 5.97265 3.29227 6.01493C3.21286 6.05687 3.16408 6.13036 3.15667 6.21996C3.06919 7.28166 3.51668 8.17156 4.16738 8.97287C4.25419 9.24065 4.43823 9.47587 4.67711 9.62553C4.89143 9.76009 5.24639 9.85841 5.41529 9.5997C5.46442 9.52453 5.51219 9.44903 5.56165 9.3742C5.56199 9.3742 5.56232 9.37353 5.56266 9.37353C5.59193 9.36011 5.69825 9.40071 5.72382 9.41212C6.21774 9.62788 6.71266 9.84163 7.20725 10.0561C7.54303 10.2524 7.81085 10.5507 8.02719 10.8694C8.03022 10.8738 8.03291 10.8775 8.03628 10.8819C8.78085 11.8493 9.52475 12.8174 10.2687 13.7854H3.42987C1.58947 13.7854 0.0834961 12.2838 0.0834961 10.448V4.99013C0.0834961 3.23114 1.52655 1.79193 3.29025 1.79193H3.29126Z" fill="#969FB2"/>
<path fill-rule="evenodd" clip-rule="evenodd" d="M6.15571 8.11291C6.47063 8.25954 6.7832 8.58202 7.03554 8.81691C7.26635 8.45517 7.49749 8.09378 7.7283 7.73205C7.66774 7.63541 7.59641 7.59111 7.52138 7.56829C7.56445 7.61796 7.57791 7.67936 7.53551 7.76325C7.50254 7.81191 7.46957 7.86023 7.4366 7.90889C7.2576 7.63071 6.97868 7.47266 6.68294 7.33542C6.93932 7.51159 7.19065 7.6948 7.36897 7.97566C7.33902 8.0421 7.30908 8.10854 7.27947 8.17465C7.07255 7.88607 6.80675 7.70185 6.51336 7.56527C6.80137 7.76762 7.06347 7.98976 7.20781 8.30182C7.16306 8.34981 7.11797 8.39779 7.07323 8.44611C6.90634 8.1676 6.65636 7.97902 6.36297 7.83708C6.60522 8.02566 6.8266 8.2431 6.99483 8.53269C6.97902 8.56255 6.9632 8.59242 6.94705 8.62262C6.75629 8.40182 6.44204 8.17129 6.15605 8.11257L6.15571 8.11291ZM12.11 12.5567V13.2983L8.52839 8.92965C8.40357 8.77731 8.1768 8.75483 8.02405 8.87932C7.8713 9.00381 7.84875 9.22998 7.97358 9.38232L11.5824 13.7845H11.2089L8.24442 10.1682C7.51701 9.41152 5.8058 8.58235 4.75337 8.46121L5.3563 7.28307C5.13693 7.60823 4.93539 7.86258 4.77187 7.96895C4.70997 8.11425 4.64772 8.25921 4.58582 8.40451C4.03908 7.88473 3.76487 7.15153 3.59126 6.33982L4.86675 7.05623C5.20725 7.22603 5.3388 7.17032 5.53395 6.92503C5.63858 6.76832 5.68636 6.69014 5.79099 6.53343C5.8704 6.37237 5.9498 6.21163 6.02921 6.05057C6.03661 6.0358 6.04334 6.02137 6.04973 6.00694L6.14797 5.84789C6.29669 5.65327 6.31553 5.49958 6.25463 5.36569C6.1971 5.23919 6.06823 5.13986 5.91313 5.04121L5.90943 5.03919C5.72572 4.93819 5.57701 4.86336 5.4283 4.78853C5.28362 4.71572 5.13928 4.6429 4.95121 4.53988L4.94851 4.53854C4.87247 4.50129 4.82638 4.44828 4.80417 4.38251C4.79946 4.36841 4.79576 4.35331 4.79273 4.33788C4.84657 4.32412 4.90881 4.31808 4.97913 4.32144C5.58643 4.28251 6.27448 4.33217 6.87808 4.50801C7.20781 4.61236 7.43626 4.75699 7.59675 4.96705C7.42953 5.46066 7.21285 5.95225 6.9521 6.44183C6.87606 6.58477 6.79599 6.72772 6.71254 6.87033C6.59849 6.82436 6.48073 6.78611 6.35893 6.75725C6.09818 7.1824 5.83743 7.60789 5.57667 8.03304C6.14024 8.23874 6.63987 8.54812 7.0813 8.95079C7.34205 8.52531 7.6028 8.10015 7.86356 7.675C7.54695 7.36025 7.20814 7.0965 6.83064 6.92167C6.9124 6.78175 6.99046 6.64215 7.06515 6.50189C7.31245 6.03748 7.52037 5.57072 7.68557 5.10194C7.78516 5.2771 7.85178 5.49086 7.89855 5.75326C8.00655 6.30794 8.11455 6.86228 8.22255 7.41696C8.38876 8.11324 8.77232 8.68704 9.22654 9.22092C10.2322 10.3877 11.1712 11.4728 12.1089 12.5564L12.11 12.5567ZM12.11 13.5164V13.7845H11.7035L8.09369 9.38131C8.00924 9.2783 8.02472 9.12528 8.12801 9.04106C8.2313 8.95683 8.38473 8.97227 8.46918 9.07529L12.11 13.5164ZM11.0437 13.7845H10.5925C9.81701 12.7751 9.03947 11.7631 8.24039 10.7249C7.97694 10.3366 7.67548 10.0283 7.32388 9.82626C6.82492 9.60983 6.32629 9.39306 5.82733 9.17662C5.60224 9.07696 5.4532 9.10179 5.35831 9.21689C5.29641 9.31085 5.2631 9.36521 5.20119 9.45916C5.09958 9.6152 4.53938 9.37024 4.39942 8.84979C3.76285 8.07667 3.33084 7.23911 3.41327 6.23982L3.52194 6.30089C3.59933 7.22401 4.05556 8.00788 4.60095 8.75919L4.75236 8.46323C6.00835 8.71825 7.53417 9.63198 8.14651 10.2501L11.0437 13.7842V13.7845ZM4.67363 4.38855C4.49968 4.49928 4.50574 4.72041 4.75438 4.8543C5.12179 5.05597 5.4892 5.25731 5.85627 5.45864C5.98008 5.52777 6.05747 5.613 6.08506 5.71534C6.1648 5.59219 6.17422 5.4979 6.13822 5.41905C6.0938 5.3214 5.98109 5.23617 5.84416 5.14926C5.6581 5.04691 5.51443 4.97477 5.37076 4.90262C5.22205 4.82779 5.07334 4.75296 4.88963 4.65196C4.78163 4.59827 4.71569 4.52076 4.68339 4.42378C4.67969 4.41237 4.67599 4.40063 4.67329 4.38855H4.67363Z" fill="#969FB2"/>
<path fill-rule="evenodd" clip-rule="evenodd" d="M6.62362 6.93861C6.54826 6.90573 6.46751 6.87284 6.38104 6.8668C6.14653 7.24766 5.92851 7.60201 5.69434 7.9832C5.79325 8.00032 5.86626 8.0426 5.93457 8.08924C6.16436 7.7057 6.39416 7.32215 6.62396 6.93861H6.62362Z" fill="#969FB2"/>
<path fill-rule="evenodd" clip-rule="evenodd" d="M6.80359 7.03789C7.05862 7.15667 7.29279 7.32512 7.50813 7.53753C7.31433 7.2607 7.03709 7.0805 6.80359 7.03789Z" fill="#969FB2"/>
<path fill-rule="evenodd" clip-rule="evenodd" d="M22.4453 6.10177H16.9728C15.1324 6.10177 13.6265 7.60373 13.6265 9.43923V16.9426L14.6375 15.9343C14.8115 15.7608 15.0483 15.6709 15.2889 15.6796L17.3685 13.6055C17.2309 13.3424 17.2726 13.0092 17.4937 12.7891L17.5509 12.7321L15.7441 10.0328L14.977 9.26776C14.8771 9.1681 14.8771 9.00535 14.977 8.90569L15.4659 8.41813C15.5143 8.36981 15.5776 8.34497 15.6415 8.3433C15.6364 8.27182 15.6613 8.19867 15.7158 8.14431L15.9154 7.94532C16.0153 7.84566 16.1785 7.84566 16.2784 7.94532L23.887 15.5336C23.9869 15.6333 23.9869 15.796 23.887 15.8957L23.6875 16.0947C23.633 16.149 23.5596 16.1739 23.4876 16.1688C23.4863 16.2326 23.4614 16.2957 23.4126 16.344L22.9237 16.8316C22.8238 16.9312 22.6606 16.9312 22.5607 16.8316L21.7936 16.0665L19.0871 14.2646L19.0299 14.3216C18.8089 14.5421 18.4748 14.5837 18.2113 14.4464L16.1317 16.5205C16.1405 16.7608 16.0503 16.997 15.8763 17.1701L14.9487 18.0953H22.3053C24.1457 18.0953 25.6517 16.5937 25.6517 14.7582V9.30031C25.6517 7.54131 24.2086 6.1021 22.4449 6.1021L22.4453 6.10177Z" fill="#969FB2"/>
<path fill-rule="evenodd" clip-rule="evenodd" d="M13.6259 17.3047V18.0956H14.5858L15.6951 16.9893C15.8475 16.8373 15.9037 16.6238 15.863 16.4265L18.1889 14.1068L18.2226 14.1404C18.3948 14.3122 18.6764 14.3122 18.8487 14.1404L19.055 13.9347L21.9575 15.8672L22.7425 16.65L23.2314 16.1624L19.4392 12.3804L15.647 8.5983L15.1581 9.08586L15.9431 9.86872L17.8807 12.7636L17.6745 12.9693C17.5022 13.1411 17.5022 13.4219 17.6745 13.5937L17.7081 13.6273L15.3822 15.947C15.1847 15.9068 14.9707 15.9625 14.818 16.1145L13.6252 17.304L13.6259 17.3047ZM16.0965 8.12617L23.7051 15.7145L23.5056 15.9135L15.897 8.32515L16.0965 8.12617Z" fill="#969FB2"/>
<path fill-rule="evenodd" clip-rule="evenodd" d="M22.4453 32.1877H16.9728C15.1324 32.1877 13.6265 30.6861 13.6265 28.8503V21.265L17.5273 25.1665C17.4705 25.3672 17.5223 25.591 17.6781 25.747L17.7753 25.8443C17.6841 26.0054 17.6787 26.202 17.7588 26.3675L17.6548 26.4708C17.4681 26.3507 17.2154 26.3715 17.0519 26.5343L16.3057 27.2765C16.1172 27.4637 16.1169 27.7694 16.3046 27.9574L17.598 29.2509C17.7857 29.4388 18.0922 29.4392 18.2806 29.2519L19.0269 28.5097C19.1733 28.364 19.2062 28.1466 19.1251 27.9691L19.2624 27.8325C19.4596 27.8986 19.6864 27.854 19.8431 27.698L21.4511 26.0987C21.805 25.7581 22.0735 25.1655 22.203 24.6984C22.4197 23.9176 22.3935 23.1065 22.123 22.3415C22.0843 22.2321 21.9816 22.1643 21.8659 22.171C21.7498 22.1777 21.6563 22.2572 21.6307 22.3703C21.4972 22.9639 21.1627 23.7974 20.5756 24.1092L20.4336 23.9669C20.2593 23.7924 19.9976 23.7558 19.7866 23.8575L19.682 23.7528C19.5262 23.5971 19.3018 23.5448 19.1006 23.6008L15.694 20.1935H22.3053C24.1457 20.1935 25.6517 21.6955 25.6517 23.531V28.9889C25.6517 30.7479 24.2086 32.1871 22.4449 32.1871L22.4453 32.1877Z" fill="#969FB2"/>
<path fill-rule="evenodd" clip-rule="evenodd" d="M13.6259 20.9032V20.1948H15.3314L19.0475 23.9118C19.1801 23.8041 19.3769 23.8118 19.5001 23.9349L19.7639 24.1987L19.8147 24.1483C19.9351 24.0286 20.1316 24.0289 20.2517 24.149L20.5179 24.4155C21.176 24.1799 21.6658 23.3829 21.8808 22.4279C22.4609 24.0671 21.7035 25.5013 21.2712 25.9171L19.6616 27.5177C19.5411 27.6375 19.3446 27.6371 19.2245 27.517L19.2205 27.513L18.7831 27.9482L18.8453 28.0106C18.9332 28.0985 18.9328 28.2422 18.845 28.3297L18.0987 29.072C18.0106 29.1596 17.8666 29.1592 17.7788 29.0717L16.4854 27.7781C16.3976 27.6902 16.3976 27.5469 16.4858 27.4593L17.232 26.717C17.3202 26.6295 17.4639 26.6298 17.552 26.7174L17.661 26.8264L18.0984 26.3912L18.0476 26.3406C17.9275 26.2204 17.9278 26.0245 18.0483 25.9047L18.1223 25.8312L17.8585 25.5674C17.7354 25.4443 17.7283 25.2476 17.8366 25.1161L13.6252 20.9038L13.6259 20.9032Z" fill="#969FB2"/>
<path fill-rule="evenodd" clip-rule="evenodd" d="M3.29126 27.8772H8.76369C10.6041 27.8772 12.1101 26.3753 12.1101 24.5398V16.8924C11.6279 17.3662 11.1774 17.8672 10.7784 18.3886C10.7528 18.4219 10.7215 18.4477 10.6862 18.4648C10.6815 18.493 10.6714 18.5205 10.6566 18.547C10.6351 18.586 10.6162 18.6262 10.6017 18.6682L10.6041 18.6709C11.0516 19.1688 11.0092 19.9426 10.5099 20.3886L9.01401 21.7258C8.97633 21.7593 8.93124 21.7801 8.88448 21.7875C8.87068 21.8352 8.84377 21.8761 8.80339 21.9097C8.22671 22.3942 7.59619 22.9361 7.25604 23.621C6.84354 24.4518 6.95693 25.3176 7.27353 26.1608C7.31424 26.2696 7.27925 26.3877 7.18538 26.4568C7.09151 26.5256 6.96803 26.5243 6.87584 26.4531C3.90293 24.1559 3.41877 21.5113 5.88667 18.6987C5.92199 18.6584 5.96506 18.6316 6.01418 18.6192C6.02428 18.5662 6.05153 18.5158 6.0946 18.4772L7.59047 17.14C8.08977 16.6937 8.86564 16.736 9.31279 17.234C9.31346 17.235 9.31447 17.2357 9.31514 17.2367C9.35854 17.2269 9.40094 17.2129 9.44198 17.1957C9.47058 17.1837 9.49716 17.1776 9.52812 17.1763C9.61694 17.1716 9.71014 17.1561 9.80535 17.1327C9.79862 17.0414 9.84169 16.9521 9.92278 16.9001C10.3995 16.5937 10.8649 16.2515 11.313 15.8837H3.42987C1.58947 15.8837 0.0834961 17.3853 0.0834961 19.2208V24.6787C0.0834961 26.4377 1.52655 27.8769 3.29025 27.8769L3.29126 27.8772Z" fill="#969FB2"/>
<path fill-rule="evenodd" clip-rule="evenodd" d="M12.1101 16.5387V15.8837H11.7108C11.2 16.3189 10.6462 16.7407 10.0628 17.1155C10.407 17.0457 10.7684 16.9209 11.0964 16.7924C10.6402 17.0994 10.0366 17.4065 9.54199 17.432C9.47133 17.4615 9.40404 17.4816 9.33978 17.4934C9.4498 17.642 9.54132 17.8018 9.60087 17.9809C9.46292 17.7132 9.30849 17.6122 9.12243 17.4051C8.76882 17.0119 8.1568 16.9783 7.76248 17.331L6.2666 18.6682L8.84317 21.5355L10.3391 20.1983C10.7334 19.8456 10.767 19.2353 10.4134 18.842L10.3216 18.7396C10.336 18.6407 10.37 18.535 10.4322 18.4229C10.3481 18.1685 10.4635 17.9189 10.6415 17.6709C10.5722 17.8568 10.5433 18.0444 10.5742 18.2336C11.0406 17.6239 11.5685 17.0545 12.1098 16.5387H12.1101Z" fill="#969FB2"/>
<path fill-rule="evenodd" clip-rule="evenodd" d="M8.63841 21.7147C7.35853 22.7902 6.15436 23.9096 7.03352 26.2515C3.46542 23.4945 4.32775 20.8654 6.08034 18.8682L8.08898 21.1033C7.32758 21.6839 6.81718 22.3956 6.60386 23.2627C6.97127 22.4637 7.51364 21.7966 8.23163 21.2621L8.32584 21.3667C7.40059 22.0338 6.80372 22.8529 6.60723 23.8579C6.98675 22.9167 7.60751 22.1395 8.47052 21.5278L8.63874 21.7151L8.63841 21.7147ZM5.80243 24.8733C4.8829 23.8502 4.62753 22.6311 4.90645 21.4778C4.85901 22.6241 5.06694 23.7945 5.80243 24.8733Z" fill="#969FB2"/>
<path fill-rule="evenodd" clip-rule="evenodd" d="M10.1032 28.8061H11.7926C12.1694 28.8061 12.4776 29.1134 12.4776 29.4893V31.1741C12.4776 31.5499 12.1694 31.8573 11.7926 31.8573H10.1032C9.7264 31.8573 9.41821 31.5499 9.41821 31.1741V29.4893C9.41821 29.1134 9.7264 28.8061 10.1032 28.8061Z" fill="#969FB2"/>
<path fill-rule="evenodd" clip-rule="evenodd" d="M13.8736 3.26483H15.0317C15.2901 3.26483 15.5014 3.47556 15.5014 3.73327V4.88826C15.5014 5.14597 15.2901 5.3567 15.0317 5.3567H13.8736C13.6152 5.3567 13.4039 5.14597 13.4039 4.88826V3.73327C13.4039 3.47556 13.6152 3.26483 13.8736 3.26483Z" fill="#969FB2"/>
<path fill-rule="evenodd" clip-rule="evenodd" d="M16.5324 2.58387H17.2864C17.4546 2.58387 17.5922 2.72111 17.5922 2.88889V3.64088C17.5922 3.80866 17.4546 3.9459 17.2864 3.9459H16.5324C16.3642 3.9459 16.2266 3.80866 16.2266 3.64088V2.88889C16.2266 2.72111 16.3642 2.58387 16.5324 2.58387Z" fill="#969FB2"/>
<path fill-rule="evenodd" clip-rule="evenodd" d="M13.7098 0.429581H14.4638C14.632 0.429581 14.7696 0.566824 14.7696 0.734603V1.48659C14.7696 1.65437 14.632 1.79161 14.4638 1.79161H13.7098C13.5415 1.79161 13.4039 1.65437 13.4039 1.48659V0.734603C13.4039 0.566824 13.5415 0.429581 13.7098 0.429581Z" fill="#969FB2"/>
<path fill-rule="evenodd" clip-rule="evenodd" d="M4.26022 29.2849H5.4183C5.67669 29.2849 5.88799 29.4956 5.88799 29.7533V30.9083C5.88799 31.166 5.67669 31.3767 5.4183 31.3767H4.26022C4.00182 31.3767 3.79053 31.166 3.79053 30.9083V29.7533C3.79053 29.4956 4.00182 29.2849 4.26022 29.2849Z" fill="#969FB2"/>
<path fill-rule="evenodd" clip-rule="evenodd" d="M7.95916 28.5009H8.71315C8.88138 28.5009 9.01899 28.6381 9.01899 28.8059V29.5579C9.01899 29.7257 8.88138 29.8629 8.71315 29.8629H7.95916C7.79093 29.8629 7.65332 29.7257 7.65332 29.5579V28.8059C7.65332 28.6381 7.79093 28.5009 7.95916 28.5009Z" fill="#969FB2"/>
<path fill-rule="evenodd" clip-rule="evenodd" d="M7.27617 31.0676H8.03017C8.1984 31.0676 8.33601 31.2048 8.33601 31.3726V32.1246C8.33601 32.2923 8.1984 32.4296 8.03017 32.4296H7.27617C7.10795 32.4296 6.97034 32.2923 6.97034 32.1246V31.3726C6.97034 31.2048 7.10795 31.0676 7.27617 31.0676Z" fill="#969FB2"/>
<path d="M39.733 5.98743V18.9566H36.6065V13.6173H31.7431V18.9566H28.6166V5.98743H31.7431V11.068H36.6065V5.98743H39.733Z" fill="#969FB2"/>
<path d="M49.0135 18.9566C47.8246 18.9566 46.7349 18.6798 45.7444 18.1272C44.7539 17.5736 43.9674 16.8009 43.385 15.809C42.8026 14.8171 42.5114 13.7017 42.5114 12.4627C42.5114 11.2237 42.8026 10.112 43.385 9.1257C43.9674 8.13936 44.7539 7.37035 45.7444 6.81682C46.7349 6.26328 47.8246 5.98743 49.0135 5.98743C50.2025 5.98743 51.2922 6.26421 52.2827 6.81682C53.2732 7.36942 54.0541 8.13936 54.6245 9.1257C55.1948 10.112 55.4805 11.2237 55.4805 12.4627C55.4805 13.7017 55.192 14.8171 54.6161 15.809C54.0402 16.8009 53.2593 17.5736 52.2744 18.1272C51.2894 18.6807 50.2025 18.9566 49.0145 18.9566H49.0135ZM49.0135 16.1424C50.0226 16.1424 50.8294 15.8053 51.436 15.1319C52.0425 14.4586 52.3458 13.5688 52.3458 12.4627C52.3458 11.3566 52.0425 10.452 51.436 9.78418C50.8294 9.11641 50.0216 8.78298 49.0135 8.78298C48.0054 8.78298 47.1791 9.11362 46.5726 9.77489C45.966 10.4362 45.6627 11.3324 45.6627 12.4627C45.6627 13.593 45.966 14.4744 46.5726 15.1412C47.1791 15.809 47.9924 16.1424 49.0135 16.1424Z" fill="#969FB2"/>
<path d="M72.1553 5.98743V18.9566H69.1667V11.1783L66.4219 18.9566H64.0102L61.2493 11.1602V18.9566H58.2598V5.98743H61.791L65.2341 14.9661L68.642 5.98743H72.1553Z" fill="#969FB2"/>
<path d="M78.8084 8.51867V11.1422H82.7548V13.5802H78.8084V16.4253H83.2721V18.9566H75.8612V5.98743H83.2721V8.51867H78.8084Z" fill="#969FB2"/>
<path d="M31.9694 30.9995C31.3413 30.9995 30.7787 30.892 30.281 30.6771C29.7833 30.4621 29.3858 30.1444 29.0878 29.7238C28.7898 29.3033 28.633 28.7965 28.6166 28.2034H30.8436C30.8764 28.5384 30.9866 28.7938 31.1737 28.9703C31.3615 29.1461 31.6059 29.2343 31.9077 29.2343C32.2095 29.2343 32.4621 29.1593 32.6416 29.0088C32.8212 28.8582 32.9106 28.6499 32.9106 28.3839C32.9106 28.1603 32.8394 27.9759 32.6964 27.83C32.5534 27.684 32.3783 27.564 32.1704 27.4691C31.9625 27.3749 31.667 27.2675 31.2834 27.1467C30.729 26.9663 30.276 26.7859 29.9251 26.6054C29.5742 26.425 29.2724 26.159 29.0198 25.8068C28.7671 25.4545 28.6405 24.9948 28.6405 24.4283C28.6405 23.5865 28.9303 22.9272 29.5093 22.4509C30.0883 21.9739 30.843 21.7358 31.7729 21.7358C32.7027 21.7358 33.4814 21.9739 34.061 22.4509C34.64 22.9278 34.9499 23.5912 34.9909 24.4416H32.7273C32.7109 24.1497 32.6089 23.9195 32.4218 23.7524C32.234 23.5846 31.9934 23.501 31.6998 23.501C31.4472 23.501 31.243 23.572 31.0881 23.7132C30.9331 23.8552 30.8556 24.0589 30.8556 24.3249C30.8556 24.6167 30.986 24.8443 31.2474 25.0074C31.5083 25.1706 31.9165 25.3464 32.4709 25.5355C33.0253 25.7331 33.4764 25.9222 33.8229 26.1026C34.1694 26.2831 34.4693 26.5451 34.7219 26.8887C34.9745 27.2323 35.1011 27.6748 35.1011 28.2154C35.1011 28.756 34.977 29.1991 34.7282 29.6197C34.4793 30.0409 34.1183 30.3752 33.6452 30.6247C33.1721 30.8734 32.6133 30.9981 31.9688 30.9981L31.9694 30.9995Z" fill="#969FB2"/>
<path d="M39.1641 23.4909V25.3648H42.1239V27.1062H39.1641V29.1385H42.5119V30.9465H36.9537V21.6828H42.5119V23.4909H39.1641Z" fill="#969FB2"/>
<path d="M49.5049 30.9995L47.7862 27.5023H47.3038V30.9995H45.2911V21.7358H48.6692C49.3207 21.7358 49.8758 21.8635 50.3346 22.1183C50.7939 22.3731 51.1369 22.723 51.3642 23.1674C51.5921 23.6118 51.7054 24.1064 51.7054 24.652C51.7054 25.2676 51.5503 25.818 51.2406 26.3017C50.9303 26.7855 50.4733 27.1286 49.8691 27.3311L51.7757 30.9995H49.5043H49.5049ZM47.3038 25.9056H48.5516C48.9207 25.9056 49.197 25.8044 49.3813 25.6019C49.5655 25.3994 49.6576 25.1134 49.6576 24.7444C49.6576 24.3755 49.5655 24.1152 49.3813 23.9128C49.197 23.7103 48.9201 23.6091 48.5516 23.6091H47.3038V25.9049V25.9056Z" fill="#969FB2"/>
<path d="M61.9653 21.7358L58.7258 30.9995H55.9412L52.7017 21.7358H55.0697L57.3338 28.7294L59.61 21.7358H61.9653Z" fill="#969FB2"/>
<path d="M65.6711 21.6828V30.9465H62.892V21.6828H65.6711Z" fill="#969FB2"/>
<path d="M66.5972 26.322C66.5972 25.4234 66.7995 24.6228 67.2049 23.9184C67.6102 23.2146 68.1748 22.6662 68.8993 22.2726C69.6239 21.8796 70.4457 21.6828 71.3642 21.6828C72.4892 21.6828 73.453 21.9677 74.254 22.5381C75.055 23.1085 75.591 23.8857 75.8608 24.8704H73.3222C73.1331 24.4901 72.8654 24.2012 72.5184 24.0024C72.1715 23.8036 71.7779 23.7042 71.3371 23.7042C70.6258 23.7042 70.0494 23.9417 69.6086 24.4167C69.1677 24.8917 68.9466 25.5268 68.9466 26.3213C68.9466 27.1159 69.167 27.751 69.6086 28.226C70.0501 28.701 70.6258 28.9385 71.3371 28.9385C71.7779 28.9385 72.1722 28.8391 72.5184 28.6403C72.8647 28.4415 73.1331 28.1519 73.3222 27.7723H75.8608C75.5903 28.757 75.055 29.5322 74.254 30.0979C73.453 30.6636 72.4892 30.9465 71.3642 30.9465C70.4457 30.9465 69.6246 30.7497 68.8993 30.3568C68.1748 29.9638 67.6095 29.4175 67.2049 28.7176C66.7995 28.0178 66.5972 27.2193 66.5972 26.3207V26.322Z" fill="#969FB2"/>
<path d="M79.9244 23.4909V25.3648H82.8842V27.1062H79.9244V29.1385H83.2722V30.9465H77.714V21.6828H83.2722V23.4909H79.9244Z" fill="#969FB2"/>
</svg>
