<svg width="144" height="54" viewBox="0 0 144 54" fill="none" xmlns="http://www.w3.org/2000/svg">
<path fill-rule="evenodd" clip-rule="evenodd" d="M36.6818 17.2435C37.0621 20.5216 37.0625 23.8271 36.6818 27.1054C35.9913 33.0523 32.4731 37.4335 27.3644 38.0016C24.0949 38.3651 21.0015 38.4424 17.7904 38.233C17.5562 38.2179 17.349 38.3674 17.2554 38.6192C17.162 38.8706 17.2101 39.1502 17.3796 39.3398C20.3423 42.656 23.281 45.6434 26.1968 48.3286C29.8038 51.6509 33.6289 50.4448 35.3593 45.4574C39.3216 34.0394 41.8823 22.3767 43.3633 10.5253C44.0252 5.22671 41.1661 1.87872 36.6558 2.68143C33.1367 3.308 29.6868 4.07494 26.3044 4.97833C26.0378 5.04989 25.8587 5.3329 25.8786 5.65215C25.8985 5.97117 26.1106 6.2207 26.3829 6.24661C26.7087 6.27712 27.0363 6.31083 27.3644 6.3473C32.4729 6.91562 35.9913 11.2966 36.6818 17.2435Z" fill="#969FB2"/>
<path fill-rule="evenodd" clip-rule="evenodd" d="M5.85826 17.2103C6.02428 15.8005 6.35008 14.4788 6.81808 13.2758C6.91613 13.0238 6.87023 12.7405 6.7003 12.5479C6.53037 12.3555 6.2868 12.3103 6.07448 12.4328C4.60173 13.2813 3.40361 14.4274 2.91296 16.5704C2.27796 19.342 3.35732 21.3523 4.71092 23.301C4.85819 23.5131 5.09102 23.5923 5.31252 23.5054C5.53441 23.4184 5.67934 23.1909 5.68715 22.9175L5.85337 17.2763C5.85396 17.2534 5.85533 17.2337 5.85826 17.2105" fill="#969FB2"/>
<path fill-rule="evenodd" clip-rule="evenodd" d="M14.9707 15.3104C14.5224 20.0253 14.531 24.5966 14.9707 29.0326C15.1725 31.068 16.5411 31.9572 18.0877 31.1373C22.1414 28.9881 25.4862 26.6923 28.2492 24.2766C29.6411 23.0597 29.646 21.302 28.2492 20.0672C25.0602 17.2476 21.6564 15.0046 18.0877 13.2061C16.4897 12.4011 15.1611 13.3022 14.9707 15.3108" fill="#969FB2"/>
<path d="M56.0145 25.0057V22.4977H58.8835C59.6055 22.4977 60.2451 22.39 60.8025 22.1747C61.3725 21.9467 61.8538 21.63 62.2465 21.2247C62.6391 20.8194 62.9368 20.3444 63.1395 19.7997C63.3548 19.2424 63.4625 18.628 63.4625 17.9567C63.4625 17.26 63.3548 16.6394 63.1395 16.0947C62.9368 15.5374 62.6391 15.0624 62.2465 14.6697C61.8538 14.277 61.3725 13.9794 60.8025 13.7767C60.2451 13.574 59.6055 13.4727 58.8835 13.4727H56.0145V10.9647H58.7125C59.9665 10.9647 61.0621 11.1484 61.9995 11.5157C62.9368 11.883 63.7158 12.3897 64.3365 13.0357C64.9571 13.669 65.4195 14.3974 65.7235 15.2207C66.0401 16.0314 66.1985 16.8737 66.1985 17.7477V18.1657C66.1985 19.0017 66.0401 19.825 65.7235 20.6357C65.4195 21.4464 64.9571 22.181 64.3365 22.8397C63.7158 23.4984 62.9368 24.024 61.9995 24.4167C61.0621 24.8094 59.9665 25.0057 58.7125 25.0057H56.0145ZM53.6965 25.0057V10.9647H56.3945V25.0057H53.6965ZM68.8994 24.9297V14.6127H71.5404V24.9297H68.8994ZM67.4554 16.5887V14.6127H71.5404V16.5887H67.4554ZM69.8684 13.3777C69.3491 13.3777 68.9628 13.2447 68.7094 12.9787C68.4688 12.7 68.3484 12.3517 68.3484 11.9337C68.3484 11.5157 68.4688 11.1737 68.7094 10.9077C68.9628 10.6417 69.3491 10.5087 69.8684 10.5087C70.3878 10.5087 70.7678 10.6417 71.0084 10.9077C71.2491 11.1737 71.3694 11.5157 71.3694 11.9337C71.3694 12.3517 71.2491 12.7 71.0084 12.9787C70.7678 13.2447 70.3878 13.3777 69.8684 13.3777ZM78.6121 28.9957C78.1181 28.9957 77.6115 28.9767 77.0921 28.9387C76.5855 28.9007 76.1105 28.85 75.6671 28.7867V26.5827C76.1231 26.6334 76.6108 26.6777 77.1301 26.7157C77.6495 26.7664 78.1371 26.7917 78.5931 26.7917C79.4418 26.7917 80.1258 26.6904 80.6451 26.4877C81.1771 26.285 81.5635 25.962 81.8041 25.5187C82.0575 25.088 82.1841 24.537 82.1841 23.8657V21.8327L82.7541 20.5407C82.7161 21.4907 82.5198 22.3014 82.1651 22.9727C81.8105 23.6314 81.3291 24.138 80.7211 24.4927C80.1131 24.8347 79.4101 25.0057 78.6121 25.0057C77.9028 25.0057 77.2568 24.8727 76.6741 24.6067C76.1041 24.3407 75.6101 23.9734 75.1921 23.5047C74.7868 23.036 74.4701 22.485 74.2421 21.8517C74.0141 21.2184 73.9001 20.5407 73.9001 19.8187V19.4197C73.9001 18.6977 74.0141 18.0264 74.2421 17.4057C74.4828 16.7724 74.8185 16.2214 75.2491 15.7527C75.6798 15.284 76.1928 14.923 76.7881 14.6697C77.3835 14.4164 78.0421 14.2897 78.7641 14.2897C79.6128 14.2897 80.3475 14.4734 80.9681 14.8407C81.6015 15.208 82.0955 15.74 82.4501 16.4367C82.8048 17.1334 83.0011 17.9884 83.0391 19.0017L82.5831 19.0777V14.6127H84.6731V23.7137C84.6731 24.9677 84.4578 25.981 84.0271 26.7537C83.5965 27.5264 82.9315 28.09 82.0321 28.4447C81.1455 28.812 80.0055 28.9957 78.6121 28.9957ZM79.3721 22.7447C79.8788 22.7447 80.3411 22.6307 80.7591 22.4027C81.1771 22.1747 81.5128 21.8454 81.7661 21.4147C82.0195 20.984 82.1461 20.4647 82.1461 19.8567V19.1917C82.1461 18.609 82.0131 18.115 81.7471 17.7097C81.4938 17.3044 81.1581 17.0004 80.7401 16.7977C80.3221 16.5824 79.8661 16.4747 79.3721 16.4747C78.8148 16.4747 78.3208 16.6077 77.8901 16.8737C77.4721 17.127 77.1428 17.488 76.9021 17.9567C76.6615 18.4254 76.5411 18.9827 76.5411 19.6287C76.5411 20.262 76.6615 20.813 76.9021 21.2817C77.1428 21.7504 77.4721 22.1114 77.8901 22.3647C78.3208 22.618 78.8148 22.7447 79.3721 22.7447ZM88.0479 24.9297V14.6127H90.6889V24.9297H88.0479ZM86.6039 16.5887V14.6127H90.6889V16.5887H86.6039ZM89.0169 13.3777C88.4975 13.3777 88.1112 13.2447 87.8579 12.9787C87.6172 12.7 87.4969 12.3517 87.4969 11.9337C87.4969 11.5157 87.6172 11.1737 87.8579 10.9077C88.1112 10.6417 88.4975 10.5087 89.0169 10.5087C89.5362 10.5087 89.9162 10.6417 90.1569 10.9077C90.3975 11.1737 90.5179 11.5157 90.5179 11.9337C90.5179 12.3517 90.3975 12.7 90.1569 12.9787C89.9162 13.2447 89.5362 13.3777 89.0169 13.3777ZM98.2166 25.0627C97.2666 25.0627 96.4812 24.9424 95.8606 24.7017C95.2526 24.4484 94.7966 24.0304 94.4926 23.4477C94.1886 22.8524 94.0366 22.0544 94.0366 21.0537L94.0556 11.7057H96.5256L96.5066 21.2247C96.5066 21.7314 96.6396 22.124 96.9056 22.4027C97.1842 22.6687 97.5769 22.8017 98.0836 22.8017H99.6986V25.0627H98.2166ZM92.4026 16.5507V14.6127H99.6986V16.5507H92.4026ZM108.129 24.9297V21.8707H107.692V18.4697C107.692 17.8744 107.546 17.431 107.255 17.1397C106.964 16.8484 106.514 16.7027 105.906 16.7027C105.589 16.7027 105.209 16.709 104.766 16.7217C104.323 16.7344 103.873 16.7534 103.417 16.7787C102.974 16.7914 102.575 16.8104 102.22 16.8357V14.5937C102.511 14.5684 102.841 14.543 103.208 14.5177C103.575 14.4924 103.949 14.4797 104.329 14.4797C104.722 14.467 105.089 14.4607 105.431 14.4607C106.495 14.4607 107.375 14.6 108.072 14.8787C108.781 15.1574 109.313 15.5944 109.668 16.1897C110.035 16.785 110.219 17.564 110.219 18.5267V24.9297H108.129ZM104.804 25.1957C104.057 25.1957 103.398 25.0627 102.828 24.7967C102.271 24.5307 101.834 24.1507 101.517 23.6567C101.213 23.1627 101.061 22.5674 101.061 21.8707C101.061 21.1107 101.245 20.49 101.612 20.0087C101.992 19.5274 102.518 19.1664 103.189 18.9257C103.873 18.685 104.671 18.5647 105.583 18.5647H107.977V20.1417H105.545C104.937 20.1417 104.468 20.2937 104.139 20.5977C103.822 20.889 103.664 21.269 103.664 21.7377C103.664 22.2064 103.822 22.5864 104.139 22.8777C104.468 23.169 104.937 23.3147 105.545 23.3147C105.912 23.3147 106.248 23.2514 106.552 23.1247C106.869 22.9854 107.128 22.7574 107.331 22.4407C107.546 22.1114 107.667 21.668 107.692 21.1107L108.338 21.8517C108.275 22.5737 108.097 23.1817 107.806 23.6757C107.527 24.1697 107.135 24.5497 106.628 24.8157C106.134 25.069 105.526 25.1957 104.804 25.1957ZM113.181 24.9297V11.0597H115.822V24.9297H113.181ZM111.889 13.0357V11.0597H115.822V13.0357H111.889ZM52.3285 43.9297L57.0595 30.0597H61.4675L66.3315 43.9297H63.5575L59.4345 31.9027L60.4035 32.3207H58.0285L59.0165 31.9027L55.0265 43.9297H52.3285ZM55.6345 40.2437L56.4895 37.9637H62.1135L62.9495 40.2437H55.6345ZM72.0623 47.9957C71.5683 47.9957 71.0617 47.9767 70.5423 47.9387C70.0357 47.9007 69.5607 47.85 69.1173 47.7867V45.5827C69.5733 45.6334 70.061 45.6777 70.5803 45.7157C71.0997 45.7664 71.5873 45.7917 72.0433 45.7917C72.892 45.7917 73.576 45.6904 74.0953 45.4877C74.6273 45.285 75.0137 44.962 75.2543 44.5187C75.5077 44.088 75.6343 43.537 75.6343 42.8657V40.8327L76.2043 39.5407C76.1663 40.4907 75.97 41.3014 75.6153 41.9727C75.2607 42.6314 74.7793 43.138 74.1713 43.4927C73.5633 43.8347 72.8603 44.0057 72.0623 44.0057C71.353 44.0057 70.707 43.8727 70.1243 43.6067C69.5543 43.3407 69.0603 42.9734 68.6423 42.5047C68.237 42.036 67.9203 41.485 67.6923 40.8517C67.4643 40.2184 67.3503 39.5407 67.3503 38.8187V38.4197C67.3503 37.6977 67.4643 37.0264 67.6923 36.4057C67.933 35.7724 68.2687 35.2214 68.6993 34.7527C69.13 34.284 69.643 33.923 70.2383 33.6697C70.8337 33.4164 71.4923 33.2897 72.2143 33.2897C73.063 33.2897 73.7977 33.4734 74.4183 33.8407C75.0517 34.208 75.5457 34.74 75.9003 35.4367C76.255 36.1334 76.4513 36.9884 76.4893 38.0017L76.0333 38.0777V33.6127H78.1233V42.7137C78.1233 43.9677 77.908 44.981 77.4773 45.7537C77.0467 46.5264 76.3817 47.09 75.4823 47.4447C74.5957 47.812 73.4557 47.9957 72.0623 47.9957ZM72.8223 41.7447C73.329 41.7447 73.7913 41.6307 74.2093 41.4027C74.6273 41.1747 74.963 40.8454 75.2163 40.4147C75.4697 39.984 75.5963 39.4647 75.5963 38.8567V38.1917C75.5963 37.609 75.4633 37.115 75.1973 36.7097C74.944 36.3044 74.6083 36.0004 74.1903 35.7977C73.7723 35.5824 73.3163 35.4747 72.8223 35.4747C72.265 35.4747 71.771 35.6077 71.3403 35.8737C70.9223 36.127 70.593 36.488 70.3523 36.9567C70.1117 37.4254 69.9913 37.9827 69.9913 38.6287C69.9913 39.262 70.1117 39.813 70.3523 40.2817C70.593 40.7504 70.9223 41.1114 71.3403 41.3647C71.771 41.618 72.265 41.7447 72.8223 41.7447ZM85.6211 44.2907C84.7344 44.2907 83.9554 44.1387 83.2841 43.8347C82.6254 43.5307 82.0744 43.1254 81.6311 42.6187C81.2004 42.0994 80.8711 41.523 80.6431 40.8897C80.4277 40.2564 80.3201 39.6104 80.3201 38.9517V38.5907C80.3201 37.9067 80.4277 37.248 80.6431 36.6147C80.8711 35.9687 81.2004 35.3987 81.6311 34.9047C82.0744 34.398 82.6191 33.999 83.2651 33.7077C83.9111 33.4037 84.6584 33.2517 85.5071 33.2517C86.6217 33.2517 87.5527 33.4987 88.3001 33.9927C89.0601 34.474 89.6301 35.1137 90.0101 35.9117C90.3901 36.697 90.5801 37.5457 90.5801 38.4577V39.4077H81.4411V37.7927H88.9271L88.1101 38.5907C88.1101 37.932 88.0151 37.3684 87.8251 36.8997C87.6351 36.431 87.3437 36.07 86.9511 35.8167C86.5711 35.5634 86.0897 35.4367 85.5071 35.4367C84.9244 35.4367 84.4304 35.5697 84.0251 35.8357C83.6197 36.1017 83.3094 36.488 83.0941 36.9947C82.8914 37.4887 82.7901 38.084 82.7901 38.7807C82.7901 39.4267 82.8914 40.003 83.0941 40.5097C83.2967 41.0037 83.6071 41.3964 84.0251 41.6877C84.4431 41.9664 84.9751 42.1057 85.6211 42.1057C86.2671 42.1057 86.7927 41.979 87.1981 41.7257C87.6034 41.4597 87.8631 41.1367 87.9771 40.7567H90.4091C90.2571 41.466 89.9657 42.0867 89.5351 42.6187C89.1044 43.1507 88.5534 43.5624 87.8821 43.8537C87.2234 44.145 86.4697 44.2907 85.6211 44.2907ZM92.7863 43.9297V33.6127H94.8763V38.0397H94.6863C94.6863 36.9884 94.8256 36.1144 95.1043 35.4177C95.3829 34.7084 95.7946 34.1764 96.3393 33.8217C96.8966 33.467 97.5869 33.2897 98.4103 33.2897H98.5243C99.7529 33.2897 100.684 33.6887 101.317 34.4867C101.951 35.272 102.267 36.45 102.267 38.0207V43.9297H99.6263V37.7927C99.6263 37.1594 99.4426 36.6464 99.0753 36.2537C98.7206 35.861 98.2266 35.6647 97.5933 35.6647C96.9473 35.6647 96.4216 35.8674 96.0163 36.2727C95.6236 36.6654 95.4273 37.1974 95.4273 37.8687V43.9297H92.7863ZM109.686 44.2907C108.786 44.2907 108.007 44.1387 107.349 43.8347C106.703 43.5307 106.158 43.1254 105.715 42.6187C105.284 42.112 104.961 41.542 104.746 40.9087C104.53 40.2754 104.423 39.6294 104.423 38.9707V38.6097C104.423 37.913 104.53 37.248 104.746 36.6147C104.974 35.9687 105.309 35.3987 105.753 34.9047C106.196 34.398 106.741 33.999 107.387 33.7077C108.045 33.4037 108.805 33.2517 109.667 33.2517C110.566 33.2517 111.37 33.429 112.08 33.7837C112.789 34.1257 113.353 34.607 113.771 35.2277C114.201 35.8484 114.442 36.5704 114.493 37.3937H111.928C111.864 36.8617 111.636 36.4184 111.244 36.0637C110.864 35.709 110.338 35.5317 109.667 35.5317C109.084 35.5317 108.596 35.671 108.204 35.9497C107.824 36.2284 107.539 36.6147 107.349 37.1087C107.159 37.59 107.064 38.1474 107.064 38.7807C107.064 39.3887 107.152 39.9397 107.33 40.4337C107.52 40.9277 107.805 41.314 108.185 41.5927C108.577 41.8714 109.078 42.0107 109.686 42.0107C110.142 42.0107 110.534 41.9284 110.864 41.7637C111.193 41.599 111.453 41.371 111.643 41.0797C111.845 40.7884 111.972 40.459 112.023 40.0917H114.588C114.537 40.9277 114.29 41.6624 113.847 42.2957C113.416 42.9164 112.84 43.404 112.118 43.7587C111.408 44.1134 110.598 44.2907 109.686 44.2907ZM117.197 43.9297V33.6127H119.838V43.9297H117.197ZM115.753 35.5887V33.6127H119.838V35.5887H115.753ZM118.166 32.3777C117.647 32.3777 117.261 32.2447 117.007 31.9787C116.767 31.7 116.646 31.3517 116.646 30.9337C116.646 30.5157 116.767 30.1737 117.007 29.9077C117.261 29.6417 117.647 29.5087 118.166 29.5087C118.686 29.5087 119.066 29.6417 119.306 29.9077C119.547 30.1737 119.667 30.5157 119.667 30.9337C119.667 31.3517 119.547 31.7 119.306 31.9787C119.066 32.2447 118.686 32.3777 118.166 32.3777ZM127.499 44.2907C126.612 44.2907 125.833 44.1387 125.162 43.8347C124.503 43.5307 123.952 43.1254 123.509 42.6187C123.078 42.0994 122.749 41.523 122.521 40.8897C122.306 40.2564 122.198 39.6104 122.198 38.9517V38.5907C122.198 37.9067 122.306 37.248 122.521 36.6147C122.749 35.9687 123.078 35.3987 123.509 34.9047C123.952 34.398 124.497 33.999 125.143 33.7077C125.789 33.4037 126.536 33.2517 127.385 33.2517C128.5 33.2517 129.431 33.4987 130.178 33.9927C130.938 34.474 131.508 35.1137 131.888 35.9117C132.268 36.697 132.458 37.5457 132.458 38.4577V39.4077H123.319V37.7927H130.805L129.988 38.5907C129.988 37.932 129.893 37.3684 129.703 36.8997C129.513 36.431 129.222 36.07 128.829 35.8167C128.449 35.5634 127.968 35.4367 127.385 35.4367C126.802 35.4367 126.308 35.5697 125.903 35.8357C125.498 36.1017 125.187 36.488 124.972 36.9947C124.769 37.4887 124.668 38.084 124.668 38.7807C124.668 39.4267 124.769 40.003 124.972 40.5097C125.175 41.0037 125.485 41.3964 125.903 41.6877C126.321 41.9664 126.853 42.1057 127.499 42.1057C128.145 42.1057 128.671 41.979 129.076 41.7257C129.481 41.4597 129.741 41.1367 129.855 40.7567H132.287C132.135 41.466 131.844 42.0867 131.413 42.6187C130.982 43.1507 130.431 43.5624 129.76 43.8537C129.101 44.145 128.348 44.2907 127.499 44.2907ZM138.407 44.2527C136.989 44.2527 135.874 43.955 135.063 43.3597C134.265 42.7517 133.847 41.9157 133.809 40.8517H136.184C136.222 41.2064 136.419 41.5294 136.773 41.8207C137.128 42.112 137.685 42.2577 138.445 42.2577C139.079 42.2577 139.579 42.1437 139.946 41.9157C140.326 41.6877 140.516 41.3774 140.516 40.9847C140.516 40.6427 140.371 40.3704 140.079 40.1677C139.801 39.965 139.319 39.832 138.635 39.7687L137.723 39.6737C136.571 39.547 135.684 39.2177 135.063 38.6857C134.443 38.1537 134.132 37.4444 134.132 36.5577C134.132 35.8484 134.31 35.253 134.664 34.7717C135.019 34.2904 135.507 33.9294 136.127 33.6887C136.761 33.4354 137.483 33.3087 138.293 33.3087C139.56 33.3087 140.586 33.5874 141.371 34.1447C142.157 34.702 142.568 35.519 142.606 36.5957H140.231C140.206 36.241 140.029 35.937 139.699 35.6837C139.37 35.4304 138.895 35.3037 138.274 35.3037C137.717 35.3037 137.286 35.4114 136.982 35.6267C136.678 35.842 136.526 36.1207 136.526 36.4627C136.526 36.792 136.647 37.0454 136.887 37.2227C137.141 37.4 137.546 37.5204 138.103 37.5837L139.015 37.6787C140.231 37.8054 141.181 38.141 141.865 38.6857C142.562 39.2304 142.91 39.965 142.91 40.8897C142.91 41.5737 142.72 42.169 142.34 42.6757C141.973 43.1697 141.454 43.556 140.782 43.8347C140.111 44.1134 139.319 44.2527 138.407 44.2527Z" fill="#969FB2"/>
</svg>
