<svg width="49" height="32" viewBox="0 0 49 32" fill="none" xmlns="http://www.w3.org/2000/svg">
<path d="M2.66792 27.776H3.79895V28.523H2.66792V30.05H4.09137V30.797H1.84033V25.5845H4.08585V26.3315H2.6624V27.7815L2.66792 27.776Z" fill="#969FB2"/>
<path d="M6.07769 27.018V30.797H5.33838V25.5845H6.3701L7.21424 28.7043V25.5845H7.94803V30.797H7.1039L6.07769 27.018Z" fill="#969FB2"/>
<path d="M9.05127 25.5791H11.5947V26.3261H10.734V30.7971H9.91196V26.3261H9.05127V25.5791Z" fill="#969FB2"/>
<path d="M13.5257 27.776H14.6567V28.523H13.5257V30.05H14.9491V30.797H12.7036V25.5845H14.9491V26.3315H13.5257V27.7815V27.776Z" fill="#969FB2"/>
<path d="M17.9232 30.797C17.879 30.6651 17.8459 30.5828 17.8459 30.1543V29.3359C17.8459 28.8526 17.6804 28.6713 17.3053 28.6713H17.0184V30.797H16.1963V25.5845H17.4377C18.2928 25.5845 18.657 25.9799 18.657 26.7819V27.1938C18.657 27.7321 18.4859 28.0781 18.1163 28.2539C18.5301 28.4242 18.6625 28.8196 18.6625 29.3634V30.1653C18.6625 30.418 18.668 30.6047 18.7508 30.797H17.9122H17.9232ZM17.0294 26.326V27.9298H17.3494C17.6584 27.9298 17.8459 27.798 17.8459 27.3806V26.8643C17.8459 26.4908 17.719 26.326 17.4266 26.326H17.0294Z" fill="#969FB2"/>
<path d="M19.7217 25.5791H22.2651V26.3261H21.4044V30.7971H20.5824V26.3261H19.7217V25.5791Z" fill="#969FB2"/>
<path d="M25.7522 30.797H24.9191L24.7757 29.8522H23.766L23.6226 30.797H22.8667L23.7053 25.5845H24.9081L25.7467 30.797H25.7522ZM23.8764 29.1437H24.6708L24.2736 26.5072L23.8764 29.1437Z" fill="#969FB2"/>
<path d="M26.8833 25.5791H27.7054V30.7916H26.8833V25.5791Z" fill="#969FB2"/>
<path d="M29.7852 27.018V30.797H29.0459V25.5845H30.0776L30.9218 28.7043V25.5845H31.6556V30.797H30.8114L29.7852 27.018Z" fill="#969FB2"/>
<path d="M34.7395 29.2811L35.3023 25.5791H36.4499V30.7916H35.672V27.0511L35.1037 30.7916H34.3257L33.7133 27.106V30.7916H32.9961V25.5791H34.1437L34.7506 29.2811H34.7395Z" fill="#969FB2"/>
<path d="M38.6185 27.776H39.7495V28.523H38.6185V30.05H40.0419V30.797H37.7964V25.5845H40.0419V26.3315H38.6185V27.7815V27.776Z" fill="#969FB2"/>
<path d="M42.0333 27.018V30.797H41.2939V25.5845H42.3257L43.1698 28.7043V25.5845H43.9036V30.797H43.0595L42.0333 27.018Z" fill="#969FB2"/>
<path d="M45.002 25.5791H47.5454V26.3261H46.6847V30.7971H45.8626V26.3261H45.002V25.5791Z" fill="#969FB2"/>
<path d="M25.2939 23.1788V21.3003H23.8539V23.1788H25.2939Z" fill="#969FB2"/>
<path d="M22.9326 23.739C22.9326 23.4314 23.1864 23.1787 23.4954 23.1787H25.6581C25.9671 23.1787 26.2209 23.4314 26.2209 23.739C26.2209 24.0465 25.9671 24.2992 25.6581 24.2992H23.4954C23.1864 24.2992 22.9326 24.0465 22.9326 23.739Z" fill="#969FB2"/>
<path d="M26.458 11.6553H28.72V11.2873C28.72 10.1393 28.2511 9.09575 27.4952 8.34876C26.7394 7.59627 25.6966 7.12939 24.5435 7.12939C22.2373 7.12939 20.3614 8.99139 20.3614 11.2873V11.6553H22.6235C22.7504 11.6553 22.8663 11.7047 22.949 11.7871C23.0318 11.8695 23.0814 11.9849 23.0814 12.1112C23.0814 12.3639 22.8718 12.5726 22.618 12.5726H20.3559V13.4734H22.618C22.7449 13.4734 22.8607 13.5228 22.9435 13.6052C23.0263 13.6876 23.0759 13.8029 23.0759 13.9293C23.0759 14.1819 22.8663 14.3906 22.6125 14.3906H20.3504V15.2859H22.6125C22.7394 15.2859 22.8552 15.3354 22.938 15.4232C23.0207 15.5056 23.0704 15.621 23.0704 15.7473C23.0704 16 22.8607 16.2087 22.6069 16.2087H20.3449V17.1095H22.6069C22.7338 17.1095 22.8497 17.1589 22.9325 17.2413C23.0152 17.3237 23.0649 17.439 23.0649 17.5654C23.0649 17.818 22.8552 18.0268 22.6014 18.0268H20.3394V18.0377C20.3394 20.3337 22.2097 22.1956 24.5214 22.1956C26.8331 22.1956 28.698 20.3337 28.698 18.0377V18.0268H26.4359C26.309 18.0268 26.1931 17.9773 26.1104 17.8949C26.0276 17.8125 25.978 17.6972 25.978 17.5709C25.978 17.3182 26.1876 17.1095 26.4414 17.1095H28.7035V16.2087H26.4414C26.3145 16.2087 26.1987 16.1593 26.1159 16.0769C26.0331 15.9945 25.9835 15.8791 25.9835 15.7528C25.9835 15.5001 26.1931 15.2914 26.4469 15.2914H28.709V14.3961H26.4469C26.32 14.3961 26.2042 14.3467 26.1214 14.2643C26.0387 14.1819 25.989 14.0666 25.989 13.9348C25.989 13.6821 26.1987 13.4734 26.4525 13.4734H28.7145V12.5726H26.4525C26.3256 12.5726 26.2097 12.5231 26.1269 12.4408C26.0442 12.3584 25.9945 12.243 25.9945 12.1167C25.9945 11.864 26.2042 11.6553 26.458 11.6553ZM24.549 20.7676C24.1352 20.7676 23.7987 20.4325 23.7987 20.0206C23.7987 19.6086 24.1352 19.2736 24.549 19.2736C24.9628 19.2736 25.2994 19.6086 25.2994 20.0206C25.2994 20.4325 24.9628 20.7676 24.549 20.7676Z" fill="#969FB2"/>
<path d="M17.7907 18.1476C17.5038 18.1476 17.2666 17.9169 17.2666 17.6258V11.7103C17.2666 11.4247 17.4983 11.1885 17.7907 11.1885C18.0776 11.1885 18.3149 11.4192 18.3149 11.7103V17.6258C18.3149 17.9114 18.0832 18.1476 17.7907 18.1476Z" fill="#969FB2"/>
<path d="M15.6994 17.1151C15.4125 17.1151 15.1753 16.8844 15.1753 16.5933V12.743C15.1753 12.4574 15.407 12.2212 15.6994 12.2212C15.9863 12.2212 16.2236 12.4519 16.2236 12.743V16.5933C16.2236 16.8789 15.9918 17.1151 15.6994 17.1151Z" fill="#969FB2"/>
<path d="M13.6028 16.3077C13.3159 16.3077 13.0786 16.077 13.0786 15.7859V13.5394C13.0786 13.2538 13.3103 13.0176 13.6028 13.0176C13.8896 13.0176 14.1269 13.2483 14.1269 13.5394V15.7859C14.1269 16.0715 13.8952 16.3077 13.6028 16.3077Z" fill="#969FB2"/>
<path d="M15.1752 14.4731V15.9067C15.1752 15.7639 15.1145 15.6321 15.0207 15.5387C14.927 15.4453 14.7945 15.3849 14.6511 15.3849C14.3642 15.3849 14.127 15.6211 14.127 15.9067V14.4731C14.127 14.7588 14.3587 14.9949 14.6511 14.9949C14.9435 14.9949 15.1752 14.7588 15.1752 14.4731Z" fill="#969FB2"/>
<path d="M17.2665 12.9844V14.4674C17.2665 14.3246 17.2058 14.1928 17.1121 14.0994C17.0183 14.006 16.8858 13.9456 16.7424 13.9456C16.4555 13.9456 16.2183 14.1818 16.2183 14.4674V12.9844C16.2183 13.27 16.4555 13.5062 16.7424 13.5062C17.0293 13.5062 17.2665 13.27 17.2665 12.9844Z" fill="#969FB2"/>
<path d="M17.2665 15.165V16.648C17.2665 16.5052 17.2058 16.3734 17.1121 16.28C17.0183 16.1867 16.8858 16.1262 16.7424 16.1262C16.4555 16.1262 16.2183 16.3624 16.2183 16.648V15.165C16.2183 15.4507 16.4555 15.6868 16.7424 15.6868C17.0293 15.6868 17.2665 15.4507 17.2665 15.165Z" fill="#969FB2"/>
<path d="M11.5119 15.4671C11.225 15.4671 10.9878 15.2364 10.9878 14.9453V14.3851C10.9878 14.0995 11.2195 13.8633 11.5119 13.8633C11.7988 13.8633 12.0361 14.094 12.0361 14.3851V14.9453C12.0361 15.2309 11.8043 15.4671 11.5119 15.4671Z" fill="#969FB2"/>
<path d="M31.3576 18.1476C31.6445 18.1476 31.8818 17.9169 31.8818 17.6258V11.7103C31.8818 11.4247 31.65 11.1885 31.3576 11.1885C31.0707 11.1885 30.8335 11.4192 30.8335 11.7103V17.6258C30.8335 17.9114 31.0652 18.1476 31.3576 18.1476Z" fill="#969FB2"/>
<path d="M33.4543 17.1151C33.7412 17.1151 33.9785 16.8844 33.9785 16.5933V12.743C33.9785 12.4574 33.7467 12.2212 33.4543 12.2212C33.1674 12.2212 32.9302 12.4519 32.9302 12.743V16.5933C32.9302 16.8789 33.1619 17.1151 33.4543 17.1151Z" fill="#969FB2"/>
<path d="M35.5451 16.3077C35.832 16.3077 36.0693 16.077 36.0693 15.7859V13.5394C36.0693 13.2538 35.8375 13.0176 35.5451 13.0176C35.2582 13.0176 35.021 13.2483 35.021 13.5394V15.7859C35.021 16.0715 35.2527 16.3077 35.5451 16.3077Z" fill="#969FB2"/>
<path d="M33.9785 14.4731V15.9067C33.9785 15.7639 34.0392 15.6321 34.133 15.5387C34.2268 15.4453 34.3592 15.3849 34.5027 15.3849C34.7895 15.3849 35.0268 15.6211 35.0268 15.9067V14.4731C35.0268 14.7588 34.7951 14.9949 34.5027 14.9949C34.2102 14.9949 33.9785 14.7588 33.9785 14.4731Z" fill="#969FB2"/>
<path d="M31.8818 12.9844V14.4674C31.8818 14.3246 31.9425 14.1928 32.0363 14.0994C32.1301 14.006 32.2625 13.9456 32.406 13.9456C32.6929 13.9456 32.9301 14.1818 32.9301 14.4674V12.9844C32.9301 13.27 32.6929 13.5062 32.406 13.5062C32.1191 13.5062 31.8818 13.27 31.8818 12.9844Z" fill="#969FB2"/>
<path d="M31.8818 15.165V16.648C31.8818 16.5052 31.9425 16.3734 32.0363 16.28C32.1301 16.1867 32.2625 16.1262 32.406 16.1262C32.6929 16.1262 32.9301 16.3624 32.9301 16.648V15.165C32.9301 15.4507 32.6929 15.6868 32.406 15.6868C32.1191 15.6868 31.8818 15.4507 31.8818 15.165Z" fill="#969FB2"/>
<path d="M37.6418 15.4671C37.9287 15.4671 38.1659 15.2364 38.1659 14.9453V14.3851C38.1659 14.0995 37.9342 13.8633 37.6418 13.8633C37.3549 13.8633 37.1177 14.094 37.1177 14.3851V14.9453C37.1177 15.2309 37.3494 15.4671 37.6418 15.4671Z" fill="#969FB2"/>
<path d="M33.9782 12.5396C33.9782 12.7868 33.9672 13.0284 33.9507 13.2701H32.8969C32.9189 13.0284 32.93 12.7868 32.93 12.5396C32.93 9.1891 30.9438 6.30548 28.0803 4.98725L28.0638 5.03668C27.9589 5.32779 27.6334 5.47609 27.341 5.36624C26.4858 5.03668 25.5534 4.86092 24.5824 4.86092C23.6114 4.86092 22.6789 5.04217 21.8238 5.36624C21.5314 5.47609 21.2058 5.32779 21.101 5.03668L21.0845 4.98725C18.221 6.30548 16.2348 9.1891 16.2348 12.5396C16.2348 12.7868 16.2458 13.0284 16.2679 13.2701H15.2141C15.1976 13.0284 15.1865 12.7868 15.1865 12.5396C15.1865 7.37104 19.3962 3.18018 24.5879 3.18018C29.7796 3.18018 33.9893 7.37104 33.9893 12.5396H33.9782Z" fill="#969FB2"/>
</svg>
