<svg width="72" height="27" viewBox="0 0 72 27" fill="none" xmlns="http://www.w3.org/2000/svg">
<g clip-path="url(#clip0_9478_5532)">
<path fill-rule="evenodd" clip-rule="evenodd" d="M11.7519 1.59229C16.5933 1.59229 20.5161 2.98979 20.5161 4.71229C20.5161 5.16729 20.243 5.59791 19.763 5.97978C19.3243 5.02916 18.1492 4.43604 17.2554 4.10291C15.5588 3.47729 13.5395 3.25791 11.7519 3.25791C9.96434 3.25791 7.94503 3.47729 6.24848 4.10291C5.36297 4.42791 4.18779 5.02103 3.7409 5.97978C3.25262 5.58978 2.98779 5.15916 2.98779 4.71229C2.98779 2.98979 6.91055 1.59229 11.7519 1.59229Z" fill="#969FB2"/>
<path fill-rule="evenodd" clip-rule="evenodd" d="M11.934 0.129883C16.8747 0.129883 20.8885 1.38926 20.8885 2.93301C20.8885 3.10363 20.8388 3.26613 20.7561 3.42051C20.0195 2.10426 16.3533 1.10488 11.9423 1.10488C7.53124 1.10488 3.85676 2.11238 3.12021 3.42863C3.02917 3.27426 2.98779 3.10363 2.98779 2.94113C2.98779 1.38926 6.99331 0.138008 11.9423 0.138008L11.934 0.129883Z" fill="#969FB2"/>
<path d="M5.39565 16.9567C5.9253 17.5742 6.53772 18.2079 7.20806 18.7279V26.1298H5.39565V16.9567ZM9.02875 19.7192C9.34323 19.8167 9.66599 19.8817 9.99703 19.8979C10.2867 19.9142 10.5681 19.8979 10.8412 19.8411V23.1073H9.02875V19.7192ZM14.4743 20.5398H12.6619V18.9636C13.2743 18.4923 13.8867 17.9479 14.4743 17.3629V20.5398ZM18.0991 17.6636H16.2784V15.4373C16.3363 15.3804 16.386 15.3154 16.4439 15.2586C16.9736 14.6654 17.5281 14.0723 18.0991 13.4711V17.6636ZM11.7515 4.1598C15.2274 4.1598 18.1487 4.95605 19.026 6.0448V6.51605C18.0908 7.10105 17.1722 7.72668 16.2867 8.37668V7.97043C16.2867 7.49105 15.8812 7.09293 15.3763 7.09293C14.8798 7.09293 14.466 7.48293 14.466 7.97043V9.7823C13.8453 10.2861 13.2412 10.8061 12.6536 11.3261V7.9623C12.6536 7.48293 12.2481 7.08481 11.7432 7.08481C11.2467 7.08481 10.8329 7.4748 10.8329 7.9623V12.9836C10.7087 13.0973 10.5763 13.2111 10.4439 13.3329C9.94737 12.8129 9.4922 12.2604 9.02047 11.7161V7.9623C9.02047 7.48293 8.61496 7.08481 8.11013 7.08481C7.61358 7.08481 7.19978 7.4748 7.19978 7.9623V9.96918C6.6122 9.53043 6.00806 9.20543 5.38737 8.97793V7.4423C5.31289 7.15793 4.84944 6.97105 4.46875 7.09293V6.02855C5.34599 4.9398 8.26737 4.14355 11.7432 4.14355L11.7515 4.1598Z" fill="#969FB2"/>
<path fill-rule="evenodd" clip-rule="evenodd" d="M5.59473 15.8438C6.91059 17.5257 9.32714 20.3207 11.6361 18.6713C12.6127 17.9726 13.9285 16.6969 15.5837 14.8282C20.2678 9.51443 24.7699 5.83381 29.0982 3.79443C23.7189 4.57443 17.992 7.88131 11.9092 13.6988C10.3865 15.1613 7.7299 17.3794 5.59473 15.8438Z" fill="#969FB2"/>
<path fill-rule="evenodd" clip-rule="evenodd" d="M10.0717 14.5273C9.21103 13.7229 8.41655 12.7479 7.68828 12.0167C5.17241 9.4898 2.44966 9.44105 0 11.4235C3.79862 11.7242 5.20552 17.8585 10.0717 14.5354V14.5273Z" fill="#969FB2"/>
<path d="M22.0965 11.0743C21.9889 10.8549 21.873 10.7086 21.7406 10.6274C21.6082 10.5461 21.542 10.5218 21.542 10.5461H24.1654C24.1654 10.5461 24.0992 10.5461 23.9668 10.6274C23.8344 10.7005 23.7103 10.8549 23.6027 11.0743C23.4951 11.2936 23.4372 11.6186 23.4372 12.0574V21.0355H26.1434C26.6399 21.0355 27.062 20.938 27.4179 20.7349C27.7737 20.5318 28.0303 20.2799 28.1875 19.963L27.8896 21.6774H21.542C21.542 21.6774 21.6082 21.6774 21.7406 21.6043C21.873 21.5311 21.9889 21.3605 22.0965 21.1168C22.2041 20.873 22.2537 20.5236 22.2537 20.0605V12.0493C22.2537 11.6186 22.2041 11.2936 22.0965 11.0661V11.0743Z" fill="#969FB2" stroke="#969FB2" stroke-width="0.5" stroke-miterlimit="10"/>
<path d="M29.8843 21.6775C29.8843 21.6775 29.9505 21.6775 30.0829 21.6044C30.2153 21.5313 30.3312 21.3607 30.4388 21.1169C30.5463 20.8732 30.596 20.5238 30.596 20.0607V12.1144C30.596 11.6757 30.5463 11.3344 30.4388 11.0988C30.3312 10.8632 30.2153 10.7088 30.0829 10.6194C29.9505 10.53 29.8843 10.5057 29.8843 10.5382H35.8512V12.155C35.6526 11.505 35.0567 11.18 34.0719 11.18H31.7795V15.7788H34.6181C34.8415 15.7788 35.0236 15.7463 35.1808 15.6732C35.3381 15.6 35.4539 15.5269 35.5284 15.4538C35.6029 15.3807 35.6526 15.3319 35.6608 15.3075V16.8757C35.6608 16.8757 35.6029 16.8025 35.5284 16.7294C35.4539 16.6563 35.3381 16.5832 35.1891 16.5182C35.0401 16.4532 34.8581 16.4207 34.6346 16.4207H31.7795V21.0194H34.3532C34.8498 21.0194 35.2719 20.9219 35.6277 20.7188C35.9836 20.5157 36.2401 20.2638 36.3974 19.9469L36.0994 21.6613H29.8843V21.6775Z" fill="#969FB2" stroke="#969FB2" stroke-width="0.5" stroke-miterlimit="10"/>
<path d="M41.1972 21.2142C40.3034 20.7836 39.5916 20.1336 39.0537 19.2723C38.5158 18.4111 38.2427 17.3548 38.2427 16.1198C38.2427 15.0229 38.4992 14.0317 39.0123 13.1542C39.5254 12.2767 40.2454 11.5942 41.1723 11.0986C42.0992 10.6029 43.1668 10.3511 44.3751 10.3511C45.1447 10.3511 45.8399 10.4404 46.4606 10.6111C47.0813 10.7817 47.5696 10.9686 47.9337 11.1798V12.9754C47.5944 12.3904 47.0813 11.9273 46.411 11.5698C45.7323 11.2123 45.0454 11.0336 44.342 11.0336C43.3654 11.0336 42.513 11.2367 41.793 11.6429C41.073 12.0492 40.5185 12.6261 40.1378 13.3654C39.7572 14.113 39.5585 14.9823 39.5585 15.9898C39.5585 17.0786 39.782 18.0129 40.2289 18.7929C40.6758 19.5729 41.2634 20.1498 41.9999 20.5398C42.7365 20.9298 43.5392 21.1248 44.4082 21.1248C44.8054 21.1248 45.211 21.0761 45.633 20.9867C46.0551 20.8973 46.4523 20.7592 46.8082 20.5886V17.9154C46.8082 17.5823 46.7503 17.3223 46.6427 17.1273C46.5351 16.9323 46.411 16.8023 46.2785 16.7211C46.1461 16.6398 46.0799 16.6073 46.0799 16.6317H48.7199C48.7199 16.6317 48.6537 16.6317 48.5213 16.6967C48.3889 16.7617 48.2647 16.8836 48.1572 17.0623C48.0496 17.2411 47.9916 17.4929 47.9916 17.8179V20.7592C47.4123 21.1167 46.7834 21.3848 46.1047 21.5798C45.4261 21.7667 44.7558 21.8642 44.0854 21.8642C43.0427 21.8642 42.0744 21.653 41.1806 21.2142H41.1972Z" fill="#969FB2" stroke="#969FB2" stroke-width="0.5" stroke-miterlimit="10"/>
<path d="M53.0647 17.3629L52.0054 19.9386C51.8398 20.3367 51.7571 20.6698 51.7571 20.9217C51.7571 21.2792 51.9226 21.5311 52.2536 21.6854H49.895C50.0026 21.6854 50.1681 21.5798 50.375 21.3604C50.5819 21.1411 50.8219 20.7186 51.1033 20.0848L55.4067 10.0342L59.6771 20.1336C59.9171 20.7186 60.1488 21.1167 60.3805 21.3279C60.604 21.5473 60.7861 21.6611 60.9185 21.6854H58.1792C58.4523 21.5554 58.593 21.3523 58.593 21.0842C58.593 20.8567 58.5019 20.5317 58.3281 20.1092L57.1778 17.3548H53.0729L53.0647 17.3629ZM56.9047 16.6967L55.1088 12.3742L53.3461 16.6967H56.9047Z" fill="#969FB2" stroke="#969FB2" stroke-width="0.5" stroke-miterlimit="10"/>
<path d="M62.8797 11.0742C62.7721 10.8548 62.6562 10.7086 62.5238 10.6273C62.3914 10.5542 62.3252 10.5217 62.3252 10.5461H64.9486C64.9486 10.5461 64.8824 10.5461 64.75 10.6273C64.6176 10.7086 64.4935 10.8548 64.3859 11.0742C64.2783 11.2936 64.2204 11.6186 64.2204 12.0573V21.0355H66.9266C67.4231 21.0355 67.8452 20.938 68.2011 20.7348C68.5569 20.5317 68.8135 20.2798 68.9707 19.963L68.6728 21.6773H62.3252C62.3252 21.6773 62.3914 21.6773 62.5238 21.6042C62.6562 21.523 62.7721 21.3605 62.8797 21.1167C62.9873 20.873 63.0369 20.5236 63.0369 20.0605V12.0492C63.0369 11.6186 62.9873 11.2936 62.8797 11.0661V11.0742Z" fill="#969FB2" stroke="#969FB2" stroke-width="0.5" stroke-miterlimit="10"/>
</g>
<defs>
<clipPath id="clip0_9478_5532">
<rect width="72" height="26" fill="white" transform="translate(0 0.129883)"/>
</clipPath>
</defs>
</svg>
