<svg width="65" height="31" viewBox="0 0 65 31" fill="none" xmlns="http://www.w3.org/2000/svg">
<path d="M40.5664 9.37787C40.599 13.5815 32.8677 21.4566 32.8677 21.4566C32.8677 21.4566 24.9845 13.7198 24.9519 9.50558C24.9193 5.30196 28.3832 1.86457 32.694 1.822C37.0048 1.79008 40.5338 5.16361 40.5664 9.36723V9.37787Z" fill="#969FB2"/>
<path d="M37.0701 8.7498C37.9171 8.7498 38.6012 8.07935 38.6012 7.25991C38.6012 6.44047 37.9171 5.77002 37.0701 5.77002C36.2231 5.77002 35.5391 6.44047 35.5391 7.25991C35.5391 8.07935 36.2231 8.7498 37.0701 8.7498Z" fill="white"/>
<path d="M28.4158 8.80302C29.2628 8.80302 29.9469 8.13257 29.9469 7.31313C29.9469 6.49369 29.2628 5.82324 28.4158 5.82324C27.5689 5.82324 26.8848 6.49369 26.8848 7.31313C26.8848 8.13257 27.5689 8.80302 28.4158 8.80302Z" fill="white"/>
<path d="M38.4167 13.56C34.4751 12.4852 32.1622 8.47314 33.2698 4.63135L35.2026 5.15281C34.3991 7.96232 36.0821 10.8889 38.9596 11.6764L38.4167 13.56Z" fill="white"/>
<path d="M27.178 13.6241L26.6025 11.7617C27.9924 11.3467 29.1326 10.4421 29.8167 9.19698C30.5007 7.95186 30.6419 6.51518 30.2293 5.16364L32.1404 4.59961C32.7159 6.45133 32.5204 8.40947 31.5757 10.1122C30.6419 11.8149 29.0783 13.0601 27.178 13.6241Z" fill="white"/>
<path d="M2.04053 28.2462V22.3931H3.18067L6.70968 26.6073H6.1559V22.3931H7.52407V28.2462H6.39479L2.86577 24.0319H3.41956V28.2462H2.05139H2.04053Z" fill="#969FB2"/>
<path d="M11.8349 28.3421C11.368 28.3421 10.9228 28.2676 10.5211 28.1186C10.1193 27.9696 9.77182 27.7567 9.47864 27.4801C9.18546 27.2034 8.95743 26.8841 8.79455 26.5223C8.63167 26.1498 8.55566 25.756 8.55566 25.3197C8.55566 24.8834 8.63167 24.479 8.79455 24.1172C8.95743 23.7447 9.18546 23.4254 9.47864 23.1594C9.77182 22.8933 10.1193 22.6698 10.5211 22.5208C10.9228 22.3719 11.3463 22.2974 11.8132 22.2974C12.2801 22.2974 12.7145 22.3719 13.1162 22.5208C13.518 22.6698 13.8546 22.8827 14.1478 23.1594C14.441 23.4361 14.669 23.7553 14.8319 24.1172C14.9948 24.479 15.0816 24.8834 15.0816 25.3304C15.0816 25.7773 14.9948 26.1711 14.8319 26.5435C14.669 26.916 14.441 27.2353 14.1478 27.5013C13.8546 27.7674 13.5071 27.9802 13.1162 28.1292C12.7253 28.2782 12.291 28.3527 11.8241 28.3527L11.8349 28.3421ZM11.8241 27.1927C12.0955 27.1927 12.3344 27.1501 12.5624 27.0544C12.7905 26.9692 12.9859 26.8415 13.1597 26.6713C13.3334 26.501 13.4637 26.3094 13.5614 26.0753C13.6592 25.8412 13.7026 25.5964 13.7026 25.3091C13.7026 25.0217 13.6592 24.777 13.5614 24.5535C13.4637 24.33 13.3334 24.1278 13.1705 23.9575C13.0076 23.7873 12.8013 23.6595 12.5733 23.5744C12.3453 23.4893 12.0955 23.4361 11.8349 23.4361C11.5743 23.4361 11.3246 23.4786 11.0966 23.5744C10.8685 23.6702 10.6731 23.7873 10.4993 23.9575C10.3256 24.1278 10.1953 24.3194 10.0976 24.5535C9.99984 24.7876 9.95641 25.0324 9.95641 25.3091C9.95641 25.5858 9.99984 25.8305 10.0976 26.0647C10.1953 26.2988 10.3256 26.4903 10.4885 26.6606C10.6514 26.8309 10.8577 26.9586 11.0857 27.0437C11.3137 27.1289 11.5635 27.1821 11.8241 27.1821V27.1927Z" fill="#969FB2"/>
<path d="M16.1348 28.2462V22.3931H17.2749L20.8039 26.6073H20.2501V22.3931H21.6183V28.2462H20.489L16.96 24.0319H17.5138V28.2462H16.1456H16.1348Z" fill="#969FB2"/>
<path d="M22.7695 26.416V25.373H25.1801V26.416H22.7695Z" fill="#969FB2"/>
<path d="M26.3203 28.2462V22.3931H28.9046C29.4367 22.3931 29.9036 22.4782 30.2837 22.6485C30.6637 22.8187 30.9678 23.0635 31.1849 23.3828C31.3912 23.702 31.4998 24.0852 31.4998 24.5215C31.4998 24.9578 31.3912 25.3303 31.1849 25.6495C30.9786 25.9688 30.6746 26.2136 30.2837 26.3838C29.8928 26.5541 29.4367 26.6393 28.9046 26.6393H27.0913L27.7102 26.0327V28.2568H26.3312L26.3203 28.2462ZM27.7102 26.171L27.0913 25.5218H28.8286C29.2521 25.5218 29.5779 25.4367 29.7842 25.2558C29.9905 25.0749 30.0991 24.8301 30.0991 24.5108C30.0991 24.1916 29.9905 23.9362 29.7842 23.7553C29.5779 23.5743 29.2521 23.4892 28.8286 23.4892H27.0913L27.7102 22.84V26.1604V26.171Z" fill="#969FB2"/>
<path d="M32.4878 28.2462V22.3931H35.0721C35.6042 22.3931 36.0711 22.4782 36.4511 22.6485C36.8312 22.8187 37.1352 23.0635 37.3524 23.3828C37.5587 23.702 37.6673 24.0852 37.6673 24.5215C37.6673 24.9578 37.5587 25.3303 37.3524 25.6495C37.1461 25.9688 36.8421 26.2029 36.4511 26.3732C36.0602 26.5435 35.6042 26.6286 35.0721 26.6286H33.2587L33.8777 26.0327V28.2568H32.4987L32.4878 28.2462ZM33.8668 26.171L33.2479 25.5325H34.9852C35.4087 25.5325 35.7345 25.4367 35.9408 25.2558C36.1471 25.0749 36.2557 24.8195 36.2557 24.5108C36.2557 24.2022 36.1471 23.9362 35.9408 23.7553C35.7345 23.5743 35.4087 23.4892 34.9852 23.4892H33.2479L33.8668 22.84V26.1604V26.171ZM36.2883 28.2462L34.7898 26.1178H36.2666L37.7759 28.2462H36.2774H36.2883Z" fill="#969FB2"/>
<path d="M41.6631 28.3421C41.1961 28.3421 40.7509 28.2676 40.3492 28.1186C39.9474 27.9696 39.5999 27.7567 39.3068 27.4801C39.0136 27.2034 38.7856 26.8841 38.6227 26.5223C38.4598 26.1604 38.3838 25.756 38.3838 25.3197C38.3838 24.8834 38.4598 24.479 38.6227 24.1172C38.7856 23.7553 39.0136 23.4254 39.3068 23.1594C39.5999 22.8933 39.9474 22.6698 40.3492 22.5208C40.7509 22.3719 41.1744 22.2974 41.6413 22.2974C42.1083 22.2974 42.5426 22.3719 42.9444 22.5208C43.3461 22.6698 43.6827 22.8827 43.9759 23.1594C44.2691 23.4361 44.4971 23.7553 44.66 24.1172C44.8229 24.479 44.9097 24.8834 44.9097 25.3304C44.9097 25.7773 44.8229 26.1711 44.66 26.5435C44.4971 26.916 44.2691 27.2353 43.9759 27.5013C43.6827 27.7674 43.3353 27.9802 42.9444 28.1292C42.5535 28.2782 42.1191 28.3527 41.6522 28.3527L41.6631 28.3421ZM41.6522 27.1927C41.9237 27.1927 42.1625 27.1501 42.3906 27.0544C42.6186 26.9586 42.8141 26.8415 42.9878 26.6713C43.1615 26.501 43.2918 26.3094 43.3896 26.0753C43.4873 25.8518 43.5307 25.5964 43.5307 25.3091C43.5307 25.0217 43.4873 24.777 43.3896 24.5535C43.2918 24.33 43.1615 24.1278 42.9987 23.9575C42.8249 23.7873 42.6295 23.6595 42.4014 23.5744C42.1734 23.4893 41.9237 23.4361 41.6631 23.4361C41.4025 23.4361 41.1527 23.4786 40.9247 23.5744C40.6966 23.6702 40.5012 23.7873 40.3275 23.9575C40.1537 24.1278 40.0234 24.3194 39.9257 24.5535C39.828 24.777 39.7845 25.0324 39.7845 25.3091C39.7845 25.5858 39.828 25.8305 39.9257 26.0647C40.0234 26.2988 40.1537 26.4903 40.3166 26.6606C40.4795 26.8309 40.6858 26.9586 40.9138 27.0437C41.1418 27.1289 41.3916 27.1821 41.6522 27.1821V27.1927Z" fill="#969FB2"/>
<path d="M47.3424 28.2462H45.9634V22.3931H50.4805V23.4786H47.3533V28.2462H47.3424ZM47.2447 25.0217H50.1113V26.1071H47.2447V25.0217Z" fill="#969FB2"/>
<path d="M51.4141 28.2462V22.3931H52.7931V28.2462H51.4141Z" fill="#969FB2"/>
<path d="M55.4536 28.2462V23.4998H53.5425V22.3931H58.7437V23.4998H56.8326V28.2462H55.4536Z" fill="#969FB2"/>
<path d="M61.404 28.342C60.9262 28.342 60.4701 28.2781 60.025 28.1504C59.5906 28.0227 59.2323 27.8631 58.9717 27.6609L59.4386 26.6392C59.6992 26.8201 59.9924 26.9585 60.3507 27.0756C60.709 27.1926 61.0565 27.2458 61.4148 27.2458C61.6863 27.2458 61.9035 27.2245 62.0772 27.1713C62.2401 27.1181 62.3704 27.0436 62.4464 26.9478C62.5224 26.8521 62.5658 26.7456 62.5658 26.6179C62.5658 26.4583 62.5007 26.3413 62.3812 26.2455C62.2509 26.1497 62.0881 26.0752 61.8818 26.022C61.6754 25.9688 61.4474 25.9049 61.2085 25.8517C60.9588 25.7985 60.709 25.7347 60.4701 25.6602C60.2204 25.5857 59.9924 25.4792 59.7969 25.3622C59.6015 25.2451 59.4277 25.0748 59.2974 24.8726C59.1671 24.6704 59.102 24.415 59.102 24.1064C59.102 23.7765 59.1888 23.4679 59.3843 23.1912C59.5689 22.9145 59.8512 22.691 60.2204 22.5314C60.5896 22.3718 61.0565 22.2866 61.6212 22.2866C62.0012 22.2866 62.3704 22.3292 62.7287 22.4143C63.0979 22.4995 63.4128 22.6272 63.6951 22.8081L63.2716 23.8404C62.9893 23.6807 62.7179 23.5637 62.4355 23.4892C62.1532 23.4147 61.8818 23.3721 61.6212 23.3721C61.3605 23.3721 61.1325 23.404 60.9588 23.4679C60.785 23.5317 60.6656 23.6062 60.5896 23.702C60.5136 23.7978 60.481 23.9149 60.481 24.0426C60.481 24.1916 60.5462 24.3193 60.6656 24.4044C60.785 24.4895 60.9588 24.5747 61.1651 24.6279C61.3714 24.6811 61.5994 24.7343 61.8383 24.7982C62.0881 24.8514 62.3378 24.9152 62.5767 24.9897C62.8264 25.0642 63.0545 25.16 63.2499 25.277C63.4454 25.3941 63.6191 25.5644 63.7494 25.7666C63.8797 25.9688 63.9449 26.2242 63.9449 26.5222C63.9449 26.8521 63.8471 27.15 63.6626 27.4267C63.478 27.7034 63.1956 27.9163 62.8264 28.0866C62.4573 28.2568 61.9795 28.342 61.4148 28.342H61.404Z" fill="#969FB2"/>
</svg>
