<svg width="73" height="33" viewBox="0 0 73 33" fill="none" xmlns="http://www.w3.org/2000/svg">
<path d="M63.8233 21.2798V27.4698C63.8233 28.4898 62.9933 29.3198 61.9733 29.3198H50.0533C49.9733 29.3198 49.9033 29.3898 49.9033 29.4698V30.7198C49.9033 30.7998 49.9733 30.8698 50.0533 30.8698H61.9733C63.8433 30.8698 65.3633 29.3498 65.3633 27.4798V21.0998M63.6633 19.5698L62.5233 22.6698C62.9333 22.5398 63.3233 22.4198 63.7133 22.3098C65.0733 21.9098 66.3833 21.6498 67.6133 21.5298C68.8233 21.4198 69.8433 21.4998 70.6533 21.7798H70.6833C71.0433 21.8798 71.3133 21.8498 71.5033 21.6898C71.6033 21.6098 71.8233 21.3698 71.6833 20.9398C71.6133 20.7498 71.4633 20.4898 71.0833 20.3798C70.2133 20.0698 69.1033 19.9898 67.8033 20.1398C66.5233 20.2898 65.1533 20.5898 63.7333 21.0398C63.2633 21.1898 62.7933 21.3398 62.3033 21.5098C61.8233 21.6698 61.3333 21.8398 60.8333 22.0098C60.3133 22.1898 59.7933 22.3798 59.2533 22.5698" fill="#969FB2"/>
<path d="M63.8233 5.73975V20.0297C64.3433 19.9497 64.8633 19.8797 65.3633 19.8197V5.73975C65.3633 3.94975 63.9133 2.48975 62.1133 2.48975H11.4033C10.9833 2.48975 10.6333 2.82975 10.6333 3.25975C10.6333 3.67975 10.9733 4.02975 11.4033 4.02975H62.1133C63.0533 4.02975 63.8233 4.78975 63.8233 5.73975Z" fill="#969FB2"/>
<path d="M49.3833 11.3197C49.3833 14.3997 51.8833 16.8997 54.9633 16.8997C58.0433 16.8997 60.5433 14.3997 60.5433 11.3197C60.5433 8.23975 58.0433 5.73975 54.9633 5.73975C51.8833 5.73975 49.3833 8.23975 49.3833 11.3197ZM59.8633 11.3197C59.8633 14.0197 57.6633 16.2197 54.9633 16.2197C52.2633 16.2197 50.0633 14.0197 50.0633 11.3197C50.0633 8.61975 52.2633 6.41975 54.9633 6.41975C57.6633 6.41975 59.8633 8.61975 59.8633 11.3197Z" fill="#969FB2"/>
<path d="M56.7635 8.49969C57.0535 8.49969 57.3235 8.58969 57.5435 8.73969C56.8835 8.07969 55.9735 7.67969 54.9735 7.67969C52.9635 7.67969 51.3335 9.30969 51.3335 11.3197C51.3335 13.3297 52.9635 14.9597 54.9735 14.9597C56.9835 14.9597 58.6135 13.3297 58.6135 11.3197C58.6135 10.6297 58.4235 9.98969 58.0935 9.44969C58.1435 9.59969 58.1735 9.74969 58.1735 9.91969C58.1735 10.6997 57.5435 11.3297 56.7635 11.3297C55.9835 11.3297 55.3535 10.6997 55.3535 9.91969C55.3535 9.13969 55.9835 8.50969 56.7635 8.50969V8.49969Z" fill="#969FB2"/>
<path d="M14.8334 16.7403C15.0634 16.9203 15.1234 17.1903 15.0334 17.5303C15.0134 17.5703 14.9334 17.7503 14.8134 18.0503C14.2134 19.4503 13.7834 20.7503 13.5334 21.9603C13.2734 23.1703 13.2734 24.3303 13.5334 25.4403C13.5434 25.5103 13.5334 25.5703 13.4834 25.6303C13.2934 25.8403 13.0634 25.9303 12.8034 25.8803C12.5434 25.8303 12.3334 25.7003 12.1734 25.4703C11.9634 25.1403 11.8434 24.6503 11.8334 24.0003C11.8234 23.4703 11.8734 22.9503 11.9834 22.4303C11.9834 22.4203 12.0134 22.2603 12.0634 21.9603C11.9534 22.0903 11.8634 22.2003 11.8134 22.2803L10.5934 24.1603C10.3634 24.4903 10.1434 24.7403 9.91336 24.9203C9.49336 25.2703 9.09336 25.3803 8.70336 25.2403C8.31336 25.1003 8.05336 24.7703 7.93336 24.2403C7.83336 23.7703 7.85336 23.1703 7.98336 22.4503C8.09336 21.8103 8.35336 20.9403 8.74336 19.8503C8.84336 19.5703 9.04336 19.3903 9.34336 19.3003C9.64336 19.2203 9.91336 19.2503 10.1434 19.4103C10.2834 19.4903 10.3734 19.6003 10.4234 19.7503C10.4734 19.9003 10.4734 20.0403 10.4234 20.1903C9.98336 21.6003 9.75336 22.3303 9.74336 22.3703C9.68336 22.5603 9.64336 22.7203 9.62336 22.8403C9.62336 22.8603 9.62336 22.8803 9.65336 22.8903C9.67336 22.9003 9.68336 22.8903 9.69336 22.8703C9.73336 22.8403 9.85336 22.6803 10.0334 22.4103C12.1634 19.1603 13.2434 17.5203 13.2634 17.4703C13.8234 16.6103 14.3434 16.3703 14.8034 16.7303L14.8334 16.7403Z" fill="#969FB2"/>
<path d="M19.5133 21.12C19.5433 21.31 19.5133 21.48 19.3933 21.64C19.2833 21.79 19.1233 21.9 18.9333 21.95C18.4333 22.11 17.9233 22.35 17.3833 22.68C16.8433 23.01 16.4133 23.36 16.0933 23.74C16.6933 24.73 17.0633 25.9 17.2133 27.23C17.3633 28.56 17.2333 29.58 16.8133 30.26C16.4833 30.8 16.0333 31.07 15.4633 31.07C15.4033 31.07 15.3533 31.07 15.2933 31.05C14.8133 31.01 14.4233 30.76 14.1233 30.32C13.5633 29.49 13.4833 27.8 13.8833 25.27C14.2933 22.74 15.2233 19.09 16.6933 14.32C16.7533 14.13 16.8633 13.98 17.0433 13.89C17.2233 13.8 17.4033 13.77 17.5933 13.83C17.7833 13.89 17.9233 14 18.0133 14.18C18.1033 14.36 18.1233 14.55 18.0633 14.74C17.2033 17.55 16.5533 19.87 16.1033 21.72C16.9633 21.07 17.8133 20.66 18.6733 20.5C18.8633 20.47 19.0433 20.5 19.2033 20.62C19.3633 20.73 19.4633 20.89 19.5033 21.09L19.5133 21.12ZM15.5933 29.52C15.7933 29.24 15.8733 28.68 15.8433 27.85C15.8033 27.02 15.6333 26.22 15.3433 25.46C14.9933 27.65 14.9933 29 15.3433 29.53C15.3733 29.59 15.4133 29.62 15.4633 29.62C15.5033 29.62 15.5533 29.59 15.6033 29.51L15.5933 29.52Z" fill="#969FB2"/>
<path d="M22.7632 21.3701C23.2132 21.6401 23.3032 22.0101 23.0332 22.4701C22.6632 23.1001 22.1932 23.7301 21.6132 24.3701C21.0432 25.0101 20.4832 25.4901 19.9432 25.8301C19.4832 26.1201 19.0032 26.1501 18.5132 25.9001C18.0232 25.6501 17.7732 25.2601 17.7632 24.7201C17.6932 21.3201 18.6832 17.8101 20.7432 14.1901C20.9532 13.8001 21.2332 13.4101 21.5632 13.0201C21.8932 12.6401 22.2232 12.3501 22.5332 12.1601C22.9032 11.9301 23.2632 11.8801 23.6032 12.0001C23.9432 12.1201 24.1832 12.3801 24.3232 12.7901C24.4432 13.2401 24.4932 13.6801 24.4632 14.1101C24.4332 14.5401 24.3132 14.9701 24.1132 15.4101C23.9132 15.8501 23.6732 16.2601 23.4032 16.6401C23.1332 17.0201 22.8132 17.4001 22.4532 17.7601C22.0932 18.1301 21.7432 18.4501 21.4032 18.7301C21.0632 19.0101 20.7232 19.2701 20.3732 19.4901C20.2032 19.6001 20.0932 19.7701 20.0332 19.9801C19.6732 21.2401 19.4532 22.5401 19.3732 23.8901C19.3732 24.0401 19.4032 24.1301 19.4532 24.1801C19.5132 24.2201 19.5832 24.2101 19.6732 24.1301C20.2732 23.6301 20.9032 22.9101 21.5832 21.9501C21.5932 21.9301 21.6232 21.8801 21.6832 21.8001C21.7432 21.7201 21.7832 21.6701 21.8032 21.6401C21.8232 21.6101 21.8632 21.5601 21.9232 21.5001C21.9832 21.4301 22.0232 21.3901 22.0632 21.3701C22.0932 21.3501 22.1432 21.3301 22.2032 21.2901C22.2632 21.2601 22.3232 21.2401 22.3732 21.2501C22.4232 21.2601 22.4832 21.2701 22.5632 21.2801C22.6332 21.3001 22.7032 21.3301 22.7732 21.3701H22.7632ZM22.8232 13.8601C22.5432 14.1101 22.1932 14.6201 21.7632 15.3901C21.3432 16.1601 21.0532 16.7901 20.9132 17.2801C21.2132 17.1201 21.6132 16.6101 22.0932 15.7401C22.5732 14.8701 22.8232 14.2501 22.8232 13.8601Z" fill="#969FB2"/>
<path d="M29.1035 21.2704C29.3035 21.3304 29.4635 21.4404 29.5735 21.6204C29.6835 21.7904 29.6935 21.9704 29.5935 22.1504C28.4735 23.9304 27.4935 24.9704 26.6335 25.2804C26.1635 25.4504 25.7535 25.4204 25.4035 25.2004C25.0535 24.9804 24.8735 24.6404 24.8335 24.1804C24.8235 24.1004 24.8135 23.9504 24.8035 23.7204C24.8035 23.7104 24.8035 23.7004 24.7835 23.7004C24.6535 23.9704 24.5235 24.2104 24.3935 24.4104C24.2135 24.7104 23.9835 24.9404 23.7035 25.0904C23.4235 25.2404 23.1135 25.2904 22.7935 25.2304C22.2835 25.1504 21.9235 24.8904 21.6935 24.4504C21.4635 24.0104 21.3835 23.5204 21.4435 22.9804C21.5335 21.8504 21.8735 20.5504 22.4535 19.0804C22.6135 18.6604 22.8935 18.4804 23.3135 18.5204C23.5635 18.5504 23.7435 18.6604 23.8635 18.8404C23.9835 19.0204 24.0035 19.2204 23.9435 19.4504C23.5035 20.8404 23.2735 21.5404 23.2635 21.5604C22.9335 22.7404 22.8435 23.4704 22.9735 23.7204C23.0035 23.7804 23.0535 23.7904 23.1135 23.7504C23.1735 23.7304 23.2335 23.6604 23.3135 23.5504C23.3935 23.4404 23.4835 23.2904 23.5735 23.1104C23.6635 22.9304 23.7535 22.7604 23.8335 22.6104C23.9135 22.4604 24.0035 22.2704 24.1235 22.0404C24.2335 21.8204 24.3135 21.6504 24.3635 21.5504C24.8735 20.5704 25.3135 19.7404 25.6835 19.0504C25.8035 18.8204 25.9435 18.6604 26.0935 18.5604C26.2435 18.4604 26.4335 18.4604 26.6635 18.5604C26.8035 18.6204 26.9135 18.6804 26.9935 18.7604C27.0735 18.8404 27.1335 18.9104 27.1635 18.9804C27.1935 19.0504 27.1935 19.1504 27.1835 19.2804C27.1635 19.4104 27.1535 19.5004 27.1335 19.5504C27.1135 19.6004 27.0835 19.7004 27.0435 19.8504C26.5335 21.3304 26.2335 22.5704 26.1435 23.5704C26.1335 23.6704 26.1635 23.7504 26.2435 23.8104C26.3235 23.8704 26.4035 23.8504 26.4935 23.7804C27.0235 23.3204 27.6135 22.6104 28.2635 21.6504C28.3835 21.4704 28.5135 21.3504 28.6335 21.2904C28.7535 21.2304 28.9135 21.2204 29.0935 21.2604L29.1035 21.2704Z" fill="#969FB2"/>
<path d="M40.5134 16.7403C40.7534 16.9203 40.8134 17.1903 40.7134 17.5303C40.7034 17.5703 40.6334 17.7403 40.4934 18.0403C39.9034 19.4503 39.4834 20.7603 39.2134 21.9603C38.9434 23.1703 38.9434 24.3303 39.2134 25.4403C39.2334 25.5103 39.2234 25.5703 39.1834 25.6303C38.9834 25.8403 38.7534 25.9303 38.4934 25.8803C38.2334 25.8303 38.0334 25.7003 37.8834 25.4703C37.6534 25.1403 37.5434 24.6503 37.5334 24.0003C37.5234 23.4703 37.5734 22.9503 37.6834 22.4303C37.6834 22.4203 37.7134 22.2603 37.7634 21.9603C37.6534 22.0903 37.5734 22.2003 37.5234 22.2803C37.4334 22.4203 37.3034 22.6103 37.1334 22.8703C36.9634 23.1303 36.8134 23.3603 36.6734 23.5703C36.5334 23.7803 36.4034 23.9703 36.2834 24.1503C36.0534 24.4803 35.8334 24.7303 35.6034 24.9103C35.1834 25.2603 34.7834 25.3703 34.3934 25.2303C34.0034 25.0903 33.7534 24.7603 33.6434 24.2303C33.5834 24.0203 33.5634 23.7903 33.5634 23.5503C32.3734 25.0003 31.1634 25.6703 29.9634 25.5503C29.5734 25.5003 29.2334 25.3703 28.9534 25.1303C28.6734 24.9003 28.4834 24.6203 28.3834 24.3003C28.2834 23.9803 28.2034 23.6303 28.1634 23.2503C28.1234 22.8703 28.1534 22.5103 28.2434 22.1803C28.4234 21.2203 28.7934 20.3703 29.3434 19.6303C29.7534 19.1003 30.1834 18.7403 30.6434 18.5503C30.9734 18.4003 31.2834 18.3603 31.5934 18.4203C31.8934 18.4803 32.1634 18.6003 32.3934 18.7803C32.6234 18.9503 32.7934 19.1903 32.9034 19.4903C33.0134 19.7903 33.0234 20.1103 32.9434 20.4503C32.7834 21.0403 32.4334 21.5503 31.8834 22.0003C31.3334 22.4503 30.7334 22.7703 30.0834 22.9603C30.0534 22.9703 29.9934 22.9903 29.9234 23.0103C29.8534 23.0303 29.7934 23.0503 29.7634 23.0603L29.6934 23.1103C29.6734 23.9003 30.0234 24.1903 30.7534 23.9903C30.9934 23.9203 31.2434 23.7803 31.5034 23.5603C31.7634 23.3403 31.9634 23.1603 32.0834 23.0203C32.2034 22.8803 32.3934 22.6603 32.6434 22.3503C32.8434 22.1003 33.0434 21.8403 33.2434 21.5603C33.4434 21.2803 33.6734 20.9503 33.9334 20.5503C34.1934 20.1603 34.3834 19.8803 34.4834 19.7403C34.5934 19.4903 34.7934 19.3303 35.0734 19.2703C35.3534 19.2003 35.6134 19.2403 35.8334 19.3903C35.9734 19.4703 36.0634 19.5803 36.1134 19.7303C36.1634 19.8803 36.1634 20.0203 36.1134 20.1703C35.6734 21.5803 35.4434 22.3103 35.4334 22.3503C35.3734 22.5403 35.3334 22.7003 35.3134 22.8203C35.3134 22.8403 35.3134 22.8603 35.3434 22.8703C35.3634 22.8803 35.3834 22.8703 35.4034 22.8503C35.4334 22.8203 35.5434 22.6603 35.7234 22.3903C37.7534 19.3003 38.8334 17.6603 38.9734 17.4503C39.5334 16.5903 40.0434 16.3503 40.4934 16.7103L40.5134 16.7403ZM31.0434 20.0003C30.6634 20.2703 30.3634 20.6903 30.1634 21.2503C30.7034 21.0203 31.1034 20.6903 31.3434 20.2503C31.4234 20.1303 31.4334 20.0303 31.3734 19.9503C31.3034 19.8703 31.2134 19.8803 31.0834 19.9803C31.0634 19.9903 31.0434 20.0003 31.0334 20.0003H31.0434Z" fill="#969FB2"/>
<path d="M46.5233 21.2803C46.7233 21.4303 46.8333 21.6003 46.8433 21.7903C46.8533 21.9803 46.8133 22.1503 46.7333 22.2903C46.6533 22.4303 46.5233 22.6003 46.3733 22.8103C44.8533 24.6403 43.4833 25.5503 42.2833 25.5503C41.8333 25.5503 41.4433 25.4303 41.1133 25.2003C40.7833 24.9603 40.5533 24.6303 40.4233 24.2003C40.1833 23.4703 40.1933 22.6603 40.4533 21.7903C40.7033 20.9203 41.1133 20.1603 41.6633 19.5303C41.9433 19.2003 42.2733 18.9403 42.6533 18.7503C43.0333 18.5603 43.4233 18.4903 43.8433 18.5603C44.2633 18.6203 44.6033 18.8403 44.8733 19.2303C44.9933 19.4203 45.0633 19.6103 45.0633 19.8103C45.0633 20.0103 44.9833 20.1803 44.8033 20.3503C44.2833 20.7203 43.9233 20.6903 43.7033 20.2503C43.7033 20.2403 43.7033 20.2203 43.6833 20.2003C43.6733 20.1803 43.6633 20.1603 43.6533 20.1503C43.6533 20.1403 43.6333 20.1203 43.6233 20.1003C43.6033 20.0803 43.5933 20.0603 43.5833 20.0503C43.5733 20.0403 43.5533 20.0303 43.5333 20.0203C43.5133 20.0103 43.4833 20.0003 43.4533 20.0003C43.2933 19.9703 43.0833 20.1103 42.8133 20.4403C42.2733 21.1103 41.9533 21.8403 41.8533 22.6503C41.8033 23.0103 41.8533 23.3303 41.9833 23.6003C42.1233 23.8703 42.3633 23.9903 42.7233 23.9603C43.4333 23.9203 44.3433 23.1903 45.4633 21.7803C45.4933 21.7503 45.5433 21.6803 45.6133 21.5903C45.6833 21.5003 45.7233 21.4403 45.7433 21.4203C45.7633 21.4003 45.8033 21.3603 45.8633 21.2903C45.9233 21.2303 45.9633 21.2003 46.0033 21.1903C46.0433 21.1903 46.0933 21.1803 46.1433 21.1603C46.2033 21.1503 46.2633 21.1603 46.3233 21.1903C46.3833 21.2203 46.4533 21.2503 46.5133 21.3003L46.5233 21.2803Z" fill="#969FB2"/>
<path d="M57.2635 21.5902C57.5235 21.7502 57.5835 22.0102 57.4335 22.3802C57.3235 22.6602 57.1035 22.8102 56.7935 22.8302C56.4735 22.8502 56.2135 22.7702 56.0035 22.6002C55.5235 22.2602 55.1935 21.6502 55.0435 20.7702C55.0335 20.8002 55.0135 20.8502 54.9835 20.9002C54.9535 20.9602 54.9335 21.0102 54.9135 21.0502C54.8935 21.0902 54.8835 21.1302 54.8735 21.1502C54.8135 21.2802 54.6935 21.6002 54.5035 22.0802C54.3135 22.5602 54.1535 22.9602 54.0135 23.2802C53.8835 23.6002 53.7335 23.9002 53.5835 24.1902C53.4335 24.4802 53.1935 24.7302 52.8835 24.9302C52.5735 25.1302 52.2535 25.2002 51.9535 25.1402C51.3135 25.0202 51.0035 24.4302 51.0235 23.3802C49.7735 24.9502 48.5335 25.6702 47.3035 25.5402C46.9135 25.4902 46.5635 25.3602 46.2835 25.1202C45.9935 24.8902 45.7835 24.6102 45.6535 24.2902C45.5235 23.9702 45.4335 23.6202 45.3935 23.2402C45.3535 22.8602 45.3635 22.5002 45.4435 22.1702C45.5935 21.4202 45.8835 20.6902 46.3435 19.9802C46.7935 19.2802 47.3435 18.7902 47.9835 18.5302C48.3035 18.3802 48.6135 18.3402 48.9235 18.4002C49.2335 18.4602 49.5035 18.5802 49.7335 18.7602C49.9635 18.9302 50.1335 19.1702 50.2435 19.4702C50.3535 19.7702 50.3635 20.0902 50.2735 20.4302C50.1235 21.0202 49.7735 21.5302 49.2235 21.9802C48.6735 22.4302 48.0735 22.7502 47.4335 22.9402C47.4035 22.9502 47.3435 22.9702 47.2735 22.9902C47.2035 23.0102 47.1435 23.0302 47.0935 23.0402L47.0435 23.0902C47.0235 23.8802 47.3735 24.1702 48.1035 23.9702C48.3735 23.8902 48.7035 23.6702 49.0835 23.3102C49.7035 22.7202 50.4335 21.8102 51.2835 20.5502C51.3735 20.4302 51.5035 20.2302 51.6735 19.9502C51.8435 19.6702 51.9735 19.4702 52.0635 19.3302C52.3635 18.9002 52.7035 18.7702 53.0735 18.9402C53.2735 19.0402 53.4035 19.1902 53.4635 19.3902C53.5235 19.5902 53.4935 19.8102 53.3935 20.0602C53.3235 20.2402 53.1235 20.8502 52.7835 21.8902C52.7635 21.9602 52.7435 22.0102 52.7335 22.0602C52.7235 22.1002 52.7335 22.1302 52.7635 22.1402C52.7935 22.1502 52.8135 22.1402 52.8235 22.1002C53.0735 21.4002 53.5735 20.3402 54.3235 18.9202C54.5035 18.5902 54.7335 18.3202 55.0235 18.1002C55.3135 17.8802 55.6435 17.7802 56.0135 17.7902C56.2935 17.8102 56.5135 17.9302 56.6835 18.1402C56.8435 18.3502 56.9035 18.5902 56.8435 18.8802C56.8335 18.9002 56.8135 18.9802 56.7835 19.1102C56.7535 19.2402 56.7335 19.3202 56.7335 19.3602C56.7335 19.4002 56.7135 19.4802 56.6935 19.6002C56.6735 19.7202 56.6535 19.8002 56.6535 19.8502C56.6535 19.9002 56.6435 19.9802 56.6235 20.0802C56.6135 20.1802 56.6035 20.2702 56.6035 20.3302C56.6035 20.3902 56.6035 20.4802 56.6035 20.5702C56.6035 20.6602 56.6135 20.7402 56.6235 20.8202C56.6435 20.9402 56.6935 21.0602 56.7635 21.1602C56.8335 21.2602 56.9035 21.3302 56.9535 21.3702C57.0135 21.4102 57.1135 21.4702 57.2535 21.5602L57.2635 21.5902ZM48.3735 20.0002C47.9935 20.2702 47.6935 20.6902 47.4735 21.2502C48.0135 21.0202 48.4135 20.6902 48.6735 20.2502C48.7435 20.1302 48.7435 20.0302 48.6935 19.9502C48.6435 19.8702 48.5435 19.8802 48.4035 19.9802C48.3935 19.9902 48.3835 20.0002 48.3735 20.0002Z" fill="#969FB2"/>
<path d="M63.4633 21.6602C63.5633 21.9002 63.5533 22.1102 63.4233 22.3102C63.2933 22.5102 63.1133 22.6602 62.8733 22.7702C61.7733 23.3102 61.1233 23.6302 60.9333 23.7302V24.1202C60.9433 24.7202 60.7133 25.2202 60.2533 25.6402C59.7933 26.0602 59.2433 26.2502 58.6233 26.2302C58.2033 26.2202 57.9033 26.0602 57.7133 25.7702C57.5233 25.4702 57.5133 25.1402 57.6933 24.7602C57.7833 24.5802 57.9033 24.3902 58.0633 24.1802C58.2233 23.9802 58.3533 23.8202 58.4633 23.7202C58.5733 23.6102 58.7333 23.4502 58.9433 23.2402C58.4133 22.8202 58.1333 22.6002 58.1133 22.5802C57.7333 22.2502 57.5233 21.8702 57.5033 21.4402C57.4833 21.0102 57.5933 20.5902 57.8533 20.1802C58.1033 19.7702 58.3933 19.4102 58.7133 19.0702C59.0333 18.7402 59.3733 18.4602 59.7233 18.2302C59.8833 18.1102 60.0733 18.0502 60.2933 18.0602C60.5233 18.0702 60.6933 18.1702 60.8133 18.3502C60.9033 18.4702 60.9433 18.6202 60.9433 18.7802C60.9433 18.9402 60.9033 19.0902 60.8133 19.2102C60.6633 19.3902 60.4233 19.6402 60.0733 19.9502C59.7233 20.2602 59.4833 20.5102 59.3333 20.6902C59.0533 21.0402 59.1033 21.3802 59.4833 21.7002C59.5133 21.7302 59.7633 21.9402 60.2233 22.3102C60.3433 22.2402 60.6133 22.1102 61.0133 21.9102C61.4133 21.7102 61.7333 21.5602 61.9433 21.4602C62.7333 21.0902 63.2333 21.1402 63.4433 21.6302L63.4633 21.6602Z" fill="#969FB2"/>
<path d="M3.68364 28.1798C5.41364 20.8898 6.40364 16.7298 6.66364 15.6998C5.74364 14.9598 5.42364 13.8798 5.71364 12.4398C5.80364 12.0298 6.00364 11.4798 6.31364 10.7798C6.63364 10.0898 7.03364 9.36984 7.52364 8.63984C8.01364 7.89984 8.52364 7.36984 9.06364 7.02984C9.60364 6.68984 10.1436 6.69984 10.6936 7.03984C10.9836 7.24984 11.0736 7.61984 10.9536 8.16984C10.7636 9.00984 10.5336 9.96984 10.2636 11.0498C10.1636 11.4398 9.80364 12.8598 9.19364 15.3098C8.58364 17.7598 8.12364 19.6298 7.79364 20.9298C7.55364 21.9198 7.21364 23.3498 6.78364 25.2198C6.34364 27.0898 6.09364 28.1798 6.02364 28.5098C5.92364 28.8998 5.82364 29.2098 5.74364 29.4298C5.57364 29.8398 5.29364 30.0798 4.91364 30.1498C4.52364 30.2198 4.19364 30.1198 3.90364 29.8498C3.61364 29.5798 3.50364 29.2398 3.57364 28.8098C3.57364 28.7398 3.57364 28.6698 3.60364 28.5998C3.63364 28.5298 3.64364 28.4498 3.66364 28.3698C3.69364 28.2898 3.70364 28.2198 3.70364 28.1698L3.68364 28.1798Z" fill="#969FB2"/>
</svg>
