<svg width="60" height="24" viewBox="0 0 60 24" fill="none" xmlns="http://www.w3.org/2000/svg">
<g clip-path="url(#clip0_9478_5760)">
<path d="M8.53369 15.9849L4.53369 20.0249C7.80369 23.3349 12.6437 24.0749 16.6237 22.2549C18.4137 21.4349 18.8137 19.0549 17.4337 17.6549L17.3437 17.5649C16.5437 16.7549 15.3337 16.5649 14.2937 17.0449C12.4037 17.9149 10.0937 17.5649 8.53369 15.9949V15.9849Z" fill="#969FB2"/>
<path d="M8.53373 8.65502C10.5337 6.63502 13.7837 6.63502 15.7837 8.65502L19.6737 4.72502C19.7337 4.66502 19.7337 4.56502 19.6737 4.50502C15.4537 0.365025 8.71373 0.395024 4.54373 4.61502C0.33373 8.86502 0.33373 15.755 4.54373 20.015L8.54373 15.975C6.54373 13.955 6.54373 10.675 8.54373 8.65502H8.53373Z" fill="#969FB2"/>
<path d="M14.7738 7.85514L13.6438 9.19514L14.2538 9.80514L16.1238 8.06514L19.6838 4.51514C19.8038 4.62514 19.8038 4.80514 19.6938 4.92514L16.4538 8.40514L14.7338 10.2951L15.3438 10.9051L20.3138 5.56514C20.4038 5.47514 20.5538 5.48514 20.6338 5.57514C20.7138 5.66514 20.7138 5.80514 20.6338 5.88514L15.5838 11.6551L14.6338 12.6151C14.3338 12.9151 13.9638 13.1251 13.5438 13.1951C13.0738 13.2651 12.6138 13.1651 12.2338 12.9151L5.54381 20.0651C5.28381 20.3351 4.86381 20.3451 4.59381 20.0951L4.40381 19.8751L11.6438 12.3251C11.1738 11.5851 11.2638 10.5851 11.9038 9.93514L14.3838 7.63514C14.3838 7.63514 14.4638 7.66514 14.7738 7.84514V7.85514Z" fill="#969FB2"/>
<path d="M16.6436 5.89502C16.7836 5.89502 16.8936 5.78502 16.8936 5.64502C16.8936 5.50502 16.7836 5.39502 16.6436 5.39502C16.5036 5.39502 16.3936 5.50502 16.3936 5.64502C16.3936 5.78502 16.5036 5.89502 16.6436 5.89502Z" fill="#969FB2"/>
<path d="M16.0935 6.5252L15.8035 6.2252C15.8035 6.2252 15.7635 6.2052 15.7535 6.2252L14.7535 7.2352C14.7535 7.2352 14.7335 7.2752 14.7535 7.2952L15.0435 7.5952C15.0435 7.5952 15.0835 7.6152 15.0935 7.5952L16.0935 6.5852C16.0935 6.5852 16.1135 6.5452 16.0935 6.5252Z" fill="#969FB2"/>
<path d="M24.3337 10.4948H22.3837V13.5348H20.9937V7.39479C20.9937 7.00479 21.3037 6.65479 21.7037 6.65479H25.9737V7.84479H22.3837V9.32479H25.0737V9.78479C25.0737 10.1748 24.7337 10.4948 24.3337 10.4948Z" fill="#969FB2"/>
<path d="M26.5137 10.0949C26.5137 7.99492 27.7637 6.54492 29.8037 6.54492C31.8437 6.54492 33.1037 8.01492 33.1037 10.0949C33.1037 12.1749 31.9037 13.6349 29.8037 13.6349C27.7037 13.6349 26.5137 12.1949 26.5137 10.0949ZM27.9137 10.0949C27.9137 11.4449 28.5137 12.4549 29.7937 12.4549C31.0737 12.4549 31.6837 11.4849 31.6837 10.0949C31.6837 8.70492 31.0737 7.76492 29.7937 7.76492C28.5137 7.76492 27.9137 8.75492 27.9137 10.0949Z" fill="#969FB2"/>
<path d="M33.7139 10.0949C33.7139 7.99492 34.9639 6.54492 37.0039 6.54492C39.0439 6.54492 40.3039 8.01492 40.3039 10.0949C40.3039 12.1749 39.1039 13.6349 37.0039 13.6349C34.9039 13.6349 33.7139 12.1949 33.7139 10.0949ZM35.1139 10.0949C35.1139 11.4449 35.7139 12.4549 36.9939 12.4549C38.2739 12.4549 38.8839 11.4849 38.8839 10.0949C38.8839 8.70492 38.2739 7.76492 36.9939 7.76492C35.7139 7.76492 35.1139 8.75492 35.1139 10.0949Z" fill="#969FB2"/>
<path d="M46.7939 10.0948C46.7939 11.7848 46.0639 13.0348 44.7439 13.3948C44.4039 13.4848 43.9139 13.5348 43.2839 13.5348H40.9639V7.39479C40.9639 6.91479 41.1939 6.66479 41.6739 6.65479H43.6539C45.8439 6.65479 46.7939 7.89479 46.7939 10.0948ZM43.6639 7.86479H42.3639V12.2948H43.4839C44.8839 12.2948 45.3639 11.5448 45.3639 10.0948C45.3639 8.64479 44.9339 7.85479 43.6639 7.85479V7.86479Z" fill="#969FB2"/>
<path d="M56.4637 8.06469C56.4637 8.93469 55.9437 9.43469 55.3438 9.80469L56.3237 11.0447C56.4837 10.7547 56.5937 10.3647 56.6637 9.88469H57.3937C57.7037 9.88469 57.8637 10.0547 57.8237 10.4147C57.7937 10.9147 57.5537 11.4447 57.0737 11.9847L58.3438 13.5247H56.7238L56.2438 12.9447C55.9938 13.1747 55.6937 13.4347 55.3438 13.5247C54.3737 13.7547 53.3337 13.6447 52.7137 13.1547C52.3137 12.7947 52.0938 12.2947 52.0938 11.6847C52.0938 10.5547 52.7538 10.0747 53.5838 9.61469L53.3037 9.26469C52.8137 8.52469 52.7038 7.61469 53.3838 7.01469C53.7238 6.72469 54.1737 6.56469 54.7137 6.55469C55.7037 6.55469 56.4538 7.10469 56.4538 8.07469L56.4637 8.06469ZM53.9137 10.7347C53.6237 10.9447 53.4837 11.2347 53.4837 11.5847C53.4837 12.1847 53.8038 12.4847 54.4538 12.5247C54.9038 12.5247 55.2637 12.3747 55.5337 12.0347L54.2738 10.4647L53.9238 10.7247L53.9137 10.7347ZM54.1437 8.08469C54.1437 8.26469 54.2438 8.46469 54.4238 8.69469L54.6538 8.99469C55.0238 8.80469 55.2738 8.49469 55.2738 8.06469C55.2738 7.72469 55.0737 7.54469 54.7137 7.54469C54.3537 7.54469 54.1438 7.72469 54.1338 8.08469H54.1437Z" fill="#969FB2"/>
<path d="M22.8336 20.435H20.4336V15.715C20.4336 15.415 20.6736 15.145 20.9736 15.145H22.9236C23.9236 15.145 24.5836 15.545 24.5836 16.485C24.5836 17.045 24.3536 17.375 23.9436 17.585C24.4636 17.785 24.7636 18.125 24.7636 18.835C24.7636 19.935 23.9736 20.445 22.8336 20.445V20.435ZM22.6936 16.055H21.4936V17.195H22.7036C23.1336 17.195 23.4836 17.065 23.4836 16.615C23.4836 16.165 23.1836 16.055 22.6936 16.055ZM22.7336 18.085H21.4836V19.475H22.7436C23.2836 19.475 23.6036 19.315 23.6036 18.795C23.6036 18.275 23.2836 18.095 22.7236 18.095L22.7336 18.085Z" fill="#969FB2"/>
<path d="M25.2937 15.7053C25.2937 15.3353 25.4737 15.1453 25.8337 15.1353H29.1137V16.0553H26.3537V17.1953H28.4137V17.5453C28.4137 17.9153 28.2337 18.0853 27.8537 18.0853H26.3537V19.4553H29.1137V20.4253H25.2837V15.7053H25.2937Z" fill="#969FB2"/>
<path d="M34.3136 15.135L32.5036 20.425H31.4736L29.6436 15.135H30.8436L31.9736 19.085L33.0036 15.525C33.0636 15.265 33.2336 15.125 33.5336 15.125H34.3136V15.135Z" fill="#969FB2"/>
<path d="M34.8635 15.7053C34.8635 15.3353 35.0435 15.1453 35.4035 15.1353H38.6835V16.0553H35.9235V17.1953H37.9835V17.5453C37.9835 17.9153 37.8035 18.0853 37.4235 18.0853H35.9235V19.4553H38.6835V20.4253H34.8535V15.7053H34.8635Z" fill="#969FB2"/>
<path d="M42.6834 17.895C42.9134 17.975 43.0834 18.095 43.1934 18.265C43.2834 18.445 43.3334 18.705 43.3534 19.055L43.4034 20.085C43.4034 20.245 43.4734 20.365 43.5734 20.435H42.3834C42.3334 20.335 42.3034 20.225 42.3034 20.115C42.2834 20.035 42.2634 19.735 42.2534 19.225C42.2134 18.585 42.0934 18.385 41.4634 18.385H40.3134V20.435H39.2334V15.715C39.2334 15.415 39.4734 15.145 39.7734 15.145H41.7834C42.8834 15.145 43.4834 15.565 43.4834 16.655C43.4834 17.325 43.1934 17.765 42.6934 17.905L42.6834 17.895ZM41.6334 16.055H40.2934V17.445H41.5734C42.0834 17.445 42.3734 17.255 42.3734 16.745C42.3734 16.265 42.1134 16.055 41.6334 16.055Z" fill="#969FB2"/>
<path d="M47.2135 15.1353L49.1135 20.4253H47.9735L47.6235 19.3453H45.5735L45.2235 20.4253H44.0635L45.8335 15.4853C45.9135 15.2553 46.0835 15.1353 46.3435 15.1353H47.2135ZM45.8635 18.4553H47.3235L46.5935 16.2053L45.8735 18.4553H45.8635Z" fill="#969FB2"/>
<path d="M51.6036 15.0552C52.2236 15.0552 52.7536 15.2152 53.2036 15.5252C53.6036 15.8552 53.8336 16.3152 53.8736 16.9152H53.2036C53.0136 16.9152 52.8536 16.8252 52.7336 16.6452C52.5236 16.2152 52.1536 16.0052 51.6436 16.0052C50.7336 16.0052 50.2636 16.5852 50.2636 17.7452C50.2636 18.9052 50.7336 19.5252 51.7036 19.5952C52.4336 19.5952 52.8636 19.1052 52.9836 18.4652H52.3436C52.0436 18.4652 51.8036 18.2252 51.8036 17.9252V17.5952H53.9636V20.4552H53.6936C53.4336 20.4552 53.1836 20.2852 53.1636 20.0452L53.1136 19.7852C52.7436 20.2652 52.3636 20.5352 51.5936 20.5352C50.0736 20.5352 49.1536 19.3552 49.1536 17.8152C49.1336 16.2552 50.0536 15.0252 51.6236 15.0852L51.6036 15.0552Z" fill="#969FB2"/>
<path d="M54.4734 15.7053C54.4734 15.3353 54.6534 15.1453 55.0134 15.1353H58.2934V16.0553H55.5334V17.1953H57.5934V17.5453C57.5934 17.9153 57.4134 18.0853 57.0334 18.0853H55.5334V19.4553H58.2934V20.4253H54.4634V15.7053H54.4734Z" fill="#969FB2"/>
</g>
<defs>
<clipPath id="clip0_9478_5760">
<rect width="58.82" height="23.39" fill="white" transform="translate(0.933594 0.435059)"/>
</clipPath>
</defs>
</svg>
