<svg width="78" height="30" viewBox="0 0 78 30" fill="none" xmlns="http://www.w3.org/2000/svg">
<path d="M12.474 24.811L10.1045 23.4293L7.73194 22.0477L5.36246 20.6629L5.35938 17.3568L7.73194 15.9751V19.2843L14.9331 23.4824L17.216 22.1506L19.5855 20.7689V14.5498L21.955 15.9315V22.1506L19.5855 23.5323L18.6495 24.0781L17.3025 24.864L17.216 24.9139L16.5302 25.3163L14.9331 26.2457L14.8435 26.1927L12.5636 24.864L12.474 24.811Z" fill="#969FB2"/>
<path d="M3.21557 13.3306L5.58505 11.9489L7.95453 10.5672L10.3271 9.18555L13.1661 10.8386V13.6019L10.324 11.9489L3.12599 16.147L3.1229 18.8043L3.12599 21.5676L8.45808 24.6772L6.0886 26.0588L0.753418 22.9493V20.1859V19.0943V17.5255V17.4226V16.6241V14.7653L0.843007 14.7123L3.1229 13.3805L3.21557 13.3306Z" fill="#969FB2"/>
<path d="M17.6921 10.9756V13.7389V16.5023V19.2656L14.853 20.9218L12.4836 19.537L15.3226 17.8839V9.48784L13.0396 8.15919L10.6701 6.77751L5.33496 9.88706V7.12371L10.6701 4.01416L13.0396 5.39584L13.9757 5.94165L15.3226 6.72449L15.4122 6.77751L16.098 7.17673L17.6921 8.10617V8.20909V10.8695V10.9756Z" fill="#969FB2"/>
<path d="M35.0695 23.2959C33.9696 23.9016 32.7909 24.13 31.491 24.13C29.0124 24.13 26.9338 22.9931 26.9338 19.0722V14.9281H24.9551V11.3365H26.9338V8.32943L31.4647 7.82471V11.3365H34.2959V14.9281H31.4647V19.0722C31.4647 19.9594 32.0173 20.2835 32.7172 20.2835C33.1698 20.2835 33.696 20.1294 34.0433 19.9541L35.0695 23.2906V23.2959Z" fill="#969FB2"/>
<path d="M49.5677 18.8435H40.8794C41.132 19.8051 42.1319 20.5383 43.7106 20.5383C44.8368 20.5383 45.963 20.2355 46.9155 19.5767L49.1415 22.1056C47.6154 23.4179 45.663 24.1033 43.458 24.1033C39.0007 24.1033 36.2695 21.6487 36.2695 17.6321C36.2695 13.6156 39.0218 11.0601 43.0791 11.0601C47.8101 11.0601 50.4676 14.2956 49.5625 18.8435H49.5677ZM40.9057 16.543H45.4104C45.3841 15.3051 44.5842 14.5453 43.2317 14.5453C41.8793 14.5453 40.9531 15.3051 40.9057 16.543Z" fill="#969FB2"/>
<path d="M50.9432 17.6056C50.9432 13.6634 53.6955 11.0601 57.8265 11.0601C59.7052 11.0601 61.4576 11.7667 62.7364 13.0312L60.3051 15.7354C59.6789 15.1563 58.9264 14.8482 58.1002 14.8482C56.5214 14.8482 55.4479 15.9373 55.4479 17.579C55.4479 19.2207 56.5267 20.3098 58.1002 20.3098C58.979 20.3098 59.7789 19.9804 60.4525 19.3216L62.9574 21.9781C61.5313 23.3701 59.7999 24.1033 57.9002 24.1033C53.6166 24.1033 50.938 21.6274 50.938 17.6056H50.9432Z" fill="#969FB2"/>
<path d="M77.156 16.6707V23.8219H72.5987V16.9204C72.5987 15.6294 71.9251 14.8484 70.7937 14.8484C69.5412 14.8484 68.715 15.7835 68.715 17.2498V23.8219H64.1577V6.12988H68.715V12.6488C69.5675 11.6394 70.7937 11.055 72.3724 11.055C75.3509 11.055 77.156 13.1801 77.156 16.6654V16.6707Z" fill="#969FB2"/>
</svg>
