<svg width="150" height="41" viewBox="0 0 150 41" fill="none" xmlns="http://www.w3.org/2000/svg">
<path d="M41.867 1.46305L42.1287 2.28824L42.1746 2.4318L42.0311 2.47672C40.6672 2.90387 39.551 3.84026 38.8914 5.11441H38.8904C38.41 6.03487 38.2293 7.04157 38.3211 8.04703C40.4268 5.86314 43.8391 5.3698 46.4959 7.05973L46.6219 7.14078L46.5418 7.26676L46.0799 7.9982L45.9998 8.12613L45.8729 8.04508C43.7279 6.67488 40.9696 7.04944 39.2322 8.77652C40.492 8.86031 41.7022 9.29645 42.7322 10.0871C44.1119 11.1435 45.0026 12.6819 45.2313 14.4084L45.2508 14.5568L45.1024 14.5773L44.2401 14.6925L44.0906 14.7121L44.0711 14.5636C43.8837 13.1395 43.1572 11.8812 42.0184 11.0119C41.2337 10.4134 40.3186 10.0573 39.3572 9.95328C42.2381 13.2598 43.2036 18.1377 43.3875 22.5461C43.5699 26.9193 42.9845 30.8618 42.7098 32.4211H52.1893V33.591H0.843567V32.4211H5.56622V19.2463H3.98712V18.0763H10.5506V11.923L9.1297 12.3908L8.98712 12.4377L8.94025 12.2951L8.67072 11.4699L8.62384 11.3273L8.76642 11.2814L22.3602 6.84586V4.22477H23.5311V6.46207L24.952 5.99625L25.0945 5.94938L25.1414 6.09195L25.4109 6.91617L25.4578 7.05875L25.3152 7.10563L23.5311 7.68766V18.0763H35.7342V19.2463H34.1551V32.4211H41.5281C41.7587 31.1092 42.3652 27.1499 42.1971 22.7492C42.0256 18.2599 41.0487 13.3535 38.0916 10.3107C37.4868 11.3319 37.2253 12.5065 37.3817 13.7004L37.4217 13.964C37.6546 15.2729 38.3655 16.4369 39.4266 17.2521L39.5467 17.3439L39.4539 17.463L38.9227 18.1486L38.8309 18.2668L38.7127 18.175C37.4193 17.1771 36.5617 15.7635 36.2713 14.1681L36.2205 13.8468C36.0536 12.5626 36.2812 11.292 36.8397 10.1584C35.8628 10.4174 34.9821 10.9366 34.285 11.6945H34.284C33.3097 12.7512 32.8158 14.1151 32.8758 15.547L32.8817 15.6964L32.7322 15.7023L31.8699 15.7414L31.7195 15.7482L31.7127 15.5978C31.634 13.855 32.2496 12.1909 33.4236 10.9064H33.4246C34.3026 9.94869 35.4202 9.3125 36.6473 9.00797C34.6309 7.60988 31.8563 7.71657 29.9764 9.43863L29.866 9.5402L29.7645 9.42984L29.1795 8.7902L29.0779 8.67984L29.1883 8.57828C31.4184 6.53846 34.6981 6.34359 37.1287 7.91324C37.0687 6.76996 37.3126 5.62347 37.8543 4.58316L38.0115 4.29703C38.8293 2.8904 40.1193 1.86148 41.6785 1.36637L41.8211 1.32047L41.867 1.46305ZM23.5311 32.4132H32.9842V19.2394H23.5311V32.4132ZM6.74493 32.4132H10.9588V26.7931C10.9588 24.7152 12.6514 23.0219 14.7293 23.0216C16.8074 23.0216 18.5008 24.715 18.5008 26.7931V32.4132H22.368V19.2394H6.74493V32.4132ZM14.7293 24.1847C13.2873 24.185 12.1219 25.3582 12.1219 26.7931V32.4132H17.3377V26.7931C17.3377 25.3506 16.1718 24.1847 14.7293 24.1847ZM11.7215 11.5402V18.0685H22.3602V8.06363L11.7215 11.5402Z" fill="#969FB2" stroke="#969FB2" stroke-width="0.3"/>
<path d="M28.3727 21.28C29.8883 21.28 31.1195 22.5105 31.1198 24.0261C31.1198 25.5418 29.8884 26.7731 28.3727 26.7731C26.8572 26.7729 25.6266 25.5416 25.6266 24.0261C25.6268 22.5107 26.8573 21.2802 28.3727 21.28ZM28.3727 22.4509C27.5006 22.4511 26.7977 23.154 26.7975 24.0261C26.7975 24.8983 27.5005 25.602 28.3727 25.6022C29.2451 25.6022 29.9489 24.8985 29.9489 24.0261C29.9486 23.1538 29.2449 22.4509 28.3727 22.4509Z" fill="#969FB2" stroke="#969FB2" stroke-width="0.3"/>
<path d="M19.1254 11.9436V16.3811H14.6879V11.9436H19.1254ZM15.8588 15.2181H17.9623V13.1145H15.8588V15.2181Z" fill="#969FB2" stroke="#969FB2" stroke-width="0.3"/>
<path d="M52.1896 39.5002H52.0392C50.2778 39.5001 49.3849 38.9189 48.5383 38.3752C48.1512 38.1275 47.7911 37.8947 47.3478 37.7219C46.9072 37.5501 46.3786 37.4357 45.6603 37.4357C44.942 37.4358 44.4115 37.55 43.9699 37.7219C43.5262 37.8946 43.1668 38.127 42.7844 38.3742C41.9445 38.9185 41.0438 39.5001 39.2824 39.5002C37.7408 39.5002 36.8641 39.0549 36.1017 38.5793L35.7805 38.3752C35.3935 38.1275 35.0342 37.8947 34.591 37.7219C34.1504 37.55 33.6219 37.4358 32.9035 37.4357C32.1852 37.4357 31.6547 37.5501 31.2131 37.7219C30.7691 37.8946 30.4091 38.1269 30.0266 38.3742V38.3752C29.1795 38.9192 28.2784 39.5002 26.5168 39.5002C24.755 39.5002 23.8616 38.919 23.0148 38.3752V38.3742C22.632 38.1267 22.2742 37.8946 21.8322 37.7219C21.3926 37.5501 20.8642 37.4357 20.1457 37.4357C19.4272 37.4357 18.8969 37.55 18.4553 37.7219C18.0112 37.8946 17.6514 38.1268 17.2687 38.3742V38.3752C16.4218 38.9191 15.5284 39.5002 13.759 39.5002C11.9899 39.5001 11.097 38.919 10.2502 38.3752V38.3742C9.86755 38.1268 9.50766 37.8946 9.06366 37.7219C8.62205 37.55 8.09163 37.4358 7.37323 37.4357C6.65491 37.4357 6.12438 37.5501 5.6828 37.7219C5.23888 37.8946 4.87881 38.1269 4.49628 38.3742L4.4953 38.3752C3.64847 38.919 2.75565 39.5002 0.986511 39.5002H0.836121V38.3303H0.986511C1.70505 38.3303 2.23528 38.215 2.67694 38.0431C3.12097 37.8704 3.48082 37.6382 3.86346 37.3908L4.18475 37.1857C4.94725 36.71 5.82492 36.2648 7.37323 36.2648C9.14245 36.2649 10.0351 36.8469 10.882 37.3908H10.883C11.2654 37.638 11.6248 37.8704 12.0685 38.0431C12.5101 38.215 13.0406 38.3302 13.759 38.3303C14.4773 38.3303 15.0078 38.2149 15.4494 38.0431C15.8934 37.8704 16.2533 37.6381 16.6359 37.3908H16.6369C17.4839 36.8468 18.3842 36.2649 20.1457 36.2648C21.6873 36.2648 22.564 36.7101 23.3264 37.1857L23.6476 37.3908C24.0305 37.6383 24.3882 37.8704 24.8303 38.0431C25.2699 38.2149 25.7983 38.3303 26.5168 38.3303C27.2353 38.3303 27.7655 38.215 28.2072 38.0431C28.6513 37.8704 29.0111 37.6382 29.3937 37.3908L29.716 37.1857C30.4799 36.7101 31.3623 36.2648 32.9035 36.2648C34.665 36.2649 35.5656 36.8465 36.4055 37.3908H36.4045C36.7911 37.6383 37.1528 37.8703 37.5969 38.0431C38.0386 38.2151 38.5678 38.3303 39.2824 38.3303C39.9968 38.3302 40.5254 38.215 40.966 38.0431C41.4089 37.8704 41.769 37.6381 42.1516 37.3908L42.4728 37.1857C43.2352 36.7101 44.1124 36.2649 45.6603 36.2648C47.4222 36.2648 48.3155 36.847 49.1623 37.3908C49.5489 37.6383 49.9106 37.8703 50.3547 38.0431C50.7964 38.215 51.3248 38.3302 52.0392 38.3303H52.1896V39.5002Z" fill="#969FB2" stroke="#969FB2" stroke-width="0.3"/>
<path d="M68.2644 16.4297L63.4574 2.55969H65.3764L69.6894 15.2137L68.7774 14.7577H71.0574L70.0884 15.2137L74.0594 2.55969H75.9214L71.4564 16.4297H68.2644ZM83.9498 16.4297V13.3897H83.6458V9.87469C83.6458 9.17802 83.4621 8.65235 83.0948 8.29769C82.7401 7.94302 82.2144 7.76569 81.5178 7.76569C81.1251 7.76569 80.7198 7.77202 80.3018 7.78469C79.8838 7.79735 79.4848 7.81002 79.1048 7.82269C78.7248 7.83535 78.3954 7.85435 78.1168 7.87969V6.28369C78.3954 6.25835 78.6868 6.23935 78.9908 6.22669C79.3074 6.20135 79.6304 6.18869 79.9598 6.18869C80.2891 6.17602 80.6058 6.16969 80.9098 6.16969C81.9484 6.16969 82.7971 6.29635 83.4558 6.54969C84.1144 6.79035 84.6021 7.18935 84.9188 7.74669C85.2354 8.30402 85.3938 9.05769 85.3938 10.0077V16.4297H83.9498ZM80.6248 16.6957C79.8648 16.6957 79.2061 16.569 78.6488 16.3157C78.1041 16.0497 77.6798 15.6697 77.3758 15.1757C77.0844 14.6817 76.9388 14.0864 76.9388 13.3897C76.9388 12.6677 77.0971 12.066 77.4138 11.5847C77.7431 11.1034 78.2181 10.7424 78.8388 10.5017C79.4594 10.2484 80.2068 10.1217 81.0808 10.1217H83.8358V11.4897H81.0048C80.2701 11.4897 79.7064 11.667 79.3138 12.0217C78.9211 12.3764 78.7248 12.8324 78.7248 13.3897C78.7248 13.947 78.9211 14.3967 79.3138 14.7387C79.7064 15.0807 80.2701 15.2517 81.0048 15.2517C81.4354 15.2517 81.8471 15.1757 82.2398 15.0237C82.6324 14.859 82.9554 14.593 83.2088 14.2257C83.4748 13.8457 83.6204 13.3264 83.6458 12.6677L84.1398 13.3897C84.0764 14.1117 83.8991 14.7197 83.6078 15.2137C83.3291 15.695 82.9364 16.0624 82.4298 16.3157C81.9358 16.569 81.3341 16.6957 80.6248 16.6957ZM93.0925 16.7717C92.2185 16.7717 91.4585 16.6197 90.8125 16.3157C90.1791 16.0117 89.6535 15.6064 89.2355 15.0997C88.8175 14.5804 88.5008 14.0104 88.2855 13.3897C88.0828 12.769 87.9815 12.1484 87.9815 11.5277V11.1857C87.9815 10.5397 88.0828 9.90635 88.2855 9.28569C88.5008 8.66502 88.8175 8.10769 89.2355 7.61369C89.6661 7.10702 90.1981 6.70169 90.8315 6.39769C91.4648 6.09369 92.2058 5.94169 93.0545 5.94169C93.9031 5.94169 94.6631 6.10002 95.3345 6.41669C96.0185 6.73335 96.5631 7.18302 96.9685 7.76569C97.3865 8.33569 97.6208 9.01335 97.6715 9.79869H95.9235C95.8348 9.16535 95.5435 8.63969 95.0495 8.22169C94.5555 7.79102 93.8905 7.57569 93.0545 7.57569C92.3325 7.57569 91.7308 7.74035 91.2495 8.06969C90.7681 8.39902 90.4071 8.84869 90.1665 9.41869C89.9258 9.98869 89.8055 10.6347 89.8055 11.3567C89.8055 12.0534 89.9258 12.693 90.1665 13.2757C90.4071 13.8457 90.7681 14.3017 91.2495 14.6437C91.7435 14.973 92.3578 15.1377 93.0925 15.1377C93.6625 15.1377 94.1565 15.0364 94.5745 14.8337C94.9925 14.631 95.3281 14.3587 95.5815 14.0167C95.8348 13.6747 95.9868 13.2884 96.0375 12.8577H97.7855C97.7475 13.6557 97.5131 14.346 97.0825 14.9287C96.6645 15.5114 96.1071 15.9674 95.4105 16.2967C94.7265 16.6134 93.9538 16.7717 93.0925 16.7717ZM106.401 16.4297V13.3897H106.097V9.87469C106.097 9.17802 105.913 8.65235 105.546 8.29769C105.191 7.94302 104.666 7.76569 103.969 7.76569C103.576 7.76569 103.171 7.77202 102.753 7.78469C102.335 7.79735 101.936 7.81002 101.556 7.82269C101.176 7.83535 100.847 7.85435 100.568 7.87969V6.28369C100.847 6.25835 101.138 6.23935 101.442 6.22669C101.759 6.20135 102.082 6.18869 102.411 6.18869C102.74 6.17602 103.057 6.16969 103.361 6.16969C104.4 6.16969 105.248 6.29635 105.907 6.54969C106.566 6.79035 107.053 7.18935 107.37 7.74669C107.687 8.30402 107.845 9.05769 107.845 10.0077V16.4297H106.401ZM103.076 16.6957C102.316 16.6957 101.657 16.569 101.1 16.3157C100.555 16.0497 100.131 15.6697 99.8269 15.1757C99.5356 14.6817 99.3899 14.0864 99.3899 13.3897C99.3899 12.6677 99.5483 12.066 99.8649 11.5847C100.194 11.1034 100.669 10.7424 101.29 10.5017C101.911 10.2484 102.658 10.1217 103.532 10.1217H106.287V11.4897H103.456C102.721 11.4897 102.158 11.667 101.765 12.0217C101.372 12.3764 101.176 12.8324 101.176 13.3897C101.176 13.947 101.372 14.3967 101.765 14.7387C102.158 15.0807 102.721 15.2517 103.456 15.2517C103.887 15.2517 104.298 15.1757 104.691 15.0237C105.084 14.859 105.407 14.593 105.66 14.2257C105.926 13.8457 106.072 13.3264 106.097 12.6677L106.591 13.3897C106.528 14.1117 106.35 14.7197 106.059 15.2137C105.78 15.695 105.388 16.0624 104.881 16.3157C104.387 16.569 103.785 16.6957 103.076 16.6957ZM115.145 16.5437C114.385 16.5437 113.726 16.436 113.169 16.2207C112.624 16.0054 112.2 15.638 111.896 15.1187C111.604 14.5867 111.459 13.871 111.459 12.9717V3.20569H113.207V13.1997C113.207 13.7444 113.352 14.1687 113.644 14.4727C113.948 14.764 114.372 14.9097 114.917 14.9097H116.703V16.5437H115.145ZM109.711 7.65169V6.28369H116.703V7.65169H109.711ZM119.776 16.4297V6.28369H121.6V16.4297H119.776ZM118.218 7.72769V6.28369H121.6V7.72769H118.218ZM120.289 4.64969C119.884 4.64969 119.58 4.54202 119.377 4.32669C119.187 4.11135 119.092 3.83902 119.092 3.50969C119.092 3.18035 119.187 2.90802 119.377 2.69269C119.58 2.47735 119.884 2.36969 120.289 2.36969C120.695 2.36969 120.992 2.47735 121.182 2.69269C121.385 2.90802 121.486 3.18035 121.486 3.50969C121.486 3.83902 121.385 4.11135 121.182 4.32669C120.992 4.54202 120.695 4.64969 120.289 4.64969ZM129.801 16.7717C128.915 16.7717 128.136 16.6197 127.464 16.3157C126.793 16.0117 126.223 15.6127 125.754 15.1187C125.298 14.612 124.95 14.0484 124.709 13.4277C124.481 12.807 124.367 12.1737 124.367 11.5277V11.1857C124.367 10.5397 124.488 9.90635 124.728 9.28569C124.969 8.65235 125.324 8.08869 125.792 7.59469C126.261 7.08802 126.831 6.68902 127.502 6.39769C128.174 6.09369 128.94 5.94169 129.801 5.94169C130.663 5.94169 131.429 6.09369 132.1 6.39769C132.772 6.68902 133.342 7.08802 133.81 7.59469C134.279 8.08869 134.634 8.65235 134.874 9.28569C135.115 9.90635 135.235 10.5397 135.235 11.1857V11.5277C135.235 12.1737 135.115 12.807 134.874 13.4277C134.646 14.0484 134.298 14.612 133.829 15.1187C133.373 15.6127 132.81 16.0117 132.138 16.3157C131.467 16.6197 130.688 16.7717 129.801 16.7717ZM129.801 15.1377C130.561 15.1377 131.207 14.973 131.739 14.6437C132.284 14.3017 132.696 13.8457 132.974 13.2757C133.266 12.7057 133.411 12.066 133.411 11.3567C133.411 10.6347 133.266 9.98869 132.974 9.41869C132.683 8.84869 132.265 8.39902 131.72 8.06969C131.188 7.74035 130.549 7.57569 129.801 7.57569C129.067 7.57569 128.427 7.74035 127.882 8.06969C127.338 8.39902 126.92 8.84869 126.628 9.41869C126.337 9.98869 126.191 10.6347 126.191 11.3567C126.191 12.066 126.331 12.7057 126.609 13.2757C126.901 13.8457 127.312 14.3017 127.844 14.6437C128.389 14.973 129.041 15.1377 129.801 15.1377ZM137.967 16.4297V6.28369H139.411V10.6347H139.183C139.183 9.63402 139.316 8.79169 139.582 8.10769C139.861 7.41102 140.279 6.88535 140.836 6.53069C141.393 6.16335 142.096 5.97969 142.945 5.97969H143.021C144.3 5.97969 145.244 6.37869 145.852 7.17669C146.473 7.97469 146.783 9.12735 146.783 10.6347V16.4297H144.959V10.2547C144.959 9.46935 144.737 8.84235 144.294 8.37369C143.851 7.89235 143.243 7.65169 142.47 7.65169C141.672 7.65169 141.026 7.89869 140.532 8.39269C140.038 8.88669 139.791 9.54535 139.791 10.3687V16.4297H137.967ZM65.0534 36.4297V22.4837H66.9154V36.4297H65.0534ZM73.6224 36.4297L69.0244 30.2547H71.2094L75.8834 36.4297H73.6224ZM66.2124 31.4137V29.7607H69.9364C70.519 29.7607 71.0194 29.6404 71.4374 29.3997C71.8554 29.159 72.1784 28.8297 72.4064 28.4117C72.6344 27.981 72.7484 27.4934 72.7484 26.9487C72.7484 26.404 72.6344 25.9227 72.4064 25.5047C72.1784 25.074 71.8554 24.7384 71.4374 24.4977C71.0194 24.2444 70.519 24.1177 69.9364 24.1177H66.2124V22.4837H69.5944C70.6077 22.4837 71.4944 22.6357 72.2544 22.9397C73.0144 23.2437 73.6034 23.7124 74.0214 24.3457C74.4394 24.979 74.6484 25.796 74.6484 26.7967V27.1007C74.6484 28.1014 74.433 28.9184 74.0024 29.5517C73.5844 30.185 72.9954 30.6537 72.2354 30.9577C71.488 31.2617 70.6077 31.4137 69.5944 31.4137H66.2124ZM82.2185 36.7717C81.3319 36.7717 80.5655 36.6197 79.9195 36.3157C79.2735 36.0117 78.7479 35.6127 78.3425 35.1187C77.9372 34.612 77.6332 34.0484 77.4305 33.4277C77.2405 32.807 77.1455 32.1737 77.1455 31.5277V31.1857C77.1455 30.527 77.2405 29.8874 77.4305 29.2667C77.6332 28.646 77.9372 28.0887 78.3425 27.5947C78.7479 27.088 79.2609 26.689 79.8815 26.3977C80.5149 26.0937 81.2559 25.9417 82.1045 25.9417C83.2065 25.9417 84.1122 26.1824 84.8215 26.6637C85.5435 27.1324 86.0755 27.7404 86.4175 28.4877C86.7722 29.235 86.9495 30.033 86.9495 30.8817V31.6987H77.9435V30.3307H85.6195L85.2015 31.0717C85.2015 30.3497 85.0875 29.729 84.8595 29.2097C84.6315 28.6777 84.2895 28.266 83.8335 27.9747C83.3775 27.6834 82.8012 27.5377 82.1045 27.5377C81.3825 27.5377 80.7809 27.7024 80.2995 28.0317C79.8309 28.361 79.4762 28.8107 79.2355 29.3807C79.0075 29.9507 78.8935 30.6094 78.8935 31.3567C78.8935 32.0787 79.0075 32.731 79.2355 33.3137C79.4762 33.8837 79.8435 34.3397 80.3375 34.6817C80.8315 35.011 81.4585 35.1757 82.2185 35.1757C83.0165 35.1757 83.6625 34.9984 84.1565 34.6437C84.6632 34.289 84.9672 33.8774 85.0685 33.4087H86.7785C86.6392 34.1054 86.3605 34.707 85.9425 35.2137C85.5245 35.7204 84.9989 36.1067 84.3655 36.3727C83.7322 36.6387 83.0165 36.7717 82.2185 36.7717ZM92.8643 36.7337C91.5343 36.7337 90.502 36.4487 89.7673 35.8787C89.0453 35.3087 88.6717 34.5297 88.6463 33.5417H90.3563C90.3817 33.9344 90.578 34.308 90.9453 34.6627C91.3253 35.0047 91.965 35.1757 92.8643 35.1757C93.675 35.1757 94.2957 35.0174 94.7263 34.7007C95.157 34.3714 95.3723 33.9724 95.3723 33.5037C95.3723 33.0857 95.214 32.7627 94.8973 32.5347C94.5807 32.294 94.0677 32.1357 93.3583 32.0597L92.2563 31.9457C91.2937 31.8444 90.5083 31.5594 89.9003 31.0907C89.2923 30.6094 88.9883 29.938 88.9883 29.0767C88.9883 28.4307 89.153 27.8797 89.4823 27.4237C89.8117 26.955 90.2677 26.6004 90.8503 26.3597C91.433 26.1064 92.1043 25.9797 92.8643 25.9797C94.0043 25.9797 94.929 26.233 95.6383 26.7397C96.3477 27.2464 96.715 28 96.7403 29.0007H95.0303C95.0177 28.5954 94.8277 28.2534 94.4603 27.9747C94.1057 27.6834 93.5737 27.5377 92.8643 27.5377C92.155 27.5377 91.6167 27.6834 91.2493 27.9747C90.882 28.266 90.6983 28.6334 90.6983 29.0767C90.6983 29.4567 90.825 29.7607 91.0783 29.9887C91.3443 30.2167 91.775 30.3624 92.3703 30.4257L93.4723 30.5397C94.5617 30.6537 95.4357 30.9577 96.0943 31.4517C96.753 31.933 97.0823 32.617 97.0823 33.5037C97.0823 34.137 96.8987 34.7007 96.5313 35.1947C96.1767 35.676 95.6827 36.056 95.0493 36.3347C94.416 36.6007 93.6877 36.7337 92.8643 36.7337ZM104.4 36.7717C103.513 36.7717 102.734 36.6197 102.063 36.3157C101.392 36.0117 100.822 35.6127 100.353 35.1187C99.8968 34.612 99.5485 34.0484 99.3078 33.4277C99.0798 32.807 98.9658 32.1737 98.9658 31.5277V31.1857C98.9658 30.5397 99.0862 29.9064 99.3268 29.2857C99.5675 28.6524 99.9222 28.0887 100.391 27.5947C100.86 27.088 101.43 26.689 102.101 26.3977C102.772 26.0937 103.539 25.9417 104.4 25.9417C105.261 25.9417 106.028 26.0937 106.699 26.3977C107.37 26.689 107.94 27.088 108.409 27.5947C108.878 28.0887 109.232 28.6524 109.473 29.2857C109.714 29.9064 109.834 30.5397 109.834 31.1857V31.5277C109.834 32.1737 109.714 32.807 109.473 33.4277C109.245 34.0484 108.897 34.612 108.428 35.1187C107.972 35.6127 107.408 36.0117 106.737 36.3157C106.066 36.6197 105.287 36.7717 104.4 36.7717ZM104.4 35.1377C105.16 35.1377 105.806 34.973 106.338 34.6437C106.883 34.3017 107.294 33.8457 107.573 33.2757C107.864 32.7057 108.01 32.066 108.01 31.3567C108.01 30.6347 107.864 29.9887 107.573 29.4187C107.282 28.8487 106.864 28.399 106.319 28.0697C105.787 27.7404 105.147 27.5757 104.4 27.5757C103.665 27.5757 103.026 27.7404 102.481 28.0697C101.936 28.399 101.518 28.8487 101.227 29.4187C100.936 29.9887 100.79 30.6347 100.79 31.3567C100.79 32.066 100.929 32.7057 101.208 33.2757C101.499 33.8457 101.911 34.3017 102.443 34.6437C102.988 34.973 103.64 35.1377 104.4 35.1377ZM112.566 36.4297V26.2837H114.01V30.4637H113.934C113.934 28.9817 114.257 27.8987 114.903 27.2147C115.561 26.518 116.543 26.1697 117.848 26.1697H118.19V27.8037H117.544C116.53 27.8037 115.751 28.076 115.207 28.6207C114.662 29.1527 114.39 29.9254 114.39 30.9387V36.4297H112.566ZM124.496 36.5437C123.736 36.5437 123.078 36.436 122.52 36.2207C121.976 36.0054 121.551 35.638 121.247 35.1187C120.956 34.5867 120.81 33.871 120.81 32.9717V23.2057H122.558V33.1997C122.558 33.7444 122.704 34.1687 122.995 34.4727C123.299 34.764 123.724 34.9097 124.268 34.9097H126.054V36.5437H124.496ZM119.062 27.6517V26.2837H126.054V27.6517H119.062ZM131.885 36.7337C130.555 36.7337 129.522 36.4487 128.788 35.8787C128.066 35.3087 127.692 34.5297 127.667 33.5417H129.377C129.402 33.9344 129.598 34.308 129.966 34.6627C130.346 35.0047 130.985 35.1757 131.885 35.1757C132.695 35.1757 133.316 35.0174 133.747 34.7007C134.177 34.3714 134.393 33.9724 134.393 33.5037C134.393 33.0857 134.234 32.7627 133.918 32.5347C133.601 32.294 133.088 32.1357 132.379 32.0597L131.277 31.9457C130.314 31.8444 129.529 31.5594 128.921 31.0907C128.313 30.6094 128.009 29.938 128.009 29.0767C128.009 28.4307 128.173 27.8797 128.503 27.4237C128.832 26.955 129.288 26.6004 129.871 26.3597C130.453 26.1064 131.125 25.9797 131.885 25.9797C133.025 25.9797 133.949 26.233 134.659 26.7397C135.368 27.2464 135.735 28 135.761 29.0007H134.051C134.038 28.5954 133.848 28.2534 133.481 27.9747C133.126 27.6834 132.594 27.5377 131.885 27.5377C131.175 27.5377 130.637 27.6834 130.27 27.9747C129.902 28.266 129.719 28.6334 129.719 29.0767C129.719 29.4567 129.845 29.7607 130.099 29.9887C130.365 30.2167 130.795 30.3624 131.391 30.4257L132.493 30.5397C133.582 30.6537 134.456 30.9577 135.115 31.4517C135.773 31.933 136.103 32.617 136.103 33.5037C136.103 34.137 135.919 34.7007 135.552 35.1947C135.197 35.676 134.703 36.056 134.07 36.3347C133.436 36.6007 132.708 36.7337 131.885 36.7337Z" fill="#969FB2"/>
</svg>
