<svg width="64" height="25" viewBox="0 0 64 25" fill="none" xmlns="http://www.w3.org/2000/svg">
<g clip-path="url(#clip0_9478_5781)">
<path d="M13.937 14.0886C13.6346 13.7113 13.3473 13.3196 13.1508 12.8843C12.6519 11.7815 12.8031 10.4901 13.1961 9.34375C12.4251 10.7077 11.6994 12.1442 11.5331 13.6823C11.4121 14.7561 11.6087 15.9024 12.1983 16.8456C12.7275 17.6872 13.9067 18.5578 14.7685 17.4985C15.1313 17.0342 15.1767 16.3957 15.0104 15.8444C14.8441 15.293 14.4964 14.7996 14.1335 14.3353C14.073 14.2482 13.9974 14.1757 13.937 14.0886Z" fill="#969FB2"/>
<path d="M14.2241 1.14558C14.2241 1.14558 14.2241 1.11656 14.2241 1.10205C14.2241 1.10205 14.209 1.13107 14.1938 1.13107H14.2241V1.14558Z" fill="#969FB2"/>
<path d="M3.58073 8.80682L3.53537 8.47309C3.29347 6.6593 4.39714 4.83101 6.42306 3.69921C8.40362 2.59642 10.0365 2.34975 11.3518 2.14661C12.0321 2.04503 12.6066 1.95797 13.1056 1.76934L13.5742 1.59521L13.2719 1.97248C13.1207 2.16112 12.9544 2.32073 12.773 2.46583C12.274 2.85761 11.6693 3.1333 11.0343 3.409C10.9133 3.46704 10.8075 3.51057 10.7017 3.5541C8.88742 4.38119 6.55913 5.55652 4.79023 7.35579C4.42738 7.71855 4.09477 8.11033 3.79239 8.53113L3.59585 8.80682H3.58073ZM12.6974 2.16112C12.3043 2.26269 11.8658 2.32073 11.382 2.39328C10.0818 2.58191 8.47922 2.82859 6.54401 3.91686C4.74487 4.91807 3.7168 6.49969 3.76215 8.09582C4.01917 7.77659 4.27619 7.47188 4.56345 7.18167C6.36259 5.33887 8.706 4.14902 10.5505 3.32194C10.6563 3.2639 10.7773 3.22037 10.8831 3.17683C11.503 2.90114 12.0926 2.63995 12.5613 2.26269C12.6066 2.23367 12.6369 2.20465 12.6822 2.16112H12.6974Z" fill="#969FB2"/>
<path d="M5.3345 11.6945C8.81183 5.25198 14.0127 4.78765 14.2244 1.20361C14.1639 1.43578 13.8161 1.8856 13.7406 2.00168C13.544 2.29188 13.3021 2.53856 13.03 2.75621C12.395 3.26407 11.6088 3.56879 10.868 3.90252C8.78159 4.84569 6.68008 5.99201 5.07748 7.63167C3.21787 9.53251 1.78159 12.4055 2.61312 15.0319C2.93062 16.0331 3.59584 17.1214 4.42738 17.8904C3.94357 16.0041 4.17036 13.8566 5.3345 11.6945Z" fill="#969FB2"/>
<path d="M12.5009 23.2446C9.73417 23.2446 7.2698 21.9532 5.89399 19.7766C4.44259 17.484 4.42747 14.6255 5.87887 11.9411C7.60242 8.74881 9.7644 7.06561 11.5031 5.71616C12.5765 4.88907 13.5895 4.09101 14.1942 3.13333L14.3908 2.82861L14.4512 3.17686C14.4815 3.33647 14.4966 3.5106 14.5117 3.68472C14.6327 5.48399 13.7255 7.15268 12.7579 8.92293C12.1683 10.0112 11.5484 11.143 11.1856 12.3328C10.8832 13.3195 10.7925 14.1902 10.9134 15.0172C11.0797 16.1636 11.5182 17.2083 12.1985 18.137C12.38 18.3691 12.5765 18.6158 12.7882 18.877L12.8184 18.906C12.894 18.9785 14.7234 20.8068 17.3238 20.8068C17.989 20.8068 18.6391 20.6908 19.259 20.4586L19.9242 20.2119L19.4102 20.6763C17.9286 22.0112 16.0387 22.8383 13.7709 23.143C13.3476 23.201 12.9091 23.2301 12.5009 23.2301V23.2446ZM14.2244 3.58315C13.5895 4.43925 12.6521 5.16477 11.6694 5.93381C9.94583 7.26876 7.79896 8.93744 6.10566 12.0717C4.69961 14.669 4.69961 17.426 6.10566 19.646C7.43611 21.7355 9.80976 22.9834 12.4858 22.9834C12.894 22.9834 13.3022 22.9544 13.7255 22.8963C15.6759 22.6351 17.354 21.9677 18.7147 20.9229C18.2612 21.039 17.7925 21.0971 17.3238 21.0971C14.6175 21.0971 12.6974 19.1962 12.6219 19.1091L12.5916 19.0801C12.3648 18.8189 12.1532 18.5723 11.9717 18.3256C11.2612 17.3534 10.8076 16.2651 10.6262 15.0898C10.5052 14.2192 10.5959 13.3195 10.9134 12.2893C11.2914 11.085 11.9113 9.93865 12.516 8.83587C13.4534 7.09463 14.3454 5.45497 14.2396 3.72825C14.2396 3.68472 14.2396 3.64119 14.2396 3.58315H14.2244Z" fill="#969FB2"/>
<path d="M19.0474 5.10687C18.2763 5.70179 17.596 6.31123 17.0215 6.93517C16.447 7.57362 16.0388 8.13952 15.7666 8.64738C15.5096 9.15524 15.4189 9.54702 15.5096 9.85173C15.6003 10.1419 15.9027 10.258 16.4318 10.1855C16.3714 10.4757 16.1748 10.6643 15.8573 10.7369C15.5398 10.8094 15.1921 10.7804 14.8444 10.6498C14.4815 10.5192 14.164 10.3016 13.8919 9.98233C13.6197 9.6631 13.4837 9.25681 13.5139 8.76346C13.5441 8.34266 13.7105 7.87834 14.028 7.35597C14.3454 6.8336 14.7537 6.31123 15.2526 5.77435C15.7515 5.23747 16.3109 4.72961 16.9459 4.22175C17.5809 3.7284 18.2461 3.27858 18.9113 2.8868C19.5917 2.49502 20.2569 2.20482 20.9372 1.98716C21.6176 1.76951 22.2375 1.68245 22.812 1.71147C23.2655 1.74049 23.704 1.87108 24.1273 2.10325C24.5506 2.33541 24.9135 2.62562 25.2159 2.97386C25.5182 3.32211 25.7299 3.69938 25.8508 4.10566C25.9718 4.51195 25.9567 4.90373 25.8206 5.26649C25.6845 5.62924 25.4729 5.97749 25.231 6.31123C24.974 6.64496 24.7169 6.94968 24.4448 7.22537C24.1727 7.50107 23.9005 7.76225 23.6435 7.97991C23.3865 8.21207 23.1597 8.3862 22.9783 8.5313C23.4016 8.57483 23.8249 8.73444 24.2331 9.02465C24.6565 9.31485 24.974 9.64859 25.2159 10.0259C25.7601 9.83722 26.2439 9.67761 26.6975 9.518C27.1359 9.35838 27.6197 9.27132 28.1338 9.22779C28.2245 9.22779 28.285 9.27132 28.3152 9.3874C28.3454 9.50349 28.3606 9.64859 28.3606 9.8082C28.3606 9.96782 28.3152 10.1274 28.2396 10.258C28.164 10.4031 28.0582 10.4902 27.907 10.5047C27.4383 10.6063 26.9696 10.7369 26.5161 10.882C26.0625 11.0271 25.6997 11.1867 25.4124 11.3173C25.3217 11.9847 25.0949 12.6957 24.7018 13.4503C24.3087 14.2048 23.8249 14.9303 23.2504 15.6704C22.6759 16.3959 22.0258 17.0924 21.285 17.7453C20.5441 18.3983 19.7882 18.9642 19.002 19.443C18.2612 19.9074 17.5809 20.1831 16.961 20.2556C16.3411 20.3282 15.8724 20.2556 15.5247 20.0234C15.177 19.7913 15.0107 19.4285 14.9956 18.9352C14.9956 18.4418 15.2072 17.8614 15.6608 17.1794C16.069 16.5845 16.583 15.9896 17.2029 15.3656C17.8228 14.7417 18.4729 14.1613 19.1532 13.6099C19.8487 13.0585 20.529 12.5506 21.2245 12.0863C21.92 11.622 22.5549 11.2447 23.1295 10.9545C23.1295 10.9545 23.1597 10.882 23.1597 10.7804C23.1597 10.6788 23.1597 10.5772 23.1446 10.4612C23.1295 10.3451 23.0841 10.2435 23.0236 10.1274C22.9632 10.0113 22.8724 9.9388 22.7666 9.89526C22.5247 9.8082 22.2526 9.83722 21.9048 9.95331C21.5722 10.0839 21.2094 10.2725 20.8314 10.5192C20.4534 10.7659 20.0906 11.0706 19.7126 11.4043C19.3346 11.7381 18.9869 12.0718 18.6543 12.391C18.3217 12.7103 18.0344 13.015 17.7925 13.2907C17.5506 13.5664 17.3692 13.784 17.2634 13.9291C17.0668 14.1758 16.8854 14.2919 16.704 14.2919C16.5226 14.2919 16.3411 14.2629 16.1899 14.1903C15.9783 14.0887 15.8271 13.9581 15.7061 13.784C15.5852 13.6099 15.5701 13.4068 15.6608 13.1601C15.8271 12.6667 16.0388 12.0573 16.326 11.3173C16.6133 10.5772 16.9156 9.82271 17.2331 9.06818C17.5506 8.29913 17.8832 7.55911 18.2007 6.84811C18.5182 6.1371 18.7904 5.54218 19.0172 5.09236L19.0474 5.10687ZM16.8552 18.6014C17.0819 18.4999 17.3843 18.3257 17.7321 18.0646C18.0798 17.8034 18.4578 17.4986 18.8508 17.1504C19.2439 16.8022 19.6521 16.4249 20.0603 16.0186C20.4686 15.6123 20.8465 15.2205 21.1943 14.8288C21.542 14.437 21.8292 14.0742 22.0711 13.726C22.313 13.3922 22.4642 13.1165 22.5398 12.8989C22.1014 13.1601 21.5722 13.5373 20.9675 14.0017C20.3627 14.466 19.7731 14.9594 19.1986 15.4962C18.6241 16.0331 18.1251 16.57 17.6867 17.1214C17.2483 17.6728 16.9761 18.1661 16.8552 18.6014ZM18.9567 10.1274C19.1381 9.9388 19.4254 9.67761 19.8184 9.30034C20.2115 8.93759 20.6349 8.5313 21.1035 8.08148C21.5571 7.63166 22.0258 7.15282 22.4794 6.65947C22.9329 6.16612 23.3109 5.68728 23.6284 5.25198C23.9459 4.81667 24.1273 4.41038 24.2029 4.06213C24.2785 3.71389 24.1727 3.4527 23.8854 3.27858C23.7493 3.19152 23.5528 3.17701 23.2655 3.20603C22.9934 3.23505 22.6759 3.3076 22.3433 3.42368C22.0107 3.53976 21.6629 3.67036 21.3001 3.82997C20.9372 4.00409 20.6046 4.19273 20.3022 4.39587C20.393 4.39587 20.4988 4.4394 20.6349 4.49744C20.7709 4.55548 20.8768 4.62803 20.9826 4.7151C21.0884 4.80216 21.164 4.90373 21.2094 5.01981C21.2547 5.13589 21.2396 5.23747 21.1943 5.35355C20.9977 5.70179 20.8163 6.09357 20.6197 6.49986C20.4232 6.90615 20.2267 7.34146 20.0301 7.76225C19.8336 8.18305 19.6521 8.60385 19.4707 9.01014C19.2893 9.41643 19.123 9.77918 18.9718 10.1129L18.9567 10.1274Z" fill="#969FB2"/>
<path d="M33.3497 10.5481C33.3497 10.5481 33.4858 10.4755 33.5765 10.49C33.6672 10.49 33.7579 10.5336 33.8486 10.5916C33.9393 10.6497 33.9998 10.7222 34.0452 10.8093C34.0905 10.8963 34.0754 10.9979 34.03 11.0995C33.8335 11.6509 33.5765 12.1877 33.2288 12.7391C32.881 13.276 32.4879 13.7839 32.0495 14.2627C31.611 14.7416 31.1424 15.1769 30.6586 15.5686C30.1748 15.9604 29.7061 16.2796 29.2374 16.5408C29.0257 16.6569 28.7838 16.7004 28.5419 16.6714C28.3 16.6424 28.043 16.5699 27.8011 16.4683C27.5441 16.3667 27.3173 16.2361 27.1208 16.1055C26.9242 15.9604 26.7428 15.8298 26.6218 15.6992C26.3497 15.4235 26.1834 15.0463 26.1683 14.5674C26.138 14.1031 26.1985 13.5807 26.3346 13.0439C26.4707 12.4925 26.6823 11.9266 26.9545 11.3316C27.2266 10.7367 27.5441 10.1853 27.8918 9.66296C28.2396 9.14059 28.6024 8.69077 28.9804 8.29899C29.3583 7.90722 29.7212 7.61701 30.0538 7.42838C30.2655 7.32681 30.4469 7.28327 30.6283 7.26876C30.8097 7.25425 30.9912 7.28327 31.1726 7.35583C31.354 7.42838 31.5506 7.51544 31.7622 7.63152C31.9588 7.7476 32.1856 7.8782 32.4275 8.0233C32.7752 8.24095 32.9415 8.50214 32.9113 8.82136C32.9113 8.98098 32.8508 9.25667 32.7298 9.64845C32.6089 10.0402 32.4275 10.4465 32.2007 10.8818C31.9739 11.3171 31.7018 11.7089 31.3691 12.0862C31.0365 12.4634 30.6737 12.7101 30.2655 12.8407C29.9782 12.9133 29.7212 12.9278 29.4944 12.8988C29.2676 12.8697 29.0408 12.7972 28.7687 12.6811C28.6931 12.8262 28.6175 13.0293 28.5268 13.305C28.4361 13.5807 28.3756 13.8564 28.3303 14.1321C28.2849 14.4078 28.2698 14.669 28.2849 14.8867C28.2849 15.1043 28.3907 15.2204 28.5419 15.2494C28.7838 15.2929 29.1164 15.1769 29.5398 14.8867C29.9782 14.611 30.4167 14.2337 30.8853 13.7839C31.354 13.3341 31.8227 12.8117 32.2763 12.2313C32.7298 11.6509 33.0927 11.0995 33.3799 10.5481H33.3497ZM31.1575 8.98098C31.0063 9.08255 30.8249 9.27118 30.5981 9.54688C30.3713 9.82257 30.1596 10.1128 29.9329 10.4175C29.7212 10.7222 29.5398 11.0124 29.3886 11.2881C29.2374 11.5493 29.1618 11.7234 29.1618 11.796C29.4188 11.8395 29.6758 11.767 29.9026 11.5638C30.1294 11.3607 30.3411 11.114 30.5225 10.8093C30.7039 10.5046 30.8551 10.1853 30.9609 9.85159C31.0668 9.51786 31.1424 9.22765 31.1726 8.98098H31.1575Z" fill="#969FB2"/>
<path d="M41.9371 10.1275C41.9371 10.1275 42.058 10.0404 42.1941 10.0549C42.315 10.0549 42.436 10.0985 42.5418 10.1565C42.6476 10.2146 42.7383 10.2871 42.7988 10.3742C42.8593 10.4612 42.8744 10.5628 42.7988 10.6644C42.5267 11.1287 42.1941 11.6511 41.8463 12.217C41.4986 12.7829 41.1055 13.3488 40.7124 13.8857C40.3042 14.437 39.896 14.9304 39.4727 15.3657C39.0494 15.801 38.626 16.1202 38.2178 16.3089C37.991 16.4104 37.7643 16.4395 37.5224 16.4104C37.2805 16.3814 37.0688 16.2944 36.8571 16.1783C36.6455 16.0622 36.4943 15.9171 36.3582 15.7285C36.2221 15.5398 36.1466 15.3802 36.1314 15.2061C36.1012 14.9884 36.1314 14.6692 36.2221 14.2774C36.3129 13.8857 36.4036 13.5229 36.5094 13.2037C36.328 13.4068 36.1466 13.6245 35.95 13.8857C35.7535 14.1468 35.5418 14.4225 35.2999 14.7127C35.0731 15.0029 34.8161 15.3077 34.5591 15.5979C34.3021 15.8881 34.0299 16.1638 33.7578 16.4249C33.6217 16.5555 33.4252 16.5991 33.153 16.5701C32.8809 16.541 32.6088 16.4685 32.3517 16.3524C32.0947 16.2363 31.8528 16.0767 31.6563 15.8881C31.4597 15.6994 31.369 15.4963 31.3993 15.2931C31.4446 14.7563 31.5807 14.1904 31.7923 13.5809C32.0191 12.9715 32.2761 12.3911 32.5936 11.8252C32.9111 11.2593 33.2589 10.7224 33.652 10.2291C34.045 9.73571 34.423 9.32942 34.801 9.02471C35.0731 8.80705 35.3301 8.69097 35.572 8.66195C35.7988 8.63293 36.0256 8.66195 36.2524 8.7345C36.4792 8.80705 36.6908 8.92314 36.9176 9.06824C37.1444 9.21334 37.3712 9.35844 37.6131 9.50355C37.7794 9.32942 37.9306 9.1553 38.0818 8.96667C38.2329 8.77803 38.3993 8.5894 38.5807 8.40077C38.6865 8.27017 38.8528 8.22664 39.0796 8.25566C39.3064 8.28468 39.518 8.35724 39.7297 8.48783C39.9414 8.61842 40.0926 8.76352 40.2286 8.93765C40.3496 9.11177 40.3647 9.27138 40.2589 9.431C39.7599 10.2436 39.3669 10.9691 39.0645 11.6075C38.7621 12.246 38.5504 12.7684 38.3993 13.2037C38.2481 13.639 38.1876 13.9727 38.2027 14.1904C38.2027 14.4225 38.2632 14.5241 38.369 14.5241C38.6563 14.5241 39.1098 14.1323 39.7146 13.3923C40.3193 12.6523 41.0602 11.5495 41.9371 10.0985V10.1275ZM36.6001 10.9401C36.6001 10.9401 36.6606 10.7805 36.6606 10.6499C36.6606 10.5193 36.6304 10.3742 36.585 10.2581C36.5396 10.142 36.464 10.0694 36.3582 10.0404C36.2524 10.0114 36.1314 10.084 35.9651 10.2581C35.6325 10.5628 35.315 10.9256 35.0278 11.3609C34.7405 11.7817 34.4986 12.2025 34.2869 12.6087C34.0753 13.015 33.909 13.3923 33.7729 13.7405C33.6368 14.0888 33.5764 14.3355 33.5764 14.5096C33.7427 14.379 33.9543 14.1759 34.2265 13.8857C34.4986 13.5954 34.7859 13.2762 35.0731 12.928C35.3604 12.5797 35.6476 12.2315 35.9349 11.8687C36.207 11.5205 36.4338 11.2158 36.6152 10.9691L36.6001 10.9401Z" fill="#969FB2"/>
<path d="M59.1275 8.31346C59.2485 7.74756 58.9007 7.31225 58.0994 6.97852C57.283 6.64478 56.2247 6.42713 54.9396 6.34007C53.8208 7.6605 52.8381 9.34369 51.9763 11.3751C51.553 12.3909 51.2204 13.3195 50.9634 14.1756C50.7063 15.0317 50.5551 15.8298 50.4796 16.5843C50.3586 18.0208 50.8122 18.7318 51.8251 18.7318C51.2808 19.2687 50.6156 19.3703 49.7992 19.0221C48.9677 18.6883 48.4688 17.9193 48.3327 16.7439C48.3327 16.5553 48.3327 16.3667 48.3327 16.149C48.3327 15.9314 48.378 15.6992 48.4385 15.409C48.2722 15.6557 48.1059 15.8443 47.9396 16.0039C47.7733 16.1635 47.607 16.3086 47.4407 16.4102C47.1232 16.6569 46.7906 16.7149 46.458 16.5988C45.9742 16.4102 45.6113 16.1635 45.3543 15.8588C45.0973 15.5831 45.0065 15.1623 45.0519 14.5964C44.7949 14.9737 44.5379 15.3364 44.2657 15.6702C44.1297 15.8443 43.9785 16.0184 43.8122 16.2216C43.6307 16.4247 43.4342 16.6424 43.1923 16.8745C42.9655 17.0777 42.6329 17.1792 42.1793 17.1502C41.7107 17.1067 41.3024 16.9906 40.9547 16.7875C40.5767 16.5988 40.3651 16.3376 40.3197 16.0039C40.2744 15.4815 40.3802 14.727 40.6523 13.7258C40.7733 13.247 40.9094 12.7826 41.0757 12.3473C41.242 11.912 41.4234 11.4622 41.5897 11.0269C41.7862 10.6206 41.9374 10.2869 42.0886 10.0112C42.2247 9.74998 42.3608 9.56135 42.4666 9.45978C42.6631 9.32918 42.9353 9.31467 43.2528 9.40173C43.4342 9.43076 43.5854 9.47429 43.7215 9.53233C43.8575 9.59037 43.9936 9.66292 44.0994 9.73547C44.3262 9.9241 44.3867 10.0837 44.296 10.2143C44.2204 10.3594 44.1297 10.548 43.9936 10.7802C43.8726 11.0269 43.7215 11.3026 43.5703 11.6218C43.404 11.941 43.2528 12.2893 43.1167 12.652C42.9806 13.0148 42.8446 13.3921 42.7387 13.7693C42.6178 14.1466 42.5271 14.4803 42.4666 14.7705C42.4061 15.0607 42.3608 15.2929 42.3456 15.4525C42.512 15.409 42.8294 15.0317 43.3132 14.3352C43.5551 13.987 43.8273 13.5952 44.0994 13.1599C44.3716 12.7246 44.6588 12.2603 44.9461 11.7524C45.2485 11.23 45.5508 10.7222 45.8381 10.2143C46.1253 9.70645 46.3975 9.19859 46.6394 8.69073C46.7754 8.45857 47.0173 8.37151 47.3651 8.44406C47.5314 8.47308 47.6826 8.51661 47.8186 8.57465C47.9698 8.63269 48.1059 8.71975 48.2571 8.83583C48.5141 9.03898 48.6048 9.22761 48.5141 9.43076C48.3176 9.80802 48.121 10.2433 47.9245 10.7367C47.7279 11.23 47.5012 11.7814 47.2895 12.4054C46.8662 13.5807 46.6847 14.5094 46.7603 15.1623C47.0476 15.0898 47.4256 14.7705 47.864 14.2191C48.0908 13.9435 48.2873 13.6387 48.4839 13.3195C48.6804 13.0003 48.877 12.6665 49.0886 12.3328C49.4968 11.6508 49.7841 11.1139 49.9504 10.7367C50.283 10.0692 50.6459 9.3582 51.0389 8.63269C51.432 7.90718 51.8554 7.13813 52.2938 6.34007C50.9482 6.44164 49.6631 6.6738 48.4234 7.03656C47.229 7.39932 46.2312 7.92169 45.4299 8.57465C45.2787 8.71975 45.1124 8.73426 44.9007 8.61818C44.6588 8.47308 44.4623 8.28444 44.2808 8.05228C44.0541 7.76207 43.918 7.50089 43.8424 7.29775C43.7668 7.06558 43.8122 6.89146 43.9482 6.78989C44.8856 6.25301 46.2009 5.80319 47.8942 5.42592C49.6329 5.04865 51.4169 4.81649 53.2463 4.72943C53.8359 3.82979 54.3802 3.11879 54.8942 2.5819C55.1513 2.39327 55.4385 2.39327 55.8014 2.5819C56.1945 2.72701 56.4968 2.95917 56.7236 3.2784C56.9353 3.59762 56.9202 3.90234 56.7085 4.17804C56.5271 4.33765 56.3456 4.52628 56.134 4.77296C56.4364 4.80198 56.7387 4.831 57.026 4.87453C57.3132 4.91806 57.5854 4.9761 57.8424 5.04865C58.5076 5.26631 58.9763 5.58553 59.2484 6.03535C59.5206 6.49968 59.6415 6.9495 59.5811 7.38481C59.5357 7.83463 59.3694 8.12483 59.0973 8.26993L59.1275 8.31346Z" fill="#969FB2"/>
<path d="M62.68 10.8821C62.8312 10.8096 62.937 10.8096 63.0126 10.8821C63.0882 10.9547 63.1185 11.0708 63.1185 11.2159C63.1185 11.361 63.058 11.5351 62.9824 11.7092C62.8917 11.8978 62.7556 12.0429 62.5591 12.1735C61.9846 12.5073 61.4554 12.841 60.9716 13.1747C60.4878 13.5085 60.004 13.8567 59.5504 14.2195C59.3388 14.3791 59.1876 14.5532 59.0818 14.7419C58.7945 15.3223 58.4468 15.9607 58.0537 16.6572C57.6606 17.3537 57.2221 18.0357 56.7535 18.6741C56.2848 19.3126 55.801 19.893 55.2869 20.3864C54.7729 20.8797 54.274 21.2425 53.7751 21.4166C53.5785 21.4891 53.3215 21.4746 52.9889 21.4166C52.6563 21.344 52.3539 21.1989 52.0818 20.9958C51.8096 20.7926 51.6282 20.5315 51.5072 20.2122C51.4014 19.893 51.477 19.5302 51.734 19.124C52.0666 18.6016 52.5353 18.0647 53.1249 17.5133C53.7146 16.9619 54.3042 16.4396 54.8939 15.9607C55.4835 15.4819 56.0126 15.0611 56.4813 14.6983C56.9349 14.3356 57.207 14.0744 57.2826 13.9438C57.3582 13.7987 57.4338 13.6246 57.5396 13.4069C57.6304 13.1893 57.7211 12.9571 57.8118 12.7394C57.9025 12.5073 57.9932 12.2896 58.0688 12.072C58.1595 11.8543 58.22 11.6657 58.2653 11.5061C58.0386 11.8543 57.7967 12.2171 57.5094 12.5653C57.2221 12.9281 56.9349 13.2618 56.6476 13.581C56.3604 13.9003 56.058 14.205 55.7556 14.4662C55.4532 14.7273 55.1811 14.945 54.909 15.1191C54.7427 15.2207 54.531 15.2497 54.274 15.2062C54.017 15.1627 53.7599 15.0756 53.518 14.9595C53.2761 14.8289 53.0796 14.6693 52.9133 14.4807C52.747 14.292 52.6865 14.1034 52.7319 13.9003C52.8075 13.552 52.9133 13.1457 53.0645 12.6814C53.2157 12.2316 53.3971 11.7673 53.6087 11.2884C53.8204 10.8241 54.0472 10.3598 54.3042 9.92444C54.5612 9.48914 54.8485 9.09736 55.1358 8.76362C55.2416 8.64754 55.4079 8.60401 55.6347 8.63303C55.8614 8.66205 56.0731 8.7346 56.2999 8.83617C56.5267 8.93775 56.6779 9.06834 56.7988 9.22795C56.9198 9.38756 56.9046 9.53267 56.7837 9.67777C56.6023 9.88091 56.3906 10.1856 56.1336 10.6064C55.8766 11.0272 55.6498 11.448 55.4381 11.8688C55.2265 12.2896 55.0904 12.6524 54.9846 12.9716C54.8938 13.2763 54.909 13.4214 55.045 13.3924C55.1811 13.3634 55.3625 13.2183 55.6196 12.9426C55.8766 12.6814 56.1487 12.3477 56.4511 11.9559C56.7535 11.5641 57.0861 11.1288 57.4187 10.6645C57.7513 10.2001 58.0688 9.73581 58.356 9.3005C58.6433 8.86519 58.9154 8.47342 59.1422 8.12517C59.369 7.77692 59.5202 7.53025 59.6109 7.37064C59.7016 7.24004 59.8528 7.182 60.0494 7.19651C60.261 7.19651 60.4727 7.25455 60.6843 7.34162C60.9111 7.42868 61.0926 7.54476 61.2437 7.68986C61.3949 7.83496 61.4554 7.96556 61.4252 8.09615C61.3798 8.38636 61.3042 8.7346 61.1984 9.12638C61.0926 9.51816 60.9716 9.92444 60.8355 10.3452C60.6995 10.766 60.5785 11.1578 60.4576 11.5206C60.3366 11.8978 60.2459 12.2026 60.1703 12.4637C60.7146 12.0865 61.1681 11.7818 61.531 11.5496C61.8939 11.3174 62.2869 11.0853 62.6951 10.8676L62.68 10.8821ZM52.7772 20.1542C53.0191 19.9801 53.261 19.7769 53.518 19.5302C53.7751 19.2836 54.0472 19.0079 54.3042 18.7177C54.5612 18.4275 54.8031 18.1228 55.045 17.818C55.2869 17.5133 55.4835 17.2086 55.6649 16.9184C55.4079 17.1506 55.1055 17.4408 54.7729 17.7455C54.4403 18.0647 54.1379 18.3694 53.8506 18.6887C53.5634 18.9934 53.3215 19.2836 53.1098 19.5593C52.8982 19.8205 52.7923 20.0236 52.7772 20.1687V20.1542Z" fill="#969FB2"/>
</g>
<defs>
<clipPath id="clip0_9478_5781">
<rect width="63" height="24" fill="white" transform="translate(0.753418 0.129883)"/>
</clipPath>
</defs>
</svg>
